<?xml version="1.0" encoding="UTF-8"?>
<svg width="351px" height="83px" viewBox="0 0 351 83" version="1.1" xmlns="http://www.w3.org/2000/svg" xmlns:xlink="http://www.w3.org/1999/xlink">
    <!-- Generator: Sketch 58 (84663) - https://sketch.com -->
    <title>26cup-select</title>
    <desc>Created with Sketch.</desc>
    <g id="26cup-select" stroke="none" stroke-width="1" fill="none" fill-rule="evenodd">
        <g id="flush-copy-2" transform="translate(8.000000, 8.000000)" stroke="#2E2F30">
            <rect id="Rectangle" fill="#BFFFFD" x="0" y="0" width="335" height="66" rx="2"></rect>
            <g id="glasses" transform="translate(6.000000, 4.000000)">
                <g id="Glass">
                    <g id="glass">
                        <polygon id="Rectangle" fill="#2E2F30" points="0 2.16666667 20 2.16666667 16.2962963 26 3.7037037 26"></polygon>
                        <ellipse id="Oval" fill="#FFFFFF" cx="10" cy="1.68103448" rx="10" ry="1.68103448"></ellipse>
                    </g>
                </g>
                <g id="Glass" transform="translate(25.000000, 0.000000)">
                    <g id="glass">
                        <polygon id="Rectangle" fill="#2E2F30" points="0 2.16666667 20 2.16666667 16.2962963 26 3.7037037 26"></polygon>
                        <ellipse id="Oval" fill="#FFFFFF" cx="10" cy="1.68103448" rx="10" ry="1.68103448"></ellipse>
                    </g>
                </g>
            </g>
            <g id="glasses-copy-8" transform="translate(6.000000, 35.000000)">
                <g id="Glass">
                    <g id="glass">
                        <polygon id="Rectangle" fill="#2E2F30" points="0 2.16666667 20 2.16666667 16.2962963 26 3.7037037 26"></polygon>
                        <ellipse id="Oval" fill="#FFFFFF" cx="10" cy="1.68103448" rx="10" ry="1.68103448"></ellipse>
                    </g>
                </g>
                <g id="Glass" transform="translate(25.000000, 0.000000)">
                    <g id="glass">
                        <polygon id="Rectangle" fill="#2E2F30" points="0 2.16666667 20 2.16666667 16.2962963 26 3.7037037 26"></polygon>
                        <ellipse id="Oval" fill="#FFFFFF" cx="10" cy="1.68103448" rx="10" ry="1.68103448"></ellipse>
                    </g>
                </g>
            </g>
            <g id="glasses-copy-3" transform="translate(56.000000, 4.000000)">
                <g id="Glass">
                    <g id="glass">
                        <polygon id="Rectangle" fill="#2E2F30" points="0 2.16666667 20 2.16666667 16.2962963 26 3.7037037 26"></polygon>
                        <ellipse id="Oval" fill="#FFFFFF" cx="10" cy="1.68103448" rx="10" ry="1.68103448"></ellipse>
                    </g>
                </g>
                <g id="Glass" transform="translate(25.000000, 0.000000)">
                    <g id="glass">
                        <polygon id="Rectangle" fill="#2E2F30" points="0 2.16666667 20 2.16666667 16.2962963 26 3.7037037 26"></polygon>
                        <ellipse id="Oval" fill="#FFFFFF" cx="10" cy="1.68103448" rx="10" ry="1.68103448"></ellipse>
                    </g>
                </g>
            </g>
            <g id="glasses-copy-9" transform="translate(56.000000, 35.000000)">
                <g id="Glass">
                    <g id="glass">
                        <polygon id="Rectangle" fill="#2E2F30" points="0 2.16666667 20 2.16666667 16.2962963 26 3.7037037 26"></polygon>
                        <ellipse id="Oval" fill="#FFFFFF" cx="10" cy="1.68103448" rx="10" ry="1.68103448"></ellipse>
                    </g>
                </g>
                <g id="Glass" transform="translate(25.000000, 0.000000)">
                    <g id="glass">
                        <polygon id="Rectangle" fill="#2E2F30" points="0 2.16666667 20 2.16666667 16.2962963 26 3.7037037 26"></polygon>
                        <ellipse id="Oval" fill="#FFFFFF" cx="10" cy="1.68103448" rx="10" ry="1.68103448"></ellipse>
                    </g>
                </g>
            </g>
            <g id="glasses-copy-4" transform="translate(106.000000, 4.000000)">
                <g id="Glass">
                    <g id="glass">
                        <polygon id="Rectangle" fill="#2E2F30" points="0 2.16666667 20 2.16666667 16.2962963 26 3.7037037 26"></polygon>
                        <ellipse id="Oval" fill="#FFFFFF" cx="10" cy="1.68103448" rx="10" ry="1.68103448"></ellipse>
                    </g>
                </g>
                <g id="Glass" transform="translate(25.000000, 0.000000)">
                    <g id="glass">
                        <polygon id="Rectangle" fill="#2E2F30" points="0 2.16666667 20 2.16666667 16.2962963 26 3.7037037 26"></polygon>
                        <ellipse id="Oval" fill="#FFFFFF" cx="10" cy="1.68103448" rx="10" ry="1.68103448"></ellipse>
                    </g>
                </g>
            </g>
            <g id="glasses-copy-10" transform="translate(106.000000, 35.000000)">
                <g id="Glass">
                    <g id="glass">
                        <polygon id="Rectangle" fill="#2E2F30" points="0 2.16666667 20 2.16666667 16.2962963 26 3.7037037 26"></polygon>
                        <ellipse id="Oval" fill="#FFFFFF" cx="10" cy="1.68103448" rx="10" ry="1.68103448"></ellipse>
                    </g>
                </g>
                <g id="Glass" transform="translate(25.000000, 0.000000)">
                    <g id="glass">
                        <polygon id="Rectangle" fill="#2E2F30" points="0 2.16666667 20 2.16666667 16.2962963 26 3.7037037 26"></polygon>
                        <ellipse id="Oval" fill="#FFFFFF" cx="10" cy="1.68103448" rx="10" ry="1.68103448"></ellipse>
                    </g>
                </g>
            </g>
            <g id="glasses-copy-5" transform="translate(156.000000, 4.000000)">
                <g id="Glass">
                    <g id="glass">
                        <polygon id="Rectangle" fill="#2E2F30" points="0 2.16666667 20 2.16666667 16.2962963 26 3.7037037 26"></polygon>
                        <ellipse id="Oval" fill="#FFFFFF" cx="10" cy="1.68103448" rx="10" ry="1.68103448"></ellipse>
                    </g>
                </g>
                <g id="Glass" transform="translate(25.000000, 0.000000)">
                    <g id="glass">
                        <polygon id="Rectangle" fill="#2E2F30" points="0 2.16666667 20 2.16666667 16.2962963 26 3.7037037 26"></polygon>
                        <ellipse id="Oval" fill="#FFFFFF" cx="10" cy="1.68103448" rx="10" ry="1.68103448"></ellipse>
                    </g>
                </g>
            </g>
            <g id="glasses-copy-11" transform="translate(156.000000, 35.000000)">
                <g id="Glass">
                    <g id="glass">
                        <polygon id="Rectangle" fill="#2E2F30" points="0 2.16666667 20 2.16666667 16.2962963 26 3.7037037 26"></polygon>
                        <ellipse id="Oval" fill="#FFFFFF" cx="10" cy="1.68103448" rx="10" ry="1.68103448"></ellipse>
                    </g>
                </g>
                <g id="Glass" transform="translate(25.000000, 0.000000)">
                    <g id="glass">
                        <polygon id="Rectangle" fill="#2E2F30" points="0 2.16666667 20 2.16666667 16.2962963 26 3.7037037 26"></polygon>
                        <ellipse id="Oval" fill="#FFFFFF" cx="10" cy="1.68103448" rx="10" ry="1.68103448"></ellipse>
                    </g>
                </g>
            </g>
            <g id="glasses-copy-6" transform="translate(206.000000, 4.000000)">
                <g id="Glass">
                    <g id="glass">
                        <polygon id="Rectangle" fill="#2E2F30" points="0 2.16666667 20 2.16666667 16.2962963 26 3.7037037 26"></polygon>
                        <ellipse id="Oval" fill="#FFFFFF" cx="10" cy="1.68103448" rx="10" ry="1.68103448"></ellipse>
                    </g>
                </g>
                <g id="Glass" transform="translate(25.000000, 0.000000)">
                    <g id="glass">
                        <polygon id="Rectangle" fill="#2E2F30" points="0 2.16666667 20 2.16666667 16.2962963 26 3.7037037 26"></polygon>
                        <ellipse id="Oval" fill="#FFFFFF" cx="10" cy="1.68103448" rx="10" ry="1.68103448"></ellipse>
                    </g>
                </g>
            </g>
            <g id="glasses-copy-12" transform="translate(206.000000, 35.000000)">
                <g id="Glass">
                    <g id="glass">
                        <polygon id="Rectangle" fill="#2E2F30" points="0 2.16666667 20 2.16666667 16.2962963 26 3.7037037 26"></polygon>
                        <ellipse id="Oval" fill="#FFFFFF" cx="10" cy="1.68103448" rx="10" ry="1.68103448"></ellipse>
                    </g>
                </g>
                <g id="Glass" transform="translate(25.000000, 0.000000)">
                    <g id="glass">
                        <polygon id="Rectangle" fill="#2E2F30" points="0 2.16666667 20 2.16666667 16.2962963 26 3.7037037 26"></polygon>
                        <ellipse id="Oval" fill="#FFFFFF" cx="10" cy="1.68103448" rx="10" ry="1.68103448"></ellipse>
                    </g>
                </g>
            </g>
            <g id="glasses-copy-7" transform="translate(256.000000, 4.000000)">
                <g id="Glass">
                    <g id="glass">
                        <polygon id="Rectangle" fill="#2E2F30" points="0 2.16666667 20 2.16666667 16.2962963 26 3.7037037 26"></polygon>
                        <ellipse id="Oval" fill="#FFFFFF" cx="10" cy="1.68103448" rx="10" ry="1.68103448"></ellipse>
                    </g>
                </g>
                <g id="Glass" transform="translate(25.000000, 0.000000)">
                    <g id="glass">
                        <polygon id="Rectangle" fill="#2E2F30" points="0 2.16666667 20 2.16666667 16.2962963 26 3.7037037 26"></polygon>
                        <ellipse id="Oval" fill="#FFFFFF" cx="10" cy="1.68103448" rx="10" ry="1.68103448"></ellipse>
                    </g>
                </g>
                <g id="Glass" transform="translate(50.000000, 0.000000)">
                    <g id="glass">
                        <polygon id="Rectangle" fill="#2E2F30" points="0 2.16666667 20 2.16666667 16.2962963 26 3.7037037 26"></polygon>
                        <ellipse id="Oval" fill="#FFFFFF" cx="10" cy="1.68103448" rx="10" ry="1.68103448"></ellipse>
                    </g>
                </g>
            </g>
            <g id="glasses-copy-13" transform="translate(256.000000, 35.000000)">
                <g id="Glass">
                    <g id="glass">
                        <polygon id="Rectangle" fill="#2E2F30" points="0 2.16666667 20 2.16666667 16.2962963 26 3.7037037 26"></polygon>
                        <ellipse id="Oval" fill="#FFFFFF" cx="10" cy="1.68103448" rx="10" ry="1.68103448"></ellipse>
                    </g>
                </g>
                <g id="Glass" transform="translate(25.000000, 0.000000)">
                    <g id="glass">
                        <polygon id="Rectangle" fill="#2E2F30" points="0 2.16666667 20 2.16666667 16.2962963 26 3.7037037 26"></polygon>
                        <ellipse id="Oval" fill="#FFFFFF" cx="10" cy="1.68103448" rx="10" ry="1.68103448"></ellipse>
                    </g>
                </g>
                <g id="Glass" transform="translate(50.000000, 0.000000)">
                    <g id="glass">
                        <polygon id="Rectangle" fill="#2E2F30" points="0 2.16666667 20 2.16666667 16.2962963 26 3.7037037 26"></polygon>
                        <ellipse id="Oval" fill="#FFFFFF" cx="10" cy="1.68103448" rx="10" ry="1.68103448"></ellipse>
                    </g>
                </g>
            </g>
        </g>
    </g>
</svg>