<?xml version="1.0" encoding="UTF-8"?>
<svg width="223px" height="144px" viewBox="0 0 223 144" version="1.1" xmlns="http://www.w3.org/2000/svg" xmlns:xlink="http://www.w3.org/1999/xlink">
    <!-- Generator: Sketch 58 (84663) - https://sketch.com -->
    <title>32cup</title>
    <desc>Created with Sketch.</desc>
    <g id="32cup" stroke="none" stroke-width="1" fill="none" fill-rule="evenodd">
        <g id="flush-copy-2" transform="translate(8.000000, 8.000000)" stroke="#2E2F30">
            <rect id="Rectangle" x="0" y="0" width="207" height="127" rx="2"></rect>
            <g id="cups" transform="translate(6.000000, 4.000000)">
                <g id="glasses">
                    <g id="Glass">
                        <g id="glass">
                            <polygon id="Rectangle" fill="#2E2F30" points="0 2.16666667 20 2.16666667 16.2962963 26 3.7037037 26"></polygon>
                            <ellipse id="Oval" fill="#FFFFFF" cx="10" cy="1.68103448" rx="10" ry="1.68103448"></ellipse>
                        </g>
                    </g>
                    <g id="Glass" transform="translate(25.000000, 0.000000)">
                        <g id="glass">
                            <polygon id="Rectangle" fill="#2E2F30" points="0 2.16666667 20 2.16666667 16.2962963 26 3.7037037 26"></polygon>
                            <ellipse id="Oval" fill="#FFFFFF" cx="10" cy="1.68103448" rx="10" ry="1.68103448"></ellipse>
                        </g>
                    </g>
                </g>
                <g id="glasses-copy-8" transform="translate(0.000000, 31.000000)">
                    <g id="Glass">
                        <g id="glass">
                            <polygon id="Rectangle" fill="#2E2F30" points="0 2.16666667 20 2.16666667 16.2962963 26 3.7037037 26"></polygon>
                            <ellipse id="Oval" fill="#FFFFFF" cx="10" cy="1.68103448" rx="10" ry="1.68103448"></ellipse>
                        </g>
                    </g>
                    <g id="Glass" transform="translate(25.000000, 0.000000)">
                        <g id="glass">
                            <polygon id="Rectangle" fill="#2E2F30" points="0 2.16666667 20 2.16666667 16.2962963 26 3.7037037 26"></polygon>
                            <ellipse id="Oval" fill="#FFFFFF" cx="10" cy="1.68103448" rx="10" ry="1.68103448"></ellipse>
                        </g>
                    </g>
                </g>
                <g id="glasses-copy-12" transform="translate(0.000000, 62.000000)">
                    <g id="Glass">
                        <g id="glass">
                            <polygon id="Rectangle" fill="#2E2F30" points="0 2.16666667 20 2.16666667 16.2962963 26 3.7037037 26"></polygon>
                            <ellipse id="Oval" fill="#FFFFFF" cx="10" cy="1.68103448" rx="10" ry="1.68103448"></ellipse>
                        </g>
                    </g>
                    <g id="Glass" transform="translate(25.000000, 0.000000)">
                        <g id="glass">
                            <polygon id="Rectangle" fill="#2E2F30" points="0 2.16666667 20 2.16666667 16.2962963 26 3.7037037 26"></polygon>
                            <ellipse id="Oval" fill="#FFFFFF" cx="10" cy="1.68103448" rx="10" ry="1.68103448"></ellipse>
                        </g>
                    </g>
                </g>
                <g id="glasses-copy-16" transform="translate(0.000000, 93.000000)">
                    <g id="Glass">
                        <g id="glass">
                            <polygon id="Rectangle" fill="#2E2F30" points="0 2.16666667 20 2.16666667 16.2962963 26 3.7037037 26"></polygon>
                            <ellipse id="Oval" fill="#FFFFFF" cx="10" cy="1.68103448" rx="10" ry="1.68103448"></ellipse>
                        </g>
                    </g>
                    <g id="Glass" transform="translate(25.000000, 0.000000)">
                        <g id="glass">
                            <polygon id="Rectangle" fill="#2E2F30" points="0 2.16666667 20 2.16666667 16.2962963 26 3.7037037 26"></polygon>
                            <ellipse id="Oval" fill="#FFFFFF" cx="10" cy="1.68103448" rx="10" ry="1.68103448"></ellipse>
                        </g>
                    </g>
                </g>
                <g id="glasses-copy-3" transform="translate(50.000000, 0.000000)">
                    <g id="Glass">
                        <g id="glass">
                            <polygon id="Rectangle" fill="#2E2F30" points="0 2.16666667 20 2.16666667 16.2962963 26 3.7037037 26"></polygon>
                            <ellipse id="Oval" fill="#FFFFFF" cx="10" cy="1.68103448" rx="10" ry="1.68103448"></ellipse>
                        </g>
                    </g>
                    <g id="Glass" transform="translate(25.000000, 0.000000)">
                        <g id="glass">
                            <polygon id="Rectangle" fill="#2E2F30" points="0 2.16666667 20 2.16666667 16.2962963 26 3.7037037 26"></polygon>
                            <ellipse id="Oval" fill="#FFFFFF" cx="10" cy="1.68103448" rx="10" ry="1.68103448"></ellipse>
                        </g>
                    </g>
                </g>
                <g id="glasses-copy-9" transform="translate(50.000000, 31.000000)">
                    <g id="Glass">
                        <g id="glass">
                            <polygon id="Rectangle" fill="#2E2F30" points="0 2.16666667 20 2.16666667 16.2962963 26 3.7037037 26"></polygon>
                            <ellipse id="Oval" fill="#FFFFFF" cx="10" cy="1.68103448" rx="10" ry="1.68103448"></ellipse>
                        </g>
                    </g>
                    <g id="Glass" transform="translate(25.000000, 0.000000)">
                        <g id="glass">
                            <polygon id="Rectangle" fill="#2E2F30" points="0 2.16666667 20 2.16666667 16.2962963 26 3.7037037 26"></polygon>
                            <ellipse id="Oval" fill="#FFFFFF" cx="10" cy="1.68103448" rx="10" ry="1.68103448"></ellipse>
                        </g>
                    </g>
                </g>
                <g id="glasses-copy-13" transform="translate(50.000000, 62.000000)">
                    <g id="Glass">
                        <g id="glass">
                            <polygon id="Rectangle" fill="#2E2F30" points="0 2.16666667 20 2.16666667 16.2962963 26 3.7037037 26"></polygon>
                            <ellipse id="Oval" fill="#FFFFFF" cx="10" cy="1.68103448" rx="10" ry="1.68103448"></ellipse>
                        </g>
                    </g>
                    <g id="Glass" transform="translate(25.000000, 0.000000)">
                        <g id="glass">
                            <polygon id="Rectangle" fill="#2E2F30" points="0 2.16666667 20 2.16666667 16.2962963 26 3.7037037 26"></polygon>
                            <ellipse id="Oval" fill="#FFFFFF" cx="10" cy="1.68103448" rx="10" ry="1.68103448"></ellipse>
                        </g>
                    </g>
                </g>
                <g id="glasses-copy-17" transform="translate(50.000000, 93.000000)">
                    <g id="Glass">
                        <g id="glass">
                            <polygon id="Rectangle" fill="#2E2F30" points="0 2.16666667 20 2.16666667 16.2962963 26 3.7037037 26"></polygon>
                            <ellipse id="Oval" fill="#FFFFFF" cx="10" cy="1.68103448" rx="10" ry="1.68103448"></ellipse>
                        </g>
                    </g>
                    <g id="Glass" transform="translate(25.000000, 0.000000)">
                        <g id="glass">
                            <polygon id="Rectangle" fill="#2E2F30" points="0 2.16666667 20 2.16666667 16.2962963 26 3.7037037 26"></polygon>
                            <ellipse id="Oval" fill="#FFFFFF" cx="10" cy="1.68103448" rx="10" ry="1.68103448"></ellipse>
                        </g>
                    </g>
                </g>
                <g id="glasses-copy-4" transform="translate(100.000000, 0.000000)">
                    <g id="Glass">
                        <g id="glass">
                            <polygon id="Rectangle" fill="#2E2F30" points="0 2.16666667 20 2.16666667 16.2962963 26 3.7037037 26"></polygon>
                            <ellipse id="Oval" fill="#FFFFFF" cx="10" cy="1.68103448" rx="10" ry="1.68103448"></ellipse>
                        </g>
                    </g>
                    <g id="Glass" transform="translate(25.000000, 0.000000)">
                        <g id="glass">
                            <polygon id="Rectangle" fill="#2E2F30" points="0 2.16666667 20 2.16666667 16.2962963 26 3.7037037 26"></polygon>
                            <ellipse id="Oval" fill="#FFFFFF" cx="10" cy="1.68103448" rx="10" ry="1.68103448"></ellipse>
                        </g>
                    </g>
                </g>
                <g id="glasses-copy-10" transform="translate(100.000000, 31.000000)">
                    <g id="Glass">
                        <g id="glass">
                            <polygon id="Rectangle" fill="#2E2F30" points="0 2.16666667 20 2.16666667 16.2962963 26 3.7037037 26"></polygon>
                            <ellipse id="Oval" fill="#FFFFFF" cx="10" cy="1.68103448" rx="10" ry="1.68103448"></ellipse>
                        </g>
                    </g>
                    <g id="Glass" transform="translate(25.000000, 0.000000)">
                        <g id="glass">
                            <polygon id="Rectangle" fill="#2E2F30" points="0 2.16666667 20 2.16666667 16.2962963 26 3.7037037 26"></polygon>
                            <ellipse id="Oval" fill="#FFFFFF" cx="10" cy="1.68103448" rx="10" ry="1.68103448"></ellipse>
                        </g>
                    </g>
                </g>
                <g id="glasses-copy-14" transform="translate(100.000000, 62.000000)">
                    <g id="Glass">
                        <g id="glass">
                            <polygon id="Rectangle" fill="#2E2F30" points="0 2.16666667 20 2.16666667 16.2962963 26 3.7037037 26"></polygon>
                            <ellipse id="Oval" fill="#FFFFFF" cx="10" cy="1.68103448" rx="10" ry="1.68103448"></ellipse>
                        </g>
                    </g>
                    <g id="Glass" transform="translate(25.000000, 0.000000)">
                        <g id="glass">
                            <polygon id="Rectangle" fill="#2E2F30" points="0 2.16666667 20 2.16666667 16.2962963 26 3.7037037 26"></polygon>
                            <ellipse id="Oval" fill="#FFFFFF" cx="10" cy="1.68103448" rx="10" ry="1.68103448"></ellipse>
                        </g>
                    </g>
                </g>
                <g id="glasses-copy-18" transform="translate(100.000000, 93.000000)">
                    <g id="Glass">
                        <g id="glass">
                            <polygon id="Rectangle" fill="#2E2F30" points="0 2.16666667 20 2.16666667 16.2962963 26 3.7037037 26"></polygon>
                            <ellipse id="Oval" fill="#FFFFFF" cx="10" cy="1.68103448" rx="10" ry="1.68103448"></ellipse>
                        </g>
                    </g>
                    <g id="Glass" transform="translate(25.000000, 0.000000)">
                        <g id="glass">
                            <polygon id="Rectangle" fill="#2E2F30" points="0 2.16666667 20 2.16666667 16.2962963 26 3.7037037 26"></polygon>
                            <ellipse id="Oval" fill="#FFFFFF" cx="10" cy="1.68103448" rx="10" ry="1.68103448"></ellipse>
                        </g>
                    </g>
                </g>
                <g id="glasses-copy-5" transform="translate(150.000000, 0.000000)">
                    <g id="Glass">
                        <g id="glass">
                            <polygon id="Rectangle" fill="#2E2F30" points="0 2.16666667 20 2.16666667 16.2962963 26 3.7037037 26"></polygon>
                            <ellipse id="Oval" fill="#FFFFFF" cx="10" cy="1.68103448" rx="10" ry="1.68103448"></ellipse>
                        </g>
                    </g>
                    <g id="Glass" transform="translate(25.000000, 0.000000)">
                        <g id="glass">
                            <polygon id="Rectangle" fill="#2E2F30" points="0 2.16666667 20 2.16666667 16.2962963 26 3.7037037 26"></polygon>
                            <ellipse id="Oval" fill="#FFFFFF" cx="10" cy="1.68103448" rx="10" ry="1.68103448"></ellipse>
                        </g>
                    </g>
                </g>
                <g id="glasses-copy-11" transform="translate(150.000000, 31.000000)">
                    <g id="Glass">
                        <g id="glass">
                            <polygon id="Rectangle" fill="#2E2F30" points="0 2.16666667 20 2.16666667 16.2962963 26 3.7037037 26"></polygon>
                            <ellipse id="Oval" fill="#FFFFFF" cx="10" cy="1.68103448" rx="10" ry="1.68103448"></ellipse>
                        </g>
                    </g>
                    <g id="Glass" transform="translate(25.000000, 0.000000)">
                        <g id="glass">
                            <polygon id="Rectangle" fill="#2E2F30" points="0 2.16666667 20 2.16666667 16.2962963 26 3.7037037 26"></polygon>
                            <ellipse id="Oval" fill="#FFFFFF" cx="10" cy="1.68103448" rx="10" ry="1.68103448"></ellipse>
                        </g>
                    </g>
                </g>
                <g id="glasses-copy-15" transform="translate(150.000000, 62.000000)">
                    <g id="Glass">
                        <g id="glass">
                            <polygon id="Rectangle" fill="#2E2F30" points="0 2.16666667 20 2.16666667 16.2962963 26 3.7037037 26"></polygon>
                            <ellipse id="Oval" fill="#FFFFFF" cx="10" cy="1.68103448" rx="10" ry="1.68103448"></ellipse>
                        </g>
                    </g>
                    <g id="Glass" transform="translate(25.000000, 0.000000)">
                        <g id="glass">
                            <polygon id="Rectangle" fill="#2E2F30" points="0 2.16666667 20 2.16666667 16.2962963 26 3.7037037 26"></polygon>
                            <ellipse id="Oval" fill="#FFFFFF" cx="10" cy="1.68103448" rx="10" ry="1.68103448"></ellipse>
                        </g>
                    </g>
                </g>
                <g id="glasses-copy-19" transform="translate(150.000000, 93.000000)">
                    <g id="Glass">
                        <g id="glass">
                            <polygon id="Rectangle" fill="#2E2F30" points="0 2.16666667 20 2.16666667 16.2962963 26 3.7037037 26"></polygon>
                            <ellipse id="Oval" fill="#FFFFFF" cx="10" cy="1.68103448" rx="10" ry="1.68103448"></ellipse>
                        </g>
                    </g>
                    <g id="Glass" transform="translate(25.000000, 0.000000)">
                        <g id="glass">
                            <polygon id="Rectangle" fill="#2E2F30" points="0 2.16666667 20 2.16666667 16.2962963 26 3.7037037 26"></polygon>
                            <ellipse id="Oval" fill="#FFFFFF" cx="10" cy="1.68103448" rx="10" ry="1.68103448"></ellipse>
                        </g>
                    </g>
                </g>
            </g>
        </g>
    </g>
</svg>