<?xml version="1.0" encoding="UTF-8"?>
<svg width="173px" height="50px" viewBox="0 0 173 50" version="1.1" xmlns="http://www.w3.org/2000/svg" xmlns:xlink="http://www.w3.org/1999/xlink">
    <!-- Generator: Sketch 58 (84663) - https://sketch.com -->
    <title>6cup</title>
    <desc>Created with Sketch.</desc>
    <g id="6cup" stroke="none" stroke-width="1" fill="none" fill-rule="evenodd">
        <g id="rinse" transform="translate(7.000000, 8.000000)" stroke="#2E2F30">
            <rect id="Rectangle" x="0" y="0" width="158" height="34" rx="2"></rect>
            <g id="glasses" transform="translate(6.000000, 4.000000)">
                <g id="Glass">
                    <g id="glass">
                        <polygon id="Rectangle" fill="#2E2F30" points="0 2.16666667 20 2.16666667 16.2962963 26 3.7037037 26"></polygon>
                        <ellipse id="Oval" fill="#FFFFFF" cx="10" cy="1.68103448" rx="10" ry="1.68103448"></ellipse>
                    </g>
                </g>
                <g id="Glass" transform="translate(25.000000, 0.000000)">
                    <g id="glass">
                        <polygon id="Rectangle" fill="#2E2F30" points="0 2.16666667 20 2.16666667 16.2962963 26 3.7037037 26"></polygon>
                        <ellipse id="Oval" fill="#FFFFFF" cx="10" cy="1.68103448" rx="10" ry="1.68103448"></ellipse>
                    </g>
                </g>
            </g>
            <g id="glasses-copy" transform="translate(56.000000, 4.000000)">
                <g id="Glass">
                    <g id="glass">
                        <polygon id="Rectangle" fill="#2E2F30" points="0 2.16666667 20 2.16666667 16.2962963 26 3.7037037 26"></polygon>
                        <ellipse id="Oval" fill="#FFFFFF" cx="10" cy="1.68103448" rx="10" ry="1.68103448"></ellipse>
                    </g>
                </g>
                <g id="Glass" transform="translate(25.000000, 0.000000)">
                    <g id="glass">
                        <polygon id="Rectangle" fill="#2E2F30" points="0 2.16666667 20 2.16666667 16.2962963 26 3.7037037 26"></polygon>
                        <ellipse id="Oval" fill="#FFFFFF" cx="10" cy="1.68103448" rx="10" ry="1.68103448"></ellipse>
                    </g>
                </g>
            </g>
            <g id="glasses-copy-2" transform="translate(106.000000, 4.000000)">
                <g id="Glass">
                    <g id="glass">
                        <polygon id="Rectangle" fill="#2E2F30" points="0 2.16666667 20 2.16666667 16.2962963 26 3.7037037 26"></polygon>
                        <ellipse id="Oval" fill="#FFFFFF" cx="10" cy="1.68103448" rx="10" ry="1.68103448"></ellipse>
                    </g>
                </g>
                <g id="Glass" transform="translate(25.000000, 0.000000)">
                    <g id="glass">
                        <polygon id="Rectangle" fill="#2E2F30" points="0 2.16666667 20 2.16666667 16.2962963 26 3.7037037 26"></polygon>
                        <ellipse id="Oval" fill="#FFFFFF" cx="10" cy="1.68103448" rx="10" ry="1.68103448"></ellipse>
                    </g>
                </g>
            </g>
        </g>
    </g>
</svg>