<?xml version="1.0" encoding="utf-8"?>
<!-- Generator: Adobe Illustrator 22.1.0, SVG Export Plug-In . SVG Version: 6.00 Build 0)  -->
<svg version="1.1" id="Credit_Required:_EBMUD" xmlns="http://www.w3.org/2000/svg" xmlns:xlink="http://www.w3.org/1999/xlink"
	 x="0px" y="0px" viewBox="0 0 360 360" style="enable-background:new 0 0 360 360;" xml:space="preserve">
<style type="text/css">
	.st0{fill:#007AB9;}
	.st1{opacity:0.75;fill:#59BCE5;enable-background:new    ;}
	.st2{fill:#E5E5DA;}
</style>
<g id="FILL">
	<path class="st0" d="M272,70.2c0,0,4.2,13.3,3.4,47.8c-0.7,34.5-3.4,120.6-3.4,120.6s0.7,12.5,0.7,16.9s0.6,30.9-5.3,42.3
		c-5.9,11.4-30,35.3-84,35.3S107.4,306,107.4,306s-11.9-13.8-11.9-52v-23.9V224c0,0-0.8-2.7-1.1-4.4s-0.3-4.2,0-5.1
		c0.3-0.9,0.3-2.7,0.3-2.7l-0.9-68.1c0,0-1.1-5.6-1.1-6.9s0.1-3.5,0.3-3.8s0.3-0.3,0.3-0.3s-0.1-38.7,0.3-44c0.5-5.3,3.3-21,3.3-21
		s-2.3-1.8-3.3-3.3c-1-1.5-2.7-5.6-1.9-8.4c0.7-2.8,5.1-10.1,14.2-13.5s27.7-9,41.6-9.9c14-0.9,56.7-1.2,56.7-1.2s31.9,2.6,43.8,6.4
		c11.9,3.8,20.4,6.6,24.7,12.8c4.3,6.3,3.8,8.8,3.8,8.8l-0.3,3.8l-4.9,5.9L272,70.2z"/>
	<ellipse class="st1" cx="184.5" cy="59.4" rx="82.5" ry="23.5"/>
	<path class="st2" d="M232.9,70.5c1.2-0.1,4.8-1.1,4.6-3c-0.1-1.3-2.4-2.8-3.5-3.4c-4.6-2.5-11-1.9-16-1.4c-4.2,0.4-6.3,3.4-1.6,5.5
		C221.5,70.6,227.5,71.1,232.9,70.5z"/>
	<path class="st2" d="M147,43.5c5.9-0.3,10.5-1.6,10.5-3c-0.1-1.3-4.5-2.2-10.1-2c-0.6,0-1.1,0-1.8,0c-0.3,0-0.7,0.1-1,0.2
		c-0.2,0-0.4,0-0.5,0.1c-0.8,0-1.6-0.1-2.4,0c-0.1,0-0.1,0-0.1,0c-0.1,0-0.3,0-0.4,0.1c-0.5,0.1-0.9,0.2-1.3,0.3
		c-0.7,0.3-1.4,0.3-2,0.6c-0.8,0.3-2.4,1.2-1.7,2.2c0.3,0.5,1,0.7,1.6,0.8c0.3,0,0.5,0.1,0.8,0.1C140.4,43.5,143.5,43.7,147,43.5z"
		/>
	<path class="st2" d="M111.7,307.1C111.7,307.1,111.7,307.1,111.7,307.1C111.7,307.1,111.7,307.1,111.7,307.1z"/>
	<path class="st0" d="M223.4,77.2c-4.7,0.1-9.4,0.4-14.1,0.8c-5,0.4-10-0.1-15-0.3c-2.3-0.1-4.5-0.4-6.8-0.3c-2.2,0-4.4,0.1-6.6,0.1
		c-4.7,0-9.3-0.5-14-0.7c-4.8-0.2-9.8-0.2-14.5-1c0,0-0.1,0,0,0c1.8,0.7,3.8,1.1,5.7,1.3c2.1,0.3,4.2,0.6,6.3,0.8
		c4.5,0.5,8.9,1.6,13.4,1.8c2.3,0.1,4.5-0.1,6.8-0.1c2.5,0,5,0.1,7.5,0.2c2.5,0.1,5-0.3,7.5-0.2c2.5,0.1,5.1-0.2,7.5-0.4
		c2.6-0.2,5.1-0.7,7.7-0.9c2.9-0.2,5.7-0.2,8.6-0.5C223.7,77.8,223.9,77.2,223.4,77.2z"/>
	<path class="st0" d="M245.6,46.4c-4.3-1.7-8.5-3.3-12.9-4.6c-4.2-1.3-8.6-2.5-13-3c-2.1-0.2-4.1-0.7-6.2-0.9
		c-1.9-0.2-3.9-0.5-5.8-0.7c-4.2-0.4-8.4-0.5-12.7-0.5c-5.7,0-11.3,0.4-17,0.6c0,0,0,0,0,0c4.9,0.1,9.9,0.2,14.8,0.3
		c4.2,0.1,8.5,0,12.7,0.5c2.1,0.2,4.2,0.6,6.3,0.9c1.7,0.2,3.3,0.4,5,0.7c2.3,0.4,4.7,0.7,7,1.1c2.2,0.4,4.3,0.9,6.4,1.5
		c5.1,1.3,10.2,2.4,15.1,4.2C245.6,46.8,245.8,46.5,245.6,46.4z"/>
	<path class="st0" d="M230.2,61.4c-3.1-0.3-6-0.4-9.1-0.3c-2.9,0.2-6.1,0-8.8,0.8c-2.6,0.7-5.7,1.7-7.5,3.8
		c-0.6,0.7-0.9,1.3-0.8,2.3c0.1,1,0.4,1.4,1.2,1.9c0,0,0.1,0,0.1-0.1c-3.5-5,7.5-7.1,10.4-7.4c4.8-0.5,9.6-0.8,14.5-1
		C230.2,61.6,230.2,61.4,230.2,61.4z"/>
	<path class="st0" d="M238.9,74.5c-1,0.2-2,0.7-3,0.9c-1.3,0.3-2.7,0.3-4,0.5c-2.4,0.3-4.9,0.1-7.2-0.3c-2.7-0.5-5.4-1.2-8-1.9
		c-1.4-0.3-2.8-0.7-4.2-1c-0.6-0.1-1.1-0.4-1.6-0.5c-0.7-0.2-1.4-0.2-2.1-0.6c-0.1,0-0.1,0.1-0.1,0.1c1.9,1.9,4.3,2.6,6.8,3.3
		c2.8,0.9,5.7,1.7,8.7,2.1c1,0.1,2.1,0.1,3.2,0c1.4-0.1,2.8,0,4.1-0.3c1.3-0.2,2.6-0.4,3.8-0.8c1.3-0.3,2.4-1,3.7-1.3
		C238.9,74.6,238.9,74.5,238.9,74.5z"/>
	<path class="st0" d="M245.4,67.6c-0.9-1.2-1.8-2-3.1-2.4c-1.3-0.4-2.7-1.4-4.2-1.5c-0.1,0-0.2,0.1-0.1,0.2c0.7,0.5,1.3,1.1,2.1,1.6
		c0.8,0.5,1.8,0.8,2.6,1.3c0.9,0.6,1.8,1.6,2.2,2.6c0.5,1.3-0.5,2.9-1.5,3.7c0,0,0,0.1,0.1,0.1c1-0.7,2-0.8,2.6-2
		C246.6,69.8,246.2,68.7,245.4,67.6z"/>
	<path class="st0" d="M240.4,67.8c-0.1,0-0.2,0.1-0.1,0.1c3.3,4.6-5.9,6.1-8.8,7c0,0,0,0.1,0,0c1.4-0.3,2.8,0.1,4.3-0.3
		c1.5-0.3,3.4-0.7,4.6-1.6C242.2,71.7,242.8,68.8,240.4,67.8z"/>
	<path class="st0" d="M232.9,72.1c-0.7,0.3-2.2,0.3-3,0.3c-0.9,0-2,0.1-2.9,0.1c-2-0.2-3.9-0.8-5.8-1.2c-1.7-0.4-3.3-0.7-5-1.1
		c-1-0.3-1.8-0.7-2.6-1.3c-0.3-0.2-0.7-0.6-1-0.8c-0.5-0.3-1-0.3-1.6-0.6c-0.1,0-0.1,0-0.1,0.1c0.8,1.7,2.6,3,4.3,3.6
		c2,0.7,4,1.1,6.1,1.4c2,0.3,4.1,0.7,6.1,0.7c1.1,0,2.2-0.1,3.2-0.3c0.8-0.1,1.6-0.2,2.3-0.6C233,72.1,233,72,232.9,72.1z"/>
	<path class="st0" d="M209,67.5c0.6-0.4,1.4-0.5,2-1c0.1-0.1,0.1-0.3,0-0.4c0,0-0.1-0.1-0.1-0.1c-0.1-0.1-0.2-0.1-0.3-0.1
		c-0.5,0.1-1.1,0.4-1.6,0.7c-0.3,0.2-0.9,0.5-1.1,0.9c-0.2,0.4-0.1,0.8,0.2,1.1c0.3,0.4,0.7,0.8,1.1,1.1c0,0,0.1,0,0,0
		c-0.3-0.3-0.2-0.8-0.4-1.2c-0.1-0.2-0.2-0.3-0.1-0.6C208.6,67.7,208.7,67.7,209,67.5z"/>
	<path class="st0" d="M219.6,62.1c-2.4-0.1-5.3,0.9-7.2,2.4c0,0,0,0.1,0,0.1c1.2-0.7,2.7-0.9,4-1.3c1-0.3,2.1-0.5,3.1-0.8
		C219.6,62.4,219.7,62.1,219.6,62.1z"/>
	<path class="st0" d="M162.3,43.4c-0.8,0.1-1.5,1-2.2,1.3c-1.3,0.7-2.5,1-3.9,1.3c-2.7,0.4-5.3,0.8-8,0.8c-2.8,0-5.5-0.1-8.3-0.4
		c-1.5-0.1-3-0.3-4.4-0.6c-1.3-0.3-3.2-0.3-3.3-1.9h0c-0.1,1,0.1,1.4,1,1.9c1.1,0.6,2.1,1.1,3.4,1.4c3.4,0.6,6.6,0.9,10.1,0.9
		c3,0,5.8-0.1,8.7-0.7c1.3-0.3,2.6-0.7,3.8-1.3c1.2-0.6,2.1-1.5,3.2-2.3C162.5,43.6,162.6,43.3,162.3,43.4z"/>
	<path class="st0" d="M166.3,41.9c-0.6-1.1-2.2-1.5-3.3-1.7c-1.5-0.2-3,0-4.5-0.3c-0.1,0-0.3,0.2-0.1,0.3c1.5,0.5,3,0.7,4.6,1.1
		c1.1,0.3,2.7,0.9,1.9,2.2c-0.2,0.4-1.5,1.7-1.9,1.8c-0.1,0-0.1,0.1,0,0.1c0.9,0,1.9-0.7,2.5-1.2C166.3,43.8,166.8,42.9,166.3,41.9z
		"/>
	<path class="st0" d="M157.4,42.8c-1.5,1-3.9,1.3-5.6,1.1c-1.5-0.2-3.1,0-4.6,0.1c-1.8,0.1-3.6,0.2-5.4,0.1
		c-1.8-0.1-4.1,0.1-5.8-0.7c0,0-0.1,0,0,0c3.1,2.5,7.6,2.3,11.3,2.2c3.4-0.1,7.6-0.3,10.3-2.6C157.6,42.9,157.5,42.7,157.4,42.8z"/>
	<path class="st0" d="M133.1,43c-1.4-0.2-2.8,0.4-4.2,0.7c-1.4,0.3-2.8,0.8-4.1,1.3c-1.4,0.5-2.8,1-4.2,1.5c-1.4,0.5-3,0.8-4.4,1.5
		c-1.1,0.5-2.3,0.9-3.4,1.5c-0.9,0.5-1.9,1-2.7,1.6c-0.4,0.4-0.7,0.8-1.1,1.2c-0.4,0.5-1,0.9-1.4,1.4c-0.6,0.8-1,1.9-1.1,2.8
		c0,0,0,0,0,0c0.8-2.5,3.3-4.9,5.6-5.9c1.8-0.8,3.5-1.7,5.4-2.3c2.5-0.7,5-1.5,7.5-2.3c1.3-0.4,2.7-0.8,4-1.2
		c0.5-0.1,1.2-0.2,1.7-0.5c0.8-0.4,1.5-0.9,2.4-1.1C133.1,43.3,133.2,43,133.1,43z"/>
	<path class="st0" d="M137.7,70.7c-2.4-0.5-5-1.3-7.4-2.1c-2.1-0.7-4.3-1.4-6.4-2.1c-2.3-0.8-4.6-1.8-6.8-2.8
		c-0.5-0.2-1.1-0.3-1.6-0.6c-0.4-0.3-0.8-0.7-1.2-1c-1.1-0.8-2.8-1.8-2.8-3.2c0,0-0.1,0-0.1,0c-0.1,1,0.5,1.5,1.1,2.2
		c0.7,0.9,1.5,2.1,2.4,2.9c0.4,0.4,1,0.5,1.5,0.8c0.5,0.3,0.9,0.6,1.4,0.9c1.4,0.7,2.8,1.5,4.3,2.1c2.5,1,5.1,1.3,7.7,1.9
		c2.5,0.6,5.4,1.3,7.9,1.2C137.8,71,137.9,70.8,137.7,70.7z"/>
	<path class="st0" d="M256.6,52.1C256.5,52.1,256.5,52.2,256.6,52.1c0.7,0.6,1.4,1,2.1,1.5c0.7,0.5,1.1,1.1,1.7,1.7
		c1.4,1.5,2.8,2.4,2.6,4.7c-0.1,1.9-1.6,3.1-3.1,4.1c-1.3,0.9-2.6,2.2-4.1,2.6c-0.1,0-0.1,0.2,0,0.1c1.7-0.3,3.5-1.5,4.9-2.4
		c1.4-0.9,3-2.3,3.3-4C264.8,56,259.7,54,256.6,52.1z"/>
	<path class="st0" d="M258.4,67c-2.6,1.3-5.1,2.6-8,3.2c0,0,0,0,0,0c2.8-0.5,5.7-1.5,8-3.1C258.6,67.1,258.6,66.9,258.4,67z"/>
	<path class="st0" d="M257.3,64.8c-1.6,1.1-3.7,1.8-5.6,2.1c-1.2,0.3-2.5,0.6-3.7,0.8c-0.9,0.2-1.9,0.3-2.8,0.6
		c-0.6,0.2-0.6,1.3,0.2,1c2.3-0.8,4.8-0.8,7.1-1.9C254,66.8,255.9,65.9,257.3,64.8C257.3,64.8,257.3,64.8,257.3,64.8z"/>
	<path class="st0" d="M175.1,38c-1.5,0-3-0.2-4.5-0.1c-1.7,0.1-3.4,0.4-5.2,0.6c0,0,0,0,0,0C168.7,38.8,171.9,38.5,175.1,38
		C175.1,38.1,175.2,38,175.1,38z"/>
</g>
<g id="LINE">
	<g>
		<path d="M274,137.4c-0.1,0.4-0.1,0.8-0.3,1.2c-0.1,0.2-0.1,0.4-0.2,0.6c-0.1,0.2-0.1,0.4-0.2,0.6c-0.2,0.4-0.4,0.7-0.6,1.1
			c-0.2,0.3-0.4,0.7-0.7,1c-0.9,1.4-2,2.6-3.2,3.8c-2.4,2.3-5.1,4.2-7.9,5.9c-2.8,1.7-5.8,3.1-8.8,4.4c-0.7,0.3-1.5,0.6-2.3,0.9
			l-2.3,0.9c-0.8,0.3-1.6,0.5-2.3,0.8c-0.8,0.3-1.6,0.5-2.3,0.7c-6.2,1.9-12.6,3.3-19,4.3c-6.4,1-12.9,1.7-19.4,2
			c6.4-1.2,12.7-2.4,19-3.7c6.3-1.3,12.5-2.9,18.7-4.7c3.1-0.9,6.1-2,9.1-3.1c3-1.1,5.9-2.4,8.7-3.9c0.7-0.4,1.4-0.7,2.1-1.1l1-0.6
			l0.5-0.3l0.5-0.3l1-0.7c0.3-0.2,0.7-0.5,1-0.7l0.5-0.3c0.2-0.1,0.3-0.2,0.5-0.4l0.9-0.7c1.2-1,2.4-2.1,3.4-3.3
			c0.3-0.3,0.5-0.6,0.7-0.9c0.2-0.3,0.5-0.7,0.7-1C273.4,138.9,273.7,138.2,274,137.4z"/>
	</g>
	<g>
		<path d="M274,146c-0.7,1-1.6,2-2.4,2.9s-1.8,1.8-2.7,2.6c-1.9,1.7-3.9,3.2-6,4.7c-0.5,0.4-1.1,0.7-1.6,1.1l-1.6,1
			c-0.3,0.2-0.5,0.3-0.8,0.5l-0.8,0.5l-1.7,1c-1.1,0.6-2.2,1.2-3.4,1.8l-1.7,0.8c-0.6,0.3-1.1,0.5-1.7,0.8l-1.8,0.8l-0.9,0.4
			c-0.3,0.1-0.6,0.2-0.9,0.3l-1.8,0.7c-0.6,0.2-1.2,0.5-1.8,0.7c-1.2,0.4-2.4,0.9-3.6,1.3l-3.6,1.1c-4.9,1.4-9.9,2.5-14.9,3.4
			l-3.8,0.6c-0.6,0.1-1.3,0.2-1.9,0.3l-1.9,0.2l-3.8,0.4c-1.3,0.1-2.5,0.2-3.8,0.3l-1.9,0.1c-0.6,0.1-1.3,0.1-1.9,0.1l-3.8,0.2
			c-2.5,0.1-5.1,0.1-7.6,0.1c-10.1-0.1-20.3-0.9-30.3-2.4c10.1,0.6,20.2,0.9,30.3,0.6l3.8-0.2l1.9-0.1l0.9,0l0.9-0.1l3.8-0.3
			c0.6-0.1,1.3-0.1,1.9-0.1l1.9-0.2c1.3-0.1,2.5-0.2,3.8-0.3l3.7-0.5l1.9-0.2c0.6-0.1,1.2-0.2,1.9-0.3l3.7-0.6
			c4.9-0.9,9.9-1.9,14.7-3.2c4.9-1.3,9.6-2.9,14.2-4.8c4.6-1.9,9.1-4.1,13.4-6.7c2.2-1.3,4.2-2.7,6.2-4.3c1-0.8,2-1.6,2.9-2.4
			C272.3,147.8,273.2,147,274,146z"/>
	</g>
	<g>
		<path d="M194.5,165.5c-4.4,0.3-8.8,0.4-13.2,0.5c-2.2,0-4.4,0-6.6-0.1c-2.2,0-4.4-0.1-6.6-0.2c-4.4-0.2-8.8-0.5-13.2-0.9
			s-8.8-1-13.2-1.7c-4.4-0.7-8.7-1.6-13-2.7c-2.2-0.5-4.3-1.1-6.4-1.8c-2.1-0.7-4.2-1.4-6.3-2.2c-2.1-0.8-4.1-1.7-6.1-2.8
			s-3.9-2.2-5.7-3.5c-1.8-1.3-3.5-2.7-5-4.4c-0.4-0.4-0.7-0.8-1.1-1.3c-0.4-0.4-0.7-0.9-1-1.3c-0.2-0.2-0.3-0.5-0.5-0.7l-0.4-0.7
			c-0.3-0.5-0.5-1-0.8-1.5c1.1,1.9,2.6,3.5,4.2,5s3.4,2.8,5.2,3.9s3.8,2.2,5.7,3c2,0.9,4,1.7,6.1,2.4c0.5,0.2,1,0.4,1.6,0.5
			c0.5,0.2,1,0.3,1.6,0.5l1.6,0.5l1.6,0.5c2.1,0.6,4.2,1.1,6.3,1.6c2.1,0.5,4.3,1,6.4,1.4c2.2,0.4,4.3,0.8,6.5,1.1
			c2.2,0.4,4.3,0.7,6.5,1c2.2,0.3,4.3,0.5,6.5,0.8c4.3,0.5,8.7,0.9,13.1,1.3c2.2,0.2,4.4,0.3,6.6,0.5c2.2,0.2,4.4,0.3,6.6,0.4
			C185.7,165.1,190.1,165.3,194.5,165.5z"/>
	</g>
	<g>
		<path d="M94.5,146.6c0.9,1.4,2,2.7,3.2,3.9c1.1,1.2,2.4,2.3,3.6,3.4c1.3,1,2.6,2,4,2.9c1.4,0.9,2.8,1.8,4.3,2.5
			c1.4,0.8,2.9,1.5,4.5,2.2l1.1,0.5l1.1,0.5c0.8,0.3,1.6,0.6,2.3,0.9c3.1,1.2,6.3,2.2,9.6,3.2c-3.4-0.1-6.8-0.6-10.1-1.5
			c-0.8-0.2-1.7-0.4-2.5-0.7c-0.4-0.1-0.8-0.3-1.2-0.4l-1.2-0.5l-0.6-0.2l-0.6-0.3l-1.2-0.5c-0.8-0.4-1.6-0.7-2.3-1.1
			c-0.8-0.4-1.5-0.8-2.2-1.3c-0.7-0.5-1.5-0.9-2.2-1.5c-1.4-1-2.7-2.1-4-3.4c-1.2-1.2-2.4-2.6-3.3-4c-0.5-0.7-0.9-1.5-1.3-2.2
			C95,148.2,94.7,147.4,94.5,146.6z"/>
	</g>
	<g>
		<path d="M273.4,215.2c-0.1,1.8-0.5,3.5-1.1,5.2c-0.6,1.7-1.3,3.3-2.2,4.9c-1.8,3.1-4,6-6.5,8.5c-2.5,2.6-5.4,4.8-8.3,6.7l-1.1,0.7
			c-0.4,0.2-0.7,0.5-1.1,0.7l-2.3,1.3c-0.8,0.4-1.6,0.8-2.4,1.2c-0.4,0.2-0.8,0.4-1.2,0.6l-1.2,0.5c-3.2,1.5-6.6,2.7-10,3.8
			l-2.6,0.7c-0.9,0.3-1.7,0.5-2.6,0.7l-2.6,0.6l-1.3,0.3c-0.4,0.1-0.9,0.2-1.3,0.3c-6.9,1.5-14,2.4-21,2.8
			c6.9-1.3,13.8-2.7,20.6-4.5c0.4-0.1,0.9-0.2,1.3-0.3l1.3-0.4l2.5-0.7c0.8-0.2,1.7-0.5,2.5-0.8l2.5-0.8l2.4-0.9
			c0.8-0.3,1.6-0.6,2.4-0.9l2.4-1c0.8-0.3,1.6-0.7,2.4-1.1l1.2-0.5c0.4-0.2,0.8-0.4,1.2-0.6c0.8-0.4,1.6-0.8,2.3-1.2l2.3-1.3
			c0.4-0.2,0.7-0.4,1.1-0.7l1.1-0.7c2.9-1.8,5.7-3.9,8.3-6.2c0.3-0.3,0.6-0.6,0.9-0.9l0.9-0.9c0.6-0.6,1.2-1.3,1.8-1.9
			c0.3-0.3,0.6-0.7,0.8-1c0.3-0.3,0.5-0.7,0.8-1c0.5-0.7,1-1.4,1.5-2.1c1-1.4,1.8-2.9,2.6-4.5c0.4-0.8,0.7-1.6,1-2.4
			C272.9,216.9,273.2,216.1,273.4,215.2z"/>
	</g>
	<g>
		<path d="M272.1,225.6c-0.3,1-0.7,1.9-1.2,2.9c-0.5,0.9-0.9,1.8-1.5,2.7c-1.1,1.8-2.3,3.5-3.6,5.1c-2.6,3.2-5.7,6.1-9,8.6
			c-3.3,2.5-6.9,4.7-10.6,6.6c-3.7,1.9-7.6,3.5-11.6,4.8c-2,0.7-4,1.3-6,1.8c-2,0.5-4,1-6.1,1.5c-4.1,0.9-8.2,1.5-12.3,2
			c-4.1,0.5-8.3,0.8-12.4,1c-4.2,0.2-8.3,0.3-12.5,0.3c-8.3-0.1-16.6-0.5-24.9-1.6c-4.1-0.5-8.2-1.1-12.3-2
			c-4.1-0.8-8.2-1.8-12.1-2.9c-8-2.3-15.9-5.4-22.9-9.8c-3.5-2.2-6.9-4.8-9.8-7.8c-1.5-1.5-2.8-3.1-4-4.8s-2.2-3.5-3.1-5.4
			c1.9,3.7,4.5,6.9,7.5,9.8c3,2.8,6.3,5.2,9.9,7.3c3.6,2.1,7.3,3.8,11.1,5.3c3.8,1.5,7.8,2.7,11.7,3.8c8,2.1,16.1,3.5,24.3,4.4
			c8.2,0.9,16.4,1.4,24.6,1.4c8.2,0.1,16.5-0.3,24.7-1.1c4.1-0.4,8.2-1,12.2-1.8s8-1.8,11.9-3c3.9-1.2,7.8-2.7,11.5-4.5
			c3.7-1.8,7.3-3.8,10.6-6.2c3.4-2.4,6.5-5.1,9.2-8.1c1.4-1.5,2.6-3.2,3.8-4.9c0.6-0.9,1.1-1.7,1.6-2.6
			C271.2,227.5,271.7,226.5,272.1,225.6z"/>
	</g>
	<g>
		<path d="M194.5,255c-4.5,0.5-9.1,0.7-13.7,0.8c-2.3,0-4.6,0-6.9,0c-2.3,0-4.6-0.1-6.9-0.2c-4.6-0.2-9.1-0.7-13.7-1.2
			c-2.3-0.3-4.5-0.7-6.8-1c-2.3-0.4-4.5-0.8-6.7-1.3s-4.5-1.1-6.7-1.7c-2.2-0.6-4.4-1.3-6.6-2.1c-4.3-1.6-8.6-3.4-12.5-5.8
			c-4-2.3-7.7-5.1-11-8.4c-3.2-3.3-5.9-7.2-7.6-11.4c2.2,4,5.1,7.6,8.4,10.6c1.7,1.5,3.4,2.9,5.3,4.2s3.8,2.4,5.8,3.5
			c0.5,0.3,1,0.5,1.5,0.8c0.5,0.3,1,0.5,1.5,0.7c1,0.5,2,0.9,3.1,1.4c2.1,0.9,4.2,1.7,6.3,2.4c2.1,0.7,4.3,1.4,6.5,2
			s4.4,1.1,6.6,1.6c4.4,1,8.9,1.8,13.4,2.5c2.2,0.3,4.5,0.6,6.7,0.9l1.7,0.2l1.7,0.2c1.1,0.1,2.3,0.2,3.4,0.3
			c2.3,0.2,4.5,0.4,6.8,0.5c2.3,0.1,4.5,0.3,6.8,0.4C185.4,254.9,189.9,255,194.5,255z"/>
	</g>
	<path d="M103.6,55.3c2.4-2.8,5.6-4.8,8.6-7c2.6-1.9,5.5-3.7,8.8-4.3c0,0,0,0,0,0c-1.6,0.2-3.5,0.5-5,1.2s-2.8,1.7-4.2,2.6
		c-3.2,2-6.3,4.2-8.2,7.4C103.4,55.3,103.5,55.4,103.6,55.3z"/>
	<path d="M107.3,65.8c-1.2-0.7-2.5-1.9-3.2-3.1c-0.4-0.7-0.7-1.5-0.9-2.3c-0.1-0.6-0.4-1.8-0.3-2.5c0,0,0,0,0,0
		c-0.8,1.3-0.3,3.6,0.4,4.8c0.4,0.8,1,1.3,1.7,1.8c0.7,0.5,1.5,1.1,2.3,1.3C107.4,65.9,107.4,65.8,107.3,65.8z"/>
	<path d="M100.4,62.6c0.3-0.4,0.3-0.7,0.3-1.2c0.1-0.6,0.3-1.2,0.5-1.8c0.3-0.7,0.5-1.4,0.9-2.2c0,0,0-0.1,0,0
		c-1.1,1.5-2.7,3.1-1.8,5.1C100.3,62.6,100.4,62.7,100.4,62.6z"/>
	<path d="M121.9,45.2c0.3-0.1,0.7,0,1-0.1c0.7-0.1,1.4-0.4,2-0.6c1.3-0.4,2.5-0.8,3.8-1.2c1.1-0.4,2.3-0.7,3.4-1.1c0,0,0-0.1,0,0
		c-1,0.3-2.1,0.4-3.2,0.6c-1.3,0.3-2.6,0.6-3.8,1c-1.1,0.4-2.2,0.7-3.3,1c-1.1,0.3-1.9,1.1-3,1.3c-0.1,0,0,0.1,0,0.1
		C120,46.1,120.9,45.5,121.9,45.2z"/>
	<path d="M95.6,55.8c0.5-1.6,1.6-2.8,2.6-4.1c0.5-0.6,0.9-1.2,1.3-1.8c0.5-0.7,1.2-1,1.9-1.4c1.1-0.7,2.4-1,3.5-1.8
		c0.9-0.7,1.8-1.1,2.8-1.6c0.5-0.3,1.1-0.5,1.5-0.9c0,0,0,0,0,0c-0.7,0.6-1.8,0.7-2.6,1.1c-0.8,0.3-1.3,0.7-2,1.2
		c-1.4,1-3.3,1.2-4.8,2.2c-1.2,0.7-1.8,2.4-2.7,3.5c-0.9,1.2-1.5,2.4-1.8,3.8C95.5,55.8,95.6,55.9,95.6,55.8z"/>
	<path d="M97.8,60.7c0.3-0.5,0.3-1.2,0.6-1.8c0.3-0.5,0.7-1.1,1.1-1.6c0.9-1.3,1.8-2.4,3.1-3.4c0.1-0.1,0-0.1-0.1-0.1
		c-1.5,0.7-2.4,1.5-3.4,2.8c-0.4,0.6-0.7,0.9-1.1,1.6c-0.4,0.7-0.4,1.3-0.7,2.1C97.3,60.6,97.7,60.9,97.8,60.7z"/>
	<path d="M115.5,79.2c-2.1-0.4-3.8-1.8-5.9-2.4c-1.6-0.4-3-0.7-4.4-1.7c-2.7-1.8-5.6-3.1-7.5-5.9c0,0-0.1,0,0,0
		c1.8,2.9,4.8,4.8,7.6,6.6c1.5,1,2.9,1.3,4.6,1.6C111.8,77.9,113.6,79.1,115.5,79.2C115.6,79.3,115.6,79.2,115.5,79.2z"/>
	<path d="M114.8,69.7c-4.3-1.2-8.3-2.5-12.1-4.8c-1-0.6-2.1-1.1-3-1.9c-0.7-0.7-1.5-1.4-2.2-2.2c-1.6-1.8-3.8-4.8-2.9-7.5
		c0,0,0,0,0,0c-1,1.9-0.1,4.3,1,5.9c1.3,1.9,3.2,4.2,5.2,5.4c2,1.2,4.2,2.4,6.3,3.3c1.2,0.5,2.4,0.8,3.6,1.2c1.3,0.5,2.6,0.8,4,0.9
		C115,69.9,115,69.7,114.8,69.7z"/>
	<path d="M96.9,67c-0.9-0.7-2.2-1.7-2.8-2.6c-0.7-0.9-1.1-1.9-1.5-3c-0.5-1.6-0.9-2.9-0.4-4.5c0.3-1,0.6-2.2,1.1-3.2
		c0.4-0.8,0.8-1.7,1.4-2.4c0.5-0.5,1-0.8,1.4-1.3c1.4-1.6,2.7-3.2,4.7-4.1c0,0,0,0,0,0c-1,0.4-2,1-2.8,1.6c-1.1,0.7-1.9,1.8-2.9,2.5
		c-1.5,1-2.4,2.9-2.9,4.7c-0.3,1.2-0.9,2.4-0.8,3.6c0,1.3,0.7,2.7,1.2,3.9c0.9,2.1,2.5,3.8,4.4,5.1C96.9,67.3,97,67.1,96.9,67z"/>
	<path d="M106.2,68c-2.8-0.8-5-2.5-7.4-4.2c-0.9-0.6-1.8-1.3-2.7-1.9c-1.1-0.8-2-1.6-2.7-2.8h0c0.7,1,1.2,1.9,2.3,2.7
		c0.9,0.7,1.9,1.4,2.9,2.1c2.5,1.7,4.6,3.6,7.7,4.2C106.3,68.2,106.3,68,106.2,68z"/>
	<path d="M100.6,67.6c-1.3-1-2.9-1.5-4.3-2.5c-1.8-1.3-2.6-3.4-3.5-5.3c0,0-0.1-0.1-0.1,0c0.2,2,1.4,4,2.9,5.4
		c1.4,1.3,3.2,1.9,4.9,2.6C100.7,67.8,100.7,67.6,100.6,67.6z"/>
	<g>
		<path d="M98,68.2c4.6,2,9.2,3.8,13.9,5.5c4.7,1.7,9.4,3.2,14.3,4.5l1.8,0.5c0.6,0.2,1.2,0.3,1.8,0.5l3.6,0.9
			c2.4,0.5,4.9,1.1,7.3,1.6c4.9,1,9.9,1.6,14.8,2.3c-5-0.1-10.1-0.4-15-1.2l-1.9-0.3c-0.3,0-0.6-0.1-0.9-0.2l-0.9-0.2l-3.7-0.7
			c-1.2-0.3-2.4-0.6-3.7-0.9c-0.6-0.1-1.2-0.3-1.8-0.5l-1.8-0.5l-1.8-0.5l-0.9-0.3l-0.9-0.3c-1.2-0.4-2.4-0.7-3.6-1.1l-3.6-1.3
			c-1.2-0.4-2.4-0.9-3.5-1.3C107,72.8,102.4,70.7,98,68.2z"/>
	</g>
	<path d="M135.7,43.1c0-0.5,0.2-1.3,0.5-1.6c0.3-0.3,0.5-0.5,0.8-0.8c0,0,0,0,0,0c-0.2,0.1-0.4,0.3-0.7,0.4
		c-0.2,0.1-0.4,0.2-0.5,0.4c-0.3,0.4-0.4,1-0.3,1.5C135.6,43.2,135.7,43.3,135.7,43.1z"/>
	<path d="M146.7,46c0.1,0,0-0.2-0.1-0.2c-1.9-0.2-3.9-0.3-5.8-0.5c-1.2-0.1-2.2-0.2-3.4-0.4c-1.3-0.3-2-0.3-2.6-1.7c0,0-0.1,0,0,0
		c0.4,2.1,2.5,2.6,4.5,2.7c0.6,0.1,1.1,0,1.7,0c0.7,0,1.5,0.2,2.2,0.3C144.3,46.2,145.6,46.4,146.7,46z"/>
	<path d="M151.2,45.9c1.1-0.3,2-0.2,3.1-0.2c1-0.1,1.7-0.5,2.6-0.8c1.1-0.4,1.8-0.7,2.3-1.9c0,0,0,0,0,0c-0.8,1.2-2,1.1-3.2,1.6
		c-1.1,0.5-1.9,0.6-3,0.6c-0.7,0-1.4,0.2-2.1,0.4c-0.8,0.2-1.8,0.3-2.6,0.7c0,0,0,0.1,0,0.1C149.2,46,150.3,46.2,151.2,45.9z"/>
	<path d="M152.6,43.7c2-0.4,3.5-1,5.1-2.2v0c-1.9,1.1-3.7,1.6-5.9,1.8c-2,0.1-4.4-0.1-6.3,0.7c-0.1,0,0,0.1,0.1,0.1
		C148,43.9,150.3,44.2,152.6,43.7z"/>
	<path d="M143.3,44c-1.1-0.1-2.1-0.2-3.2-0.3c-0.7-0.1-3.7-0.3-3.9-1c0,0,0,0,0,0c0,1,1.9,1,2.5,1.1C140.2,44,141.7,43.9,143.3,44
		C143.3,44,143.3,44,143.3,44z"/>
	<path d="M135.4,41.1c0.3-0.1,0.7-0.2,1.1-0.3c0.4-0.1,0.6-0.4,1-0.5c0.1,0,0-0.1-0.1-0.1c-0.3,0-0.6,0.1-0.9,0.2
		c-0.4,0.1-0.8,0.1-1.2,0.2c-0.7,0.2-1.4,0.6-2,0.9c0,0,0,0.1,0,0C134.1,41.3,134.8,41.3,135.4,41.1z"/>
	<path d="M166.9,44.3c1.7-1.6,0.3-4.3-1.6-5c-1.3-0.5-2.7-0.4-4-0.4c-1.1,0-1.9,0.1-2.9,0.7v0c1.4,0.1,2.8,0.2,4.3,0.4
		c0.8,0.1,1.8,0,2.6,0.3C166.7,40.9,168,42.9,166.9,44.3C166.8,44.3,166.8,44.3,166.9,44.3z"/>
	<path d="M157.3,46.7c0.5,0,1.1-0.2,1.7-0.3c0.9-0.2,1.6-0.6,2.4-1c0.9-0.5,2.2-1.6,1.8-2.7c0-0.1-0.1-0.1-0.1,0
		c0.4,1.4-2.8,2.2-3.7,2.6c-0.6,0.3-1.3,0.6-1.9,0.8c-0.5,0.2-0.9,0.2-1.4,0.4c-0.1,0,0,0.1,0.1,0.1
		C156.6,46.6,156.9,46.7,157.3,46.7z"/>
	<path d="M272.3,53.3c-1.4-2.6-3.3-5.2-5.9-6.6c-1.4-0.8-2.9-1.7-4.3-2.5c-1.6-0.9-3.3-1.4-4.8-2.3c-1.6-0.9-3.2-1.5-5-1.9
		c-1.3-0.3-2.6-0.9-4-1.1c0,0,0,0,0,0.1c1.4,0.3,2.8,1.1,4.2,1.6c1.8,0.7,3.5,1.6,5.2,2.4c0.8,0.4,1.7,0.7,2.6,1.1
		c1,0.5,1.9,1.1,2.9,1.7c1.3,0.8,2.7,1.5,3.9,2.4c1.7,1.4,2.8,3,4,4.9c1.2,1.9,1.7,5.3,0.9,7.4c-0.9,2.4-3.1,3.6-5.3,4.7
		c0.5-0.4,0.9-0.9,1.3-1.5c0-0.1,0-0.1-0.1-0.1c-1,1.2-2.2,1.9-3.7,2.5c-0.6,0.3-1.3,0.5-1.9,0.8c-0.9,0.5-1.6,1.1-2.4,1.6v0
		c1-0.4,1.9-1.1,2.8-1.5c0.3-0.1,0.7-0.3,1-0.4c-0.6,0.3-1.1,0.7-1.6,1.2c-0.1,0.1,3.7-1.9,5.7-2.8c1.6-0.7,3-1.4,4-2.8
		c1-1.3,1.4-2.8,1.3-4.5C273.1,56.3,273,54.7,272.3,53.3z"/>
	<path d="M112.6,40.8c2.3-0.7,4.7-1.8,7.1-2.2c1.1-0.2,2.1-0.3,3.2-0.6c1.4-0.5,2.7-1,4.2-1.3c2.5-0.5,5.2-0.6,7.6-1.4
		c0.1,0,0-0.1-0.1-0.1c-1.3,0.4-2.6,0.2-3.8,0.4c-1.4,0.2-2.8,0.4-4.2,0.5c-1.1,0.1-2.1,0.4-3.2,0.9c-1.3,0.5-2.6,0.7-4,0.9
		c-2.2,0.4-4.2,1.2-6.3,2c-2.4,0.8-4.5,2.6-7,3.2v0C108.4,42.6,110.5,41.4,112.6,40.8z"/>
	<path d="M203.9,69c-1.3-1.4,1.2-3.6,2.2-4.4c0.9-0.7,2.1-1.1,3.1-1.7s2.2-0.9,3.3-1v0c-1.5,0-2.8,0.5-4.1,1.1c-0.9,0.3-2,0.5-2.8,1
		c-0.6,0.4-1.1,0.9-1.7,1.3c-1,0.8-2.6,4.4-0.2,4.4C204.1,69.7,204.1,69.3,203.9,69z"/>
	<path d="M151.6,38.6c-2.1-0.5-4.5-0.3-6.6-0.1c-2.3,0.2-4.8,0.5-7,1.3c0,0,0,0.1,0,0.1c4.5-0.8,9-1.1,13.6-1.2
		C151.6,38.7,151.7,38.6,151.6,38.6z"/>
	<path d="M146.3,43.2c-1,0.1-2,0.3-3.1,0.2c-0.8-0.1-1.6-0.1-2.4-0.2c-1.6-0.1-2.9-0.2-4.4-0.7c-0.1,0-0.1,0.1-0.1,0.1
		c2.9,1.4,6.8,1.5,9.9,0.9C146.4,43.4,146.4,43.2,146.3,43.2z"/>
	<path d="M154.9,39C154.9,39,154.8,39,154.9,39c0.5,0.3,2.2,0.8,2.4,1.4c0.3,0.9-1.3,1.5-1.9,1.7c-1.5,0.5-3.4,0.9-5,1
		c0,0,0,0,0,0.1c2.1,0.2,4.7-0.1,6.5-1.3C159,40.4,156.5,39.2,154.9,39z"/>
	<path d="M135.4,46.5c-0.3-0.1-0.6-0.1-1-0.2c-0.4-0.1-0.8-0.2-1.2-0.3c-0.9-0.3-1.2-0.9-1.3-1.8c0,0-0.1,0-0.1,0
		c0,0.7-0.1,1.6,0.7,2c0.7,0.4,2,0.9,2.8,0.7C135.4,46.9,135.6,46.6,135.4,46.5z"/>
	<path d="M153.4,47c-2.5,0.6-5,0.4-7.5,0.3c-1.3-0.1-2.6-0.2-3.8-0.2c-1.2-0.1-2.4,0.1-3.5,0.1c0,0,0,0,0,0c2.4,0.5,5,0.7,7.5,0.7
		c1.2,0,2.5,0.1,3.6,0C150.9,47.9,152.2,47.4,153.4,47C153.4,47.1,153.4,47,153.4,47z"/>
	<path d="M163.5,36.5c-3.7,0-7.4,0.3-11,1.2c0,0,0,0,0,0c1.9-0.1,3.7-0.2,5.6-0.5c1.7-0.2,3.8-0.1,5.4-0.6
		C163.5,36.6,163.6,36.5,163.5,36.5z"/>
	<path d="M192,35.9c-3.4-0.1-6.8-0.1-10.2,0c-1.9,0.1-3.9,0.1-5.8,0.1c-2,0.1-4.1,0-6.1,0.4c0,0,0,0,0,0c2.1-0.2,4.3,0.1,6.5,0.1
		c1.7,0,3.4,0,5.1-0.1C185,36.2,188.5,36,192,35.9C192,35.9,192,35.9,192,35.9z"/>
	<path d="M227.5,39.6c-0.9-0.3-1.9-0.4-2.8-0.6c-1.1-0.3-2.2-0.6-3.3-0.9c-2-0.5-4.3-1-6.3-1.1c-4-0.3-8-0.4-12.1-0.2c0,0,0,0,0,0
		c4,0.2,8,0.3,11.9,0.5c4.2,0.2,8.4,1.6,12.5,2.4C227.5,39.8,227.6,39.6,227.5,39.6z"/>
	<path d="M220.9,76.6c-1.5-0.1-2.8-0.4-4.1-0.9c-1.1-0.4-2.2-0.5-3.3-0.7c-2.4-0.6-5.2-1.6-7.3-2.9c0,0,0,0,0,0c0.9,1,2.2,1.5,3.4,2
		c1.1,0.5,2.2,0.9,3.3,1.2c0.6,0.2,1.3,0.3,1.9,0.4c0.8,0.1,1.5,0.4,2.2,0.6c1.3,0.3,2.6,0.4,3.9,0.5
		C220.9,76.7,221,76.6,220.9,76.6z"/>
	<g>
		<path d="M236.4,72.3c-1.1,0.3-2.2,0.7-3.4,0.9c-1,0.2-2,0.2-2.9,0.3c-1.2,0.1-2.4,0.2-3.6,0.1c-1.1,0-2.2-0.4-3.4-0.5
			c-2.1-0.3-4.4-0.8-6.4-1.5c-0.9-0.3-1.8-0.6-2.8-1c-0.3-0.1-0.7-0.3-1-0.5c0.2,0.2,0.5,0.4,0.8,0.5c0.9,0.4,1.9,0.8,2.8,1.2
			c2,0.8,4.3,1.2,6.4,1.6c1.2,0.2,2.4,0.5,3.6,0.6c1,0,2-0.1,3-0.1c1.1-0.1,2.2-0.1,3.4-0.3C234.2,73.4,235.2,72.7,236.4,72.3
			C236.4,72.4,236.5,72.3,236.4,72.3z"/>
		<path d="M211.7,69.3C211.7,69.3,211.7,69.3,211.7,69.3c0.1,0.1,0.2,0.1,0.3,0.2C211.9,69.4,212.1,69.5,211.7,69.3z"/>
		<path d="M212.4,69.8c0.2,0.1,0.3,0.3,0.5,0.4c-0.3-0.3-0.6-0.5-0.9-0.8C212,69.5,212.1,69.6,212.4,69.8z"/>
	</g>
	<path d="M242.7,71.1c-0.8,3.4-5.5,4-8.3,4.5c-2.7,0.5-5.6,0.6-8.4,0.3c-2.2-0.2-4.3-0.3-6.4-0.7c-1.2-0.2-2.4-0.5-3.6-0.9
		c-0.7-0.2-1.3-0.5-2-0.7c-0.9-0.3-2-0.4-2.8-1c0,0,0,0,0,0c1.1,0.8,2.6,1.3,3.9,1.8c1.4,0.5,2.8,1,4.3,1.2c2.7,0.5,5.4,0.8,8.1,0.8
		c3.6,0,7-0.3,10.5-1.2c2.1-0.6,4.9-1.7,4.8-4.2C242.8,71,242.7,71,242.7,71.1z"/>
	<path d="M239.7,63.3c-1.6-0.5-3.2-0.9-4.8-1.3c-1.7-0.4-3.5-0.5-5.2-0.7c-4-0.4-7.9-0.6-11.8,0.1c0,0,0,0,0,0c1.1-0.1,2.2,0,3.3,0
		c1,0,2-0.1,3,0c1.9,0,3.7,0.2,5.6,0.4c1.7,0.2,3.4,0.2,5.1,0.5C236.4,62.6,238,63,239.7,63.3C239.7,63.4,239.7,63.3,239.7,63.3z"/>
	<path d="M246.5,68.9c-0.7-2.2-2.9-3.7-5-4.3c0,0-0.1,0.1,0,0.1c1.8,0.7,3.2,2,4.2,3.6c0.4,0.8,0.6,1.5,0.6,2.3
		c0,0.1,0.1,0.3,0.1,0.5c0,0.7-0.3,1.3-0.8,1.7c-0.5,0.4-0.9,0.5-1.4,0.8c-0.1,0.1-0.1,0.3,0.1,0.2c1-0.4,2.1-0.5,2.7-1.6
		C247.2,71.3,246.7,69.7,246.5,68.9z"/>
	<g>
		<path d="M226,71.8c-0.2,0-0.3,0-0.5,0c1.1,0.1,2.1,0.1,3.1-0.1C227.7,71.8,226.8,71.8,226,71.8z"/>
		<path d="M229.5,71.5c-0.3,0.1-0.6,0.1-0.9,0.2C228.9,71.7,229.2,71.6,229.5,71.5C229.5,71.5,229.5,71.5,229.5,71.5z"/>
		<path d="M216.1,69c-1.2-0.7-2.4-1.5-3.6-2.3c0,0-0.1,0,0,0c2,2.5,5.3,3.4,8.2,4.2c1.6,0.4,3.1,0.7,4.7,0.7
			c-1.8-0.2-3.6-0.7-5.1-1.1C218.9,70.1,217.4,69.8,216.1,69z"/>
	</g>
	<path d="M238.6,67c-0.1,0.2-0.2,0.4-0.3,0.6c-0.5,1.1-1.4,1.8-2.5,2.2c-1.2,0.5-2.4,0.6-3.7,0.7c-2.5,0.2-5.1,0.4-7.6,0.2
		c0,0-0.1,0,0,0.1c3,0.6,6.1,0.5,9.2,0.2c1.3-0.2,2.8-0.7,3.9-1.5c1-0.8,1-1.3,1.2-2.4C238.8,67,238.6,67,238.6,67z"/>
	<g>
		<path d="M234.7,64.2c-0.5-0.2-1-0.4-1.6-0.5C233.6,63.8,234.2,64,234.7,64.2z"/>
		<path d="M234.7,64.2c0.4,0.2,0.8,0.4,1.1,0.6c0,0,0,0,0,0C235.5,64.5,235.1,64.3,234.7,64.2z"/>
		<path d="M230.7,62.9c-1.7-0.4-3.5-0.6-5.2-0.7c-1.9-0.1-3.8-0.3-5.7-0.1c-1.9,0.1-4.2,0.4-5.8,1.5c0,0,0,0.1,0,0
			c1.8-1,4.2-0.8,6.2-0.9c1.8-0.1,3.4,0.1,5.2,0.1c1.6,0,3.2,0.2,4.8,0.4c0.9,0.1,2,0.2,3,0.5c-0.2-0.1-0.3-0.1-0.5-0.2
			C232,63.3,231.4,63,230.7,62.9z"/>
	</g>
	<path d="M211.6,65.4c-0.6,0.1-1.1,0.3-1.7,0.4c-0.6,0.1-1.3,0.3-1.8,0.7c-1,0.7-1,1.9-0.6,3c0,0,0.1,0,0,0c-0.3-1.5,0.3-2.6,1.8-3
		c0.8-0.3,1.5-0.4,2.3-0.9C211.7,65.6,211.7,65.4,211.6,65.4z"/>
	<path d="M238.3,69.5c0,0.9-0.7,1.6-1.2,2.2c0,0,0,0.1,0,0c0.4-0.3,0.8-0.6,1.1-1.1c0.3-0.5,0.5-0.7,0.5-1.3
		C238.7,69.2,238.3,69.3,238.3,69.5z"/>
	<path d="M216.3,70.8c-0.6-0.3-1.2-0.4-1.7-0.8c-0.3-0.3-0.6-0.6-0.9-0.9c-0.4-0.3-0.8-0.5-1.1-1c-0.2-0.3-0.3-0.6-0.5-0.7
		c0,0,0,0,0,0c0.2,0.4,0.1,0.8,0.3,1.1c0.2,0.4,0.6,0.6,0.9,0.9C214.2,70.2,215.2,70.4,216.3,70.8C216.3,70.8,216.3,70.8,216.3,70.8
		z"/>
	<path d="M212.9,72.9c-0.3-0.2-0.5-0.4-0.6-0.7c-0.1-0.2,0-0.5,0-0.7c0-0.4-0.2-0.8-0.3-1.2c0,0,0,0,0,0c-0.1,0.3-0.1,0.5-0.1,0.8
		c-0.1,0.3-0.1,0.6-0.1,0.9C211.8,72.6,212.3,72.8,212.9,72.9C212.8,73,212.9,72.9,212.9,72.9z"/>
	<path d="M210.7,72.4c-0.3-0.4-0.8-0.7-1.2-1c-0.3-0.2-0.5-0.4-0.8-0.6c-0.3-0.1-0.5-0.2-0.8-0.4c0,0,0,0,0,0
		c0.3,0.5,0.9,0.9,1.4,1.2C209.8,72,210.2,72.2,210.7,72.4C210.7,72.5,210.8,72.4,210.7,72.4z"/>
	<path d="M241,68.1c-0.3-0.2-0.6-0.4-1-0.6c-0.2-0.1-0.5-0.3-0.7-0.3c-0.1,0-0.1,0.1-0.1,0.1c0.4,0.4,0.9,0.6,1.3,0.9
		c0.6,0.4,1.8,0.8,1.8,1.7c0,0,0,0,0,0C242.2,69.1,241.6,68.6,241,68.1z"/>
	<path d="M244,67.1c-0.8-0.7-1.7-1.3-2.5-1.9c-1.2-0.9-2.8-1.2-4.2-1.6c0,0,0,0,0,0c0.7,0.4,1.5,0.8,2.2,1.1
		c0.6,0.3,1.2,0.4,1.8,0.7C242.2,66,243,66.7,244,67.1C244,67.3,244.1,67.2,244,67.1z"/>
	<path d="M262.8,64.7c-1.5,1.9-3.6,3.2-5.7,4.4c-1.9,1-3.8,1.9-5.8,2.5v0c4-1,9.4-3,11.6-6.8C262.9,64.7,262.8,64.7,262.8,64.7z"/>
	<path d="M263.1,53.9C263.1,53.8,263,53.9,263.1,53.9c1.2,0.7,1.8,2,2.6,3.2c0.9,1.3,1.8,2.8,2.2,4.4c0,0.1,0.1,0,0.1,0
		C267.7,58.4,265.6,55.3,263.1,53.9z"/>
	<g>
		<path d="M229.4,39.8c2.6,0.2,5.1,0.7,7.7,1.2l0.9,0.2l0.9,0.2c0.6,0.1,1.3,0.3,1.9,0.5c1.3,0.3,2.5,0.7,3.7,1.1
			c0.6,0.2,1.2,0.4,1.8,0.7c0.6,0.2,1.2,0.5,1.8,0.7c1.2,0.5,2.4,1,3.6,1.6c2.3,1.2,4.6,2.5,6.5,4.2c-2.3-1.3-4.6-2.4-6.9-3.4
			c-0.6-0.2-1.2-0.5-1.8-0.7l-0.4-0.2l-0.5-0.2l-0.9-0.3c-1.2-0.5-2.4-0.9-3.6-1.3l-1.8-0.6c-0.6-0.2-1.2-0.4-1.8-0.6
			s-1.2-0.4-1.8-0.5l-1.8-0.5C234.3,41.1,231.8,40.4,229.4,39.8z"/>
	</g>
	<path d="M274.9,64.6c-0.5,0.5-0.9,1-1.3,1.6c-0.5,0.7-1.2,1.3-2,1.8c-1.1,0.7-2.2,1.4-3.3,2c-2.1,1.1-4.3,2.1-6.5,3.1v0
		c2.4-0.8,4.7-1.7,6.9-3c1.1-0.7,2.2-1.4,3.3-2.1c1.3-0.9,1.9-2.1,2.9-3.4C275.1,64.6,275,64.5,274.9,64.6z"/>
	<path d="M267.3,66.2c-2.5,1.4-4.9,2.8-7.6,3.7c-3.2,1.2-6.3,2.3-9.5,3.7v0c3.3-1.1,6.6-2.2,9.8-3.4c1.3-0.5,2.6-1.2,3.9-1.8
		C265.2,67.8,266.2,66.9,267.3,66.2C267.4,66.2,267.4,66.2,267.3,66.2z"/>
	<path d="M273.3,64.3c-3.3,3.2-7.3,5.6-11.6,6.9c-2.1,0.6-4.1,1.2-6.2,1.8c-2.2,0.7-4.2,1.6-6.3,2.4v0c4.5-1.3,9-2.4,13.4-4
		C266.7,69.9,270.4,67.6,273.3,64.3C273.3,64.3,273.3,64.3,273.3,64.3z"/>
	<g>
		<path d="M254.7,41c2.8,0.7,5.5,1.6,8.1,2.8c0.7,0.3,1.3,0.6,1.9,0.9c0.6,0.3,1.3,0.7,1.9,1c1.2,0.7,2.4,1.5,3.6,2.4
			c1.1,0.9,2.2,1.9,3.2,3c0.5,0.5,0.9,1.1,1.3,1.7s0.8,1.3,1,2c0.5,1.4,0.8,2.8,0.8,4.3c0,1.5-0.3,2.9-0.8,4.2
			c0.1-0.7,0.2-1.4,0.2-2.1c0-0.7,0-1.4-0.1-2.1c-0.1-1.4-0.5-2.7-1.1-3.9c-0.5-1.2-1.4-2.3-2.3-3.3c-0.9-1-2-1.9-3-2.8
			c-2.2-1.7-4.6-3.2-7.1-4.5C259.9,43.3,257.3,42.1,254.7,41z"/>
	</g>
	<g>
		<path d="M162.2,83.9c4.1,0,8.3,0.1,12.4,0.1l6.2,0.1c2.1,0,4.1,0.1,6.2,0.1l6.2,0.2l3.1,0.1c1,0,2.1,0,3.1,0
			c4.1,0,8.2-0.3,12.3-0.6c2.1-0.2,4.1-0.4,6.1-0.6c2-0.2,4.1-0.5,6.1-0.8c4-0.6,8.1-1.5,12.1-2.4c8-1.9,16-4.1,23.9-6.4l0,0.1
			c-3.8,1.5-7.8,2.9-11.7,4.1c-3.9,1.3-7.9,2.4-11.9,3.4s-8.1,1.8-12.2,2.3c-4.1,0.5-8.2,0.8-12.4,0.9s-8.3,0.2-12.4,0.4l-6.2,0.2
			c-2.1,0.1-4.1,0.1-6.2,0.1c-1,0-2.1,0-3.1,0s-2.1,0-3.1-0.1l-3.1-0.1l-3.1-0.1c-4.1-0.2-8.2-0.5-12.4-0.9L162.2,83.9z"/>
	</g>
	<g>
		<path d="M107.4,69.3c5.1,1.6,10.2,3.1,15.4,4.4c5.1,1.3,10.3,2.5,15.6,3.6c2.6,0.6,5.2,1,7.8,1.5l3.9,0.6c0.7,0.1,1.3,0.2,2,0.3
			l2,0.3l4,0.5l4,0.5c0.7,0.1,1.3,0.2,2,0.2l2,0.2c1.3,0.1,2.6,0.3,4,0.4c-1.3,0-2.7,0-4-0.1l-2-0.1c-0.7,0-1.3-0.1-2-0.1l-4-0.3
			c-1.3-0.1-2.7-0.3-4-0.4l-2-0.2c-0.7-0.1-1.3-0.2-2-0.3l-4-0.5l-4-0.7c-1.3-0.2-2.6-0.5-3.9-0.7c-2.6-0.5-5.2-1.1-7.8-1.8l-3.9-1
			c-1.3-0.3-2.6-0.7-3.8-1.1C117.3,73,112.3,71.3,107.4,69.3z"/>
	</g>
	<g>
		<path d="M175.8,82.7c4.7-0.1,9.3-0.1,13.9-0.2l3.5-0.1c1.1,0,2.3-0.1,3.5-0.1l3.5-0.1l3.5-0.1c1.1,0,2.3-0.1,3.5-0.2l1.7-0.1
			l1.7-0.1c1.1-0.1,2.3-0.1,3.5-0.2c1.1-0.1,2.3-0.2,3.4-0.3c4.6-0.4,9.2-1,13.8-1.8c-4.5,1.3-9.1,2.1-13.7,2.7
			c-4.6,0.6-9.2,0.9-13.9,1.2c-4.7,0.2-9.3,0.3-13.9,0.2C185,83.3,180.4,83.1,175.8,82.7z"/>
	</g>
	<g>
		<path d="M165.3,79.3l15.6,0.2c5.2,0.1,10.4,0.1,15.6,0.1c5.2,0,10.4-0.1,15.5-0.3l2-0.1c0.7,0,1.3-0.1,2-0.1l2-0.1
			c0.7,0,1.3-0.1,2-0.1l3.9-0.3c1.3-0.1,2.6-0.3,3.9-0.4c-1.3,0.3-2.6,0.5-3.8,0.7c-1.3,0.2-2.6,0.4-3.9,0.5c-0.6,0.1-1.3,0.1-2,0.2
			l-2,0.2c-1.3,0.1-2.6,0.2-3.9,0.3c-2.6,0.2-5.2,0.3-7.8,0.4c-2.6,0.1-5.2,0.1-7.8,0.1s-5.2,0-7.8-0.1c-2.6-0.1-5.2-0.1-7.8-0.3
			C175.7,80.1,170.5,79.8,165.3,79.3z"/>
	</g>
	<g>
		<path d="M115,87.3c5.3,1.8,10.6,3.2,16,4.5c5.4,1.3,10.8,2.4,16.3,3.3c10.9,1.8,21.9,2.9,33,3.3c5.5,0.2,11.1,0.2,16.6,0l4.1-0.2
			c0.7,0,1.4-0.1,2.1-0.1l2.1-0.2c1.4-0.1,2.8-0.2,4.1-0.3l4.1-0.4c1.4-0.1,2.8-0.3,4.1-0.5l2.1-0.3c0.7-0.1,1.4-0.2,2-0.3
			c2.7-0.5,5.5-0.9,8.2-1.4c5.5-1,10.8-2.4,16.2-3.8l-4,1.2l-2,0.6c-0.7,0.2-1.3,0.3-2,0.5l-4,1.1c-0.7,0.2-1.3,0.3-2,0.5l-2,0.5
			c-2.7,0.6-5.4,1.1-8.2,1.6c-0.7,0.1-1.4,0.2-2.1,0.3l-2.1,0.3c-1.4,0.2-2.7,0.4-4.1,0.6l-4.1,0.5c-1.4,0.1-2.8,0.3-4.1,0.4L203,99
			c-0.7,0.1-1.4,0.1-2.1,0.1l-4.2,0.3c-5.5,0.2-11.1,0.3-16.7,0.1c-5.5-0.2-11.1-0.6-16.6-1.2c-5.5-0.6-11-1.4-16.5-2.4
			C136.2,93.9,125.4,91.2,115,87.3z"/>
	</g>
	<path d="M114.6,312.8c-1.4-1.5-3-2.9-4.3-4.5c-1.2-1.4-2.3-3-3.4-4.5c-1.1-1.6-1.5-3.5-2.4-5.2c-0.6-1-1.3-1.9-1.6-3
		c-0.3-1-0.5-2-0.8-3c-0.6-1.9-1.2-3.7-1.6-5.7c-0.5-2.3-1.5-4.4-1.7-6.7c-0.2-2.2-0.3-4.3-1-6.4c-0.7-2.2-0.8-4.7-0.9-6.9
		c0,0,0,0,0,0c-0.1,2.2-0.1,4.5,0.4,6.6c0.5,2.3,0.6,4.6,0.7,7c0.1,2.4,1.1,4.6,1.5,6.9c0.4,2.1,1,4,1.6,6c0.3,1.1,0.5,2.2,0.9,3.2
		c0.4,1,1.1,1.9,1.6,2.8c0.6,1,0.9,1.8,1.2,3c0.2,0.9,0.7,1.5,1.3,2.3c0.6,0.9,1.5,1.6,2.1,2.5c0.5,0.7,0.8,1.1,1.5,1.7
		c1.6,1.4,3.3,2.8,5,4.1C114.6,313,114.7,312.9,114.6,312.8z"/>
	<path d="M245,318.4c-1.3,0.7-2.5,1.6-3.7,2.4c-1.4,0.8-2.9,1.3-4.4,1.8c-3,1.1-6.1,2-9.2,3.1c-2.8,1-5.7,1.7-8.5,2.5
		c-3.4,0.9-6.7,1.8-10,2.8v0c6.2-1,12.5-2.3,18.5-4.4c2.9-1,6-1.8,8.8-3.1c1.5-0.7,3-1.3,4.4-2.2c1.4-0.8,2.7-1.8,4.1-2.6
		C245.3,318.7,245.3,318.3,245,318.4z"/>
	<path class="st2" d="M238.5,321c-1.1,0.2-2.3,0.8-3.3,1.1c-1.3,0.5-2.6,1-3.8,1.4c-2.7,0.9-5.5,1.7-8.2,2.5
		c-5.3,1.6-10.9,2.4-16.3,3.7c0,0,0,0,0,0c1.5-0.2,3-0.3,4.5-0.5c1.1-0.2,2.2-0.1,3.4-0.2c2.6-0.3,5.3-1,7.8-1.7
		c2.8-0.8,5.5-1.7,8.2-2.6c1.4-0.5,2.8-1,4.1-1.6c1.2-0.5,2.4-1.4,3.7-1.8C238.6,321.1,238.6,320.9,238.5,321z"/>
	<path class="st2" d="M111.5,306.6c-1.5-1.7-3.1-3.1-4.1-5.3c-0.8-1.9-1.7-3.7-2.5-5.6c-0.4-0.9-0.8-1.8-1.3-2.6
		c-0.5-1-1.3-2-1.6-3.1c-0.2-0.8-0.1-1.6-0.3-2.4c-0.2-1-0.5-2-0.7-3c0,0,0,0,0,0c0.1,0.9,0.2,1.8,0.3,2.6c0.2,1.1,0.1,2.1,0.2,3.2
		c0.1,1.1,0.8,2.1,1.1,3.2c0.4,1.1,0.6,2.2,0.9,3.3c0.5,2,1.8,3.6,3,5.1c1.3,1.7,2.8,3.4,4.6,4.7
		C111.4,306.9,111.6,306.7,111.5,306.6z"/>
	<path class="st2" d="M157.7,263c-0.4-0.4-0.9-0.5-1.4-0.6c-0.9-0.2-1.8-0.4-2.7-0.6c-2.3-0.5-4.8-0.5-7-1.3c-0.9-0.3-2-0.4-2.9-0.8
		c-1.1-0.4-2.1-0.9-3.1-1.2c-2.1-0.8-4.3-1.3-6.5-1.8c-4.7-1-9-3.3-13.5-4.9c-0.9-0.3-1.6-0.7-2.4-1.2c-0.8-0.5-1.5-1.1-2.4-1.5
		c-2.1-0.9-4.1-1.4-5.9-2.8c-0.9-0.8-1.8-1.7-2.6-2.6c-0.7-0.8-1.3-1.8-2.1-2.5c-0.8-0.7-1.8-1.1-2.6-1.9c-0.9-0.7-1.6-1.7-2.5-2.4
		c0,0,0,0,0,0c0.7,0.7,1.2,1.4,1.8,2.2c0.7,0.8,1.5,1.3,2.2,2c0.7,0.7,1.2,1.6,1.8,2.4c0.6,0.9,1.3,1.7,2.1,2.5c1.5,1.6,3,2.6,5,3.4
		c0.9,0.4,1.9,0.7,2.6,1.3c0.8,0.6,1.5,1.1,2.4,1.7c1.7,1.1,3.8,1.7,5.7,2.4c2.2,0.9,4.4,1.8,6.7,2.6c2.2,0.7,4.3,1.1,6.5,1.7
		c2.2,0.6,4.4,1.5,6.6,2.1c2.3,0.6,4.5,0.8,6.9,1.1c1.3,0.1,2.6,0.3,3.9,0.6c0.9,0.2,2.3,0.1,3.1,0.6
		C157.6,263.4,157.8,263.1,157.7,263z"/>
	<path class="st2" d="M171,161.2c-2.3-0.1-4.5-0.2-6.7-0.4c-1-0.1-1.9-0.3-2.8-0.4c-1.1-0.1-2.2,0-3.2-0.2c-1-0.2-2-0.2-3-0.3
		c-1.2-0.1-2.4-0.5-3.7-0.7c-2.2-0.4-4.3-0.8-6.4-1.3c-4.1-0.8-8.2-1.6-12.3-2.1c-0.9-0.1-1.8-0.3-2.7-0.4c-1.2-0.1-2.3-0.7-3.4-1
		c-2-0.6-4-1.3-6.1-1.9c-2.4-0.7-4.8-1.2-7.1-2.2c-1.1-0.5-2.1-1-3.2-1.3c-0.8-0.2-1.7-0.5-2.6-0.5c0,0,0,0,0,0c1,0,1.9,0.7,2.8,1.1
		c1.1,0.5,2.1,1.1,3.1,1.6c1.9,0.9,3.9,1.5,5.9,2.1c1.9,0.6,3.8,1.3,5.7,2c1,0.3,2,0.7,3,1c1.1,0.4,2.3,0.3,3.4,0.6
		c1.6,0.5,3.5,0.7,5.3,1.1c2.2,0.4,4.5,0.6,6.7,1.1c2.2,0.4,4.4,0.8,6.6,1.1c1.1,0.1,2.1,0.2,3.2,0.4c1.1,0.2,2.1,0.1,3.2,0.1
		c2.4,0,4.8,0.3,7.2,0.4C166,161.3,168.4,161.4,171,161.2C171,161.3,171,161.2,171,161.2z"/>
	<path class="st2" d="M262.9,146.8c-0.7,0.4-0.9,0.7-1.5,1.1c-0.3,0.2-0.5,0.5-0.7,0.7c-0.6,0.5-1.3,0.5-2,0.7
		c-4.7,1.7-9,4.1-13.7,5.7c-2.4,0.8-4.7,1.8-7,2.5c-2.7,0.8-5.5,1.5-8.2,2.2c-2.4,0.6-4.8,1.1-7.3,1.3c-1.1,0.1-2.2,0.1-3.3,0.3
		c-1.4,0.2-2.8,0.2-4.1,0.2c0,0-0.1,0.1,0,0.1c5.1,0.2,10.2-0.1,15.2-1.1c5.2-1.1,10.2-2.7,15.2-4.3c2.6-0.8,5.1-1.9,7.5-3
		c1.1-0.5,2.1-0.9,3.2-1.3c1.3-0.4,2.4-1.1,3.7-1.5c1.1-0.3,1.6-1,2.6-1.6c0.9-0.5,1.5-1.2,2.3-1.9c0.9-0.7,1.7-1.4,2.5-2.2
		c0.9-0.8,3.4-2.6,4.6-4.9C271.9,139.8,268.1,143.3,262.9,146.8z"/>
	<path class="st2" d="M263.6,154.8c-2.5,1.6-5,3-7.8,4.2c-2.6,1.1-5.2,2-7.9,2.8c-2.7,0.9-5.4,1.2-8,2.4c-1.3,0.5-2.7,0.7-4,1.1
		c-1.5,0.5-3.1,0.8-4.7,1.2c-3,0.7-6,1.3-9,1.9c-3,0.6-6.1,1.1-9.1,1.3c-1.3,0.1-2.6,0.3-4,0.3c-1.5,0-3-0.2-4.6-0.1
		c-1.2,0.1-2.4,0.4-3.6,0.4c-1.6,0-3.1,0.1-4.6,0.1c-1.6,0-3.2,0.5-4.8,0.5c-1.3,0-2.4-0.1-3.6,0.2c-1.7,0.3-3.5,0.1-5.2,0.2
		c-1.5,0.1-3.1,0.5-4.5-0.1c-0.1,0-0.2,0.1-0.1,0.1c0.8,0.5,1.7,0.5,2.6,0.5c1.6,0,3.1,0,4.7,0c0.5,0,1.1,0.1,1.6,0.1
		c0.7,0,1.3-0.3,2-0.3c1.3,0,2.7,0.3,4,0.1c3-0.5,6,0,9-0.1c1.3-0.1,2.6-0.4,3.9-0.3c1.5,0.1,3,0.1,4.5,0.1c3-0.2,6-0.5,9-1
		c3.2-0.5,6.3-1.3,9.5-1.9c3.1-0.6,6.1-1.6,9.2-2.3c1.2-0.3,2.1-0.7,3.2-1.2c1.6-0.6,3.3-1,4.9-1.4c3.1-0.8,6.1-2,9-3.3
		c3.1-1.4,5.8-3,8.5-5C264.1,155,263.9,154.6,263.6,154.8z"/>
	<path class="st2" d="M154,249.5c-5.3-0.2-10.7-0.7-15.9-1.9c-2.7-0.7-5.4-1.5-7.9-2.7c-2.4-1.1-4.9-1.6-7.2-2.8
		c-2.2-1.2-4.3-2.5-6.7-3.5c-1.2-0.5-2.4-1-3.5-1.7c-1.1-0.7-2.3-1.2-3.3-2.1c-0.8-0.8-1.6-1.4-2.6-2c-1.1-0.7-1.6-1.8-2.4-2.6
		c-0.9-0.9-2-1.4-2.8-2.3c-0.7-0.7-0.9-1.5-1.5-2.2c0,0-0.1,0,0,0c0.2,0.4,0.2,0.9,0.3,1.3c0.2,0.5,0.4,0.9,0.7,1.3
		c0.7,1,1.7,1.6,2.5,2.4c0.8,0.9,1.2,2.1,2.2,2.9c0.4,0.4,1,0.6,1.4,0.9c0.5,0.5,1,1,1.5,1.5c1.7,1.7,4.3,2.9,6.5,3.8
		c2.4,1,4.6,2.3,6.9,3.6c2.3,1.2,4.9,1.7,7.3,2.8c2.5,1.1,5.1,1.8,7.8,2.4c2.7,0.6,5.5,0.8,8.3,1.1c2.8,0.3,5.6,0.5,8.4,0.4
		C154,250,154.2,249.6,154,249.5z"/>
	<path class="st2" d="M267,221.8c-1.7,1.7-2.7,3.8-4.3,5.6c-0.6,0.7-1,1.6-1.5,2.4c-0.7,1-1.5,1.8-2.4,2.6c-0.8,0.7-1.6,1.4-2.4,2.1
		c-0.5,0.5-1.1,0.7-1.7,1.1c-0.4,0.3-0.7,0.7-1,1.1c-1.6,1.6-4,2.4-6,3.3c-1.1,0.5-2,1.1-3,1.6c-1.1,0.5-2.3,0.9-3.4,1.4
		c-2,0.9-4.1,1.7-6.1,2.5c-2.1,0.8-4.2,1.4-6.3,2.2c-2.6,0.9-5.2,1.9-7.9,2.7c-0.1,0-0.1,0.1,0,0.1c4.9-1.2,10-2.3,14.8-4
		c2.1-0.8,4.2-1.5,6.2-2.3c1.1-0.5,2.3-0.8,3.4-1.3c1.1-0.6,2.3-1.1,3.5-1.6c1.9-0.8,4-1.8,5.6-3.1c0.5-0.4,0.8-0.9,1.3-1.3
		c0.4-0.3,0.9-0.5,1.3-0.9c0.9-0.8,1.8-1.6,2.7-2.4c0.8-0.7,1.6-1.3,2.2-2.2c0.6-0.9,0.9-1.9,1.5-2.9c1.2-2.2,2.2-4.4,3.8-6.3
		C267.4,221.8,267.1,221.7,267,221.8z"/>
	<path class="st2" d="M264,240.3c-1.4,2-3.4,3.4-5.3,5c-1.8,1.6-3.5,3.4-5.7,4.5c-4.5,2.2-9.3,3.8-13.9,5.7
		c-1.1,0.5-2.4,1.2-3.6,1.5c-1.2,0.3-2.5,0.7-3.8,0.9c-2.5,0.5-5,0.8-7.6,1.1c-2.2,0.3-4.4,0.8-6.7,0.9c-1.1,0-2.2,0.3-3.4,0.3
		c-1.1,0.1-2.3,0.3-3.5,0.4c-2.8,0.2-5.6,0.8-8.4,1.4c-3,0.7-5.9,0.9-8.9,1.1c0,0,0,0,0,0c2.7,0.2,5.2,0.3,7.9,0
		c2.5-0.3,5-0.9,7.5-1.1c4.9-0.5,9.7-0.7,14.6-1.4c2.7-0.4,5.4-0.6,8-1.1c1.3-0.2,2.5-0.7,3.8-0.9c1.2-0.3,2.2-0.8,3.3-1.3
		c5-2,10-3.8,14.9-6.1c2.4-1.1,4.3-3,6-4.8c1.8-1.9,3.9-3.6,5.2-5.9C264.7,240.1,264.2,240,264,240.3z"/>
	<path class="st2" d="M131,164.6c-3.2-0.2-6.3-2-9.2-3c-1.4-0.5-2.9-1-4.3-1.4c-1.6-0.5-3.3-0.7-4.8-1.4c-1.3-0.6-2.5-1.4-3.6-2.2
		c-1.3-0.9-2.8-1.6-4.2-2.5c-1.4-0.9-2.8-2-4-3.1c-1-1-1.8-2.2-2.8-3.2c0,0-0.1,0,0,0c1,1.2,1.4,2.8,2.4,3.9
		c1.2,1.3,2.4,2.5,3.8,3.6c1.2,1,2.6,1.7,3.9,2.7c1.2,0.9,2.5,1.7,3.9,2.3c3.2,1.2,6.7,1.4,9.9,2.4
		C124.7,163.6,127.9,164.8,131,164.6C131,164.7,131,164.6,131,164.6z"/>
	<path class="st2" d="M186.8,331.9c-2.3,0.4-4.7,0.8-7,0.6c-2.3-0.1-4.6-0.4-6.9-0.6c-4.6-0.3-9-1.2-13.5-2.2
		c-2.1-0.5-4.2-1.1-6.3-1.6c-2.2-0.5-4.3-0.9-6.5-1.7c-4-1.5-8-2.8-11.8-4.5c-2.3-1-4.5-1.9-6.9-2.4c-2.5-0.6-4.7-1.8-6.6-3.5
		c-0.1-0.1-0.2,0.1-0.1,0.2c1.2,1.3,2.6,2.6,4.2,3.4c2.1,1,4.4,1.4,6.5,2.4c4,2,8.1,3.8,12.3,5.5c2,0.7,3.8,1.6,5.9,1.9
		c2.3,0.4,4.6,0.7,6.9,1.2c2.4,0.6,4.8,0.8,7.2,1.1c2.4,0.3,4.9,0.6,7.3,0.7c2.6,0.1,5.2,0.2,7.8,0.4c2.6,0.2,5.1-0.3,7.7-0.7
		C186.9,332.1,186.9,331.9,186.8,331.9z"/>
	<path class="st2" d="M136.4,91.4c-1.4-0.1-2.8-0.7-4.1-1c-1.7-0.3-3.6-0.7-5.3-1.3c-1.7-0.5-3.4-1.1-5.2-1.6
		c-1.6-0.4-3.3-0.7-4.9-1.3c-1.8-0.6-3.4-1.5-5.1-2.2c-1.6-0.6-3.3-1.1-4.8-2c-1.3-0.7-2.8-1.3-4.2-1.9c-1.6-0.7-3-2-4.4-3.2
		c0,0-0.1,0-0.1,0.1c1,1.2,2,2.7,3.2,3.6s2.9,1.5,4.3,2.4c1.5,0.9,3.2,1.5,4.9,2.2c1.8,0.7,3.5,1.7,5.4,2.3
		c3.3,1.1,6.9,1.8,10.4,2.5c1.7,0.3,3.5,0.5,5.2,0.7C133.2,90.9,134.8,91.4,136.4,91.4C136.4,91.5,136.4,91.4,136.4,91.4z"/>
	<path class="st2" d="M238.3,91.2c-2.4,0.2-4.6,0.9-7,1.3c-2.4,0.3-4.9,0.5-7.3,0.8c-1.1,0.1-2.2,0.1-3.4,0.2
		c-0.9,0.1-1.8,0.1-2.8,0.2c-1.9,0.3-3.8,0.7-5.7,0.9c-4.5,0.5-9.1,0.9-13.6,1.3c-2.4,0.2-4.7,0.5-7.1,0.5c-1.2,0-2.5,0.1-3.7,0.2
		c-1.1,0.1-2.1-0.1-3.1,0c0,0-0.1,0.1,0,0.1c1.1,0,2,0.4,3,0.5c1.2,0.1,2.4,0.1,3.6,0.2c2.4,0.1,4.6-0.1,6.9-0.3
		c4.5-0.4,9.1-0.8,13.6-1.1c1.9-0.1,3.6-0.5,5.5-0.8c2-0.3,4-0.3,6-0.7c2.4-0.4,4.9-0.9,7.4-1.4c2.5-0.5,5-1.4,7.6-1.8
		C238.4,91.3,238.4,91.2,238.3,91.2z"/>
	<path class="st2" d="M145.2,34.4c-0.9,0.1-1.8,0-2.7,0.2c-1.3,0.3-2.7,0.4-4.1,0.7c-1.3,0.3-2.6,0.4-3.8,0.7
		c-1.3,0.3-2.7,0.7-4,1.1c-3,0.8-5.9,1.7-8.8,2.4c-1.3,0.3-2.6,0.8-3.9,1.2c-1,0.3-2.2,0.4-3.1,1c0,0,0,0.1,0,0.1
		c1.1-0.6,2.7-0.7,3.9-1c1.5-0.4,3-0.5,4.5-0.8c2.7-0.6,5.5-1.2,8.2-1.8c2.4-0.6,4.9-1,7.2-1.8c2.2-0.7,4.5-1.1,6.6-1.8
		C145.3,34.5,145.3,34.4,145.2,34.4z"/>
	<path class="st2" d="M170.9,80.7c-1.7-0.3-3.4-0.7-5.1-1c-1-0.2-2-0.1-2.9-0.1c-1-0.1-2.1-0.3-3.2-0.4c-4.1-0.6-8.2-1.1-12.3-1.9
		c-4.4-0.8-8.7-1.6-13-2.6c-2.1-0.5-4.2-0.9-6.3-1.5c-0.8-0.2-1.6-0.4-2.4-0.6c-1-0.3-2-0.2-3-0.8c0,0-0.1,0,0,0c1.1,1,2.6,1.6,4,2
		c2.1,0.6,4.2,1.3,6.3,1.9c4.4,1.3,8.8,2.1,13.3,2.9c2.1,0.4,4.1,0.6,6.1,0.9c2.1,0.3,4.3,0.7,6.4,1c2.3,0.3,4.5,0,6.7,0.3
		c0.9,0.1,1.8,0.1,2.7,0.2c0.8,0.1,1.7,0.1,2.5,0.1C170.9,80.9,171,80.7,170.9,80.7z"/>
	<path class="st2" d="M211.9,62.8c-2.8,0.2-6,1.5-6.7,4.5c0,0,0,0,0,0c1.5-2.2,4.3-3.4,6.7-4.3C212,63,212,62.8,211.9,62.8z"/>
	<path class="st2" d="M221.9,34.5c-2.3-0.4-4.6-0.7-6.8-0.9c-1.1-0.1-2.1-0.1-3.2-0.3c-1.2-0.2-2.5-0.5-3.7-0.5
		c-2-0.1-4-0.5-5.9-0.6c-2.5-0.1-4.9,0.1-7.4,0.5c0,0,0,0,0,0.1c2.3,0.3,4.6,0.5,6.9,0.6c2,0.1,4,0.5,6.1,0.4c2.4-0.1,4.9-0.1,7.2,0
		c2.3,0.1,4.6,0.4,6.9,0.8C221.9,34.6,221.9,34.5,221.9,34.5z"/>
	<path class="st2" d="M118.9,44.1c-1.2,0.5-2.5,0.6-3.8,0.9c-1.6,0.5-3.1,1.2-4.5,2c-2.1,1.2-3.8,2.8-5.5,4.4
		c-0.1,0.1,0,0.1,0.1,0.1c1.9-1.5,4-3,6.2-4c1.4-0.7,2.8-1.5,4.3-2.1C116.7,45.1,117.9,44.7,118.9,44.1
		C118.9,44.1,118.9,44.1,118.9,44.1z"/>
	<path class="st2" d="M103.4,68.2c-0.7-0.4-1.4-1-2.1-1.4c-1-0.6-2-1-3-1.7c-1.4-1-3.3-2-4.2-3.5c0-0.1-0.1,0-0.1,0.1
		c0.4,0.9,0.6,1.5,1.3,2.1c0.8,0.6,1.6,1.3,2.4,1.8c0.9,0.6,1.8,0.9,2.7,1.3C101.5,67.2,102.4,67.8,103.4,68.2
		C103.4,68.3,103.5,68.2,103.4,68.2z"/>
	<path class="st2" d="M241.6,64.3c-2-0.7-4.2-1.6-6.3-1.6c0,0-0.1,0.1,0,0.1c1.8,0.6,3.7,1,5.3,1.9c1.6,0.9,2.7,1.9,4,3.1
		c0.1,0.1,0.2,0,0.2-0.1C244.5,66.2,243,64.8,241.6,64.3z"/>
	<path class="st2" d="M236.8,71.1c-3.3,1.9-7.3,2-10.9,1.7c-2.7-0.2-5.2-0.2-7.8-1.1c0,0-0.1,0,0,0c5.8,2.4,13.3,3,19-0.2
		C237.4,71.4,237.2,70.9,236.8,71.1z"/>
	<path d="M152.4,40.8c-1.4,1-3.4,0.8-5,0.8c-1.7,0-3.4-0.1-5.2,0c0,0,0,0,0,0c2.1,0.2,4.1,0.4,6.3,0.4c1.3,0,3.1-0.1,4.1-1.1
		C152.6,40.9,152.5,40.7,152.4,40.8z"/>
	<path d="M231.9,68c-1.4,0.1-2.8,0.6-4.3,0.5c-1.4-0.1-2.8-0.2-4.3-0.1c0,0,0,0.1,0,0.1c1.6,0.1,3.2,0.5,4.7,0.5
		c1.2-0.1,2.8,0,3.8-0.7C232,68.2,232,68,231.9,68z"/>
	<path d="M226.4,66.1c-0.7,0.3-1.6,0.4-2.4,0.4c-0.7,0-1.7,0-2.3-0.3c0,0-0.1,0-0.1,0.1c0.6,0.6,1.8,0.7,2.5,0.8
		c0.8,0.1,1.8,0,2.4-0.6C226.8,66.3,226.7,65.9,226.4,66.1z"/>
	<path d="M230.5,64.2c-1.2-0.3-2.3-0.6-3.5-0.5c-1.3,0.1-2.8,0.4-4,0.3c0,0,0,0,0,0c1,0,2,0,3,0c0.8,0,1.5-0.1,2.3,0
		c0.1,0,2,0.3,2.1,0.5c0.1,0.1,0.3,0,0.3-0.1c0,0,0-0.1,0-0.1C230.6,64.3,230.5,64.2,230.5,64.2z"/>
	<path d="M222.7,69.2c-1.3-0.3-2.6-0.9-3.7-1.6c-0.9-0.5-1.9-0.9-2.6-1.7c0,0-0.1,0-0.1,0.1c1.1,1.9,4.2,3.4,6.3,3.4
		C222.7,69.3,222.7,69.2,222.7,69.2z"/>
	<path d="M144.4,42.6c-0.9-0.1-1.7-0.1-2.6-0.2c-0.8,0-2-0.1-2.7-0.5l0,0c1.5,0.9,3.6,0.9,5.3,0.8C144.4,42.7,144.5,42.6,144.4,42.6
		z"/>
	<path d="M151.4,40.8c-1.5,0.1-3,0.1-4.4,0.3c0,0,0,0,0,0.1c0.8,0.2,1.4,0.3,2.3,0.2c0.8,0,1.4-0.3,2.2-0.5
		C151.4,40.9,151.5,40.8,151.4,40.8z"/>
	<path d="M136.5,324.9c-1.3-0.8-2.8-1.3-4.2-1.9c-1.6-0.7-3.1-1.3-4.6-2c-1.6-0.7-3.1-1-4.6-2c-0.7-0.5-1.4-0.9-2-1.4
		c-0.7-0.5-1.3-0.7-2-1c0,0-0.1,0,0,0c1.3,1,2.5,2.2,3.9,3.3c1.3,0.9,2.6,1.4,4,1.9c1.7,0.6,3.3,1.3,5,1.9c1.5,0.5,3.1,0.8,4.5,1.4
		C136.5,325.1,136.6,325,136.5,324.9z"/>
	<path d="M189.6,333.1c-4.2,0.4-8.3-0.5-12.5-0.5c-2.1,0-4.2-0.3-6.3-0.3c-2,0-4.1-0.1-6.1-0.4c-2.1-0.3-4.3-0.3-6.4-0.9
		c-1.8-0.5-3.6-0.9-5.3-1.3c-1.9-0.5-3.9-0.7-5.8-0.9c-1.2-0.1-2.5-0.3-3.6-0.7c-0.9-0.3-2-0.5-2.8-0.9c0,0,0,0,0,0
		c0.6,0.6,1.4,0.8,2.1,1.1c0.9,0.4,1.8,0.7,2.7,0.9c2,0.5,4.1,0.7,6.1,1.1c2.1,0.5,4.2,1.1,6.2,1.8c2,0.6,4,0.8,6,1.1
		c4.2,0.7,8.6,0.7,12.8,0.6c2.3-0.1,4.5,0.3,6.8,0.3c2,0,4-0.3,5.9-0.7C189.7,333.3,189.8,333.1,189.6,333.1z"/>
	<path d="M266.9,297.9c-1.9,3.8-4.8,7-7.8,10c-1.6,1.6-3.2,3.2-5.1,4.5c-1.7,1.2-3.2,2.5-4.9,3.8v0c0.9-0.5,1.8-1.2,2.7-1.8
		c0.9-0.6,1.9-1,2.8-1.6c2-1.3,3.6-3,5.4-4.7C263.2,305.3,265.2,301.7,266.9,297.9C267,297.8,266.9,297.8,266.9,297.9z"/>
</g>
</svg>
