<?xml version="1.0" encoding="UTF-8"?>
<svg width="51px" height="51px" viewBox="0 0 51 51" version="1.1" xmlns="http://www.w3.org/2000/svg" xmlns:xlink="http://www.w3.org/1999/xlink">
    <!-- Generator: Sketch 58 (84663) - https://sketch.com -->
    <title>boiling-icon</title>
    <desc>Created with Sketch.</desc>
    <g id="boiling-icon" stroke="none" stroke-width="1" fill="none" fill-rule="evenodd">
        <g id="icon" transform="translate(6.000000, 4.000000)">
            <path d="M19.6,43.2 C28.2156421,43.2 35.2,36.2399979 35.2,27.6544003 C35.2,21.9306685 30,12.7125351 19.6,0 C9.2,12.7125351 4,21.9306685 4,27.6544003 C4,36.2399979 10.9843579,43.2 19.6,43.2 Z" id="water-drop" fill="#96FEFF"></path>
            <g id="pot" transform="translate(0.000000, 7.000000)">
                <g>
                    <rect id="Rectangle" fill="#2E2F30" fill-rule="nonzero" x="0" y="32.4" width="38.88" height="1.44"></rect>
                    <path d="M0.72,16.56 L2.88,16.56 L2.88,15.12 L0.72,15.12 C0.32235498,15.12 0,15.442355 0,15.84 C0,16.237645 0.32235498,16.56 0.72,16.56 Z" id="Path" fill="#2E2F30" fill-rule="nonzero"></path>
                    <path d="M38.88,15.84 C38.8797498,15.4424587 38.5575413,15.1202502 38.16,15.12 L36,15.12 L36,16.56 L38.16,16.56 C38.5575413,16.5597498 38.8797498,16.2375413 38.88,15.84 Z" id="Path" fill="#2E2F30" fill-rule="nonzero"></path>
                    <path d="M7.75636364,30.96 L31.1236364,30.96 C33.020555,30.9576433 34.5577505,29.3472481 34.56,27.36 L34.56,10.8 L4.32,10.8 L4.32,27.36 C4.32224575,29.3472498 5.85944341,30.9576473 7.75636364,30.96 L7.75636364,30.96 Z M6.48000008,25.92 C6.6709864,25.9199007 6.85417897,25.9957257 6.98922671,26.1307735 C7.12427445,26.2658212 7.20009945,26.4490138 7.20000006,26.6400001 C7.20105116,27.4348543 7.84514579,28.0789489 8.64000002,28.08 C9.03764503,28.08 9.36,28.402355 9.36,28.8 C9.36,29.197645 9.03764503,29.52 8.64000002,29.52 C7.05005996,29.518456 5.76154407,28.2299401 5.76,26.6400001 C5.75989689,26.4490126 5.83572067,26.2658178 5.97076923,26.1307692 C6.1058178,25.9957207 6.28901259,25.9198969 6.48000008,25.92 L6.48000008,25.92 Z" id="Shape" fill="#2E2F30" fill-rule="nonzero"></path>
                    <g id="Bubbles" transform="translate(6.480000, 0.000000)">
                        <g id="bubb1" transform="translate(0.000000, 6.480000)">
                            <circle id="Oval" fill="#2E2F30" cx="1.8" cy="1.8" r="1.8"></circle>
                            <path d="M0.864000017,2.16 C0.902197281,2.15998014 0.938835794,2.17514514 0.965845342,2.20215469 C0.99285489,2.22916424 1.00801989,2.26580275 1.00800001,2.30400002 C1.00821023,2.46297086 1.13702916,2.59178979 1.296,2.59200001 C1.37552901,2.59200001 1.44,2.656471 1.44,2.736 C1.44,2.81552901 1.37552901,2.88 1.296,2.88 C0.978011992,2.87969121 0.720308814,2.62198803 0.72,2.30400002 C0.719979378,2.26580252 0.735144133,2.22916356 0.762153847,2.20215385 C0.789163561,2.17514413 0.825802519,2.15997938 0.864000017,2.16 L0.864000017,2.16 Z" id="Path-Copy" fill="#FFFFFF" fill-rule="nonzero"></path>
                        </g>
                        <g id="bubb1-copy" transform="translate(6.480000, 3.600000)">
                            <circle id="Oval" fill="#2E2F30" cx="1.44" cy="1.44" r="1.44"></circle>
                            <path d="M0.691200013,1.728 C0.721757825,1.72798411 0.751068635,1.74011612 0.772676273,1.76172375 C0.794283912,1.78333139 0.806415913,1.8126422 0.80640001,1.84320001 C0.806568185,1.97037669 0.909623326,2.07343183 1.0368,2.07360001 C1.1004232,2.07360001 1.152,2.1251768 1.152,2.1888 C1.152,2.2524232 1.1004232,2.304 1.0368,2.304 C0.782409593,2.30375297 0.576247051,2.09759042 0.576,1.84320001 C0.575983502,1.81264201 0.588115306,1.78333085 0.609723078,1.76172308 C0.631330849,1.74011531 0.660642015,1.7279835 0.691200013,1.728 L0.691200013,1.728 Z" id="Path-Copy" fill="#FFFFFF" fill-rule="nonzero"></path>
                        </g>
                        <g id="bubb1-copy-2" transform="translate(2.160000, 0.000000)">
                            <circle id="Oval" fill="#2E2F30" cx="1.152" cy="1.152" r="1.152"></circle>
                            <path d="M0.552960011,1.3824 C0.57740626,1.38238729 0.600854908,1.39209289 0.618141019,1.409379 C0.635427129,1.42666511 0.64513273,1.45011376 0.645120008,1.47456001 C0.645254548,1.57630135 0.727698661,1.65874547 0.829440003,1.65888001 C0.880338564,1.65888001 0.9216,1.70014144 0.9216,1.75104 C0.9216,1.80193856 0.880338564,1.8432 0.829440003,1.8432 C0.625927675,1.84300237 0.460997641,1.67807234 0.4608,1.47456001 C0.460786802,1.45011361 0.470492245,1.42666468 0.487778462,1.40937846 C0.505064679,1.39209225 0.528513612,1.3823868 0.552960011,1.3824 L0.552960011,1.3824 Z" id="Path-Copy" fill="#FFFFFF" fill-rule="nonzero"></path>
                        </g>
                    </g>
                </g>
            </g>
        </g>
    </g>
</svg>