<?xml version="1.0" encoding="utf-8"?>
<!-- Generator: Adobe Illustrator 22.1.0, SVG Export Plug-In . SVG Version: 6.00 Build 0)  -->
<svg version="1.1" id="Credit_Required:_EBMUD" xmlns="http://www.w3.org/2000/svg" xmlns:xlink="http://www.w3.org/1999/xlink"
	 x="0px" y="0px" viewBox="0 0 360 360" style="enable-background:new 0 0 360 360;" xml:space="preserve">
<style type="text/css">
	.st0{fill:#A5CCEC;}
	.st1{fill:#2E67A7;}
	.st2{fill:#00A3E6;}
</style>
<g id="FILL">
	<path class="st0" d="M283.8,126.3c0-4.7,3.1-34.9,3.1-41.5s-6.1-7.1-8.8-7.1c-2.3,0-16.2-2.8-20.1-3.6c-0.4,0.1-0.8,0.1-1.2,0.1
		c-0.7,0-0.8-0.6-0.7-1.2c-0.6-0.5-1.4-1.3-2.2-1.9c-1.1,0-2.4-0.6-3.3-1.1c-0.1,0-0.1-0.1-0.2-0.1c-1.6,0.3-4,0.8-4,0.8
		s-2.7-2.2-5-2.8c-2.4-0.5-8.4-0.1-10.7,0.1h0c-0.8,0.2-1.5,0.1-2.3-0.2c-2.6-0.4-5.1-0.8-7.7-1.2c-1.5-0.2-3-0.6-4.5-0.8
		c-0.8-0.1-1.6-0.1-2.4-0.4c0,0-0.1,0-0.1,0c-0.1-0.1-0.3-0.1-0.4-0.2c-0.1,0-0.1-0.1-0.1-0.1c-0.2-0.1-0.4-0.3-0.6-0.6
		c0,0,0,0,0-0.1l-4.5-0.9c-1,0.2-1.9,0.4-2.9,0.3c-0.7,0.4-1.4,0-1.9-0.6c-0.4-0.4-0.6-0.9-0.8-1.4c-0.1-0.1-0.2-0.2-0.3-0.3h-0.2
		c-0.9-1.3-3-1.5-4.4-1.9c-1.5-0.4-3.1-0.5-4.7-0.1c-0.1,0-0.2,0.1-0.3,0.2l-4.1,0c-0.3,0.1-0.5,0.3-0.8,0.4
		c-0.1,0.1-0.2,0.1-0.3,0.2c0,0.1,0,0.1-0.1,0.2c-0.9,1.1-0.9,3.2-2.5,3.3c-0.1,0.1-0.3,0.1-0.4,0.2c-0.1,0-0.1,0-0.2,0
		c-0.3,0.1-0.6-0.1-0.7-0.3c-0.1-0.1-0.1-0.1-0.1-0.2c0-0.1,0-0.1,0-0.2l-0.2,0c0-0.1-0.1-0.1-0.1-0.2c-0.1-0.1-0.1-0.1-0.2-0.1
		c-0.1-0.1-0.2-0.1-0.3-0.2c0,0-0.1-0.1-0.1-0.1c-0.2-0.2-0.4-0.4-0.6-0.6c-0.2-0.1-0.3-0.3-0.6-0.3h0c-0.3-0.2-0.5-0.3-0.9-0.3
		c0,0,0,0-0.1,0l0,0l-0.6,0c-0.8-0.1-1.7,0-2.3,0c-1.4,0-2.7,0-4,0.1c-1,0-1.8,0.1-2.6,0.7c-0.9,0.7-0.7,1.1-0.9,2.1
		c-1,0-15.3,0.2-18.9,0.7c-3.7,0.5-6,3.7-6,3.7l-2.8-1.4l-2.4-0.1l-0.8-0.9c0,0-4.9-0.5-9-1c-4.2-0.5-10.6,1.6-10.6,1.6l-3.1,2.7
		l-1.2-3.1c0,0-8.7,0.9-10.4,1.5c-1.7,0.6-1.8,3.3-1.8,3.3s-16.3,0.4-21.3,0.4S75.2,79,75.2,79l4.2,37.2l10.5,97.9l2.8,33.1l1.7,3
		l3.3,0.3l13.4,15.2l-0.1,3.8c0,0,1.5,2.3,3,2.3c1.5,0,6.1,0.5,6.1,0.5s0.7,7.2,1.3,8.6c0.5,1.5,5.3,3.7,5.3,3.7l16.4,18.4l1.1,3
		l4,6.5l13.7,1.5c0,0,48.3-20.6,50.1-21.8c1.8-1.2,3-6.4,3-6.4l10.7,0c0,0,35.2-15.7,39.3-17.3c4.1-1.5,3.9-5.4,3.9-5.4l2.6-31
		l-1.1-3.3l2.1-3.5l3.7-40l-1.6-2.6l3.7-3.5c0,0,2.3-33.9,2.9-38.2c0.6-4.4-1.1-7.2-1.1-7.2S283.8,131,283.8,126.3z"/>
	<path class="st1" d="M104.6,178.4c-0.6-1.1-1.9-1.7-3-2.3c0-0.1-0.1-0.2-0.2-0.3s-0.2-0.2-0.3-0.2c-0.5-0.4-1-0.7-1.5-1.1
		c0-0.3,0-0.5-0.3-0.7c-1.1-0.7-1.9-1.7-3.2-2.2c-0.1-0.1-0.3-0.1-0.5,0c-0.6-0.4-1.2-0.8-1.7-1.3c-0.4-0.4-0.8-0.7-1.2-1.1
		c-0.2-0.1-0.3-0.2-0.5-0.2c-0.3-0.3-0.6-0.6-0.9-0.9c-0.2-0.2-0.5-0.2-0.7-0.1c-0.2-0.2-0.5-0.4-0.9-0.4c-0.7-0.1-1.6,0.2-2.3,0.4
		c-1.1,0.4-1.8,1.4-2.2,2.5c0,0.1,0,0.1,0,0.1c0,0.1-0.1,0.2-0.1,0.3c-0.2,0.3-0.3,0.6-0.3,1c0,0.1,0,0.2,0,0.2
		c-0.1,0.3,0,0.5,0.1,0.7c0.7,0.8,1.4,1.4,2.3,1.9c1.1,0.7,1.9,1.6,2.9,2.4c1.6,1.3,3.4,2.2,5,3.5c0.8,0.7,1.8,1.4,2.9,1.8
		c0,0.1,0.1,0.3,0.2,0.4c1.2,1.5,4.6,1.6,5.8,0.2c0.3-0.4,0.6-0.9,0.6-1.4C105.3,180.9,105.1,179.3,104.6,178.4z"/>
	<path class="st1" d="M140.1,209.6c-0.3-1.4-0.9-2.3-1.7-3.5c-0.6-1-1.2-2-2.1-2.8c-1-0.9-2.3-1.5-3.4-2.3c-1.1-0.9-1.9-1.9-3-2.8
		c-0.9-0.7-1.9-1.3-2.8-2c-1.2-0.9-2-1.8-3.4-2.5c-2-1-4.7-3.1-6.5-0.7c-0.8,1-1,2.1-0.9,3.3c0,0.2,0,0.5,0.1,0.7
		c-0.2,0.4-0.1,0.7,0,1.1c0,0.6,0.3,1.2,0.7,1.7c0.8,1.2,2.1,2.3,3.2,3.3c1,0.9,2.4,1.7,3.5,2.3c0.4,0.2,0.9,0.5,1.4,0.8
		c2.2,1.9,4.6,3.5,6.9,5.3c1.5,1.2,3.3,2.9,5.4,2.5C139.6,213.6,140.5,211.5,140.1,209.6z"/>
	<path class="st1" d="M204.9,253.8c-0.4-1-0.8-2.3-1.6-3c-1.7-1.5-4.9-0.2-6.7,0.2c-2.8,0.6-5.4,1.5-8.1,2.5
		c-2.7,0.9-5.1,2.1-7.7,3.3c-2.7,1.2-5.8,2-8.4,3.5c-0.8,0.5-1.5,1.1-1.2,2.1c0.1,0.4,0.3,0.8,0.4,1.2c0,0.8,0.4,1.5,0.9,2.1
		c0.1,0.2,0.2,0.3,0.4,0.5c0,0,0.1,0.1,0.1,0.1l0,0c0,0.7,0.7,1.3,1.4,1.7c0.2,0.3,0.5,0.5,0.9,0.6c0.1,0.1,0.3,0.1,0.4,0.2
		c0.1,0.2,0.4,0.4,0.9,0.2c2.6-0.8,5.1-1.9,7.7-2.9c2.9-1,5.8-1.9,8.6-3.1c2.3-0.9,4.7-1.7,7.1-2.4c2-0.6,4.8-1.3,5.4-3.6
		C205.6,255.9,205.3,254.8,204.9,253.8z"/>
	<path class="st1" d="M265.2,229.2c-0.8-2.2-2.8-2.3-4.8-2c-2.7,0.4-5.3,1.5-7.9,2.4c-2.9,1.1-5.7,2.2-8.4,3.7
		c-1.2,0.7-2.4,1.4-3.6,2.1c-0.8,0.5-1.7,1-2.3,1.8c-0.1,0.1-0.2,0.1-0.4,0.2c-0.2,0.1-0.3,0.3-0.5,0.4c-0.4,0.3-0.7,0.7-0.9,1.1
		c-0.3,0.7-0.1,1.4,0.2,2.1c0.5,1.4,2.3,3.9,4,3.1c0.5-0.1,1.1-0.3,1.5-0.5c5.2-1.8,10.8-3.3,15.8-5.5c1.1-0.5,2.1-1.1,3.2-1.6
		c1-0.5,2.1-1,2.8-1.9C265.3,233,266,231.2,265.2,229.2z"/>
	<path class="st2" d="M201.3,229.3c-0.1-0.2-0.2-0.4-0.4-0.4l0,0c-0.2-1.4-0.2-3-0.7-4.3c-0.5-1.3-1.7-2.4-2.7-3.2
		c-0.1,0-0.1-0.1-0.2-0.1c-0.7-1-1.5-1.8-2.8-2c0,0-0.1,0-0.1,0c-0.5-0.5-1.1-0.8-1.7-1c-0.3-0.1-0.6-0.1-0.8,0.1
		c-0.6-0.3-1.3-0.6-1.9-0.8c-1.1-0.3-2.6-0.2-3.6,0.3c-0.1,0.1-0.2,0.1-0.3,0.2c-0.1,0-0.1,0-0.2,0c-2.1,0.6-4.1,1.4-6.1,2.4
		c-1.5,0.8-3.1,1.9-3.5,3.6c0,0,0,0.1,0,0.1c-0.3,0.4-0.5,0.7-0.7,1.1c-0.4-0.3-1.1,0.3-1.2,0.8c0,0,0,0.1,0,0.1s-0.1,0.1-0.1,0.1
		c-0.3,0.3-0.7,0.5-0.9,0.9c-0.8,0.7-1.1,1.7-1.4,2.7c-0.2,1-0.6,1.9-0.9,2.8c0,0,0,0.1,0,0.1c-0.2,0.1-0.4,0.2-0.5,0.4
		c-0.2,0.5-0.3,0.9-0.3,1.4c-0.2,0.4-0.3,0.8-0.4,1.2v0c-0.2,0.2-0.4,0.6-0.4,1c0,0.7,0.3,1.2,0.7,1.6c0.2,0.5,0.6,0.9,1.1,1.1
		c0,0.1,0.1,0.1,0.1,0.2c0.1,0.2,0.3,0.3,0.4,0.3c0,0,0,0.1,0,0.1c0,0.1,0.1,0.2,0.2,0.2c0.2,0.3,0.5,0.7,0.8,1c0,0,0,0,0,0
		c0,0.1,0,0.2,0,0.2c0.1,0.3,0.1,0.5,0.2,0.8c-0.2,0.3-0.3,0.6-0.3,1c-1.1,1-0.8,2.9-0.5,4.2c0.4,1.7,1.5,3.2,2.9,4.2
		c1.9,1.3,3.6,1.8,5.9,1.8c1.8,0,3.4-0.2,5-0.7c0.2,0.1,0.4,0.1,0.7,0.1c0.2,0.1,0.4,0.1,0.7,0c1.5-0.5,2.6-1.4,3.8-2.3
		c0.2,0,0.4,0,0.6-0.2c1.5-1.1,2.7-2.3,3.8-3.7c0.1,0,0.1-0.1,0.2-0.1c1-0.6,1.5-1.5,1.9-2.5c0.2-0.1,0.4-0.2,0.6-0.3
		c0.5-0.4,0.6-1,0.8-1.5c0.3-0.8,0.8-1.4,0.8-2.3c0-0.2,0-0.3-0.1-0.4c0.4-0.8,0.5-1.7,0.8-2.5c0.3-0.8,1-1.8,1-2.6
		c0-0.2,0-0.3-0.1-0.4C202.5,232.5,201.8,230.9,201.3,229.3z"/>
	<path class="st2" d="M264.4,209.5c0-0.2-0.1-0.4-0.2-0.5c-0.1-1.2,0.1-2.4-0.2-3.6c-0.3-1.3-0.7-2-1.8-2.8
		c-0.6-0.5-1.3-0.8-1.9-1.3c-0.1-0.1-0.2-0.3-0.3-0.4c-0.2-0.2-0.5-0.4-0.7-0.6l0,0c-0.5-0.3-1-0.7-1.5-1c-0.1-0.2-0.4-0.4-0.6-0.6
		c0-0.1-0.1-0.1-0.1-0.2c-1.6-1.5-4.2-1.8-6.3-1.5c-2.3,0.3-4.2,1.6-5.8,3.2c-0.2,0.2-0.3,0.3-0.3,0.5c-1.4,0.6-2.5,1.8-3.3,3.2
		c-0.7,0.6-1.4,1.2-1.8,2c-0.1,0.2-0.1,0.3-0.1,0.5c-1,1.1-1.7,2.6-2.5,3.8c-0.5,0.7-0.6,1.4-0.7,2.2c-0.3,0.9-0.5,1.7-0.6,2.7
		c0,0.2,0,0.4,0.1,0.5c0,0.3,0,0.6,0.1,0.9c0.1,0.2,0.2,0.3,0.3,0.4c0,0.1,0,0.2,0.1,0.3c0.1,0.3,0.3,0.4,0.6,0.4
		c0.1,0.1,0.3,0.1,0.4,0.1c0.1,0.1,0.2,0.2,0.3,0.2c0.2,0.2,0.5,0.2,0.8,0.1c0.2,0.1,0.4,0,0.6,0c0.3,0.3,0.7,0.6,0.8,0.9
		c-0.2,0.3-0.4,0.7-0.5,1.1c-0.1,0.3-0.2,0.6-0.3,0.9c-0.5,0.1-0.9,0.3-1.5,0.4c-0.4,0-0.8,0.5-0.7,1c-0.1,0.2-0.2,0.4-0.3,0.7
		c0,0.7,0.4,1.7,0.7,2.3c0.4,0.8,0.7,1.5,1.4,2c0.2,0.1,0.5,0.3,0.7,0.5c0.2,0.2,0.4,0.4,0.6,0.5c0.5,0.9,2.2,1.6,3.1,1.8
		c1.3,0.4,2.7,0.8,4,0.4c0.7-0.1,1.4-0.2,2-0.3c1.2-0.3,2.4-0.7,3.6-1c1-0.2,2.2-0.4,3.1-1c1-0.7,1.7-1.7,2.6-2.5
		c1-0.9,1.2-1.4,1.7-2.6c0.9-1.9,3.6-3.7,3.2-6.1c0-0.1,0-0.2-0.1-0.2c0.3-0.7,0.4-1.6,0.7-2.3C264.6,212.8,264.6,211,264.4,209.5z"
		/>
	<path class="st2" d="M138.7,184.3c-0.5-0.8-0.5-1.8-0.6-2.7c-0.2-1-0.3-2.6-0.2-3.9c0.1-0.3,0.2-0.7,0.2-1s-0.1-0.5-0.3-0.6
		c0.1-0.3,0.1-0.6,0.1-0.9c0-0.4-0.2-0.6-0.4-0.6c0,0,0-0.1,0-0.1c0-1.2,0.2-2.4,0.2-3.7c0-0.9-0.2-1.8-0.4-2.8
		c-0.2-0.6-0.4-1.2-0.7-1.8c0-0.1,0-0.3,0-0.4c-0.1-0.4-0.3-0.7-0.4-1c-0.3-0.7-0.7-1.3-1.5-1.2c-0.1,0-0.1,0-0.2,0
		c-0.3-0.5-0.6-0.9-0.9-1.3c-0.8-1.1-1.8-1.7-2.7-2.7c-0.2-0.2-0.5-0.2-0.7-0.1c-0.7,0.3-1.4,0-2.1,0.4c-0.2,0.1-0.4,0.3-0.5,0.4
		c-0.3,0-0.5,0.1-0.7,0.3c-0.3,0.1-0.6,0.2-1,0.2c-0.1,0-0.1,0-0.2,0c-0.3,0-0.5,0.1-0.8,0.1c-0.6,0-1.1,0.1-1.7,0.3
		c-0.3,0.1-0.6,0.5-0.7,0.9c-0.1,0.2-0.2,0.3-0.2,0.5c-0.9,1-1.6,2.2-2,3.3c-0.4,0.8-0.9,2-1,2.9c-0.1,0.6,0.1,1.3,0.1,1.8
		c0,0.2,0,0.5-0.1,0.7c-0.2,0.5-0.3,1-0.3,1.6c0,0.1,0,0.2,0,0.3c-0.1,0.6-0.1,1.2,0.1,1.7c0,0.7,0.2,1.5,0.2,1.9
		c0,1.3,0.3,2.3,0.6,3.6c0.3,1,0.5,2.1,0.8,3.2c-0.2,1.2,0.1,2.7,0.8,3.6c0.1,0.1,0.2,0.2,0.3,0.2c0,0.1,0.1,0.2,0.1,0.3
		c0,0.1,0.1,0.2,0.1,0.3c0,0.1,0.1,0.2,0.2,0.2c0.2,0.3,0.4,0.6,0.5,0.9c0.3,0.7,0.7,1.4,1.3,1.9c0,0.1,0.1,0.2,0.1,0.3
		c0.1,0.2,0.3,0.3,0.4,0.3c0.3,0.5,0.7,0.8,1.2,1.1c0.3,0.4,0.8,0.6,1.2,1c0.1,0.1,0.2,0.1,0.4,0.1c0.4,0.2,0.9,0.4,1.4,0.5
		c0,0,0,0.1,0.1,0.1c1.3,1.2,4,1.2,5.6,0.7c0.4-0.1,0.8-0.8,0.4-1.2c-0.7-0.6-1.2-1.1-1.5-1.9c0-0.2-0.1-0.4-0.1-0.7
		c0.3-0.6,0.5-1.1,0.4-1.8c-0.1-1.1-0.8-2,0-2.9c0.1-0.1,0.2-0.2,0.3-0.3c0.2-0.2,0.3-0.3,0.3-0.5c0.1,0,0.1-0.1,0.2-0.1
		c0,0,0.1,0,0.1-0.1c0.2-0.1,0.4-0.2,0.5-0.4c0.1-0.1,0.2-0.1,0.4-0.2c0.1-0.1,0.2-0.1,0.3-0.2c0.1,0,0.2,0,0.3,0
		c1-0.3,0.9,0,1.3,0.2c0.1,0.2,0.3,0.3,0.6,0.3l0.2,0C138.4,185.5,139.1,184.8,138.7,184.3z"/>
	<path class="st2" d="M101.5,158.1c0.1-0.2,0.2-0.5,0.1-0.8c-0.8-1.5-0.3-3.5-0.5-5.1c0-0.1,0.1-0.2,0.1-0.3
		c0.1-0.7,0.1-1.4,0.1-2.1c0-0.5-0.1-1.1-0.2-1.5c0-0.2,0.1-0.4,0.1-0.6c0.1-0.3,0.2-0.7,0.3-1c-0.2-0.3-0.1-0.7-0.2-1.1
		c0-0.2,0-0.4,0-0.5c0,0-0.1-0.1-0.1-0.1l0,0c0-0.1,0.1-0.2,0.1-0.3c0-0.2,0-0.4,0-0.6c0-0.1-0.1-0.3-0.1-0.4c0,0,0,0-0.1-0.1
		c0.1-0.4,0.1-0.9,0.1-1.3c0-0.9,0.3-2.1,0-3c-0.2,0-0.4,0-0.5,0c-0.6,0.1-1.4,0.1-1.5-0.3c0,0,0,0-0.1,0c-0.8,0.1-1.7,0.3-2.5,0.4
		c-0.9,0.1-1.8,0.2-2.7,0.4c-0.7,0.1-1.4,0.2-1.9,0.5c-0.1,0.1-0.2,0.1-0.2,0.2c-0.1,0-0.2,0-0.3,0.1c-0.2,0-0.3,0.2-0.4,0.3
		c-1.3,0.8-2.7,2.6-2.6,4.1c-0.6,1.1-0.4,2.9-0.2,3.8c0.1,0.5,0.3,0.9,0.4,1.4c0.2,0.9-0.1,1.6-0.4,2.4c0.2,0.6,0.2,1.3,0.1,2
		c0,0.2,0,0.4-0.1,0.6c0,0.1,0,0.1,0,0.2l0,0c0.1,0.1,0.2,0.3,0.3,0.4c-0.1,0.4,0,0.9,0.1,1.2c-0.2,0.4-0.1,0.9,0.2,1.4
		c0,0.3,0,0.5,0,0.8c-0.2,0.6-0.1,1.2,0.2,1.8c-0.1,0.1-0.1,0.2-0.1,0.3c0,0,0,0.1,0,0.1c0.1,0,0.1,0,0.1,0.1c0.1,0.5,0.2,1,0.3,1.6
		c0,0.1,0,0.1,0,0.1c0.1,0.3,0.1,0.6,0.2,0.9c0,0.1,0.1,0.3,0.1,0.4c0.2,0.7,0.5,1.3,1,1.7c0,0.1,0,0.3,0.1,0.4
		c0.8,0.8,1.5,1.2,2.5,1.7c0.1,0,0.1,0.1,0.2,0.1c0.1,0.1,0.3,0,0.4,0c0.4,0.1,0.9,0.2,1.3,0.1c0.2,0,0.3,0,0.4,0
		c0.8,0.1,1.7,0,2.5,0c0.8,0,1.5,0,2.2-0.3c0.8-0.3,0.9-0.9,0.9-1.6c0-0.4,0-0.8-0.1-1.2c0.2-0.8,0.4-1.9,0.1-2.5
		c-0.1-0.2-0.3-0.3-0.5-0.2c-0.2-0.1-0.4,0-0.6,0.1c0,0,0,0-0.1,0.1c-0.1,0-0.2,0-0.4,0c-0.5,0-0.8,0-1.3,0c0,0,0-0.1,0-0.1
		c-0.4-0.1-0.7-0.4-0.8-0.9c-0.1-0.2-0.2-0.5-0.2-0.7c-0.1-0.2-0.1-0.5-0.1-0.7l0,0c0-0.4,0.1-0.7,0.2-1c0.2-0.1,0.4-0.2,0.6-0.3
		c0.3-0.1,0.7-0.2,1-0.3c0.1,0,0.2,0,0.2,0c0.2,0.2,0.5,0.2,0.7,0.3c0.2,0.1,0.4,0.4,0.6,0.4c0.2,0.1,0.4,0.2,0.7-0.1
		c0.1-0.2,0.1-0.4,0.1-0.6C101.5,158.6,101.6,158.3,101.5,158.1z"/>
</g>
<g id="LINE">
	<g>
		<path d="M145.8,160.2c-1.7-0.4-3.7-1.3-5-2.5c-0.6-0.6-0.9-1.1-1.7-1.5s-1.5-0.8-2.2-1.2c-1.8-1-3.7-2.2-5.4-3.5
			c-1.3-1-3.1-1.7-4.6-2.3c-1.8-0.7-3.2-2-4.8-3.1c-1-0.7-1.8-1.5-2.9-2.1c-1.5-0.8-3.1-1.5-4.7-2.1c-1.2-0.5-3.3-1.5-3.6-2.9
			c0,0,0,0,0,0c0.3,1,1.3,2.2,2.1,2.8c1.2,0.8,2.9,1.2,4.3,1.9c0.9,0.5,1.9,0.8,2.7,1.5c0.5,0.5,0.9,0.8,1.5,1.2
			c1.6,1,2.9,2.4,4.6,3.1c1.9,0.8,3.7,1.6,5.3,2.8c1.6,1.2,3.4,2.3,5.1,3.3c0.9,0.5,2.1,0.9,2.9,1.6c0.6,0.5,0.9,1.1,1.6,1.5
			c1.4,1,3,1.5,4.7,1.7C145.8,160.4,145.9,160.2,145.8,160.2z"/>
		<path d="M163.9,161.6c-0.9,0.5-2.8,0.3-3.8,0.3c-1.5,0-3-0.1-4.6-0.3c-1.7-0.2-3.2-1-4.8-1.3c-0.8-0.1-1.5-0.1-2.3,0c0,0,0,0,0,0
			c1.4,0.1,2.5,0.3,3.8,0.9c1.5,0.7,2.8,0.9,4.5,1.1c1.4,0.1,2.9,0,4.3-0.1C161.9,162.1,163.1,162.2,163.9,161.6
			C164,161.6,164,161.5,163.9,161.6z"/>
		<path d="M203.2,150.1c-3.3,0.5-6.5,2.1-9.7,2.9c-3.3,0.9-6.6,1.6-10,2.2c-3,0.5-6.2,1-9.2,1.9c-1.7,0.5-3.4,0.9-5.1,1.3
			c-1.3,0.3-2.9,0.5-4,1.4c0,0,0,0.1,0,0.1c1.6-0.6,3.5-0.7,5.1-1.1c1.4-0.3,2.8-0.7,4.2-1c3.1-0.8,6.4-1.3,9.6-1.8
			c3.1-0.5,6.2-1.5,9.3-2.4c3.2-1,6.4-2.7,9.7-3.3C203.2,150.2,203.3,150.1,203.2,150.1z"/>
		<path d="M219.4,145.5c-1.5,2.5-5.2,3.3-7.8,3.2c-1.7-0.1-4.7-0.4-6.2,0.7c0,0,0,0.1,0,0c1.1-0.6,3.2-0.1,4.5-0.1
			c1.4,0,2.6,0.3,4,0C215.9,148.9,218.6,147.4,219.4,145.5C219.5,145.4,219.5,145.4,219.4,145.5z"/>
		<path d="M238.6,142.6c-1.4,1-4.4,1.4-6,1.2c-1.6-0.2-3.2-0.9-4.7-1.4c-1.7-0.6-3.3-0.6-5.1-0.5c-0.9,0-2.1,0-2.6,0.8
			c-0.1,0.1,0,0.3,0.1,0.3c1.6-0.1,3.2-0.1,4.9-0.1c1.3,0,2.2,0.1,3.4,0.5c0.8,0.3,1.6,0.5,2.4,0.7
			C233.2,144.6,236.7,144.4,238.6,142.6C238.7,142.7,238.6,142.6,238.6,142.6z"/>
		<path d="M280.3,133.5c-1.5,1.3-3.6,1.2-5.5,1.4c-1.4,0.2-2.8,0.3-4.3,0.5c-3.2,0.4-6.4,1.3-9.6,1.7c-6.8,1.1-13.5,2.5-20.3,3.7
			c0,0,0,0.1,0,0.1c3.5,0.1,7-0.8,10.5-1.4c3.6-0.7,7.3-1.2,10.9-2c3.5-0.7,7-1.4,10.5-1.8c2.5-0.3,5.9-0.1,7.9-1.9
			C280.6,133.6,280.4,133.4,280.3,133.5z"/>
		<path d="M217.8,198c-0.1,2.5-4.6,3.4-6.3,4.1c-2.4,1.1-5,1.5-7.4,2.4c-2.4,1-4.9,1.6-7.4,2.5c-3,1.2-6,2.1-9.1,2.9
			c-2.6,0.6-5.3,1.1-7.9,1.9c-1.3,0.4-2.5,0.9-3.8,1.2c-1.3,0.4-2.7,0.5-4,1c-2.5,0.8-5,1.3-7.6,1.9c-2.5,0.7-5.1,1.6-7.7,1.4
			c-1.3-0.1-2.4-0.6-3.8-0.5c-1.2,0-2.4,0.2-3.6,0.5c-1.6,0.4-3.4,1.1-4.9,0c-0.6-0.4-0.9-1.1-1.5-1.6c-0.4-0.3-0.8-0.5-1.3-0.8
			c0,0,0,0,0,0c0.6,0.5,1,0.9,1.4,1.6c0.3,0.5,0.4,0.9,0.9,1.3c0.7,0.6,1.5,0.8,2.4,0.8c1.4,0,2.6-0.6,4-0.8c1.6-0.3,3.1-0.4,4.6,0
			c2.4,0.6,4.7,0.1,6.9-0.5c2.8-0.8,5.7-1.4,8.5-2.1c2.7-0.7,5.4-1.4,8.1-2.2c3.2-1.1,6.5-1.6,9.7-2.4c3.1-0.8,6-1.7,9-2.9
			c1.4-0.5,2.9-0.9,4.4-1.3c1.4-0.4,2.6-1.1,3.9-1.5c1.6-0.5,3.2-0.8,4.7-1.4c1.4-0.5,2.8-1.1,4.2-1.6c1.6-0.6,4.1-1.9,4.2-3.9
			C218.4,197.4,217.8,197.6,217.8,198z"/>
		<path d="M275.9,181.3c-0.9,0.9-2,1.4-3.2,1.9c-2.4,1.1-5.2,1.9-7.8,2.7c-4.8,1.5-9.7,2.9-14.5,4.3c-5,1.4-10,2.8-15,4.3
			c-2.4,0.7-4.9,1.3-7.4,1.5c-1.1,0.1-2.3,0.2-3.4,0.3c-1.2,0.1-3.1,0.5-4.3-0.1c0,0,0,0,0,0c1.5,1.2,4.3,0.7,6.1,0.6
			c1.3-0.1,2.5-0.1,3.8-0.3c1.1-0.2,2.2-0.4,3.3-0.7c3-0.8,5.8-1.8,8.7-2.7c2.5-0.8,5.2-1.4,7.8-2.1c5.3-1.5,10.8-2.8,16-4.7
			c1.5-0.5,2.9-1,4.4-1.3c1.3-0.3,2.2-0.8,3.4-1.4c1-0.5,1.9-1.1,2.7-1.8c1-0.9,1.5-2.4,1.7-3.6
			C278.1,178.2,276.8,180.5,275.9,181.3z"/>
		<path d="M220.1,151C220.1,151,220,151,220.1,151c0.8,1.7-0.5,4.4-0.8,6.1c-0.4,1.8-0.6,3.6-0.5,5.4c0.1,1.8,0.4,3.6,0.4,5.5
			c0,2.2,0,4.4,0,6.7c0,0.9,0,1.7,0,2.5c0,1.2-0.3,2.2-0.4,3.3c-0.2,1.5-0.3,3-0.3,4.5c0,2.1-0.2,4.2-0.4,6.3
			c-0.1,1.2-0.4,3.3,0.7,4.1c0.3,0.2,0.8-0.1,0.7-0.5c-0.6-1.9-0.2-4,0-5.9c0.2-1.9-0.1-3.9,0.2-5.8c0.2-1.6,0.5-3.2,0.7-4.9
			c0.2-2.1,0-4.4,0-6.6c0-2,0-4.1,0-6.1c-0.1-1.7-0.5-3.3-0.5-5c0-2.2,0.8-4.3,1-6.4C220.7,153.1,220.9,152,220.1,151z"/>
		<path d="M217.7,213.9c-0.1-1.3-0.7-3-0.2-4.2c0.4-1,0.6-1.4,0.6-2.5c0-1.4,0.2-2.7,0.1-4.1c0-0.5-0.6-0.3-0.6,0.1
			c-0.1,1.2-0.3,2.3-0.3,3.5c0,0.8,0,1.6-0.3,2.3c-0.2,0.4-0.5,0.7-0.6,1.2c-0.2,0.8,0.2,1.5,0.3,2.2c0.2,1.1,0.3,2.1,0.4,3.2
			c0.2,1.4,0.2,1.7-0.1,2.8c-0.2,0.5-0.3,0.9-0.4,1.4c-0.1,1.1,0,2.1,0.1,3.2c0.1,1.5,0.2,2.9,0,4.4c-0.1,1.3-0.4,2.3-0.8,3.5
			c-0.6,2.3-0.2,4.9,0.2,7.3c0.2,1.2,0,2.8-0.3,4c-0.3,1.2-1,2.1-1.4,3.3c-0.3,0.7-0.5,1.3-0.6,2c-0.2,1.6-0.6,2.6-2.2,3.3
			c-1.5,0.6-2.8,0.5-4.4,0.3c-0.7-0.1-0.7-0.3-1.2,0.2c0,0,0,0.1,0,0.1c0.3-0.2,1.1,0.1,1.5,0.2c0.7,0.1,1.4,0.3,2,0.3
			c1,0,1.6-0.2,2.4-0.6c1.7-0.8,2-1.9,2.3-3.7c0.2-1.3,0.8-2.2,1.4-3.3c0.4-0.8,0.6-1.6,0.8-2.4c0.2-1,0.4-2.2,0.3-3.2
			c0-0.6-0.2-1-0.4-1.6c-0.2-1-0.1-2-0.1-2.9c0-0.8,0-1.7,0.1-2.5c0.2-0.7,0.6-1.3,0.7-2c0.2-1.3,0.3-2.7,0.3-3.9
			c0-1.3-0.1-2.4-0.2-3.7c-0.1-1.1,0-2.1,0.2-3.1c0.2-0.6,0.4-1.1,0.5-1.6C218.4,216.1,217.8,215,217.7,213.9z"/>
		<path d="M233.5,241.2c-0.4,0.3-0.5,0.4-0.9,0.8c-1.1,0.9-1.6,1.3-2.9,1.5c-1.5,0.2-3-0.3-4.4-0.6c-1.3-0.2-2.6-0.5-3.9-0.3
			c-0.7,0.1-3.1,0.4-3.8,0c0,0-0.1,0.1-0.1,0.1c0.7,0.6,2.1,0.7,2.9,0.7c1.9,0,3.7,0.2,5.6,0.6c1.6,0.3,2.7,0.6,4.4,0.1
			c1.6-0.5,2-1.3,3.1-2.6C233.8,241.3,233.7,241.1,233.5,241.2z"/>
		<path d="M238.8,217.7c-2.1,0.4-2.7-0.6-2.9-2.4c-0.1-1.5-0.3-3-0.3-4.5c0-2.2,0.3-4.3,0.3-6.4c0-1.3,0.1-2.4,0.2-3.7
			c0.1-0.8,0.2-1.8,0.1-2.6c-0.2-1-1-2.1-2.1-2c0,0,0,0,0,0.1c2.7,0.2,1.2,5.1,1.2,6.7c0,1.4,0.2,2.7,0,4.1
			c-0.2,1.2-0.2,2.2-0.2,3.4c0,1.1,0.1,2.1,0.2,3.2c0.1,1.1,0,2.4,0.3,3.4c0.5,1.7,1.8,1.6,3.3,1.3
			C239,218.2,239.2,217.7,238.8,217.7z"/>
		<path d="M239.5,220.1c-1,1.2-2.8,0.4-3.6,1.9c-0.3,0.6-0.2,1.2-0.2,1.8c0,0.8-0.3,1.5-0.3,2.2c0,1.9,0.2,3.8-0.2,5.7
			c-0.4,1.8-0.5,3.8-0.5,5.7c0,0.2,0.3,0.1,0.3,0c0.3-1.7,0.4-3.3,0.7-5c0.1-0.8,0.3-1.5,0.4-2.2c0-0.9,0.2-1.7,0.1-2.5
			c-0.2-1.7-0.3-3.9,0.6-5.3c0.7-1.1,0.9-0.6,1.9-1.1c0.4-0.2,0.7-0.4,0.9-0.7c0.1-0.1,0.1-0.2,0.2-0.3
			C240,220,239.6,219.9,239.5,220.1z"/>
		<path d="M276.6,190.2c0.5-1.6-0.3-3.1-0.4-4.7c-0.1-1.6,0.5-3.1-1.6-2.7c0,0,0,0,0,0c1.6,0.2,0.8,2.4,0.8,3.5
			c0,0.8,0.4,1.5,0.5,2.2c0.3,1.8-1.3,3.4-1.1,5.3c0.1,1.2,0.5,2.1,0.4,3.4c-0.1,0.9-0.6,1.7-0.7,2.6c-0.1,1.7,0.4,3.8,0,5.5
			s-1.3,3.8-1.2,5.5c0.1,1.4,0.5,2.4,0.3,3.9c-0.2,1-0.7,1.9-0.7,2.9c0,0.9,0.2,1.8,0.2,2.8c0,1.1-0.2,2.2-0.3,3.2
			c-0.1,0.6,0,1.1-0.2,1.7c-0.2,0.9-0.6,1.3-1.1,1.9c-0.9,1.4-2.1,2-3.6,2.7c-0.1,0.1-0.2,0.3,0,0.3c0.8-0.3,1.7-0.6,2.4-1.1
			c0.8-0.5,1.1-1.2,1.7-1.9c1-1.2,1.2-2.4,1.4-4c0.1-1,0.3-1.9,0.3-2.9c0-1-0.2-2-0.2-2.9c0.1-1.9,1.1-3.5,0.7-5.5
			c-0.4-2.1,0.2-4.3,0.8-6.3c0.2-0.7,0.4-1.4,0.3-2.1c-0.1-1,0-1.8,0-2.8c-0.1-1.8,0.7-3.3,0.7-5.1c0-1.1-0.5-1.9-0.3-3
			C275.9,191.8,276.4,191,276.6,190.2z"/>
		<path d="M237.8,219.9c-0.1,0-0.2,0-0.3,0.1c-0.2,0.1-0.4,0-0.6,0c-0.4,0-0.8,0.1-1.2,0.1c-0.1,0-0.2,0.3-0.1,0.3
			c0.2,0,0.5,0,0.7,0c0.3,0,0.4,0.1,0.7,0.1c0.3,0.1,0.5-0.1,0.8-0.3C237.9,220.2,238,219.9,237.8,219.9z"/>
		<path d="M257.9,200.9c-1.9-1-4.9,0.4-6.6,1.2c-1.9,0.9-3.2,2.3-4.2,4.1c-0.8,1.5-2.3,2.6-3.2,4c-0.3,0.5-0.5,0.8-0.9,1.2
			c-0.1,0.1-0.3,0.2-0.4,0.3c-0.2,0.3-0.2,0.5-0.3,0.8c-0.2,0.9-0.5,1.5-0.8,2.3c-0.2,0.5,0,1.3-0.4,1.7c0,0,0,0,0,0
			c1.4-1.3,1.2-3.6,2.4-4.9c0.4-0.4,0.6-0.5,0.9-1.1c0.3-0.7,0.5-1,0.9-1.6c0.5-0.8,1.3-1.3,1.8-2.1c0.7-1,0.8-1.9,1.7-2.8
			c1.1-1,2.4-1.6,3.8-2c1.5-0.5,3.6-1.5,5.2-1C257.9,201.1,258,200.9,257.9,200.9z"/>
		<path d="M263,203.2c-1.2-0.3-1.3-0.6-2-1.5c-0.3-0.4-0.8-0.8-1.2-1.1c-0.5-0.5-1.1-0.8-1.6-1.2c-0.4-0.4-0.6-0.8-1-1.2
			c-1.9-1.7-5.5-2-7.9-1.2c-1.4,0.5-2.8,1.4-3.9,2.4c-0.7,0.7-1.1,1.5-1.8,2.1c-0.5,0.4-1,0.7-1.5,1.1c-1,0.9-2.1,2.2-2.8,3.4
			c-0.2,0.4-0.4,0.8-0.4,1.2c-0.2,0.9,0.1,0.9-0.4,1.9c-0.3,0.5-0.6,0.9-1,1.4c0,0,0,0.1,0,0c0.8-0.7,1.5-1.4,1.8-2.4
			c0.3-1.2,0.3-1.7,1.2-2.8c0.3-0.4,0.6-0.8,1-1.2c1-1.3,2.5-2,3.5-3.3c1-1.1,2-2.2,3.4-2.9c1.6-0.8,3.4-0.9,5.1-0.7
			c0.9,0.1,1.8,0.4,2.7,0.7c1,0.4,1,0.7,1.5,1.3c0.3,0.3,0.9,0.6,1.3,0.8c0.8,0.6,1.4,1.2,2,2c0.6,0.8,0.9,1,1.9,1.2
			C263,203.3,263,203.2,263,203.2z"/>
		<path d="M252.1,229.3c-2.2,0.3-4.6,0.1-6.6-0.8c-1-0.4-1.4-1.4-2.2-1.9c-0.6-0.3-2.5,0.2-2.6-0.6c0-0.2-0.2,0-0.2,0.1
			c0.1,0.6,0.7,0.6,1.2,0.7c0.6,0.2,1.3,0.3,1.9,0.8c0.2,0.2,0.2,0.4,0.4,0.6c0.3,0.4,0.8,0.6,1.3,0.8
			C247.3,230,249.8,230.1,252.1,229.3C252.1,229.4,252.2,229.3,252.1,229.3z"/>
		<path d="M263.1,217.5c-0.7,1.8-2,3.4-2.9,5.1s-2.3,3-3.6,4.5c0,0,0,0.1,0,0c1.5-1.3,3-2.3,4-4c0.3-0.5,0.5-1.2,0.8-1.7
			c0.4-0.6,0.8-1.2,1.2-1.8c0.3-0.6,0.8-1.4,0.8-2.1C263.3,217.4,263.1,217.4,263.1,217.5z"/>
		<path d="M250.5,229.6c-3,0.4-7.3,0.8-10-1c0,0-0.1,0,0,0c2.5,2,7.1,1.9,10,1.1C250.6,229.8,250.6,229.6,250.5,229.6z"/>
		<path d="M264.8,232.8c-0.8,0.9-1.5,1.9-2.3,2.8c-1.3,1.2-3,1.8-4.6,2.5c-2.8,1.2-5.8,1.6-8.7,2.5c-2.4,0.8-4.7,1.9-7.1,2.7
			c-0.6,0.2-1.2,0.5-1.7,0.5c-1,0.1-1.4-0.7-2-1.3c-0.3-0.4-0.7-0.8-1-1.3c-0.2-0.4-0.9-1-1.1-1.3h0c0.2,0.9,0.7,1.8,1.3,2.5
			c0.7,0.9,1,1.8,2.3,1.8c1.3,0,2.5-0.9,3.7-1.3c1.5-0.5,3-1.1,4.5-1.6c5.9-2.1,13.7-2.3,17.2-8.4
			C265.4,232.8,265.1,232.6,264.8,232.8z"/>
		<path d="M247.2,231.7c-2.2,1.2-4.7,1.9-6.5,3.8v0c1.1-0.8,2.4-1.4,3.6-2c1-0.5,2.2-0.9,3.1-1.7
			C247.4,231.7,247.3,231.6,247.2,231.7z"/>
		<path d="M263.8,227.4c-2.3-0.6-5.6-0.3-7.6,1.1v0c2.3-1.1,5.1-0.3,7.6-0.9C263.8,227.7,264,227.5,263.8,227.4z"/>
		<path d="M240.4,239.3c0-0.3-0.2-0.4-0.4-0.5c-0.1,0-0.2,0.1-0.3,0.2c0,0.2,0.1,0.3,0.1,0.5c0,0.2,0.1,0.4,0.1,0.5
			c0.1,0.3,0.1,0.3-0.2,0.4c-0.2,0.1-0.3,0.1-0.4,0.3c-0.2,0.2,0,0.4,0.2,0.3c0.2-0.2,0.5-0.1,0.7-0.3c0.2-0.1,0.3-0.3,0.3-0.6
			C240.5,239.8,240.4,239.6,240.4,239.3z"/>
		<path d="M245.2,237.9c0-0.2-0.1-0.4-0.2-0.6c0-0.1-0.1-0.2-0.2-0.2c0,0-0.2-0.1-0.2-0.1c-0.2-0.3-0.6,0-0.6,0.3
			c0,0.2,0.1,0.2,0.2,0.3s0.2,0.4,0.3,0.5c0.2,0.5,0.1,1,0.2,1.4c0,0.1,0.1,0,0.1,0c0.1-0.3,0.2-0.5,0.3-0.8
			C245.2,238.4,245.2,238.1,245.2,237.9z"/>
		<path d="M258.3,233.7c0-0.4-0.1-0.9-0.5-1c-0.2-0.1-0.5,0.2-0.4,0.4c0.2,0.4,0.3,0.6,0.4,1c0.1,0.3,0.1,0.7,0.3,1c0,0,0.1,0,0.1,0
			C258.3,234.6,258.4,234.2,258.3,233.7z"/>
		<path d="M267.8,209.2c-0.3-0.2-0.7-0.5-1.1-0.6c-0.6-0.2-1.3,0-1.9,0c0,0,0,0,0,0c0.6,0,1.2,0,1.7,0.3c0.3,0.2,0.7,0.5,1,0.8
			c0.6,0.7-0.3,1.5,0.2,2.2c0.2,0.3,0.6-0.2,0.5-0.4C268.2,210.7,268.7,209.8,267.8,209.2z"/>
		<path d="M266.1,214.6c0-0.5,0-1.1-0.6-1.1c-0.2,0-0.3,0.3-0.1,0.4c0.3,0.1,0.1,3,0.1,3.4c0,1,0,1.7-0.2,2.6
			c-0.1,0.5-0.1,0.5-0.2,1c-0.1,1.4-0.1,2.6-0.4,4c-0.2,1.1-0.2,2.2-0.1,3.3c0,0.1,0.2,0.1,0.2,0c0.8-3,0.5-6.2,1.3-9.1
			C266.4,217.7,266.2,216,266.1,214.6z"/>
		<path d="M265.3,230.7c-0.1-0.6-0.5-1.1-0.9-1.6c-0.1-0.1-0.3,0-0.3,0.1c-0.1,0.4,0.3,0.7,0.5,1c0.3,0.4,0.5,1.5,0.2,1.9
			c0,0,0,0,0,0C265.3,231.9,265.3,231.1,265.3,230.7z"/>
		<path d="M239.4,235.9c-0.3,0-0.5,0.1-0.7,0.3c-0.3,0.2-0.6,0.5-0.9,0.8c-0.2,0.3-0.4,0.6-0.5,1c-0.1,0.3-0.3,0.6-0.1,0.9
			c0,0.1,0.1,0,0.1,0c0.2-0.5,0.4-1.1,0.8-1.6c0.3-0.3,0.8-0.9,1.2-1.1C239.5,236.2,239.6,236,239.4,235.9z"/>
		<path d="M240,222.1c-0.5,0.7-0.6,1.5-1,2.2c-0.6,1-0.7,2-0.8,3.1c-0.2,2.6,0.1,5.3-0.2,7.9c0,0.1,0.2,0.1,0.2,0
			c0.5-2.4,0.4-4.9,0.6-7.3c0.1-1.4,0.2-2.5,0.9-3.7c0.4-0.7,0.4-1.4,0.7-2C240.5,221.9,240.1,221.9,240,222.1z"/>
		<path d="M237.4,226c-0.2-0.3-0.6-0.3-0.8-0.6c-0.3-0.3-0.5-0.7-0.6-1.1c-0.1-0.3-0.7,0.1-0.5,0.4c0.2,0.3,0.5,0.6,0.8,0.9
			C236.6,225.8,237,225.8,237.4,226C237.4,226,237.4,226,237.4,226z"/>
		<path d="M237,210.3c-0.5,0.2-0.7,1-0.9,1.5c-0.3,0.8-0.4,1.5-0.4,2.3h0c0.1-0.7,0.3-1.3,0.6-1.9c0.2-0.5,0.4-1.2,0.8-1.6
			C237.3,210.4,237.2,210.2,237,210.3z"/>
		<path d="M240.9,209.8c-0.2-0.2-0.4-0.3-0.6-0.5c-0.1-0.1-0.2-0.1-0.3-0.2c-0.1-0.1-0.1-0.2-0.1-0.2c-0.1-0.1-0.4,0-0.4,0.1
			c-0.3,0.6,0.3,0.7,0.6,1c0.2,0.2,0.5,0.3,0.7,0.5s0.6,0.2,0.8,0.4c0,0,0,0,0,0C241.7,210.3,241.2,210.1,240.9,209.8z"/>
		<path d="M248,203.4c-0.4-0.5-0.7-1.3-1.3-1.6c-0.4-0.3-1.1-0.4-1.5-0.5c-0.1,0-0.3,0.2-0.2,0.3c0.3,0.4,0.8,0.4,1.2,0.5
			c0.7,0.2,1.2,0.9,1.7,1.4C247.9,203.6,248,203.4,248,203.4z"/>
		<path d="M266.7,210.9c-0.4,0-0.6,0.4-1,0.5c-0.4,0.1-0.9,0.2-1.2,0.6c-0.1,0.2-0.1,0.3-0.1,0.5c0,0.4-0.2,0.7-0.3,1.1
			c-0.1,0.2-0.2,0.3-0.2,0.5c0,0.2,0.1,0.5,0,0.7c0,0.1,0.1,0.1,0.1,0.1c0.3-0.3,0.2-0.6,0.4-0.9c0.3-0.5,0.7-0.6,0.7-1.2
			c0-0.1,0-0.5,0.1-0.6c0.1-0.2,0.7-0.2,0.8-0.2c0.4-0.2,0.5-0.4,0.7-0.7C267,211.2,267,210.9,266.7,210.9z"/>
		<path d="M264.6,209c0-0.8,0-1.6,0-2.4c0.1-1.2-0.3-1.9-0.9-2.9c-0.1-0.2-0.3,0-0.3,0.2c0,0.7,0.4,1.4,0.4,2.1c0,0.7-0.1,1.3,0,2
			c0.1,0.9,0.1,2.1,0.7,2.8c0,0,0.1,0,0,0C264.6,210.2,264.6,209.5,264.6,209z"/>
		<path d="M246.2,231.3c-0.6,0.2-1.3,0.2-1.9,0.4c-0.7,0.2-1.4,0.5-2,0.8c-0.8,0.4-1.7,0.6-2.4,1.1c0,0,0,0.1,0,0
			c0.3-0.2,0.7-0.2,1-0.3c0.7-0.2,1.4-0.4,2.1-0.7c1.1-0.4,2.4-0.5,3.3-1.3C246.3,231.4,246.3,231.3,246.2,231.3z"/>
		<path d="M229.3,245.3c-2,0.1-4-0.4-5.9-0.6c-2.1-0.3-4.2-0.9-6.3-0.2c0,0,0,0.1,0,0c2.3-0.5,4.9,0.5,7.1,0.9
			c1.8,0.3,3.3,0.6,5.1,0.1C229.4,245.4,229.5,245.2,229.3,245.3z"/>
		<path d="M268.1,264.6c-0.9,2.6-4,4-6.2,5c-2.4,1.2-4.9,2-7.3,3.1c-4.3,2-8.5,4.1-12.9,5.8c-4.3,1.6-8.4,3.3-12.5,5.3
			c-2.1,1-4.3,1.7-6.7,1.8c-1.2,0.1-2.4-0.1-3.7-0.1c-1.4,0-3,0.4-4.3,0.2c-0.1,0-0.1,0.1-0.1,0.1c1.1,0.5,2.5,0.4,3.6,0.4
			c1.3,0,2.5,0.1,3.8,0.1c2.3,0,4.8-0.6,6.9-1.6c4.6-2.1,9.1-4.3,13.9-6c5-1.9,9.6-4.8,14.6-6.5c2.6-0.9,5.4-2.1,7.8-3.6
			c1.4-0.9,3.2-2.2,3.5-4C268.5,264.4,268.2,264.4,268.1,264.6z"/>
		<path d="M270.9,228.7c-0.2-0.3-0.7,0.1-0.5,0.3c0.9,1.4,0.4,3.3,0.2,4.8c-0.2,1.3-0.2,2.3-0.1,3.6c0.1,0.6,0.3,1.4,0.2,1.9
			c0,0.7-0.3,1.4-0.4,2c-0.1,1.3-0.1,2.6-0.2,3.9c-0.1,1.5-0.9,2.7-1,4.2c-0.1,0.6,0,1.3,0,1.8c0,1.1-0.2,2-0.3,3.1
			c-0.2,3.2,0,6.4,0,9.6c0,0,0,0,0,0c0-3.5,0.2-7.2,0.9-10.6c0.3-1.6,0-3.1,0.3-4.7c0.2-0.8,0.5-1.5,0.7-2.3
			c0.2-0.7,0.2-1.5,0.2-2.2c0.2-2.5,0.4-4.9,0-7.4C270.6,234.2,272.3,231,270.9,228.7z"/>
		<path d="M215.1,282.2c0-0.1-0.1,0-0.1,0c-0.2,1-0.5,1.9-0.6,2.8c0,0.4,0,0.7-0.1,1.1c0,0-0.1,0-0.1,0.1c-0.1,0.4-0.2,0.8-0.3,1.1
			c-0.5,1.3-1.1,3.1-2,4.1c-1.3,1.4-3.1,1.9-4.8,2.7c-2.4,1.2-5.1,1.8-7.6,3c-1.4,0.7-2.9,1.1-4.3,1.8c-1.5,0.7-2.9,1.5-4.4,2.1
			c-2.5,1.1-4.9,2.2-7.5,3.2c-2.9,1.1-5.9,2.2-8.7,3.5c-2.9,1.4-5.8,2.5-8.7,3.8c-1.2,0.5-2.2,1.1-3.4,1.6c-1.5,0.6-3.2,0.2-4.7-0.2
			c-1.1-0.3-2.2-0.5-3.3-0.6c-1.6-0.1-3.4,0-4.9-0.4c-1.5-0.4-2.3-2.6-2.8-4c-0.6-1.6-1.2-2-2.4-3.1c0,0-0.1,0-0.1,0.1
			c0.7,0.8,1.2,1.2,1.6,2.1c0.3,0.7,0.5,1.4,0.7,2.2c0.2,0.6,0.5,1.1,0.7,1.6c0.3,0.7,0.3,1.3,1,1.7c1,0.7,2.4,0.6,3.5,0.6
			c1.2,0,2.5,0.2,3.7,0.3c2.8,0.3,5.2,1.3,7.9,0.2c2.8-1.2,5.5-2.5,8.2-3.8c6-2.9,12.4-5,18.5-7.7c1.4-0.6,2.8-1.2,4.3-1.9
			c1.5-0.7,3-1.3,4.6-1.9c3-1.4,6.1-2.4,9.1-3.8c1.5-0.7,3-1.2,4.2-2.3c1.1-1,1.5-2.2,2-3.5c0.4-1,0.8-1.9,1-2.9
			c-0.1,0-0.1,0.1-0.2,0.1C215.1,284.7,215.1,283.4,215.1,282.2z"/>
		<path d="M216.1,260.8c0-1.4-0.1-2.8-0.6-4.1c-0.6-1.7-1-3.3-0.5-5.1c0.3-1.1,0.8-2.1,0.8-3.3c0-0.5-0.4-2.5-1.3-1.6l0,0
			c0.2-0.2,0.1-0.5-0.2-0.4c-0.3,0.1-0.4,0.2-0.5,0.5c0,0.2,0,0.4,0.2,0.4c1.7,0.3,0.2,5.6,0.5,6.9c0.4,1.5,0.9,3.2,1,4.8
			c0,1.9-0.3,3.8-0.5,5.7c-0.3,3.3,0,6.5-0.4,9.8c-0.2,1.4-0.1,2.8-0.2,4.2c-0.1,1.1-0.5,2,0.3,3c0.2,0.2,0.5-0.1,0.4-0.3
			c-0.7-1.2,0-3.6,0.1-5c0.1-1.6,0.1-3.2,0.2-4.9c0-0.7,0.2-1.4,0.2-2.1c0-1.2-0.2-2.3-0.1-3.5C215.9,264.3,216,262.6,216.1,260.8z"
			/>
		<path d="M164.4,268.9c-1.3,0.3-2.6,0.7-3.9,0.5c-1.4-0.2-2.5-1.1-3.9-1.4c-2.7-0.4-5.3,0.7-8-0.4c-1-0.4-1.4-1.3-2.3-1.8
			c-1.2-0.8-2-1.3-2.9-2.4c-1-1.1-2.1-2.2-3.2-3.2c-0.8-0.8-1.5-1.7-2.2-2.5c-1.5-1.6-3.5-2.6-4.9-4.3c-1.9-2.2-3.7-4.5-5.8-6.6
			c-1.5-1.5-3.1-2.8-4.6-4.3c-1-1-2-2.1-3.2-2.9c-1-0.7-3.1-1.6-2.1-3.2c0,0,0,0,0,0c-0.7,0.8-0.3,2,0.4,2.7c1,0.8,1.8,1.4,2.6,2.3
			c0.9,0.9,1.7,1.8,2.5,2.7c1.3,1.3,2.7,2.4,4,3.8c0.8,0.9,1.6,1.6,2.4,2.4c1,0.9,1.7,2,2.5,3.1c1.4,1.7,3.1,2.7,4.7,4.3
			c1.5,1.5,2.8,3,4.3,4.5c0.9,0.9,1.7,1.9,2.6,2.9c0.6,0.6,1.4,1,2.1,1.5c0.7,0.4,1,1.2,1.7,1.6c0.8,0.5,1.9,0.8,2.8,0.9
			c1.2,0.1,2.4,0.1,3.6,0c1.6-0.1,2.6-0.2,4.1,0.5c2.4,1.1,4.2,0.7,6.5-0.3C164.5,269.1,164.5,268.9,164.4,268.9z"/>
		<path d="M143,302.9c-2.2-2.6-4.2-5.3-6.5-7.9c-1.2-1.3-1.7-2.9-2.9-4.1c-1.2-1.1-2.2-2.3-3.4-3.4c-0.9-0.9-1.5-1.8-2.3-2.7
			c-0.4-0.4-0.9-0.8-1.5-1c-1-0.3-1.8-0.3-2.7-1c-0.9-0.7-1.6-1.3-1.9-2.4c-0.2-0.5-0.4-0.9-0.6-1.4c-0.4-0.9-0.1-1.6,0-2.5
			c0.2-1.7-0.5-2.9-0.6-4.6c0,0,0,0-0.1,0c-0.1,0.8-0.1,1.4,0,2.1c0.2,1.4,0.1,2-0.1,3.3c-0.2,1.5,0.3,2.3,0.8,3.7
			c0.4,1.3,1.6,2.3,2.7,3c0.9,0.6,1.7,0.2,2.6,0.7c0.9,0.5,1.7,1.9,2.4,2.7c1.2,1.1,2.3,2.3,3.6,3.3c0.9,0.7,1.7,1.5,2.2,2.5
			c0.3,0.7,0.6,1.3,1.1,1.8c1.1,1.4,2.1,2.7,3.3,4c1.3,1.3,2,3.1,3.5,4.1C142.9,303.2,143.1,303,143,302.9z"/>
		<path d="M191.4,217.6c-2.3-0.4-5.1-0.6-7.4,0.2c-2,0.7-4.1,2.1-5.8,3.3c-2,1.3-2.3,3.8-4.1,5.2c-0.7,0.5-1.4,0.9-1.8,1.7
			c-0.6,0.9-0.7,2-1,3c-0.3,0.9-0.7,1.8-1,2.7c-0.3,1.1-1.1,2.2-1.1,3.4c0,0.8,0.3,1.4,0.9,1.9c0.3,0.3,0.8,0.6,1.2,0.9
			c0.2,0.1,1.2,0.5,1.3,0.7c0,0,0.1,0,0,0c-0.1-0.4-0.4-0.6-0.7-0.8c-1.2-1-2.4-1.7-1.9-3.6c0.4-1.5,1.1-3.1,1.7-4.6
			c0.4-1,0.5-2.2,1.1-3.1c0.5-0.8,1.4-1.3,2.1-1.9c1.5-1.3,1.9-3.4,3.4-4.7c1.4-1.1,3.2-2.1,4.8-2.8c2.3-1.1,4.9-1.2,7.3-0.9
			c4.1,0.5,8.5,3.4,9.8,7.5c0,0.1,0.1,0,0.1,0C199.3,221.6,195.5,218.3,191.4,217.6z"/>
		<path d="M176.3,233.1c-0.6,0.7-0.6,1.7-0.7,2.6c0,0.4-0.2,0.9-0.2,1.3c0,0.9,0.2,1.7-0.2,2.6c0,0,0,0,0,0c0.6-0.9,0.4-1.9,0.7-2.9
			c0.1-0.4,0.2-0.8,0.3-1.2c0.1-0.4,0.2-1.6,0.5-1.9C177,233.1,176.6,232.7,176.3,233.1z"/>
		<path d="M182.6,226c-0.4,0.3-0.8,0.6-1.2,0.9c-0.5,0.5-1,1.1-1.5,1.6c-0.8,0.9-1.4,2-2.2,2.9c-0.1,0.1,0,0.1,0.1,0.1
			c1.1-0.8,1.8-2,2.8-2.9c0.7-0.6,1.2-1.2,1.9-1.7c0.3-0.2,0.5-0.4,0.6-0.8C183.1,225.9,182.7,225.9,182.6,226z"/>
		<path d="M190.4,221.3c-0.5,0.2-1,0.1-1.5,0.3c-0.5,0.1-1,0.4-1.5,0.6c-1.2,0.5-1.9,1.3-2.9,1.9c-0.1,0,0,0.1,0,0.1
			c1.2-0.6,2.3-1.2,3.5-1.6c0.8-0.3,1.8-0.4,2.4-1C190.7,221.5,190.6,221.2,190.4,221.3z"/>
		<path d="M201.6,228.9c-0.6-2.4-2-4.4-3.9-6.1c-0.9-0.9-3-2.1-4.2-1.3c-0.1,0,0,0.1,0,0.1c1-0.4,2.7,0.8,3.4,1.4
			c0.9,0.8,1.6,1.6,2.3,2.5c1.3,1.7,2.2,4.6,2.5,6.8c0.1,1.3-0.4,2.6-0.6,3.8c-0.2,1.2-0.6,2-1.1,3.1c-0.4,0.9-0.5,1.8-1.1,2.6
			c-0.5,0.8-0.9,1.3-1.3,2.2c-0.4,1.2-1.3,1.7-2,2.6c-0.8,0.9-1.6,1.7-2.5,2.5c-2,1.6-4,3.2-6.6,3.4c-1.4,0.1-2.5-0.1-3.8-0.2
			c-1.2-0.1-2.6,0-3.8-0.3c-1.9-0.6-4-2.6-4.5-4.6c0-0.1-0.2,0-0.2,0.1c0.1,1.6,1.4,3.2,2.6,4c1.8,1.3,3.6,0.9,5.7,1
			c2.2,0.1,4.1,0.5,6.1-0.3c1.8-0.7,3.4-1.8,4.9-3.1c0.7-0.6,1.3-1.1,1.8-1.8c0.6-0.7,1.6-1.4,2.1-2.2c0.5-0.9,0.9-1.9,1.4-2.8
			c0.4-0.7,0.9-1.4,1.2-2.2c0.6-1.8,1.1-3.7,1.6-5.6c0.2-0.9,0.5-1.7,0.5-2.6C202.3,231.1,201.8,230,201.6,228.9z"/>
		<path d="M174.6,232.2c-0.3-0.2-0.5-0.5-0.7-0.8c-0.2-0.2-0.4-0.4-0.7-0.6c-0.2-0.2-0.4-0.4-0.6-0.4c-0.2,0-0.4,0.3-0.3,0.4
			c0.3,0.3,0.8,0.6,1.2,0.8c0.3,0.2,0.6,0.4,0.8,0.6c0.2,0.2,0.5,0.3,0.6,0.5h0C174.9,232.5,174.7,232.4,174.6,232.2z"/>
		<path d="M182,224.1c-0.4-0.4-0.8-0.9-1.2-1.3c-0.4-0.3-0.9-0.6-1.3-1c-0.2-0.2-0.6,0.2-0.4,0.4c0.4,0.4,1,0.6,1.5,0.9
			C181,223.5,181.5,223.8,182,224.1C181.9,224.1,182,224.1,182,224.1z"/>
		<path d="M180.6,252.9c-1.1-0.1-2.3-0.2-3.4-0.4c-1.2-0.3-2-1.2-2.9-1.9c0,0-0.1,0,0,0c0.7,0.8,1.3,1.8,2.4,2.2
			c1.2,0.4,2.6,0.5,3.8,0.4C180.7,253.2,180.8,252.9,180.6,252.9z"/>
		<path d="M185.4,253.6c-1.7,1.1-4.2,1.2-6.1,1.8c-1.1,0.4-2.3,0.9-3.3,1.4c-0.9,0.4-1.7,1.2-2.7,1.3c-0.1,0-0.1,0.1,0,0.1
			c2,0,4.2-1.5,6.1-2.1C181.4,255.4,183.8,254.9,185.4,253.6C185.5,253.7,185.5,253.6,185.4,253.6z"/>
		<path d="M203.7,251.3c0-0.4-0.1-0.5-0.4-0.7c-0.5-0.4-1.1-0.6-1.8-0.5c-4.5,0-8.7,1.7-12.8,3.4c-2.6,1.1-5.2,2.3-7.8,3.4
			c-2.1,0.9-4.8,1.5-6.6,3c0,0,0,0.1,0,0.1c1.1-0.8,2.6-1.2,3.9-1.6c1.2-0.4,2.4-0.7,3.5-1.3c2.3-1.1,4.6-2.1,7-3.1
			c2-0.8,4.1-1.6,6.2-2.3c2-0.7,4.2-0.8,6.3-1c0.2,0,0.3,0,0.5,0c0.1,0,0.2,0.1,0.3,0.2c0.2,0.2,0.3,0.4,0.5,0.6
			c0.1,0.2,0.3,0.2,0.4,0.3h0c0-0.1-0.1-0.1-0.1-0.2c-0.1-0.2-0.1-0.3-0.2-0.5c0-0.1-0.1-0.2-0.1-0.2c0.1,0,0.2,0.1,0.3,0.1
			c0.3,0.2,0.4,0.3,0.5,0.6c0.1,0.4,0.3,0.8,0.3,1.3c0,0,0,0,0,0C203.7,252.3,203.7,251.8,203.7,251.3z"/>
		<path d="M205.4,256c0-0.2-0.4-0.1-0.4,0.1c-0.2,2.1-3,3-4.6,3.7c-1.5,0.6-3.1,1.2-4.6,1.7c-3.3,1.1-6.4,2.4-9.7,3.5
			c-1.5,0.5-2.8,1.2-4.2,1.7c-1.2,0.5-2.5,0.9-3.7,1.5c-1.1,0.5-2,1.2-3.2,0.6c-0.6-0.3-1.1-0.9-1.6-1.5c-0.5-0.7-1.1-1.4-1.9-1.8
			c0,0-0.1,0,0,0c1.6,1.3,2.4,4.9,5.1,4.1c1.7-0.5,3.3-1.5,5-2.1c1.9-0.8,3.7-1.6,5.7-2.2c2-0.6,3.9-1.5,5.9-2.3
			c1.9-0.8,4-1.3,5.9-2C201.1,260.1,205.6,258.9,205.4,256z"/>
		<path d="M178.3,262.2c-0.1-0.5-0.4-1.1-0.8-1.3c-0.2-0.1-0.5,0.2-0.4,0.4c0.2,0.4,0.5,0.6,0.7,1c0.1,0.1,0.3,0.7,0.2,0.8
			c0,0,0,0.1,0.1,0.1C178.4,262.9,178.4,262.7,178.3,262.2z"/>
		<path d="M181,262.2c-0.1-0.2-0.1-0.4-0.1-0.6c0-0.2,0-0.4-0.1-0.6c-0.1-0.4-0.4-0.7-0.6-1.1c-0.2-0.2-0.6,0.2-0.4,0.4
			c0.3,0.4,0.6,0.7,0.8,1.2C180.6,261.7,180.6,262.1,181,262.2C181,262.2,181,262.2,181,262.2z"/>
		<path d="M186.2,258.3c0-0.4-0.6-0.1-0.6,0.2c0.1,0.4,0.2,0.8,0.2,1.3c0,0.3,0,0.6,0.3,0.8c0,0,0.1,0,0.1-0.1c-0.2-0.3,0-0.8,0-1.1
			C186.3,259,186.3,258.7,186.2,258.3z"/>
		<path d="M187.2,256.8c-0.2,0-0.5,0.5-0.2,0.6c0.5,0.2,0.9,0.5,1,1c0.1,0.5,0.1,0.9,0.3,1.4c0,0.1,0.1,0,0.1,0
			C188.6,258.8,188.9,256.8,187.2,256.8z"/>
		<path d="M194.7,253.9c-0.2,0-0.4,0.1-0.3,0.3c0.1,0.1,0.2,0.2,0.3,0.3c0.2,0.2,0.3,0.4,0.4,0.7c0.1,0.5,0.2,1,0.2,1.5
			c0,0,0,0,0.1,0C195.4,255.9,195.9,254.2,194.7,253.9z"/>
		<path d="M200.5,254.7c0-0.2,0.1-0.5,0.1-0.7c0-0.4-0.2-0.7-0.5-0.9c-0.2-0.2-0.6,0.2-0.4,0.5c0.1,0.2,0.3,0.3,0.4,0.5
			c0.1,0.2,0.1,0.4,0.1,0.6c0,0.4,0.2,0.7,0.3,1c0,0.1,0.1,0,0.1-0.1C200.5,255.2,200.4,254.9,200.5,254.7z"/>
		<path d="M205.2,231.7c0-0.1-0.1,0-0.2,0c-0.1,0.2-0.1,0.4-0.3,0.5c-0.1,0.1-0.4,0.1-0.5,0.2c-0.2,0.1-0.9,0.2-0.9-0.2
			c0-0.3-0.4-0.2-0.4,0.1c0,0.7,0.8,0.7,1.3,0.6c0.3-0.1,0.7-0.1,0.9-0.3C205.4,232.4,205.3,232,205.2,231.7z"/>
		<path d="M207.1,231.1c-0.2-0.2-0.6,0.2-0.4,0.4c0.7,0.9-0.1,2.7-0.4,3.7c-0.3,0.8-0.9,1.6-0.9,2.5c0,0,0,0,0,0
			c0.1-0.8,0.7-1.4,1-2c0.3-0.6,0.7-1.4,0.9-2C207.5,232.9,207.6,231.9,207.1,231.1z"/>
		<path d="M205.4,228.6c-0.2,0-0.3,0.1-0.3,0.3c0,0.1,0.1,0.2,0.1,0.3c0,0.1-0.1,0.2-0.1,0.3c-0.1,0.2,0,0.2-0.2,0.2
			c-0.4,0-0.9,0.1-1.2-0.2c-0.2-0.2-0.5,0.1-0.3,0.3c0.2,0.3,0.6,0.4,1,0.4c0.3,0,0.7,0,1-0.1C205.7,229.9,206.1,228.7,205.4,228.6z
			"/>
		<path d="M204.5,245.4c0-1.5-0.2-3-0.2-4.5c0-1.3-0.4-2.2-0.6-3.4c0-0.1-0.1,0-0.2,0c-0.3,2.8,0,5.8,0.1,8.6c0,2.5,0.4,5.1,0.8,7.6
			c0,0,0,0,0,0C204.3,250.9,204.5,248.2,204.5,245.4z"/>
		<path d="M204,234c-0.1-0.2-0.3-0.3-0.5-0.5c-0.2-0.1-0.5-0.4-0.7-0.5c-0.1,0-0.1,0-0.2,0c-0.4,0.4,0.1,0.7,0.5,0.9
			c0.6,0.4,0.7,1.2,0.8,1.8h0C204,235.2,204.2,234.5,204,234z"/>
		<path d="M173.2,260.5c-0.6,0.1-1.3,0.6-1.6,1.1c-0.2,0.4-0.3,0.8-0.3,1.2c0,0.5,0.3,1.1,0.3,1.6h0c0.2-1.3,0.1-3.1,1.5-3.7
			C173.3,260.7,173.3,260.5,173.2,260.5z"/>
		<path d="M173.3,262.2c-0.1,0-0.2,0.1-0.1,0.2c0.5,0.3,0.8,0.9,0.8,1.5c0,0.5,0,1.2-0.4,1.5v0c0.6-0.1,0.8-0.7,0.9-1.3
			C174.5,263.3,174,262.4,173.3,262.2z"/>
		<path d="M168.6,240.4c-1.1-0.1-0.8-6.1-0.7-7c0.2-2,0.1-3.9,0.2-5.9c0.1-1,0.2-1.9,0-2.9c-0.2-1.1-0.4-2-0.4-3.1
			c-0.1-1.4-0.3-2.6-1.9-2.7c0,0,0,0,0,0c2.1,0.2,1.6,2.7,1.6,3.9c0,1.1,0.4,2,0.4,3.1c0,0.8-0.1,1.5-0.1,2.3c0,1.1,0.2,2.2,0.1,3.3
			c-0.1,1.5-0.3,2.8-0.1,4.2c0.2,1.4-0.3,3.6,0.6,4.8c0,0,0.1,0.1,0.1,0C168.4,240.5,168.5,240.5,168.6,240.4
			C168.6,240.5,168.7,240.4,168.6,240.4z"/>
		<path d="M172,241.9c-0.6-0.7-1.7-0.8-2.6-0.6c0,0,0,0,0,0c0.7,0.1,1.4,0.2,1.9,0.7c0.2,0.2,0.4,0.3,0.3,0.6
			c-0.1,0.1-0.1,0.2-0.2,0.3c0,0,0,0.2,0,0.2c-0.1,0.1-0.2,0.4,0.1,0.3c0.4,0,0.4-0.3,0.6-0.6C172.2,242.4,172.2,242.2,172,241.9z"
			/>
		<path d="M171.1,246.3C171.1,246.3,171,246.3,171.1,246.3c-0.2,1-0.1,2-0.3,3.1c-0.2,1.1-0.5,2.3-0.5,3.5c0.1,2.2,0.4,4.5,0.7,6.7
			c0,0,0,0,0,0c-0.1-0.9,0.2-1.8,0.2-2.7c0-1.2,0-2.4-0.1-3.6c-0.1-1.3,0-2.5,0.1-3.8C171.4,248.3,171.1,247.3,171.1,246.3z"/>
		<path d="M170.2,243.4c-0.1-0.1-0.2,0-0.1,0.1c0.4,0.7-1.6,0.7-1.9,0.9c-0.4,0.3-0.4,0.8-0.4,1.2c0,0.9,0.3,1.8,0.4,2.7
			c0.1,1.1,0.3,2.2,0.5,3.3c0.2,2,0,4.1,0.2,6.1c0.2,2.6-0.3,6-2.2,8c-0.1,0.1,0,0.2,0.1,0.1c1.6-1.4,2.1-3.6,2.4-5.6
			c0.2-1.4,0-2.7,0-4c0-1.3,0.3-2.6,0.2-3.9c-0.1-1.3-0.3-2.6-0.4-3.9c-0.1-1-0.6-3,0.1-3.6C169.2,244.6,171.1,244.2,170.2,243.4z"
			/>
		<path d="M116.6,233.6c-0.4-0.4-0.1-3.2-0.1-3.8c0-1.3,0.1-2.5,0.1-3.7c0-1.5-0.4-3-0.3-4.5c0.1-1.2,0.3-2,0.1-3.3
			c-0.2-1.2,0.1-2.3-0.1-3.5c-0.2-1.2-0.6-2.2-0.5-3.5c0-0.4,0.1-0.8,0-1.2c-0.1-0.4-0.2-0.7-0.3-1.1c-0.1-0.7,0-0.9,0.1-1.5
			c0.2-1.1-0.4-2-0.4-3.1c0,0,0,0,0,0c0,0.6,0.3,1.2,0.3,1.8c0.1,0.8-0.3,1.6-0.3,2.4c0,0.6,0.3,1.1,0.3,1.6
			c0.1,0.8-0.2,1.7-0.2,2.4c0,1,0.3,1.9,0.4,2.9c0.1,1.3,0,2.5,0.1,3.8c0.1,1.3-0.4,2.5-0.3,3.7c0.1,1.6,0.3,3.1,0.2,4.7
			c-0.1,1.5,0.2,3,0.2,4.5c0,0.7-0.2,1.3,0.5,1.7C116.6,234,116.8,233.7,116.6,233.6z"/>
		<path d="M115.5,231.9c-1.6,0.7-3.3-0.3-4.5-1.2c-1-0.7-2.4-1.3-3.3-2.2c-0.9-1-1.4-2.2-2.4-3.1c-1.1-0.9-1.9-1.8-2.8-2.9
			c-1.5-1.7-2.3-3.4-4.2-4.7c-1-0.7-2-1.6-2.9-2.4c-1-0.8-2.2-1.3-3.2-2c-0.1,0-0.2,0.1-0.1,0.1c1.1,1,2.3,1.6,3.2,2.7
			c0.6,0.8,1.7,1.6,2.5,2.2c1.3,1,2.1,2,2.9,3.3c0.7,1.1,1.6,2.2,2.5,3.1c0.9,0.9,1.9,1.5,2.7,2.6c1,1.3,1.7,2,3.1,2.9
			c1.8,1.2,4.2,3.1,6.5,2C115.9,232.2,115.9,231.7,115.5,231.9z"/>
		<path d="M119.9,272.2c-0.9,0.3-1.9,0.2-2.7,0.1c-1.2-0.1-2.1,0-3.2-0.4c-1-0.4-1.9-0.8-2.2-1.9c-0.3-0.9,0.1-1.6,0-2.5
			c-0.1-1.6-1.1-1.8-1.9-3c-1.1-1.4-2.3-2.5-3.5-3.8c-0.6-0.6-1.3-1.1-1.9-1.6c-0.8-0.7-1-1.6-1.5-2.5c-0.8-1.4-1.9-2.6-3-3.7
			c-1.1-1.2-1.9-2.3-3.5-2.7c-0.5-0.1-0.7,0-1.2-0.3c-0.8-0.3-0.5-0.4-1.2-1.1c-0.4-0.5-1.3-0.8-1.4-1.5c0,0,0,0,0,0
			c0,1.1,0.9,2.3,1.7,3c0.5,0.5,0.9,0.4,1.5,0.5c1.5,0.1,2.2,1,3.2,2c1.4,1.6,3,3.2,3.9,5.1c0.8,1.6,2.3,2.6,3.6,3.9
			c1.3,1.4,2.5,2.7,3.9,4.1c1.5,1.5,0,3.3,0.9,5c1.5,2.5,6.3,2.7,8.7,1.8C120.1,272.5,120.1,272.1,119.9,272.2z"/>
		<path d="M119.4,266.3c0-0.7,0.1-1.4,0.1-2c-0.1-0.7-0.5-1.2-0.5-1.9c0-1.3,0.7-2.5,0.7-3.8c0-1.4-0.5-2.8-0.2-4.3
			c0.2-1.2,0-2-0.1-3.1c-0.1-1.3,0.3-2.7,0-4c-0.3-1.4-0.7-2.9-0.7-4.4c0-1.3-0.1-2-1-3c-0.1-0.1-0.3,0.1-0.2,0.2
			c0.7,1.3,0.5,3,0.7,4.4c0.2,1.5,0.6,3,0.5,4.5c-0.2,2.7-0.4,5.4-0.3,8.1c0,1.5,0.3,2.8-0.1,4.3c-0.2,0.8-0.2,1.5,0,2.3
			c0.2,0.8,0.4,1.5,0.5,2.3c0,0.8,0.2,1.5,0.3,2.2c0.2,1,0.2,1.9,0.8,2.7c0,0,0,0,0,0C119.3,269.7,119.4,267.5,119.4,266.3z"/>
		<path d="M136.8,213.6c-2.4,0.3-3.9-2-5.5-3.3c-1.6-1.3-3.4-2.1-5-3.3c-1.6-1.1-3.2-2.3-4.7-3.6c-0.8-0.7-1.4-1.5-2.2-2.1
			c-0.9-0.7-2.7-1.9-2.8-3c0,0,0,0,0,0c0,1.9,2.9,3.8,4.2,5.1c1.5,1.6,3.5,2.9,5.3,4.2c0.8,0.6,1.6,1.1,2.4,1.5
			c1.4,0.7,2.5,1.6,3.5,2.7c0.7,0.7,1.5,1.4,2.3,1.9c1,0.7,1.6,0.5,2.6,0.2C136.9,213.8,136.9,213.6,136.8,213.6z"/>
		<path d="M138.1,185.8c-0.7-0.7-1.5-1.1-2.4-0.7c-0.6,0.3-1.7,1.1-2.1,1.6c-0.5,0.6-0.4,1.6-0.4,2.4c0,0.3,0.2,0.5,0.2,0.8
			c0.2,0.9-0.2,1.6-0.1,2.3c0,0.9,0.8,1.7,1.4,2.3c0.6,0.7,0.9,1.1,1.1,1.9c0.2,0.9,0.3,1.7,0.4,2.6c0.3,1.9,0.2,3.6,0.2,5.5
			c0,1.6,0.2,3.3,0.2,4.9c0,0.5,0.7,0.3,0.7-0.1c0-1.3-0.2-2.4-0.2-3.7c0-1.2,0.1-2.4,0.1-3.6c0-1.5-0.3-2.9-0.5-4.3
			c-0.1-1-0.2-2.4-0.7-3.2c-0.6-1-1.7-1.3-1.9-2.6c-0.1-0.7,0.3-1.2,0.2-1.8c0-0.3-0.2-0.6-0.3-0.9c-0.1-0.7-0.1-1.9,0.2-2.4
			C134.9,185.6,136.9,184.9,138.1,185.8C138.1,185.8,138.1,185.8,138.1,185.8z"/>
		<path d="M135.5,202.9c-1.5-1.1-2.6-2.6-4.2-3.7c-1-0.7-1.8-1.2-2.7-2.1c-0.5-0.6-1.1-1.1-1.6-1.6c-1.1-1.1-2.6-1.9-4-2.5
			c-0.7-0.3-1.4-0.5-2.2-0.4c-0.6,0.1-1.8,0.6-2.2,0.4c0,0-0.1,0,0,0.1c0.5,0.3,1,0,1.6,0c1.1-0.1,1.8,0.1,2.8,0.7
			c1.5,0.9,3,1.7,4.2,2.9c0.5,0.6,1,1.3,1.6,1.8c0.5,0.5,1.3,0.8,1.9,1.2c1.7,1.1,3,2.7,4.8,3.6
			C135.4,203.4,135.7,203.1,135.5,202.9z"/>
		<path d="M139.2,207c-0.5-0.8-1.2-1.1-1.8-1.7c0,0,0,0,0,0c0.1,0.4,0.1,0.2,0.3,0.5c0.4,0.6,0.8,1.1,1.1,1.8
			c0.7,1.7,0.6,4.6-1.2,5.7c-0.1,0.1-0.1,0.3,0,0.3c1.5-0.3,2.3-2.2,2.4-3.6C140.1,209,139.7,207.9,139.2,207z"/>
		<path d="M124.9,197.4c-0.7-0.3-1.3,0.4-1.5,1c-0.1,0.3-0.2,0.6-0.4,0.9c-0.2,0.3-0.2,0.7-0.4,1.1c0,0.1,0.1,0.1,0.1,0.1
			c0.2-0.2,0.4-0.4,0.6-0.6c0.2-0.2,0.5-0.4,0.7-0.7c0.1-0.2,0.3-0.4,0.4-0.6c0.2-0.2,0.3-0.3,0.5-0.5
			C125,197.9,125.3,197.5,124.9,197.4z"/>
		<path d="M132.7,203.8c-0.6,0.4-1,1.1-1.1,1.8c0,0.4,0,0.8,0,1.2c0,0.4-0.1,0.5,0.1,0.8h0c-0.2-0.5,0.2-1.5,0.4-1.9
			c0.2-0.7,0.6-1,0.9-1.6C133.2,203.9,133,203.6,132.7,203.8z"/>
		<path d="M120.1,194.7c-0.9,0-1.1,0.7-1.2,1.4c-0.1,0.5-0.5,1.4,0.1,1.7c0.1,0,0.1,0,0.1-0.1c-0.2-0.4,0.2-1.1,0.4-1.4
			s0.1-0.9,0.6-1C120.3,195.2,120.4,194.7,120.1,194.7z"/>
		<path d="M119.4,171.4c-1.1-1.3-3.6-1.3-4.6,0.1c-0.4,0.6-0.9,1.6-0.8,2.2c0.1,0.9,1.2,1.7,1.8,2.1c1.2,0.9,1.4,1.8,1.6,3.3
			c0.1,1.4,0.2,2.8,0.2,4.2c0.2,2.9,0.2,5.8,0.4,8.7c0,0.3,0.5,0.1,0.5-0.1c0.2-4.1-0.3-8.2-0.3-12.2c0-1.7,0.1-2.9-1.1-4.1
			c-0.9-0.9-1.8-1.1-1.9-2.4c0-0.5-0.1-0.8,0.1-1.2c0.6-1.3,3.1-1.4,4-0.6C119.4,171.6,119.5,171.5,119.4,171.4z"/>
		<path d="M117.8,192.5c-1.6,1.3-2,3.4-1.1,5.2h0c0.1-0.4,0-0.6,0-1c0-0.6,0.1-1.3,0.2-1.8c0.2-0.8,0.7-1.4,1.1-2.1
			C118.1,192.5,118,192.3,117.8,192.5z"/>
		<path d="M120,176.4c-0.9-0.3-1-1.4-1.6-2.1c-0.2-0.3-0.5-0.5-0.8-0.6c-0.3-0.1-0.6-0.2-0.8-0.3c-0.3-0.2-1.3-1.1,0.1-1.4
			c0,0,0,0,0-0.1c-0.6-0.1-0.8,0.1-1.1,0.7c-0.3,0.7-0.1,1.1,0.5,1.4c0.4,0.2,0.9,0.3,1.3,0.6s0.4,0.8,0.7,1.2
			c0.3,0.6,0.7,1.3,1.5,1.1C120,176.9,120.3,176.5,120,176.4z"/>
		<path d="M138.5,187.8c-0.4-0.3-0.9-0.3-1.4-0.3c-0.3,0-0.8,0.2-1.1,0c-0.3-0.2-0.4-0.6-0.5-0.9c-0.1-0.3-0.6,0-0.6,0.2
			c0,0.7,0.3,1.5,1.2,1.5c0.7,0,1.3-0.4,2-0.1c0.8,0.3,1,0.9,1.1,1.7c0,0,0.1,0,0.1,0C139.4,189,139.2,188.2,138.5,187.8z"/>
		<path d="M130,159.6c-1.6,0.6-3.4,1.1-5.1,1.3c-1,0.1-1.7,0.2-2.4,0.9c-1.1,1.2-1.8,2.7-2.5,4.1c-0.7,1.3-0.7,2.2-0.7,3.6
			c0,1.4-0.7,2.6-0.7,4.1c0,1.6,0.4,3,0.7,4.6c0.2,1.2,0.5,2.4,0.8,3.6c0.3,1,0.7,1.8,0.9,2.8c0.2,0.9,0.2,1.8,0.4,2.7h0
			c-0.2-1.4-0.1-2.7-0.4-4.1c-0.2-1.2-0.5-2.4-0.7-3.6c-0.4-2.9-1.2-5.9-0.3-8.8c0.4-1.2,0-2.4,0.4-3.6c0.5-1.5,1.3-3.2,2.2-4.5
			c0.5-0.6,0.8-1,1.6-1.2c0.7-0.1,1.3-0.3,1.9-0.4c1.3-0.3,2.6-0.7,3.9-1.1C130.3,159.9,130.3,159.5,130,159.6z"/>
		<path d="M136.5,178.2c-0.1-0.5-0.4-0.9-0.7-1.3c-0.4-0.7-0.7-1.3-1-2c-0.3-0.7-0.5-1.3-0.7-1.9c-0.1-0.4-0.2-0.8-0.4-1.2
			c-0.3-0.6-0.8-1-1.1-1.5c-0.2-0.4-0.4-0.8-0.7-1.2c-0.5-0.7-1-1.1-1.3-1.9c-0.1-0.5-0.2-0.9-0.4-1.4c-0.5-1-1.4-1.2-2.3-1.8
			c-1.1-0.8-1.8-1.4-3.3-1.5c0,0,0,0,0,0c1.6,0.2,2.1,1.5,3.3,2.2c0.7,0.5,1.1,0.3,1.6,1.2c0.4,0.7,0.2,1.5,0.6,2.2
			c0.3,0.6,0.8,1,1.2,1.5c0.6,0.8,1.5,2.2,1.8,3.1c0.4,1.1,0.7,2.1,1.1,3.1c0.3,0.9,1.1,1.6,1.3,2.4c0.2,0.9-0.1,2.8-0.2,3.7
			c-0.1,0.8-0.3,1.5-0.4,2.3c0,0.4,0.5,0.2,0.6-0.1c0.2-1,0.6-1.9,0.7-2.9c0.1-0.6,0-1.3,0.1-1.9C136.5,179,136.6,178.5,136.5,178.2
			z"/>
		<path d="M134.1,195.4c-2.1,1-5-0.4-6.8-1.5c-1.9-1.2-3.1-3-4.6-4.7c0,0-0.1,0-0.1,0.1c0.7,1.2,1.1,2.4,1.8,3.5
			c0.6,1,2.1,1.8,3.2,2.3c1.3,0.6,2,1.1,3.4,1.2c1.1,0,2.3,0,3.2-0.6C134.3,195.5,134.3,195.3,134.1,195.4z"/>
		<path d="M136.1,163.8c-0.5-0.4-1.1,0-1.5-0.5c-0.3-0.4-0.4-0.8-0.7-1.2c-0.5-0.4-0.8-0.9-1.2-1.4c-0.4-0.5-1-0.6-1.6-0.8
			c0,0-0.1,0,0,0c0.4,0.6,1,1,1.4,1.6c0.3,0.6,0.8,1,1,1.6c0.5,1.1,1.3,1.9,2.5,1.1C136.1,164.2,136.3,163.9,136.1,163.8z"/>
		<path d="M139.8,192.5c0-0.1-0.2,0-0.2,0c-0.2,1,0,1.9,0,2.9c0,1.2-0.2,2.3-0.2,3.4c-0.1,2.1,0,4.5,0.6,6.5c0,0,0,0,0,0
			c-0.3-1.1-0.2-2.5-0.1-3.6c0-1.2,0-2.5,0.1-3.7C140.4,196.1,140.1,194.4,139.8,192.5z"/>
		<path d="M139.9,160.7c0,0-0.1-0.1-0.1-0.1c-0.1,0-0.2,0-0.2,0c-1,0.8-1.6,2.8-1.6,4c-0.2,2.4-0.1,4.9-0.3,7.4
			c-0.1,1.9-0.1,3.9,0.1,5.9c0.1,1.2,0.1,2.5,0.1,3.7c0.1,1.2,0.4,2.2,0.4,3.4h0c0.1-1-0.1-1.9,0-2.9c0-1.1,0.2-2.1,0.2-3.2
			c0-2,0-4-0.1-6c0-1.8,0.1-3.8,0.2-5.6c0.1-2-0.3-4.8,1.3-6.3C140,160.8,140,160.7,139.9,160.7z"/>
		<path d="M125.3,155.5c-0.4-1-1-1.9-1.6-2.8c-0.8-1.1-1.8-1.9-2.7-3c-1.1-1.4-1.8-2.8-2.5-4.5c-0.3-0.8-0.8-0.9-1.6-1.3
			c-1-0.5-2.1-1.1-3.3-1c-0.5,0-1.4,0.4-1.7,0.8c-0.5,0.6-0.1,0.9,0.1,1.6c0.4,1.2,0.8,2.9,0.5,4c-0.3,1.3-0.9,1.8-0.6,3.2
			c0.3,1,0.6,1.6,0.5,2.8c0,0.6-0.1,1.3-0.1,1.9c0,1.6,0,3.2,0.1,4.7c0.1,1.4,0.3,2.7,0.2,4.1c-0.1,1-0.3,2,0,2.9
			c0.3,1.3,0.2,2.6,0.5,3.9c0.3,1.6,0,3.1,0.2,4.8c0.3,2,0,4,0.1,6c0,1.7,0.2,3.6,0.4,5.3c0.1,0.9,0.3,1.7,0.4,2.6
			c0,0.7,0.1,1.3,0.5,1.8c0.4,0.6,1.3,1.6,2,1.7c0.3,0,0.5-0.5,0.2-0.5c-0.4-0.1-0.8-0.7-1.1-1c-0.7-0.8-0.9-0.9-1-2.2
			c-0.1-1.4-0.4-2.8-0.4-4.3c0-1.5-0.4-3-0.4-4.5c0-1.3,0-2.5,0-3.7c0-0.8-0.2-1.6-0.3-2.4c-0.1-0.9,0.1-1.6,0.2-2.5
			c0-1.2-0.3-2.3-0.4-3.5c0-1-0.4-1.9-0.4-2.8c0-1.1,0.2-2.1,0.2-3.2c0-1.2-0.3-2.3-0.3-3.5c0-1.3-0.1-2.6-0.1-3.9
			c0-1.3,0.3-2.5,0-3.8c-0.2-0.8-0.5-1.3-0.4-2.1c0.1-0.6,0.3-1.1,0.5-1.6c0.3-1.1,0-1.7-0.3-2.8c-0.2-0.7-0.6-1.8-0.3-2.4
			c0.7-1.3,3-0.3,3.9,0.2c0.5,0.3,1.2,0.4,1.5,0.9c0.2,0.4,0.4,1,0.6,1.4c0.5,1.1,1,2.2,1.8,3.2c0.8,1.1,1.9,1.9,2.7,3
			c0.8,1,1.4,1.9,1.9,3c0.5,1,1.1,1.6,1.7,2.4c0,0,0.1,0,0,0C126.1,157.3,125.6,156.5,125.3,155.5z"/>
		<path d="M93.3,245.1c0-0.9-0.3-1.8-0.4-2.7c-0.2-1.6-0.2-3.3-0.4-4.9c-0.2-3-0.6-5.8-1-8.7c-0.2-1.5,0.2-2.8,0-4.3
			c-0.2-1.3,0.1-2.6-0.2-3.8c-0.4-1.4-0.2-2.8-0.6-4.2c-0.2-0.9-0.7-4.3,0.6-4.7c0.1,0,0.2-0.2,0-0.2c-0.9,0.1-1.3,0.7-1.4,1.6
			c-0.2,1.1-0.1,2.5,0.2,3.6c0.3,1,0.1,1.7,0.2,2.6c0.1,0.9,0.6,1.6,0.6,2.6c0,1.6,0.3,3.3,0.1,4.9c-0.2,1.6,0.4,3,0.6,4.5
			c0.3,1.7,0.4,3.4,0.6,5.1c0.2,1.8,0.4,3.6,0.6,5.5c0.1,1.2,0.3,2.5,0.2,3.7c0,0.5-0.3,0.9-0.1,1.4c0.1,0.2,0.4,0,0.3-0.2
			C93.1,246.4,93.3,245.5,93.3,245.1z"/>
		<path d="M112.6,186.9c-1.5-0.2-2.8,0.1-4.3,0.3c-1.7,0.2-3.1-1.4-4.6-2.2c0,0,0,0,0,0c0.6,1.1,1.7,2.7,3,3
			c1.9,0.4,3.9-0.8,5.8-0.9C112.6,187,112.7,186.9,112.6,186.9z"/>
		<path d="M91.5,210.9c-0.4-1.2-0.1-1.5-1.2-2.3c-0.3-0.2-0.6-0.3-0.8-0.6c-0.7-0.7-0.8-1.6-0.8-2.5c0-0.8-0.1-1.5-0.1-2.3
			c-0.4-3.2-1-6.4-1-9.7c0-1.7,0-3.3-0.1-5c-0.1-1.6-0.3-2.9-0.1-4.5c0.2-1.3-0.1-3-0.3-4.4c-0.1-0.6-0.4-1.2-0.5-1.8
			c-0.1-0.6,0.1-0.9-0.2-1.4c0,0-0.1,0,0,0c0.1,0.2-0.2,1.4-0.2,1.7c0,0.5,0.2,1.1,0.3,1.6c0.2,1.7,0.3,3.5,0.2,5.2
			c-0.1,1.4,0.1,2.5,0.2,3.9c0.1,1.8,0,3.6,0.1,5.4c0.1,3.1,0.6,6,1,9c0.2,1.3-0.2,3.3,0.4,4.5c0.3,0.6,0.9,0.8,1.5,1.2
			c1,0.5,1.2,1.1,1.6,2.1C91.4,211.1,91.5,211,91.5,210.9z"/>
		<path d="M100.6,183.8c-2.3-0.3-3.3-1.7-5-3.1c-0.6-0.5-1.2-0.8-1.8-1.1c-0.8-0.4-1.4-1.2-2-1.8c-2.2-2.3-6.7-3.8-6.8-7.5h0
			c-0.8,1.5,0.4,2.7,1.3,3.8c1.4,1.5,3.3,2.4,4.7,3.9c0.6,0.6,1.2,1.4,1.9,1.9c0.8,0.5,1.7,0.8,2.4,1.4c1.9,1.5,2.7,2.9,5.3,2.7
			C100.6,184,100.7,183.8,100.6,183.8z"/>
		<path d="M99,173.8c-0.2-0.4-0.1-0.6-0.4-0.9c-0.3-0.3-0.8-0.4-1.1-0.6c-0.5-0.3-1-0.7-1.5-1c-1.2-0.8-2.2-1.6-3.5-2.3
			c-1.5-0.8-1.9-1.7-3.8-1.6c-1.4,0.1-2.1,0.8-2.8,1.9c0,0,0,0.1,0.1,0c1.1-1.3,3.1-2.4,4.7-1.3c0.9,0.6,1.8,1.3,2.7,1.9
			c0.9,0.6,1.7,1.2,2.7,1.8C97.1,172.5,98.2,172.8,99,173.8C98.9,174,99,173.9,99,173.8z"/>
		<path d="M101.9,180.1c-0.5-0.1-0.8,0.2-1.3,0.1c-0.2-0.1-0.3-0.2-0.4-0.3c-0.1-0.1-0.3-0.3-0.4-0.5c-0.1-0.2-0.3,0-0.3,0.1
			c0,0.5,0.3,1.1,0.7,1.3c0.3,0.1,0.6,0.2,0.9,0.1c0.4-0.1,0.6-0.2,0.9-0.4C102.1,180.3,102,180.1,101.9,180.1z"/>
		<path d="M98.5,158.6c-0.8,0.4-1.3,1-1.1,1.8c0.1,0.3,0.5,0.2,0.5-0.1c0.1-0.2,0-0.4,0.1-0.6c0.1-0.4,0.4-0.6,0.7-0.7
			c0.6-0.3,1.2,0,1.7,0.3c0,0,0,0,0,0C100,158.8,99.3,158.3,98.5,158.6z"/>
		<path d="M99.4,162.5c-0.1,0-0.3,0-0.3,0c-0.1,0-0.3,0-0.4,0c-0.2,0-0.3,0-0.5-0.1c-0.1-0.1-0.2-0.2-0.4-0.2c0,0-0.1,0-0.1,0.1
			c0,0.2,0,0.4,0.2,0.5c0.2,0.2,0.4,0.2,0.7,0.2c0.4,0,0.8,0.1,1-0.2C99.7,162.5,99.5,162.4,99.4,162.5z"/>
		<path d="M101.4,161.6c-0.2-0.2-0.3-0.3-0.6-0.5c-0.3-0.2-0.4-0.4-0.6-0.7c-0.1-0.2-0.4-0.3-0.6-0.4c-0.3-0.1-0.5-0.1-0.8,0
			c-0.2,0.1-0.3,0.4-0.1,0.5c0.3,0.1,0.5,0.1,0.8,0.2c0.3,0.1,0.4,0.3,0.6,0.5C100.5,161.6,100.9,161.5,101.4,161.6
			C101.4,161.7,101.4,161.6,101.4,161.6z"/>
		<path d="M101.5,158.5c-0.2-0.1-0.5-0.1-0.7-0.2c-0.2-0.1-0.3-0.3-0.6-0.3c-0.5-0.1-0.9-0.1-1.3,0c0,0,0,0.1,0,0
			c0.3,0,0.6,0,0.9,0.2c0.2,0.1,0.4,0.3,0.5,0.5c0.3,0.2,0.6,0.4,1,0.3C101.5,159,101.8,158.6,101.5,158.5z"/>
		<path d="M101.3,173.9c-0.2-0.9-0.4-1.6-0.3-2.6c0.2-1.5,0.2-2.9,0.4-4.4c0.2-1-0.3-1.8-0.5-2.8c0,0,0,0-0.1,0
			c-0.1,2.4-0.2,4.8-0.4,7.3c-0.1,1.3,0.3,2.4,0.3,3.7c0,1.3,0.3,2.5,0.3,3.9c0,0.2,0.3,0.1,0.3,0c0.2-1.3,0-2.2-0.1-3.5
			C101.3,174.9,101.4,174.4,101.3,173.9z"/>
		<path d="M102,136.7c-1.2,1.2-1,3.3-1.1,4.9c-0.1,0.8-0.1,1.6,0.1,2.4c0.2,1.3,0.2,2.1,0.1,3.4c-0.2,2.1,0.1,4.3,0,6.4
			c-0.1,1.3,0,3.1,0.6,4.3h0c-0.4-1.3-0.1-3.2,0-4.5c0.1-1.7,0.1-3.6,0-5.3c0-0.9,0.1-1.7,0.1-2.5c0-1-0.4-1.8-0.5-2.7
			c-0.1-1,0.2-1.9,0.2-2.9c0-1.2-0.2-2.2,0.6-3.3C102.2,136.7,102.1,136.6,102,136.7z"/>
		<path d="M86.5,163.8c-0.1-1-0.1-2.1-0.2-3.1c-0.1-0.9-0.2-1.8-0.2-2.8c0-1.4,0-2.6-0.7-3.9c-0.5-0.8-1.2-1.4-1.4-2.3
			c-0.5-1.8,0.6-2.6,2.5-2.6c0,0,0,0,0,0c-1-0.5-2.8-0.3-3.3,0.9c-0.6,1.6,0.6,3.2,1.4,4.3c0.9,1.2,0.9,2.1,0.9,3.5
			c0,1,0.2,1.9,0.3,2.9c0.1,1.1,0.1,2.3,0.2,3.4c0.1,1.1,0.4,2.6,0.2,3.7c0,0.1,0.1,0.1,0.1,0C86.7,166.6,86.7,165.1,86.5,163.8z"/>
		<path d="M85.5,124.4c-1.4-1-4.2,0-4.9,1.6c-0.5,1,0.1,1.9,0.4,2.9c0.4,1.3,0.2,2.8,0.3,4.1c0.1,1.6,1.2,2.6,1.1,4.2
			c-0.1,1.5,0.1,3.2,0.4,4.6c0.3,1.4,0.6,2.8,0.7,4.3c0.1,1.2,0.1,2.4,0.5,3.5c0,0,0.1,0,0.1,0c-0.5-2-0.2-4.2-0.4-6.3
			c-0.2-1.3-0.5-2.5-0.6-3.8c-0.1-1.2,0.1-2.5,0-3.7c-0.1-0.5-0.1-0.5-0.4-1c-0.5-1-0.8-1.5-0.8-2.6c0-1,0-2.1-0.2-3.1
			c-0.2-1-1-2.1-0.5-3.1C81.8,124.8,84.3,124.2,85.5,124.4C85.5,124.4,85.6,124.4,85.5,124.4z"/>
		<path d="M85.8,168.6c-0.3-0.3-0.4-2.4-0.4-2.9c-0.1-1.3-0.2-2.6-0.1-3.9c0-1.4,0.1-3-0.2-4.4c-0.2-0.7-0.2-1.8-0.8-2.3
			c0,0-0.1,0,0,0c0.3,0.4,0.1,1,0.2,1.5c0.1,0.7,0.4,1.4,0.4,2.1c0.1,1.5,0.1,3,0.3,4.5c0.1,1.2,0,2.4,0.1,3.6
			c0.1,0.7-0.1,1.3,0.4,1.9C85.7,168.7,85.8,168.6,85.8,168.6z"/>
		<path d="M86.8,153c-0.2-0.1-0.4-0.2-0.6-0.3c-0.2-0.1-0.5-0.3-0.7-0.4c-0.3-0.3-0.4-0.7-0.7-0.9c0,0,0,0,0,0
			c0.2,0.3,0.2,0.4,0.3,0.7c0.1,0.3,0.2,0.4,0.4,0.6c0.3,0.2,0.9,0.7,1.2,0.5C86.9,153.2,86.9,153.1,86.8,153z"/>
		<path d="M109.8,136.1c-1.8,0.6-4.3,0.1-6-0.6c-0.8-0.3-1.8-0.8-2.5-1.4c-0.4-0.4-0.7-1-1.2-1.4c-1.1-0.8-2.4-1.5-3.6-2.1
			c-1.7-0.8-3-1.8-4.5-2.9c-1.1-0.8-2.1-1.7-3.2-2.3c-1.5-0.9-3-1.6-4.4-2.6c-0.9-0.7-1.8-1.5-2.7-2.2c-1.2-1-1.9-2.7-2.2-4.3
			c0,0,0,0,0,0c0.1,1.1,0.4,3,1.1,3.9c0.7,1,2.2,1.8,3.1,2.6c1.4,1.2,2.8,2,4.3,2.9c1.6,0.9,3.1,2,4.6,3.1c1.4,1.1,2.7,1.7,4.2,2.5
			c0.8,0.4,1.6,0.9,2.4,1.4c0.8,0.5,1.2,1.1,1.8,1.8c2,2,6.4,2.9,9,1.9C110,136.4,110,136,109.8,136.1z"/>
		<path d="M93.9,135.8c-1.5-0.2-1.3-1.7-1.6-2.8c-0.3-0.9-0.8-1.6-1.4-2.3c-1.8-2-5.6-1.8-6.1-4.9c0,0,0,0,0,0
			c0.1,3.6,4.1,3.3,5.9,5.7c0.5,0.7,1,1.2,1.2,2c0.1,0.5,0.2,1.1,0.3,1.6c0.3,0.8,0.7,1.2,1.6,1.3C93.9,136.3,94.2,135.8,93.9,135.8
			z"/>
		<path d="M82.8,71.6c-3,0-6,2.3-6.8,5.2c-0.2,0.6-0.7,1.6-0.7,2.2c-0.1,1,0.5,2,0.6,2.9c0.1,1.1,0.1,2.2,0.3,3.3
			c0.2,1.2,0.9,2.3,0.8,3.5c-0.1,1.6-0.3,3.5,0.3,4.9c0.1,0.4,0.3,0.7,0.5,1.1c0.3,0.8,0.1,1.5,0.2,2.2c0.1,1.3,0.2,2.5,0.2,3.8
			c-0.3,4.5,0.7,8.8,0.8,13.3c0,0.1,0.1,0,0.1,0c0.1-4.1-0.5-8.2-0.4-12.2c0.1-2.1,0.1-4.1,0.1-6.2c0-0.7-0.3-1.3-0.5-1.9
			c-0.2-0.7-0.3-1.3-0.4-2c-0.2-1.7,0.2-3.4-0.4-5.1c-0.7-2.1-0.5-4.3-1-6.5c-0.1-0.4-0.3-0.6-0.3-1c0-0.6,0.2-0.9,0.4-1.5
			c0.3-1,0.5-1.8,1.1-2.6C78.7,73.4,80.8,71.9,82.8,71.6C82.8,71.7,82.8,71.6,82.8,71.6z"/>
		<path d="M112.7,83.8c-1.9,1.5-3.4,3.1-5,4.9c-1.6,1.7-1.7,3.6-2,5.7c-0.3,2.2-0.1,4.6,0.2,6.9c0.3,2.8,1.1,5.4,1.1,8.2
			c0,2.3,0.7,4.6,0.5,6.9c-0.1,1.4,0.2,2.7,0.2,4.1c0,1.3,0,2.7,0.1,4c0.2,2.5,1,4.9,1.3,7.4c0.2,1.5,0,2.8,0.4,4.3
			c0.3,1,0.8,1.4,1.3,2.2c0.2,0.3,0.6-0.1,0.5-0.3c-0.3-0.8-0.7-1.6-1.1-2.4c-0.5-1.3-0.2-2.7-0.4-4.1c-0.3-2.2-1.1-4.5-1.3-6.7
			c-0.1-1.4-0.1-2.6-0.1-4c0-1.4-0.3-2.7-0.3-4.1c0-0.9,0.2-1.7,0.1-2.6c-0.1-1.2-0.3-2.2-0.4-3.3c-0.1-1.4,0-2.9-0.2-4.3
			c-0.1-1.2-0.5-2.3-0.7-3.4c-0.4-2.2-0.6-4.6-0.5-6.8c0.1-2.5,0-5.1,1.7-7.2c0.6-0.8,1.3-1.5,1.8-2.3
			C110.7,85.7,111.8,84.9,112.7,83.8C112.7,83.9,112.7,83.8,112.7,83.8z"/>
		<path d="M144.3,96c-1.5-0.2-2.9-0.3-4.3-0.9c-1.1-0.5-2.1-1.1-3.2-1.6c-2.2-1-4.7-1.5-7-2.3c-1.2-0.4-2.3-0.7-3.5-1.2
			c-1-0.4-1.8-1-2.8-1.5c-1.8-1.1-3.6-2.1-5.5-2.9c-2.2-1-4.2-2-6.5-2.8c-1.9-0.6-3.9-1.1-5.8-1.9c-2.3-1-4.9-1.7-7.1-3
			c-1-0.6-2-0.9-3.1-1.3c-1.1-0.4-2.4-0.5-3.4-1c0,0,0,0,0,0c1,0.6,2.2,0.7,3.3,1.1c1.3,0.5,2.2,1,3.4,1.7c2,1.2,4.4,1.9,6.5,2.9
			c2,0.9,4.1,1.4,6.2,2.1c2.3,0.7,4.4,1.9,6.6,2.9c2,0.9,3.9,2,5.7,3.3c1.8,1.3,4.3,1.6,6.3,2.5c2.3,1,4.9,1.3,7.1,2.4
			c2.3,1.1,4.2,1.7,6.8,1.8C144.3,96.4,144.5,96.1,144.3,96z"/>
		<path d="M101.1,71.2c-1.4-0.1-2.7,0.1-4.1-0.1c-1.5-0.2-3-0.1-4.5-0.1c-3,0-6.1,0.1-9,0.5c0,0,0,0,0,0.1c3.1,0.2,6.3-0.1,9.4-0.1
			c1.4,0,2.8,0,4.3,0.2c1.4,0.1,2.6-0.2,4-0.3C101.1,71.3,101.1,71.2,101.1,71.2z"/>
		<path d="M150.9,92c-1.4-0.4-2.8-0.4-4.1-1c-1.1-0.5-2-1.3-3.2-1.7c-1-0.4-2.1-0.7-3.1-0.9c-1.2-0.3-2.1-0.7-3.3-1.1
			c-2.1-0.8-4.2-1.6-6.2-2.4c-1.9-0.8-4-1.5-6-2c-2.5-0.6-4.9-1.9-7.3-2.8c-2-0.7-4-1.6-6-2.1c-2.4-0.7-4.7-1.7-7-2.7
			c-1.3-0.5-2.6-1.1-3.9-1.5c-1-0.3-2.2-0.2-3-0.8c0,0,0,0,0,0c0.6,0.6,1.6,0.6,2.3,0.9c1.3,0.5,2.5,1,3.8,1.5c2.2,1,4.4,2,6.7,2.7
			c2.3,0.7,4.6,1.6,6.9,2.4c2.3,0.8,4.5,2,6.8,2.7c2.3,0.6,4.7,1.4,7,2.3c1.2,0.5,2.3,1.1,3.5,1.5c0.9,0.3,1.9,0.5,2.8,0.9
			c2.1,1.1,4.5,1.1,6.6,2.1c1.2,0.6,2.1,1.4,3.4,1.7c1,0.3,2.1,0.4,3.2,0.5C151,92.3,151.1,92,150.9,92z"/>
		<path d="M214.9,89c-3.1,0-6,1-9,1.5c-3.2,0.5-6.4,1.1-9.7,1.6c-6.2,1-12.3,1.2-18.5,1.9c-4.4,0.5-8.7,1-13.1,1.6
			c-3,0.4-6,0.2-8.9,0.5c-2.8,0.2-5.6,0.7-8.4,0.6c0,0-0.1,0,0,0.1c2.7,0.4,5.1,0.1,7.8-0.1c2.8-0.2,5.7,0,8.5-0.3
			c4.3-0.5,8.6-1.1,12.9-1.6c3-0.3,6.1-0.8,9.1-1.1c1.6-0.1,3.1-0.1,4.7-0.3c1.6-0.2,3.1-0.4,4.7-0.7c3.2-0.5,6.4-1.1,9.7-1.6
			c3.3-0.6,6.7-1.7,10.1-1.7C215,89.5,215.2,89,214.9,89z"/>
		<path d="M142,100.4c-1.1,1.1-2.4,2.3-2.5,4c-0.1,1.2,0.4,2.3,0.5,3.5c0.1,1.3-0.1,2.4-0.1,3.7c0,1,0.1,2.1,0.1,3.1
			c0.1,1.1-0.1,2.1,0,3.2c0,1.2,0,2.4,0.2,3.6c0.1,1.4,0.7,2.6,0.6,4.1c-0.1,1.1-0.5,2.2-0.5,3.3c0,1.1,0.7,2,0.9,3
			c0.2,1.2-0.4,2.4-0.4,3.6c-0.1,1,0,2,0,3c0.1,2.6,0.3,5,0,7.6c-0.1,1.1,0,2-0.1,3.1c0,0.9-0.2,1.7-0.1,2.6c0,0.1,0.2,0,0.2-0.1
			c0-0.9,0.2-1.8,0.3-2.8c0.1-1,0-1.9,0.1-2.9c0.2-2.1,0.5-4.1,0.3-6.1c-0.2-2.3-0.1-4.5,0.2-6.8c0.1-0.7,0.1-1.2-0.1-1.9
			c-0.2-0.7-0.6-1.3-0.7-1.9c-0.2-0.9,0.1-1.8,0.2-2.7c0.2-0.9,0.3-1.7,0.2-2.7c-0.1-1.3-0.6-2.4-0.6-3.8c0-2.1-0.1-4.3-0.2-6.4
			c0-1.9,0.1-3.8-0.1-5.7c-0.1-1.1-0.4-2.1-0.5-3.2C139.7,103,140.9,101.6,142,100.4C142.1,100.4,142,100.4,142,100.4z"/>
		<path d="M220.4,121.2c0.1-1.2-0.2-2.2-0.1-3.4c0.1-1,0.1-1.9,0-2.9c-0.1-1.1-0.6-2.1-0.6-3.2c-0.1-1.4,0.1-2.8,0-4.2
			c0-0.6-0.2-1.2-0.3-1.8c-0.1-0.8,0.1-1.6,0.1-2.4c0-1.2,0.3-2.4,0.3-3.6c0-1-0.3-1.8-0.4-2.7c-0.3-1.7,0.5-3.8-0.7-5.2
			c0,0,0,0,0,0c1.1,1.6,0.1,4.2,0.5,6.1c0.4,2.3-0.2,4.6-0.3,6.9c-0.1,1.2,0.3,2.3,0.2,3.5s-0.1,2.3,0,3.5c0.1,2.2,0.8,4.1,0.5,6.3
			c-0.1,0.9,0,1.6,0.1,2.5c0.1,1.2-0.3,2.3-0.3,3.5c0,1.3,0.3,2.3,0,3.6c-0.2,1.2-0.1,2.3-0.4,3.5c-0.2,1-0.5,1.9-0.5,2.9
			c0,0.8,0.3,1.6,0.5,2.4c0.1,0.8,0.3,1.5,0.4,2.3c0.1,0.8,0,2.6-0.4,3.4c-0.1,0.1,0.1,0.2,0.1,0.1c2.4-3-0.3-6.8,0.4-10.1
			c0.3-1.3,0.5-2.4,0.5-3.7c0.1-1.1,0.5-2,0.4-3.1c-0.1-0.9-0.3-1.7-0.2-2.6C220.2,122.2,220.4,121.7,220.4,121.2z"/>
		<path d="M285.9,82.4c-0.4-0.7-0.8-1.5-1.3-2.2c-1.1-1.3-2.6-2.1-4.2-2.5c-3.7-0.8-7.4-0.8-11.1-1.6c-2.2-0.5-4.4-0.7-6.6-1.2
			c-1.9-0.4-3.7-1.2-5.7-0.9c0,0,0,0,0,0c1.8,0.2,3.5,0.8,5.3,1.2c2,0.5,4,0.7,6,1.1c3.3,0.7,6.5,1,9.8,1.5c1.9,0.3,3.8,0.7,5.3,1.9
			c0.9,0.7,1.3,1.6,1.8,2.5c0.8,1.5,1.3,2.3,0.9,4.1c-0.2,0.8-0.2,1.6-0.3,2.4c-0.1,1.3-0.5,2.5-0.8,3.7c-0.4,2.2-0.1,4.3-0.3,6.5
			c0,0.1,0.1,0.1,0.2,0c0.3-1.4,0.3-2.8,0.4-4.3c0.1-1.2,0.4-2.2,0.7-3.3c0.2-1.2,0.3-2.3,0.4-3.5c0.1-1,0.5-2,0.5-3
			C286.9,83.8,286.4,83.2,285.9,82.4z"/>
		<path d="M284.2,114.9c0-0.7,0.3-1.4,0.3-2c0-0.6-0.2-1.1-0.2-1.6c-0.1-1.4,0.6-2.8,0.6-4.2c0-1.4-0.5-3.2,0-4.6c0,0,0,0,0,0
			c-1.1,2.2-0.3,4.9-1,7.2c-0.4,1.4,0.1,2.7-0.1,4.2c-0.2,1.2-0.2,2.2-0.1,3.4c0,0.5,0.2,0.8,0.2,1.3c0,0.8-0.3,1.7-0.4,2.5
			c-0.2,1.3,0,2.5-0.1,3.8c-0.1,1.3-0.5,2.7-0.8,3.9c-0.3,1.1-0.6,1.8-1.2,2.8c-0.3,0.5-0.6,0.9-0.8,1.5c-0.1,0.3,0.3,0.3,0.4,0.1
			c0.4-1.2,1.6-2,2-3.2c0.4-1.1,0.5-2.4,0.8-3.6c0.3-1.4,0.1-2.6,0.2-4c0.1-1.3,0.5-2.6,0.5-3.9
			C284.5,117.2,284.1,116.1,284.2,114.9z"/>
		<path d="M280.8,135.2C280.8,135.2,280.8,135.2,280.8,135.2c0.8,1.7,0.5,4.2,0.3,5.9c-0.2,1.5-0.4,2.9-0.6,4.4
			c-0.4,3.3-1.1,6.4-1,9.7c0.1,1.8-0.2,3.7-0.5,5.5c-0.4,1.9-0.2,3.8-0.5,5.7c-0.3,1.8-0.3,3.3-0.1,5.1c0.2,1.7-0.1,6.2-0.1,6.2
			s0.7-4.7,0.6-6.6c-0.1-1.1-0.2-2.2,0-3.2c0.1-1,0.5-1.9,0.5-2.9c0.1-2.1,0.4-4.2,0.6-6.3c0.2-1.6,0.3-2.9,0.2-4.5
			c-0.1-3.4,0.8-6.9,1.1-10.3C281.6,141.4,282.5,137.5,280.8,135.2z"/>
		<path d="M190.7,86.7c-0.7,0.5-3.3,0.2-4,0.3c-1.5,0.1-3.1,0-4.7,0.3c-3,0.5-6.1,1-9.2,1.4c-6.2,0.9-12.2,2.4-18.4,3.2c0,0,0,0,0,0
			c6.6-0.4,13-1.9,19.5-2.8c3.3-0.4,6.6-1.5,9.9-1.4c1.5,0,2.9-0.2,4.4-0.3c0.8-0.1,1.9,0.1,2.6-0.5
			C190.9,86.8,190.8,86.6,190.7,86.7z"/>
		<path d="M147.4,88.1c-0.5-0.1-0.8-0.5-1.3-0.8c-0.6-0.3-1.3-0.5-1.8-0.7c-1.3-0.6-2.5-1.4-3.8-2c-1.3-0.7-2.7-1.4-4.1-1.8
			c-1.2-0.4-2.3-1-3.5-1.3c0,0-0.1,0.1,0,0.1c1.3,0.4,2.7,1.1,3.9,1.7c1.4,0.6,2.7,1.4,4,2c1.3,0.7,2.6,1.4,3.9,1.8
			c0.7,0.3,1.3,0.5,2,0.8c0.4,0.2,0.3,0.2,0.7,0.3C147.4,88.3,147.5,88.2,147.4,88.1z"/>
		<path d="M151.2,74.5c-0.7,0.5-1.6,0.3-2.4,0.4c-1.2,0.1-2.2,0.3-3.4,0.5c-1.8,0.3-3.8,0.5-5.6,0.8c-2,0.3-4,0.6-6,0.9
			c-2.4,0.4-4.7,1-7.2,1.1c0,0,0,0,0,0c2.4,0,4.7-0.4,7.1-0.8c2.3-0.3,4.5-0.6,6.8-1c2.3-0.4,4.7-0.9,7-1.3
			C148.6,75,150.2,75.2,151.2,74.5C151.3,74.5,151.2,74.4,151.2,74.5z"/>
		<path d="M118.1,76.8c-1.8-0.2-3.5-1.6-5.1-2.1c-1.2-0.4-2.4-1-3.7-1.3c-0.9-0.2-2.1-0.1-2.9-0.6c0,0,0,0,0,0
			c0.8,0.6,1.9,0.6,2.8,0.9c0.7,0.3,1.4,0.7,2,1c0.7,0.3,1.4,0.4,2,0.7c1.5,0.7,3.1,2,4.9,1.8C118.2,77.1,118.3,76.8,118.1,76.8z"/>
		<path d="M170,64.4c-0.1,0-0.3-0.1-0.4-0.1c0,0-0.1,0-0.1,0c-0.2,0-0.3-0.1-0.4-0.1c-1.4-0.1-2.8,0.2-4.2,0.1
			c-1.5,0-2.8,0.2-4.3,0.1c-1.7-0.1-3.3,0-5,0.1c-2.9,0.2-6.4-1.2-8.5,1.4c-0.3,0.3-0.6,0.9-0.9,1.2c-0.1,0.1-0.2,0.2-0.3,0.3
			c-0.1,0.1-0.1,0.2-0.2,0.2c-0.1,0.1-0.3,0.3-0.4,0.4c-0.3-0.1-0.7-0.1-1.2-0.3c-0.3-0.1-0.7-0.3-0.9-0.4c-1.2-0.4-2.1-0.3-3.3-0.2
			c0,0,0,0,0,0.1c1.2,0.1,2.2,0.2,3.2,0.7c0.6,0.3,1.3,0.8,1.9,0.8c0.3,0.2,0.6,0.3,1,0.4c0.2,0.1,0.4,0.2,0.7,0.3
			c0.4,0.2,0.9,0.3,1.4,0.4c1,0.3,2,0.5,2.9,0.7c0.2,0,0.4-0.3,0.2-0.4c-0.8-0.2-1.6-0.4-2.4-0.6c0-0.1,0-0.1,0-0.2
			c-0.3-0.4-1.1-0.6-1.6-0.7c-0.3-0.1-0.7-0.2-1-0.2c0,0,0,0-0.1,0c0.1,0,0.1-0.1,0.1-0.1s0.1-0.1,0.1-0.1c0.5-0.6,0.8-1.5,1.3-2
			c1.5-1.6,3.7-1.1,5.6-0.9c1.6,0.2,3.1-0.2,4.7-0.2c1.6,0,3.2,0.1,4.8-0.1c1.4-0.2,2.8-0.1,4.3-0.3c1.2-0.1,2.5,0.1,3.6-0.2
			c0,0,0.1,0,0.1,0C170.5,64.5,170.2,64.4,170,64.4z"/>
		<path d="M214.4,88.7c-0.4-0.7-1.7-0.8-2.4-1c-1.9-0.5-3.8-1.1-5.6-1.6c-1.8-0.4-3.6-1.1-5.5-1.5c-0.9-0.2-1.7-0.4-2.6-0.6
			c-0.9-0.2-1.9-0.1-2.8-0.7c0,0,0,0,0,0c0.9,0.8,2.3,0.7,3.4,1c1.6,0.5,3.1,0.9,4.7,1.4c1.9,0.6,3.9,1.1,5.7,1.6
			c0.7,0.2,1.5,0.5,2.2,0.7c0.6,0.1,2.1,0.3,2.6,0.9C214.2,89.2,214.5,88.9,214.4,88.7z"/>
		<path d="M164.8,74.6c-1.1-0.2-2-0.7-3.1-1c-1-0.3-1.9-0.4-2.9-0.7c-1.8-0.5-3.7-0.9-5.4-1.7c-3.1-1.5-6-2.6-9.4-3.1
			c0,0-0.1,0,0,0.1c1.7,0.4,3.2,1.1,4.9,1.6c1.8,0.7,3.5,1.7,5.2,2.5c1.5,0.6,3.1,0.8,4.7,1.2c1.1,0.3,2.1,0.4,3.2,0.7
			c0.9,0.3,1.7,0.6,2.7,0.8C164.8,74.9,165,74.6,164.8,74.6z"/>
		<path d="M226,82.8c-3-0.1-6-0.6-8.7-1.8c-2-0.8-3.9-1.9-5.9-2.6c-2.4-0.9-5-1.4-7.5-2.3c-2.2-0.8-4.5-1.6-6.8-2.2
			c-2.4-0.7-4.6-1.5-7.1-2c-2.5-0.5-4.9-0.8-7.4-1.4c-1.1-0.2-2.2-0.4-3.2-0.5c-1.5-0.2-2.8-0.7-4.2-1.2c-1.3-0.4-2.7-0.6-4-0.9
			c-0.8-0.2-1.9,0-2.7-0.5c0,0-0.1,0,0,0c0.5,0.4,1.3,0.4,1.9,0.5c1.4,0.3,2.9,0.8,4.3,1.2c1.2,0.4,2.3,1,3.6,1.3
			c1,0.2,2.1,0.3,3.1,0.5c2.4,0.5,4.9,1.1,7.3,1.4c2.8,0.4,5.4,1.3,8.1,2.1c2.4,0.7,4.8,1.6,7.2,2.4c2.5,0.8,5.1,1.3,7.5,2.2
			c0.9,0.3,1.6,0.9,2.4,1.3c1.1,0.5,2.4,1,3.6,1.4c2.7,1,5.5,1.4,8.4,1.4C226,83.1,226.2,82.8,226,82.8z"/>
		<path d="M229.8,68.2c-1.6-0.1-3.2-0.6-4.8-0.9c-2-0.4-4.1-0.6-6.2-1.1c-1.8-0.4-3.7-0.5-5.5-0.9c0.2,0.2,0.2,0.5,0.4,0.7
			c0,0,0.1,0.1,0.1,0.1c1.5,0.3,3,0.4,4.4,0.7c2.1,0.5,4.2,0.8,6.3,1.1c0.5,0.1,1.1,0.2,1.6,0.2C227.4,68.1,228.5,68.3,229.8,68.2
			C229.8,68.3,229.8,68.2,229.8,68.2z"/>
		<path d="M100.2,138.8c-2.8,0-6.4-0.3-8.9,1.3c-0.8,0.7-1.4,1.5-2.1,2.2c-1.1,1.8-1.3,4.1-1.2,6.3c0,0,0,0,0,0c0-2.3,0.7-5.2,2.3-7
			c2.4-1.7,4.9,0.7,6.2,3c0.4,0.3,0.7,0.6,1,0.9c0.1,0.3,0.2,0.5,0.4,0.7c0.3,0.6,0.4,1.1,0.6,1.8c0.1,0.8,0.3,1.6,0.4,2.4
			c0.1,1.2,0.2,2.3,0.2,3.5c0,0.9-0.2,2,0,2.9c0,0.1,0.1,0,0.2,0c0.4-2.1,0.3-4.4,0.1-6.6c-0.2-1.5-0.3-2.9-1.1-4.1
			c-0.3-0.9-0.7-1.8-1.3-2.7c-0.9-1.3-2.1-2.8-3.7-3c-0.4-0.1-0.8-0.1-1.2-0.1c2.3-1.1,5.4-0.9,7.8-0.9
			C100.3,139.5,100.6,138.8,100.2,138.8z"/>
		<path d="M100.1,142.2c-0.3,0.1-0.6,0.2-0.9,0.2c-0.2,0-0.4,0-0.6,0.1c-0.4,0.1-0.8,0-1,0.4c-0.1,0.1,0,0.2,0.1,0.1
			c0.1-0.1,0.3,0,0.5,0c0.2,0,0.3-0.1,0.5-0.1c0.2,0,0.5,0,0.7,0c0.2,0,0.4-0.1,0.6-0.1C100.3,142.7,100.4,142.1,100.1,142.2z"/>
		<path d="M101.2,149.4c-0.3,0-0.6,0-0.8,0.1c-0.2,0.1-0.5,0.2-0.7,0.2c-0.1,0-0.1,0.1,0,0.2c0.2,0,0.4,0,0.6-0.1
			c0.3,0,0.6,0,0.9,0.1C101.4,149.8,101.5,149.3,101.2,149.4z"/>
		<path d="M87.3,151.4c-0.2-0.1-0.4,0-0.6-0.1c-0.2-0.1-0.3-0.2-0.5-0.3c-0.3-0.1-0.3-0.4-0.6-0.6c0,0-0.1,0-0.1,0.1
			c0.1,0.2,0,0.4,0.1,0.6c0.1,0.2,0.3,0.3,0.4,0.4c0.2,0.1,0.3,0.4,0.5,0.4c0.2,0,0.5-0.1,0.7-0.3C87.4,151.6,87.4,151.4,87.3,151.4
			z"/>
		<path d="M94.9,168.3c-4.3,0.5-5-4-5.6-7.2c-0.6-2.6-0.7-5.3-1-7.9h0c-0.5,3.3,0.2,6.7,0.9,9.9c0.6,2.9,2.2,6,5.8,5.3
			C95,168.5,95.1,168.3,94.9,168.3z"/>
		<path d="M99.6,168.3c-0.6,0.2-1.2,0.1-1.8,0.1c-0.6,0-1.2,0.1-1.8,0.1c-0.1,0-0.1,0.1,0,0.1c1.2,0.1,2.5,0.4,3.6-0.1
			C99.9,168.5,99.9,168.2,99.6,168.3z"/>
		<path d="M98,163.7c0,0.4-0.1,0.8-0.2,1.1c-0.1,0.6-0.2,1-0.6,1.5c-0.1,0.1-0.2,0.3-0.3,0.4c-0.2,0.2-0.5,0.3-0.7,0.5
			c-0.2,0.2-0.3,0.4-0.4,0.6c0,0,0,0,0,0c0.6-0.6,1.3-0.9,1.8-1.6c0.3-0.3,0.5-0.7,0.6-1.1c0.1-0.5,0.3-1.1,0.3-1.6
			C98.6,163.1,98,163.3,98,163.7z"/>
		<path d="M90.3,168.3c-0.1,0.1-0.3,0.1-0.5,0.2c-0.2,0.1-0.3,0.2-0.5,0.3c-0.3,0.2-0.6,0.4-0.9,0.6c-0.2,0.2-0.5,0.5-0.6,0.7
			c-0.2,0.3-0.2,0.7-0.4,1c0,0,0,0,0,0c0.3-0.2,0.3-0.6,0.6-0.9c0.3-0.3,0.8-0.7,1.2-0.9c0.3-0.2,0.7-0.3,1.1-0.5
			c0.2-0.1,0.4-0.2,0.4-0.5C90.7,168.2,90.4,168.2,90.3,168.3z"/>
		<path d="M93.6,171.2c-0.3-0.1-0.5,0.2-0.8,0.4c-0.4,0.2-0.7,0.5-1.1,0.8c-0.3,0.3-0.5,0.5-0.7,0.9c-0.1,0.2-0.1,0.6-0.3,0.7
			c0,0,0,0,0,0c0.2-0.1,0.2-0.4,0.3-0.5c0.2-0.3,0.5-0.5,0.7-0.7c0.5-0.5,1.2-0.8,1.7-1.2C93.8,171.5,93.8,171.2,93.6,171.2z"/>
		<path d="M97,174c-1.4,0.6-1.7,2.4-1.7,3.8c0,0,0,0,0,0c0-0.3,0.2-0.3,0.2-0.5c0.1-0.3,0.1-0.7,0.2-1c0.2-0.6,0.7-1.4,1.3-1.7
			C97.4,174.4,97.4,173.8,97,174z"/>
		<path d="M180.3,75c-1.4-0.9-3.4-1.2-5-1.7c-1.7-0.5-3.4-1-5.1-1.4c-1.9-0.4-3.9-1.4-5.7-2c-1.9-0.6-3.9-1.2-5.9-1.8c0,0,0,0,0,0
			c1.9,0.6,3.8,1.5,5.7,2c1.9,0.6,3.7,1.4,5.5,1.8c1.8,0.5,3.5,0.9,5.3,1.5C176.8,74.1,178.7,74.4,180.3,75
			C180.3,75,180.4,75,180.3,75z"/>
		<path d="M282.2,85.6c-3.2-3.1-8.6-1.3-12.5-0.6c-5.5,1-11.1,1.6-16.7,2c-4.7,0.4-9.3,1-14,1.4c-1.5,0.1-2.9,0.1-4.3,0.3
			c-1.3,0.2-2.5,0.5-3.8,0.6c-2.4,0.3-4.5-0.4-6.7-1c0,0-0.1,0,0,0c1.8,0.7,3.4,1.5,5.4,1.5c2.5,0,5-0.9,7.5-1
			c4.6-0.3,9.2-1.1,13.8-1.5c5-0.4,10.1-0.6,15.1-1.5c2.7-0.5,5.5-1.2,8.2-1.5c2.7-0.3,5.5-0.5,7.8,1.3
			C282.1,86,282.3,85.7,282.2,85.6z"/>
		<path d="M271.8,80.6c-1.6,0.5-3.8,0.2-5.4,0.4c-1.1,0.1-2.2,0.3-3.3,0.4c-2,0.2-3.9,0.5-5.9,0.7c-2.1,0.2-4.3,0.2-6.4,0.4
			c-3.6,0.4-7.2,0.4-10.7,1.1c-2.1,0.4-4.3,0.9-6.5,1.2c-2.2,0.3-4.6,0.2-6.9,0.2c0,0,0,0,0,0c2.1,0,4.2,0.2,6.3,0.1
			c2.1-0.1,4.3-0.5,6.4-0.9c2-0.4,3.8-0.7,5.8-0.7c1.7,0,3.5-0.3,5.2-0.5c2.1-0.2,4.3-0.2,6.4-0.5c1.9-0.3,3.8-0.6,5.6-0.9
			c1.6-0.2,3.3-0.3,4.9-0.5c1.4-0.2,3.1,0,4.4-0.5C271.9,80.7,271.9,80.6,271.8,80.6z"/>
	</g>
	<path d="M152.9,77.1c-1.9-0.6-4.1,0-6,0c-1.6,0-3.5-0.3-4.8,0.7c-0.5,0.4-1.1,0.9-0.7,1.5c0,0,0.1,0,0,0c-0.6-0.9,1.2-1.6,1.8-1.7
		c0.6-0.1,1.6,0,2.2,0c1,0,2.1,0,3.1,0c2.2-0.1,5.1-0.8,5.9,2.2c0.1,0.2,0.4,0.1,0.4-0.1C154.7,78.6,153.8,77.4,152.9,77.1z"/>
	<path d="M149.6,86.1c-0.8-0.1-1.5-0.6-2.2-1c-0.7-0.4-1.5-0.7-2.2-1.1c-0.4-0.3-0.8-0.6-1.3-0.8c-0.8-0.3-1.5-0.3-2.2-0.8
		c0,0-0.1,0,0,0c0.5,0.4,1,0.5,1.6,0.7c0.9,0.3,1.4,0.8,2.2,1.3c1.1,0.7,2.8,1.9,4.1,1.8C149.7,86.4,149.8,86.2,149.6,86.1z"/>
	<path d="M158.3,80.7c-1.6-0.1-3.6,0.6-4.8,1.6c-0.6,0.4-0.8,0.9-0.9,1.6c-0.1,0.6,0.1,1.2,0,1.8c-0.1,0.7-0.2,1.5-0.2,2.2
		c0,0,0,0,0,0c0.1-0.8,0.3-1.6,0.4-2.4c0.1-1.1-0.1-1.9,0.9-2.8c0.7-0.6,1.7-0.8,2.5-1.1c0.7-0.2,1.3-0.6,2-0.7
		C158.3,80.8,158.4,80.7,158.3,80.7z"/>
	<path d="M162.5,88.6c-0.9-0.1-1.7,0-2.5,0.2c-1.4,0.3-2.7,0.3-4.1-0.2c-0.2-0.1-0.4,0.2-0.2,0.3c2.1,1.1,4.4,0.5,6.7,0
		C162.5,88.9,162.7,88.6,162.5,88.6z"/>
	<path d="M169.3,85c-0.4-0.7-0.9-1.2-1.3-1.8c-0.2-0.4-0.3-0.7-0.7-1c-1.5-1.4-4.1-1.5-5.9-1.1c-0.2,0-0.3,0.2-0.2,0.3
		c0,0,0,0.1,0,0.1c0,0.2,0.3,0.1,0.4-0.1c0.1-0.2,2.2,0.1,2.6,0.1c1,0.1,2.2,0.4,2.9,1.2c0.4,0.5,0.6,1.1,1,1.6
		c0.8,1,1.4,1.2,1.5,2.7c0,0,0,0,0.1,0C169.6,86.2,169.6,85.7,169.3,85z"/>
	<path d="M151,80.9c-0.1,0.2-0.6,0.3-0.8,0.4c-0.3,0.3-0.6,0.6-0.7,1c-0.3,1,0.2,2,0.2,2.9c0,0,0.1,0,0.1,0c0-0.8-0.2-1.6-0.1-2.4
		c0.1-0.8,0.7-1.1,1.3-1.4c0.2-0.1,0.3-0.2,0.4-0.4C151.5,80.8,151.2,80.7,151,80.9z"/>
	<path d="M173.7,78c-0.6-1.6-2.8-2-4.2-2.5c-2-0.7-3.8-0.5-5.9-0.4c-1.9,0.1-3.5-0.1-5.2,1c-1.2,0.8-1.5,1.3-1,2.5c0,0,0,0,0,0
		c0.1-3.5,5-2.8,7.3-3.1c1.5-0.2,3-0.1,4.5,0.3c1.3,0.3,3.6,0.9,4.1,2.3C173.5,78.4,173.8,78.1,173.7,78z"/>
	<path d="M183.5,79.8c-0.7-0.6-1.8-1-2.6-1.4c-0.8-0.4-1.8-0.6-2.7-0.6c-0.9,0-1.6,0.2-2.5,0.5c-1.1,0.3-2.3,0.6-3.2,1.3
		c-1.2,1-2,2.6-2.3,4c0,0.1,0.1,0,0.1,0c0.6-1.5,1.7-3.3,3.2-4c1.4-0.7,3.6-1.4,5.2-1.2c1.4,0.1,2.6,0.9,3.8,1.5
		c1.9,0.9,1.7,3,1.6,4.9c0,0.3,0.5,0.2,0.5-0.1C184.5,83.1,184.7,80.9,183.5,79.8z"/>
	<path d="M175.1,81.2c-1.2,0.1-1.9,0.7-2.4,1.7c-0.2,0.3-0.3,0.6-0.3,1c0,1,0.7,1.7,0.4,2.7c0,0.1,0.1,0.1,0.1,0
		c0.4-0.9,0.1-1.6,0.1-2.5c0-1.3,1-2.1,2.1-2.4C175.3,81.7,175.5,81.1,175.1,81.2z"/>
	<path d="M145,78.4c-1.5-0.1-1.8,1.4-2.7,2.3v0c0.4-0.3,0.7-0.7,1-1.1c0.5-0.6,0.9-0.8,1.6-0.9C145.1,78.7,145.2,78.5,145,78.4z"/>
	<path d="M165.3,76.3c-1.6-0.3-3.2-0.1-4.7,0.5c-0.8,0.4-2.1,1.1-2.1,2.1c0,0,0,0,0,0c0.1-1.5,2.3-2,3.4-2.3c1.1-0.3,2.1-0.3,3.3,0
		C165.3,76.7,165.5,76.4,165.3,76.3z"/>
	<path d="M224.8,69.3c-1.9-0.6-4.1,0-6,0c-1.6,0-3.5-0.3-4.8,0.7c-0.5,0.4-1.1,0.9-0.7,1.5c0,0,0.1,0,0,0c-0.6-0.9,1.2-1.6,1.8-1.7
		c0.6-0.1,1.6,0,2.2,0c1,0,2.1,0,3.1,0c2.2-0.1,5.1-0.8,5.9,2.2c0.1,0.2,0.4,0.1,0.4-0.1C226.7,70.8,225.8,69.6,224.8,69.3z"/>
	<path d="M230.3,72.9c-1.6-0.1-3.6,0.6-4.8,1.6c-0.6,0.4-0.8,0.9-0.9,1.6c-0.1,0.6,0.1,1.2,0,1.8c-0.1,0.7-0.2,1.5-0.2,2.2
		c0,0,0,0,0,0c0.1-0.8,0.3-1.6,0.4-2.4c0.1-1.1-0.1-1.9,0.9-2.8c0.7-0.6,1.7-0.8,2.5-1.1c0.7-0.2,1.3-0.6,2-0.7
		C230.3,73,230.4,72.9,230.3,72.9z"/>
	<path d="M234.4,80.8c-0.9-0.1-1.7,0-2.5,0.2c-1.4,0.3-2.7,0.3-4.1-0.2c-0.2-0.1-0.4,0.2-0.2,0.3c2.1,1.1,4.4,0.5,6.7,0
		C234.5,81.1,234.7,80.8,234.4,80.8z"/>
	<path d="M241.2,77.3c-0.4-0.7-0.9-1.2-1.3-1.8c-0.2-0.4-0.3-0.7-0.7-1c-1.5-1.4-4.1-1.5-5.9-1.1c-0.2,0-0.3,0.2-0.2,0.3
		c0,0,0,0.1,0,0.1c0,0.2,0.3,0.1,0.4-0.1c0.1-0.2,2.2,0.1,2.6,0.1c1,0.1,2.2,0.4,2.9,1.2c0.4,0.5,0.6,1.1,1,1.6
		c0.8,1,1.4,1.2,1.5,2.7c0,0,0,0,0.1,0C241.6,78.4,241.6,77.9,241.2,77.3z"/>
	<path d="M223,73.1c-0.1,0.2-0.6,0.3-0.8,0.4c-0.3,0.3-0.6,0.6-0.7,1c-0.3,1,0.2,2,0.2,2.9c0,0,0.1,0,0.1,0c0-0.8-0.2-1.6-0.1-2.4
		c0.1-0.8,0.7-1.1,1.3-1.4c0.2-0.1,0.3-0.2,0.4-0.4C223.4,72.9,223.1,72.9,223,73.1z"/>
	<path d="M245.7,70.2c-0.6-1.6-2.8-2-4.2-2.5c-2-0.7-3.8-0.5-5.9-0.4c-1.9,0.1-3.5-0.1-5.2,1c-1.2,0.8-1.5,1.3-1,2.5c0,0,0,0,0,0
		c0.1-3.5,5-2.8,7.3-3.1c1.5-0.2,3-0.1,4.5,0.3c1.3,0.3,3.6,0.9,4.1,2.3C245.5,70.6,245.8,70.4,245.7,70.2z"/>
	<path d="M181.8,61.4c-1.9-0.6-4.1,0-6,0c-1.6,0-3.5-0.3-4.8,0.7c-0.5,0.4-1.1,0.9-0.7,1.5c0,0,0.1,0,0,0c-0.6-0.9,1.2-1.7,1.8-1.7
		c0.6-0.1,1.6,0,2.2,0c1,0,2.1,0,3.1,0c2.2-0.1,5.1-0.8,5.9,2.2c0.1,0.2,0.4,0.1,0.4-0.1C183.7,62.9,182.8,61.7,181.8,61.4z"/>
	<path d="M202.7,62.3c-0.6-1.6-2.8-2-4.2-2.5c-2-0.7-3.8-0.5-5.9-0.4c-1.9,0.1-3.5-0.1-5.2,1c-1.2,0.8-1.5,1.3-1,2.5c0,0,0,0,0,0
		c0.1-3.5,5-2.8,7.3-3.1c1.5-0.2,3-0.1,4.5,0.3c1.3,0.3,3.6,0.9,4.1,2.3C202.5,62.7,202.8,62.5,202.7,62.3z"/>
	<path d="M255.5,72c-0.7-0.6-1.8-1-2.6-1.4c-0.8-0.4-1.8-0.6-2.7-0.6c-0.9,0-1.6,0.2-2.5,0.5c-1.1,0.3-2.3,0.6-3.2,1.3
		c-1.2,1-2,2.6-2.3,4c0,0.1,0.1,0,0.1,0c0.6-1.5,1.7-3.3,3.2-4c1.4-0.7,3.6-1.4,5.2-1.2c1.4,0.1,2.6,0.9,3.8,1.5
		c1.9,0.9,1.7,3,1.7,4.9c0,0.3,0.5,0.2,0.5-0.1C256.5,75.3,256.7,73.1,255.5,72z"/>
	<path d="M247,73.4c-1.2,0.1-1.9,0.7-2.4,1.7c-0.2,0.3-0.3,0.6-0.3,1c0,1,0.7,1.7,0.4,2.7c0,0.1,0.1,0.1,0.1,0
		c0.4-0.9,0.1-1.6,0.1-2.5c0-1.3,1-2.1,2.1-2.4C247.3,73.9,247.5,73.3,247,73.4z"/>
	<path d="M217,70.7c-1.5-0.1-1.8,1.4-2.7,2.3v0c0.4-0.3,0.7-0.7,1-1.1c0.5-0.6,0.9-0.8,1.6-0.9C217,71,217.2,70.7,217,70.7z"/>
	<path d="M237.3,68.5c-1.6-0.3-3.2-0.1-4.7,0.5c-0.8,0.4-2.1,1.1-2.1,2.1c0,0,0,0,0,0c0.1-1.5,2.3-2,3.4-2.3c1.1-0.3,2.1-0.3,3.3,0
		C237.3,68.8,237.5,68.6,237.3,68.5z"/>
	<path d="M118.4,70.6c-1.1-0.2-1.3-0.6-1.7-1.5c-0.1-0.3-0.1-0.5-0.3-0.8c-0.4-0.6-1.1-1.1-1.7-1.4c-1.6-0.6-3.7,0-5.3,0.2
		c-1.7,0.3-3.2,0.3-4.5,1.6c-0.5,0.5-1.1,1.5-1.7,1.9c-0.6,0.4-1.3,0.1-1.8,0.5c-0.2,0.1-0.1,0.5,0.2,0.3c0.5-0.3,1.3,0,1.8-0.3
		c0.4-0.2,0.6-0.4,0.8-0.7c0.9-1.1,1.4-2.1,2.9-2.5c0.9-0.2,1.8-0.3,2.7-0.4c2-0.3,5.6-1,6.2,1.7c0.3,1.3,0.6,1.7,2.1,1.8
		C118.5,71.1,118.8,70.7,118.4,70.6z"/>
	<path d="M140.7,68.4c-0.8-0.3-1.4-1.2-2-1.7c-0.6-0.5-1.3-0.8-2.1-1.1c-2.1-0.7-4.5-0.5-6.7-0.4c-1.8,0-4,0.3-5.7,1
		c-0.6,0.2-1,0.6-1.5,1.1c-0.9,1.1-1.7,1.9-2.9,2.7v0c0.7-0.3,1.2-0.5,1.8-1c0.8-0.7,1.4-1.7,2.3-2.1c0.9-0.4,2.2-0.6,3.2-0.8
		c1.3-0.2,2.5-0.2,3.8-0.2c2.2,0,4.5-0.2,6.5,0.8c1.2,0.6,1.8,2.1,3.2,2.1C140.7,68.8,140.8,68.5,140.7,68.4z"/>
	<path d="M131.3,73.7c-1.5-0.9-0.5-2.7-2.1-3.4c-1.3-0.6-3.1-0.3-4.5-0.4c-1.3,0-2.9,0-3.9,1c-1.2,1.2-1.2,3.3-3.2,3.6c0,0,0,0,0,0
		c1-0.1,1.5-0.4,2.1-1.2c0.3-0.4,0.5-1.1,0.8-1.4c1-1.3,2.3-1.6,3.8-1.6c1.3,0,3.9-0.3,5,0.5c1.2,0.8,0.5,2.4,1.8,3.2
		C131.3,74,131.5,73.8,131.3,73.7z"/>
	<path d="M142,68.6c-1.1-0.4-2.3-0.4-3.5-0.2c-2.2,0.3-5.6,0.1-6.1,2.9c0,0,0,0,0,0c0.9-2.4,4.2-2.4,6.3-2.6c1-0.1,2-0.1,2.9,0.3
		c0.9,0.3,2.9,1.1,3.2,2c0.1,0.2,0.4,0,0.4-0.2C145.1,69.6,143.1,69,142,68.6z"/>
	<path d="M200,69c-1.5-0.9-0.5-2.7-2.1-3.4c-1.3-0.6-3.1-0.3-4.5-0.4c-1.3,0-2.9,0-3.9,1c-1.2,1.2-1.2,3.3-3.2,3.6c0,0,0,0,0,0
		c1-0.1,1.5-0.4,2.1-1.2c0.3-0.4,0.5-1.1,0.8-1.4c1-1.3,2.3-1.6,3.8-1.6c1.3,0,3.9-0.3,5,0.5c1.2,0.8,0.5,2.4,1.8,3.2
		C200,69.3,200.2,69,200,69z"/>
	<path d="M210.7,63.9c-1.1-0.4-2.3-0.4-3.5-0.2c-2.2,0.3-5.6,0.1-6.1,2.9c0,0,0,0,0,0c0.9-2.4,4.2-2.4,6.3-2.6c1-0.1,2-0.1,2.9,0.3
		c0.9,0.3,2.9,1.1,3.2,2c0.1,0.2,0.4,0,0.4-0.2C213.8,64.8,211.8,64.3,210.7,63.9z"/>
	<path d="M172.7,61.6c-0.8,0.1-1.7,0.4-2.2,0.9c-0.2,0.2-0.3,0.5-0.4,0.8c-0.1,0.4-0.1,0.7,0,1c-0.2,0.1-0.6,0.1-0.7,0.1
		c0,0,0,0,0,0.1c0.2,0.1,0.5,0.1,0.7,0.1c0.1,0.3,0.5,0.1,0.6-0.1c0.1-0.2,0.1-0.2,0.1-0.4c0-0.1,0-0.2-0.1-0.2c0-0.3,0-0.6,0.2-0.9
		c0.4-0.6,1.3-0.7,1.9-1C172.9,61.9,172.9,61.6,172.7,61.6z"/>
	<path d="M191.6,66.5c-0.2,0.1-0.3,0-0.5,0c-0.2,0-0.3,0.1-0.5,0.2c-0.2,0.1-0.4,0.2-0.5,0.4c-0.4,0.6-0.2,1.4-0.5,2c0,0,0,0,0,0
		c0.1-0.2,0.2-0.4,0.3-0.6c0.1-0.3,0.2-0.6,0.3-1c0.2-0.4,0.4-0.6,0.8-0.8C191.3,66.7,191.5,66.8,191.6,66.5
		C191.8,66.6,191.7,66.5,191.6,66.5z"/>
	<path d="M173.3,62.6c-0.5,0.1-1.3,0.3-1.7,0.8c-0.2,0.2-0.1,0.4-0.1,0.6c0.1,0.6-0.2,0.8-0.4,1.3c0,0,0,0,0,0
		c0-0.2,0.2-0.4,0.3-0.5c0.1-0.2,0.2-0.5,0.2-0.7c0-0.3-0.4-0.2,0.2-0.7c0.1-0.1,0.3-0.1,0.4-0.2c0.3-0.1,0.6-0.2,0.9-0.4
		C173.3,62.8,173.4,62.6,173.3,62.6z"/>
	<path d="M187.1,61.2c-0.7,0.5-0.7,0.9-0.9,1.7c-0.1,0.5-0.2,0.7-0.6,1c-0.4,0.3-1.7,0.7-2,0.3h0c-0.3,1,1.8,0.3,2.2,0.1
		c0.4-0.2,0.6-0.4,0.7-0.9c0.1-0.2,0.1-0.5,0.1-0.7c0.1-0.6,0.3-0.9,0.7-1.3C187.3,61.2,187.2,61,187.1,61.2z"/>
	<path d="M203.4,64.3c-0.8-0.3,0-1.6-0.2-2.1c-0.3-0.8-1.7-1-2.4-1.3c-0.9-0.3-1.8-0.7-2.7-1c-1.4-0.3-2.7-0.2-4.1-0.1
		c-0.1,0-0.2,0.2-0.1,0.2c2.7,0.2,4.8,0.9,7.2,2c0.4,0.2,1,0.3,1.2,0.7c0.1,0.2,0.1,0.8,0.2,1.1C202.8,64.2,202.9,64.4,203.4,64.3
		C203.4,64.4,203.4,64.3,203.4,64.3z"/>
	<path d="M196.6,63.7c-1.7,0.2-3.3,0.4-5,0.1c-1.3-0.3-2.3-0.7-3.4-1.3c0,0,0,0,0,0C190.2,64.8,193.7,64.3,196.6,63.7
		C196.6,63.8,196.6,63.7,196.6,63.7z"/>
	<path d="M214,66.8c-1,0.7-1.7,1.2-3,1.4c-0.8,0.1-1.7,0.1-2.5,0.1c-1.7,0-3.8,0.2-5.4-0.5l0,0c1.9,0.9,3.9,0.9,6,0.9
		c2,0,3.6-0.4,5-1.7C214.3,66.9,214.1,66.7,214,66.8z"/>
	<path d="M205.6,64.8c-1.2,0-3.6,0.2-3.5,1.9c0,0,0,0,0,0c0.4-1.4,2.2-1.6,3.4-1.7C205.6,65,205.7,64.8,205.6,64.8z"/>
	<path d="M182.9,64.5c-0.4-0.1-0.3-0.7-0.3-1c0-0.2-0.1-0.4-0.3-0.6c-0.3-0.3-0.9-0.4-1.3-0.5c-0.1,0-0.2,0.1-0.1,0.2
		c0.6,0.2,1.2,0.2,1.5,0.9C182.5,63.7,182.5,64.5,182.9,64.5C183,64.6,183,64.5,182.9,64.5z"/>
	<path d="M126.9,72.5c-0.5,0-1,0.1-1.5,0.1c-0.6,0-1.1-0.1-1.7-0.2c-0.4-0.1-2.2-0.1-2.4-0.4h0c0.1,0.3,0.2,0.3,0.5,0.4
		c0.6,0.2,1.3,0.2,1.9,0.4C124.8,73.1,125.8,72.8,126.9,72.5C127,72.6,127,72.5,126.9,72.5z"/>
	<path d="M114.1,70.4c-2,1.2-5.9,0.5-7.7-0.9c0,0,0,0,0,0c1.2,0.9,2.5,1.2,4.1,1.4C111.7,71.1,113.1,71.2,114.1,70.4
		C114.2,70.5,114.2,70.4,114.1,70.4z"/>
	<path d="M143.3,71.9c-1.2,0.8-3,0.7-4.4,0.7c-1.7,0-3.6,0.1-5.1-0.8c0,0,0,0,0,0c1.6,1.3,3.5,1.2,5.5,1.1
		C140.6,73,142.2,73,143.3,71.9C143.4,71.9,143.3,71.8,143.3,71.9z"/>
	<path d="M126.7,68.8c-0.5,0-1,0-1.4-0.2c-0.1-0.1-1.2-0.5-1-0.7c0,0,0,0,0,0c-0.2,0.3,0.1,0.6,0.4,0.7c0.6,0.4,1.3,0.5,2,0.4
		C126.8,69,126.8,68.8,126.7,68.8z"/>
</g>
</svg>
