<?xml version="1.0" encoding="utf-8"?>
<!-- Generator: Adobe Illustrator 22.1.0, SVG Export Plug-In . SVG Version: 6.00 Build 0)  -->
<svg version="1.1" id="Credit_Required:_EBMUD" xmlns="http://www.w3.org/2000/svg" xmlns:xlink="http://www.w3.org/1999/xlink"
	 x="0px" y="0px" viewBox="0 0 360 360" style="enable-background:new 0 0 360 360;" xml:space="preserve">
<style type="text/css">
	.st0{fill:#E4E5DE;}
	.st1{fill:#00A3E6;}
	.st2{fill:#010000;}
</style>
<g id="CAN-06">
	<g id="FILL_5_">
		<path class="st0" d="M168.6,230.1c0.1-0.4,0.1-0.7,0.1-1.1l0,0c0-0.2-0.2-0.2-0.4,0c-0.1,0.4-0.4,0.7-0.5,1.2
			c-0.1,0.5-0.4,1.2-0.6,1.6c-0.1,0.1-0.1,0.1-0.1,0.2l-0.1,0.1c-0.1,0.1-0.2,0.2-0.4,0.4l0,0l0,0c0,0-0.1,0-0.2,0.1
			c-0.6,0.4-1.2,0.9-1.7,1.4c-0.4,0.2-0.9,0.5-1.4,0.7c-0.1,0-0.2,0.1-0.4,0.1c-0.1,0-0.2,0-0.4,0c-0.4,0.1-0.7,0.2-1.1,0.5
			c-0.6,0.2-1.1,0.5-1.6,0.9l0,0c-0.1,0-0.2-0.1-0.4,0c-0.9,0.2-2,0.7-2.8,1.4c-1.2,0.2-2.4,0.5-3.5,0.9c-0.1,0-0.1,0-0.2,0
			c-0.7,0.1-1.5,0.4-2.2,0.5c-1.2,0.2-2.5,0.5-3.6,0.9c-0.5,0.1-0.9,0.1-1.4,0.2c-0.1,0-0.2-0.1-0.4-0.1c-0.5,0-1,0-1.5,0.1
			c-1.9,0.1-3.6,0.4-5.4,0.7c-0.1,0-0.2,0-0.4,0c-0.4,0-0.6,0.1-1,0.2c-0.1-0.1-0.2-0.2-0.6-0.2c-0.2,0-0.5,0-0.7,0
			c0-0.2,0-0.5-0.4-0.5c-1-0.1-2,0.1-2.8,0.2c-0.9,0.1-1.6,0.1-2.5,0.2c-0.6-0.6-1.4-0.5-2.2-0.2c-0.6,0.2-1.4,0.4-2,0.4
			c-0.1-0.1-0.2-0.1-0.5-0.1c-1.5,0.1-2.8,0.2-4.3,0.4c-0.1-0.2-0.4-0.4-0.7-0.4c-0.6,0-1.1,0.1-1.7,0.1c-0.2,0-0.5,0-0.7-0.1
			c-0.1-0.2-0.2-0.4-0.6-0.4c-0.9-0.1-1.7-0.1-2.5,0l-0.1-0.1c0-0.4-0.1-0.7-0.6-0.7c-0.7,0-1.6,0.1-2.4,0.2
			c0.1-0.4,0.1-0.9-0.2-1.1c-0.2-0.1-0.5-0.2-0.9-0.4c-0.1-0.2-0.4-0.4-0.7-0.2c-0.6,0.1-1.2,0.1-1.9,0.2c-0.1-0.1-0.2-0.1-0.5-0.1
			h-0.1c0-0.4-0.2-0.7-0.7-0.6c-0.7,0-1.5,0.1-2.2,0.2c0.2-0.5,0.1-1.2-0.6-1c-0.7,0.1-1.6,0.4-2.4,0.7l0,0c-0.1,0-0.1,0-0.2,0
			c0.1-0.4-0.1-0.9-0.6-0.7c-0.1,0-0.1,0-0.2,0c0-0.2-0.1-0.5-0.5-0.5c-1,0-2.1,0-3.1,0c-0.1,0-0.4,0-0.5-0.1s-0.2-0.1-0.4-0.1
			c-1.2-0.1-2.6-0.1-3.8-0.1l0,0c-1.4-0.5-2.8-1.5-4.3-1.7l0,0c0,0,0,0-0.1,0c-0.4-0.2-0.9-0.5-1.2-0.7c-0.4-0.5-0.7-1.1-1.2-1.6
			l0,0c0,0,0,0,0,0.1l-0.1-0.1l-0.1-0.1l0,0l0,0l0,0l0,0c-0.2-0.1-0.5-0.2-0.7-0.2s-0.6,0.4-0.4,0.5c0,0.1,0,0.1,0,0.2
			c0.5,0.9,1.2,1.6,2.1,2.4c0.7,0.6,1.4,1.6,2.1,2c0.7,0.7,1.6,1.2,2.5,1.7c0.6,0.4,1.1,0.7,1.7,1c0.4,0.7,1.2,1.4,2,2
			c0.4,0.5,0.9,0.9,1.5,1.2c0,0.1,0.1,0.2,0.2,0.4l0,0c0.2,0.9,1,1.2,1.9,1.5c0.6,0.5,1.4,0.9,2,1.1c0.9,0.5,2,0.9,3,1.2
			c0.7,0.2,1.6,0.4,2.5,0.5l0,0c0.1,0.1,0.4,0.1,0.6,0.1c1.1,0.2,2.2,0.7,3.3,0.9c1.5,0.2,3.1,0.4,4.6,0.2c0.4,0,0.7,0.1,1.1,0.1
			c0.7,0.2,1.6,0.2,2.5,0.4c0.6,0.1,1.2,0.1,2,0.1c0,0,0,0,0.1,0c0.9,0.4,2,0.2,2.8,0.2c0.4,0,0.9,0,1.2,0.1c0.7,0.1,1.7,0,2.5-0.1
			l0,0c0,0.1,0.1,0.2,0.4,0.1c1.2,0,2.5,0,3.7,0c0.5,0,1.2,0,1.9,0c0,0,0.1,0,0.2,0c1.6-0.1,3.3-0.2,4.9-0.5
			c1.7,0.1,3.7-0.4,5.3-0.7c0.5-0.1,1-0.2,1.6-0.4c0.6,0,1.4-0.2,1.9-0.2c0.6-0.1,1.2-0.2,1.9-0.5c1.5-0.2,3-0.7,4.3-1.2
			c0.9-0.2,1.7-0.7,2.5-1.2c0.2-0.2,0.7-0.4,1.1-0.6c0.6-0.2,1.2-0.6,1.9-1c0.7-0.5,1.4-0.9,1.7-1.6c0,0,0,0,0.1,0
			c1.1-1,1.5-2.5,2.6-3.5c0.1-0.1,0.1-0.2,0.1-0.4c0.2-0.1,0.5-0.4,0.7-0.5c0.1,0,0.2,0,0.4-0.1c0.9-0.5,2.1-1,2.7-1.9
			c1-0.5,1.7-1.5,2.1-2.4c0.2-0.5,0.6-1,0.7-1.5C168.6,231,168.6,230.6,168.6,230.1z"/>
		<path class="st1" d="M89.6,94c0,0-0.2,3.7-2.5,6.7c-2.2,3-6.4,6.6-6.4,15.3s0,112.6,0,112.6s3.2,6.6,14.2,8.9s16,3.3,28,3.7
			c12,0.4,25.4-0.2,32.1-2.6c6.7-2.4,10.4-4,12.1-6.2c1.7-2.4,1.6-4.2,1.6-4.2V117.6c0-3.5-0.7-6.9-2.4-10l-4.3-8.9
			c-0.6-1.4-1.1-2.8-1.4-4.3l0,0"/>
		<path class="st0" d="M161.3,91.4c0.1-0.5,0.1-1-0.2-1.6c-0.5-0.7-2-1.6-3.1-2c-2-0.6-4.2-0.6-6.2-1.1c-1-0.2-2.4-0.7-3.5-0.6
			c-0.9-0.2-1.6-0.4-2.5-0.4c-1.1-0.1-2.1-0.2-3.2-0.2c-0.7-0.1-1.7-0.4-2.5-0.1c-0.1,0-0.2,0.1-0.5,0.2c-2.5-0.4-5.1-0.9-7.5-0.4
			h-0.1c-1.6-0.2-3.2-0.2-4.8-0.4c-1.9,0-3.6-0.1-5.4-0.1c-1,0-2.2-0.1-3.3,0c-0.1,0-0.1-0.1-0.4-0.1c-2.2-0.4-5,0-7.2,0.1
			c-2.7,0.2-5.3,0.5-7.9,1c-2.6,0.4-5.1,0.7-7.7,1.2c-1.4,0.2-4,0.4-4.8,1.6c0,0,0,0.1-0.1,0.1l0,0c-0.5,0.2-0.9,0.5-1.1,1
			C89,89.9,89,90,89,90.3c-0.4,1-0.5,2.1,0,3.1c0.4,0.9,1.5,1.5,2.6,2c0.5,0.2,1,0.5,1.5,0.6c0.2,0.1,0.5,0,0.7,0
			c0.2,0.1,0.6,0.4,0.9,0.4c0.5,0.2,1.5,0.5,2.1,0.5c1.6,1,4,1,5.8,1.1c0.4,0.1,1,0.1,1.4,0.1c0.4,0,0.7,0,1.2,0
			c0.1,0.1,0.1,0.1,0.4,0.1c1.2,0.2,2.5,0.1,3.7,0.1c0,0,0.1,0,0.2,0.1c1.6,0.4,3.5,0.4,5.2,0.4c0.6,0.1,1.4,0.1,2.1,0.1
			c0.7,0.1,1.5,0.1,2.2,0.1c0.1,0.2,0.4,0.5,0.7,0.4c1.4,0,2.8,0.1,4.2,0c0.4,0,0.9-0.1,1.2-0.1c0.1,0,0.2,0,0.4,0
			c0.6,0,1.2,0,1.9-0.1c0.1,0,0.1,0,0.2,0c1.7,0,3.5-0.2,5.2-0.4c0.1,0,0.2,0.1,0.5,0.1c1.9-0.1,3.6-0.2,5.4-0.2
			c0.1,0.1,0.4,0.2,0.6,0.2c3.1-0.1,5.9-0.2,8.9-0.9c0.9-0.2,1.7-0.4,2.6-0.6c1.6,0.1,3.5-0.6,4.9-0.9c1.5-0.2,2.8-0.6,4.2-1.4
			c0.4-0.2,0.5-0.6,0.4-0.9c0.2-0.2,0.5-0.4,0.6-0.6c0.1-0.1,0.2-0.4,0.2-0.6C161.5,92.6,161.4,92,161.3,91.4z"/>
	</g>
	<g id="LINE_5_">
		<path class="st2" d="M161.3,90.7c-0.1-1-1.6-1.4-2.2-1.9c-0.4-0.2-0.6-0.6-1-0.9c-0.5-0.2-1.4-0.4-1.9-0.5
			c-0.2-0.1-0.5-0.1-0.9-0.2c-0.1-0.2-0.5-0.2-0.7-0.2c-0.1,0-0.1,0-0.2,0s-0.1,0-0.2-0.1c-0.4-0.1-0.6-0.1-1-0.2
			c-0.1,0-0.2,0-0.4,0l0,0c-0.1,0-0.1,0-0.2,0c0,0,0,0-0.1,0c-9.3-2.1-18.7-1.7-28.2-2.2c-4.1-0.2-8.2,0.2-12.3,0.5
			c-3.1,0.2-6.2,0.9-9.4,1.1c0.5-0.1,1-0.1,1.5-0.2l0,0c-1.1,0.1-2.1,0.2-3.2,0.4c-0.2,0-0.4,0-0.6,0l0,0l0,0
			c-3.1,0.4-6.2,0.7-8.9,2.5c-0.5,0.4-1.1,0.9-1.1,1.5c0,0.7,0.6,0.9,1.1,1.1c1.7,1,3.6,1.7,5.4,2.5c-0.5,0,5.1,1.4,8,1.7
			c2.6,0.2,5.2,1.1,7.8,0.7c4.8,0.4,9.7,0.2,14.5,0c3,0.2,20-1,22.4-1.4c2.2-0.2,4.3-0.7,6.6-1.1c1.1-0.2,3.8-1.2,4.1-1.4
			C161,92.2,161.3,91,161.3,90.7z M160,91.9l-0.1,0.1c-0.2,0.2-3.8,1.5-5.3,1.9l0,0c-1.9,0.4-3.7,0.7-5.6,0.9
			c-2.8,0.4-8.5,0.9-8.5,0.9c0.2,0-10.4,0.4-13.5,0.6c-1.9,0-3.6,0-5.4,0.1c-2.7,0.1-5.4-0.1-8.2-0.1l0,0c-1.1-0.2-2.2-0.2-3.3-0.2
			c-1.7,0-3.2-0.5-4.8-0.7c-1.5-0.2-3-0.4-4.5-0.7c-2.6-0.6-6.4-1.9-8.4-2.8c-0.9-0.5-2.4-1-1.7-2.2c0.4-0.9,2.2-1.4,3-1.7
			c2.2-1,4.8-1.2,7.4-1.6c1.6,0,3.1-0.2,4.7-0.5c1.9-0.2,3.7-0.1,5.7-0.2c4.3-0.2,8.7-0.7,13-0.6c4.6,0.1,9,0,13.6,0.2
			c4.8,0.2,9.7,1,14.4,1.7l0,0c0,0,0,0,0.1,0c0.2,0.1,0.6,0.1,0.9,0.1c0.4,0.1,0.6,0.1,1,0.2c0.9,0.2,1.7,0.5,2.5,0.9
			c0.9,0.2,1.2,0.7,2,1.2C159.8,90.2,161.4,90.5,160,91.9z"/>
		<path class="st2" d="M101.6,94.9c-3.8-0.2-7.8-1.5-11.1-3.3c-2.8-1.6,0.5-3.3,2.1-3.8c2.2-0.7,4.3-1.1,6.6-1.6l0,0
			c-2.6,0.5-5.1,0.7-7.5,1.7c-1,0.4-2.7,1.4-2.5,2.7c0.1,0.9,1,1.1,1.6,1.5c1,0.5,2,1.1,3.1,1.5c1.2,0.4,2.5,0.7,3.7,0.9
			C98.9,94.6,100.3,95,101.6,94.9L101.6,94.9z"/>
		<g>
			<path class="st2" d="M105.1,89.9c-3.3,0.2-7.3,0.9-10.4,2.5l0,0c3.5-1.1,6.9-2,10.5-2.4c2.1-0.1,4.2-0.6,6.2-1
				c-0.5,0-0.7,0.1-0.9,0.1C108.7,89.6,106.9,89.8,105.1,89.9z"/>
			<path class="st2" d="M122.2,88.2L122.2,88.2c-2.7,0.1-5.6,0.2-8.3,0.2c-2.4,0-4.7,0.4-7.1,0.6c-2.4,0.1-4.7,0.5-7.1,0.9
				c-2.4,0.4-4.7,1.2-7.1,1.9l0,0c2.4-0.4,4.7-1.2,7.1-1.6c2.5-0.4,4.9-0.6,7.4-0.7c2.1-0.1,4.3-0.5,6.4-0.6
				c-0.7,0.1-1.5,0.2-2.1,0.4c0.7-0.1,2-0.2,2.7-0.4C116.8,88.7,119.6,88.6,122.2,88.2z"/>
		</g>
		<path class="st2" d="M146,89.2"/>
		<path class="st2" d="M162.3,90.4c-0.5-1.4-2.4-2-3.6-2.4c-1.1-0.4-2.4-0.6-3.3-0.9c-1.1-0.2-2.6-0.4-3.7-0.7l0,0
			c2.1,0.9,4.5,1.2,6.6,1.9c0.9,0.2,2.1,0.6,2.7,1.2c0.7,0.7,0.9,2.2,0.9,3.2c-0.1,1.9-1.9,2.2-3.3,2.8c-1.2,0.5-2.6,1-4,1.4
			c-2.6,0.7-5.2,1-7.9,1.2c-3,0.4-5.8,0.6-8.8,0.6c-2.5,0-4.9,0.5-7.3,0.5c-2.4,0.1-16.1-0.6-18.9-0.7c-0.7,0-7.2-0.9-9.7-1.1
			c-1.4,0-6.8-1.5-8-1.9c-1.1-0.4-2.1-1.1-3.2-1.5c-0.1-0.1-1.2-1-1.2-1.4c-0.1-0.5,0-1.7-0.1-2.1c0-0.1-0.1,0-0.1,0
			c0,0.2,0,1.4,0,1.6c0,0.2,0,0.5,0,0.7c0,0.1,0.4,0.9,0.5,0.9c0.2,0.2,3.5,2,4,2.2c1,0.4,4.1,1.2,4.3,1.4
			c0.7,0.1,12.4,1.5,13.5,1.5c2.6,0.1,15.8,0.5,17.6,0.5c2.2,0,4.3-0.4,6.6-0.5c2.6-0.1,5.2,0,7.8-0.1c4.6-0.2,9.3-0.9,13.7-2.2
			c1.5-0.5,3.7-1.1,4.8-2.1C162.5,93.6,162.5,91.5,162.3,90.4z"/>
		<path class="st2" d="M168.6,230.5c-0.6,3.6-3.8,5.3-6.7,7.1c-1,0.6-1.7,1.4-2.1,2.4c-0.1,0.5-0.4,0.9-0.5,1.2
			c-0.1,0.1-0.1,0.2-0.2,0.2c-0.1,0.1-0.2,0.4-0.4,0.5l0,0c-4.8,4.2-11.3,5.6-17.4,6.4c-3,0.4-5.9,1-8.9,1.1c-0.2,0-0.4,0-0.6,0
			c-0.5,0-1.1-0.1-1.6-0.1c-1.1-0.1-2.4-0.1-3.5,0c-2.8,0-5.8,0-8.7-0.2c-5.2-0.6-10.3-1-15.2-2.5c-2.4-0.7-4.5-1.5-6.4-3
			c-1.7-1.4-3-3.1-4.8-4.3c-1.7-1.1-3.3-2.4-4.8-3.8c-1.6-1.5-3.5-2.8-4.7-4.7l0,0c0.7,1.2,1.5,2.8,2.6,3.7c1.5,1.1,2.7,2.5,4.2,3.6
			c1.4,1.1,3,1.9,4.2,3c1.4,1.2,2.5,2.5,4,3.5c3.1,2.1,7.1,2.6,10.6,3.3c2.1,0.5,4.5,0.7,6.7,0.7c2.1,0.1,4.2,0.5,6.3,0.7
			c1.6,0.1,3.1,0.1,4.7,0.1c2.6,0.1,5.3,0.4,7.8,0.2c3-0.2,6.1-0.6,9-1.1c2.8-0.4,5.7-1.1,8.4-2c1.6-0.5,3.2-1.2,4.7-2
			c1.4-0.6,2.7-1.5,3.7-2.6c0,0,0-0.1,0.1-0.1c0.4-0.2,0.6-0.6,0.9-1.1c0.4-0.9,0.5-1.7,1.2-2.5s1.9-1.4,2.8-1.9
			c2.4-1.5,4.7-3.3,4.8-6.3C168.7,230.4,168.6,230.5,168.6,230.5z"/>
		<path class="st2" d="M159.2,92.3c-1.6-1.4-4.3-2-6.3-2.1c-3.5-0.4-6.8-0.7-10.3-1.4c-2.8-0.5-5.6-0.7-8.5-0.7c-1.7,0-3.5,0-5.2,0
			c-1.4,0-2.6,0.2-4,0.2l0,0c5.6,0.4,11-0.2,16.5,0.6c3,0.5,6.1,1,9.2,1.4c2.6,0.4,6.1,0.5,8.2,2.2C159,92.9,159.4,92.5,159.2,92.3z
			"/>
		<path class="st2" d="M156.1,93.5c-1-1.4-3.6-1.6-5.1-2c-2.1-0.6-4.1-1.1-6.2-1.4c-2-0.2-4-0.7-5.9-1c-2-0.2-4,0.1-5.9,0.1l0,0
			c1.6,0.1,3.2,0,4.8,0c1.9,0,3.6,0.4,5.4,0.7c2.2,0.5,4.5,0.9,6.6,1.5c1,0.2,2.1,0.6,3.1,0.9c0.9,0.2,2.2,0.5,2.7,1.2
			C155.8,94,156.2,93.8,156.1,93.5z"/>
		<path class="st2" d="M135.8,92.9c-1.5,0.9-3.8,0.7-5.6,0.6c-1.5-0.1-2.8,0-4.2,0.1c-2.8,0.1-5.9,0.6-8.7-0.5l0,0
			c2.7,1.5,6.2,0.9,9,0.6c1.9-0.1,3.6,0,5.4,0C133.2,93.8,134.8,93.8,135.8,92.9C135.9,92.9,135.9,92.8,135.8,92.9z"/>
		<path class="st2" d="M126.2,91.2c-0.9-0.1-1.7,0-2.6,0c-0.6,0-1.2-0.1-1.9,0.1c-0.1,0-0.2,0.2-0.1,0.2c0,0,0,0,0.1,0h-0.1
			c-0.1,0-0.1,0.1-0.1,0.2l0.1,0.1c0.1,0.1,0.6-0.1,0.4,0.1c-0.4,0.2-1.7-0.1-2-0.2l0,0c0.5,0.2,2.1,1,2.5,0.2v-0.1
			c-0.1-0.1-0.1-0.1-0.2-0.1c0.2,0,0.4,0,0.5-0.1c0.1-0.1,0.1-0.2,0-0.2h-0.1c0.4,0,0.7,0,1.1,0C124.6,91.3,125.5,91.3,126.2,91.2
			C126.4,91.2,126.4,91.2,126.2,91.2z"/>
		<path class="st2" d="M130.6,91.8L130.6,91.8c-0.1-0.1-0.4-0.1-0.5-0.1c0-0.1,0-0.2-0.1-0.2c-0.2,0-0.5,0-0.7,0
			c0-0.1,0-0.1-0.1-0.1c-0.1,0-0.4,0.1-0.6,0.1c0-0.1,0-0.1-0.1-0.1c-0.4,0-0.6,0-1,0.1l0,0c0.2,0,0.4,0,0.6,0v0.1
			c0.1,0.1,0.2,0.1,0.4,0.1l0,0c0,0.1,0,0.2,0.1,0.2s2-0.1,2-0.1C130.5,92.2,130.6,92,130.6,91.8C130.6,91.9,130.6,91.9,130.6,91.8z
			"/>
		<path class="st2" d="M116.3,92.6c-0.2-0.1-0.4-0.2-0.5-0.4c-0.1-0.1-0.4-0.2-0.6-0.4c-0.1-0.1-0.4-0.1-0.6-0.2c-0.1,0-0.2,0-0.4,0
			c-0.1,0-0.6-0.1-0.2-0.4l0,0c-0.5,0.2,0,0.5,0.4,0.5c0.4,0.1,0.9,0.2,1.2,0.5C115.8,92.4,116.1,92.6,116.3,92.6L116.3,92.6z"/>
		<path class="st2" d="M136.5,92.4c-0.2-0.6-1.1-0.7-1.7-1c-1-0.5-2-0.9-3-1.1c-1.9-0.5-3.6-0.6-5.4-0.7c-2.2-0.1-4.5-0.1-6.7,0
			c-1.6,0.1-4.1-0.1-5.4,1v0.1c1.6-0.7,3.8-0.5,5.6-0.7c1.5-0.1,3-0.1,4.5-0.1c-1.5,0.2-3,0.5-4.5,0.6l0,0c2.4,0.1,4.9-0.2,7.3-0.5
			c0,0,0,0,0.1,0c1.6,0,3.2,0.1,4.8,0.7c0.9,0.4,1.6,0.7,2.5,1.1c0.2,0.1,1.1,0.4,1.2,0.6c1.1,1.4-0.9,1.5-1.5,1.6
			c-3.7,0.6-7.4,0.2-11.1,0.4c-1.7,0.1-4.3,0.4-5.9-0.5c-0.7-0.4-1.4-1-2.2-1.4c-0.6-0.2-2.1-0.5-1.5-1.4l0,0
			c-0.7,0.7-0.5,1,0.4,1.4c1.6,0.6,3,2,4.7,2.2c2,0.2,4,0,6.1,0c2,0,3.8,0.1,5.8,0C131.3,94.6,137.8,94.6,136.5,92.4z"/>
		<g>
			<path class="st2" d="M89.6,94c-0.2,2.8-1.4,5.7-3.2,7.8c-1.9,2.2-3.5,4.6-4.3,7.2c-0.5,1.4-0.7,2.7-0.9,4.1
				c-0.1,1.4-0.1,2.8-0.1,4.2l0.1,8.5l0.4,34.3l0.2,34.3l0.1,34.3l-0.1-0.5c0.5,0.9,1.2,1.7,2,2.6c0.7,0.7,1.7,1.5,2.6,2.1
				c1.9,1.2,4.1,2.2,6.2,2.8c2.2,0.6,4.6,1.1,6.9,1.6c2.4,0.5,4.7,1,7.1,1.4c4.7,0.7,9.5,1.1,14.2,1.4c4.8,0.1,9.7,0.2,14.4,0.1
				c4.8-0.1,9.7-0.5,14.2-1.2c1.1-0.2,2.4-0.5,3.5-0.7c0.6-0.1,1.1-0.4,1.6-0.5l1.7-0.6c2.2-0.7,4.5-1.6,6.6-2.7
				c1-0.5,2-1.1,2.7-1.9c0.7-0.7,1.4-1.6,1.7-2.6c0.1-0.5,0.2-1,0.4-1.5v-1.7v-3.6v-14.5c0-19.3,0.2-38.7,0.4-58l0.2-29
				c0-2.5,0.1-4.8-0.1-7.2c-0.2-2.4-1-4.7-2-6.8l-3.1-6.6c-0.5-1.1-1-2.2-1.5-3.3s-0.7-2.4-0.9-3.5c0.2,1.2,0.5,2.4,1,3.5
				c0.5,1.1,1.1,2.1,1.6,3.2l3.2,6.4c1.1,2.2,1.9,4.6,2.2,6.9c0.4,2.5,0.2,4.8,0.2,7.3l0.2,29c0.1,19.3,0.4,38.6,0.4,57.9V223v3.6
				v0.9c0,0.4,0,0.5,0,1c0,0.7-0.2,1.4-0.5,2.1c-0.5,1.4-1.2,2.5-2.2,3.5c-1,1-2.1,1.6-3.2,2.2c-2.2,1.1-4.6,2-6.8,2.8l-1.7,0.6
				c-0.6,0.1-1.2,0.4-1.9,0.5c-1.2,0.4-2.5,0.6-3.6,0.7c-4.8,0.9-9.8,1.2-14.6,1.4c-4.8,0.1-9.8,0.1-14.6,0
				c-4.8-0.2-9.8-0.6-14.6-1.5c-2.4-0.4-4.8-0.9-7.2-1.4c-2.4-0.5-4.7-1-7.2-1.7c-2.4-0.7-4.7-1.9-6.8-3.2c-2.1-1.5-4-3.1-5.4-5.6
				l-0.1-0.2v-0.2l0.1-34.3l0.2-34.3l0.4-34.3L80,117c0-1.4,0-2.8,0.2-4.3c0.2-1.5,0.5-2.8,1-4.2c1-2.7,2.7-5.1,4.7-7.2
				C88.1,99.6,89.2,96.9,89.6,94z"/>
		</g>
	</g>
</g>
<g id="CAN-05">
	<g id="FILL_4_">
		<path class="st0" d="M243.8,236.6c0.1-0.4,0.1-0.7,0.1-1.1l0,0c0-0.2-0.2-0.2-0.4,0c-0.1,0.4-0.4,0.7-0.5,1.2
			c-0.1,0.5-0.4,1.2-0.6,1.6c-0.1,0.1-0.1,0.1-0.1,0.2l-0.1,0.1c-0.1,0.1-0.2,0.2-0.4,0.4l0,0l0,0c0,0-0.1,0-0.2,0.1
			c-0.6,0.4-1.2,0.9-1.7,1.4c-0.4,0.2-0.9,0.5-1.4,0.7c-0.1,0-0.2,0.1-0.4,0.1c-0.1,0-0.2,0-0.4,0c-0.4,0.1-0.7,0.2-1.1,0.5
			c-0.6,0.2-1.1,0.5-1.6,0.9l0,0c-0.1,0-0.2-0.1-0.4,0c-0.9,0.2-2,0.7-2.8,1.4c-1.2,0.2-2.4,0.5-3.5,0.9c-0.1,0-0.1,0-0.2,0
			c-0.7,0.1-1.5,0.4-2.2,0.5c-1.2,0.2-2.5,0.5-3.6,0.9c-0.5,0.1-0.9,0.1-1.4,0.2c-0.1,0-0.2-0.1-0.4-0.1c-0.5,0-1,0-1.5,0.1
			c-1.9,0.1-3.6,0.4-5.4,0.7c-0.1,0-0.2,0-0.4,0c-0.4,0-0.6,0.1-1,0.2c-0.1-0.1-0.2-0.2-0.6-0.2c-0.2,0-0.5,0-0.7,0
			c0-0.2,0-0.5-0.4-0.5c-1-0.1-2,0.1-2.8,0.2c-0.9,0.1-1.6,0.1-2.5,0.2c-0.6-0.6-1.4-0.5-2.2-0.2c-0.6,0.2-1.4,0.4-2,0.4
			c-0.1-0.1-0.2-0.1-0.5-0.1c-1.5,0.1-2.8,0.2-4.3,0.4c-0.1-0.2-0.4-0.4-0.7-0.4c-0.6,0-1.1,0.1-1.7,0.1c-0.2,0-0.5,0-0.7-0.1
			c-0.1-0.2-0.2-0.4-0.6-0.4c-0.9-0.1-1.7-0.1-2.5,0l-0.1-0.1c0-0.4-0.1-0.7-0.6-0.7c-0.7,0-1.6,0.1-2.4,0.2
			c0.1-0.4,0.1-0.9-0.2-1.1c-0.2-0.1-0.5-0.2-0.9-0.4c-0.1-0.2-0.4-0.4-0.7-0.2c-0.6,0.1-1.2,0.1-1.9,0.2c-0.1-0.1-0.2-0.1-0.5-0.1
			h-0.1c0-0.4-0.2-0.7-0.7-0.6c-0.7,0-1.5,0.1-2.2,0.2c0.2-0.5,0.1-1.2-0.6-1c-0.7,0.1-1.6,0.4-2.4,0.7l0,0c-0.1,0-0.1,0-0.2,0
			c0.1-0.4-0.1-0.9-0.6-0.7c-0.1,0-0.1,0-0.2,0c0-0.2-0.1-0.5-0.5-0.5c-1,0-2.1,0-3.1,0c-0.1,0-0.4,0-0.5-0.1
			c-0.1-0.1-0.2-0.1-0.4-0.1c-1.2-0.1-2.6-0.1-3.8-0.1l0,0c-1.4-0.5-2.8-1.5-4.3-1.7l0,0c0,0,0,0-0.1,0c-0.4-0.2-0.9-0.5-1.2-0.7
			c-0.4-0.5-0.7-1.1-1.2-1.6l0,0c0,0,0,0,0,0.1l-0.1-0.1l-0.1-0.1l0,0l0,0l0,0l0,0c-0.2-0.1-0.5-0.2-0.7-0.2c-0.2,0-0.6,0.4-0.4,0.5
			c0,0.1,0,0.1,0,0.2c0.5,0.9,1.2,1.6,2.1,2.4c0.7,0.6,1.4,1.6,2.1,2c0.7,0.7,1.6,1.2,2.5,1.7c0.6,0.4,1.1,0.7,1.7,1
			c0.4,0.7,1.2,1.4,2,2c0.4,0.5,0.9,0.9,1.5,1.2c0,0.1,0.1,0.2,0.2,0.4l0,0c0.2,0.9,1,1.2,1.9,1.5c0.6,0.5,1.4,0.9,2,1.1
			c0.9,0.5,2,0.9,3,1.2c0.7,0.2,1.6,0.4,2.5,0.5l0,0c0.1,0.1,0.4,0.1,0.6,0.1c1.1,0.2,2.2,0.7,3.3,0.9c1.5,0.2,3.1,0.4,4.6,0.2
			c0.4,0,0.7,0.1,1.1,0.1c0.7,0.2,1.6,0.2,2.5,0.4c0.6,0.1,1.2,0.1,2,0.1c0,0,0,0,0.1,0c0.9,0.4,2,0.2,2.8,0.2c0.4,0,0.9,0,1.2,0.1
			c0.7,0.1,1.7,0,2.5-0.1l0,0c0,0.1,0.1,0.2,0.4,0.1c1.2,0,2.5,0,3.7,0c0.5,0,1.2,0,1.9,0c0,0,0.1,0,0.2,0c1.6-0.1,3.3-0.2,5-0.5
			c1.7,0.1,3.7-0.4,5.3-0.7c0.5-0.1,1-0.2,1.6-0.4c0.6,0,1.4-0.2,1.9-0.2c0.6-0.1,1.2-0.2,1.9-0.5c1.5-0.2,3-0.7,4.3-1.2
			c0.9-0.2,1.7-0.7,2.5-1.2c0.2-0.2,0.7-0.4,1.1-0.6c0.6-0.2,1.2-0.6,1.9-1c0.7-0.5,1.4-0.9,1.7-1.6c0,0,0,0,0.1,0
			c1.1-1,1.5-2.5,2.6-3.5c0.1-0.1,0.1-0.2,0.1-0.4c0.2-0.1,0.5-0.4,0.7-0.5c0.1,0,0.2,0,0.4-0.1c0.9-0.5,2.1-1,2.7-1.9
			c1-0.5,1.7-1.5,2.1-2.4c0.2-0.5,0.6-1,0.7-1.5C243.7,237.4,243.7,237.1,243.8,236.6z"/>
		<path class="st1" d="M164.7,100.4c0,0-0.2,3.7-2.5,6.7c-2.2,3-6.4,6.6-6.4,15.3s0,112.6,0,112.6s3.2,6.6,14.2,8.9
			c11,2.4,16,3.3,28,3.7c12,0.4,25.4-0.2,32.1-2.6c6.7-2.4,10.4-4,12.1-6.2c1.7-2.4,1.6-4.2,1.6-4.2V124.1c0-3.5-0.7-6.9-2.4-10
			l-4.3-8.9c-0.6-1.4-1.1-2.8-1.4-4.3l0,0"/>
		<path class="st0" d="M236.4,97.8c0.1-0.5,0.1-1-0.2-1.6c-0.5-0.7-2-1.6-3.1-2c-2-0.6-4.2-0.6-6.2-1.1c-1-0.2-2.4-0.7-3.5-0.6
			c-0.9-0.2-1.6-0.4-2.5-0.4c-1.1-0.1-2.1-0.2-3.2-0.2c-0.7-0.1-1.7-0.4-2.5-0.1c-0.1,0-0.2,0.1-0.5,0.2c-2.5-0.4-5.1-0.9-7.5-0.4
			h-0.1c-1.6-0.2-3.2-0.2-4.8-0.4c-1.9,0-3.6-0.1-5.4-0.1c-1,0-2.2-0.1-3.3,0c-0.1,0-0.1-0.1-0.4-0.1c-2.2-0.4-4.9,0-7.2,0.1
			c-2.7,0.2-5.3,0.5-7.9,1c-2.6,0.4-5.1,0.7-7.7,1.2c-1.4,0.2-4,0.4-4.8,1.6c0,0,0,0.1-0.1,0.1l0,0c-0.5,0.2-0.9,0.5-1.1,1
			c-0.1,0.2-0.1,0.4-0.1,0.6c-0.4,1-0.5,2.1,0,3.1c0.4,0.9,1.5,1.5,2.6,2c0.5,0.2,1,0.5,1.5,0.6c0.2,0.1,0.5,0,0.7,0
			c0.2,0.1,0.6,0.4,0.9,0.4c0.5,0.2,1.5,0.5,2.1,0.5c1.6,1,4,1,5.8,1.1c0.4,0.1,1,0.1,1.4,0.1c0.4,0,0.7,0,1.2,0
			c0.1,0.1,0.1,0.1,0.4,0.1c1.2,0.2,2.5,0.1,3.7,0.1c0,0,0.1,0,0.2,0.1c1.6,0.4,3.5,0.4,5.2,0.4c0.6,0.1,1.4,0.1,2.1,0.1
			c0.7,0.1,1.5,0.1,2.2,0.1c0.1,0.2,0.4,0.5,0.7,0.4c1.4,0,2.8,0.1,4.2,0c0.4,0,0.9-0.1,1.2-0.1c0.1,0,0.2,0,0.4,0
			c0.6,0,1.2,0,1.9-0.1c0.1,0,0.1,0,0.2,0c1.7,0,3.5-0.2,5.2-0.4c0.1,0,0.2,0.1,0.5,0.1c1.9-0.1,3.6-0.2,5.4-0.2
			c0.1,0.1,0.4,0.2,0.6,0.2c3.1-0.1,5.9-0.2,8.9-0.9c0.9-0.2,1.7-0.4,2.6-0.6c1.6,0.1,3.5-0.6,4.9-0.9c1.5-0.2,2.8-0.6,4.2-1.4
			c0.4-0.2,0.5-0.6,0.4-0.9c0.2-0.2,0.5-0.4,0.6-0.6c0.1-0.1,0.2-0.4,0.2-0.6C236.6,99.1,236.6,98.5,236.4,97.8z"/>
	</g>
	<g id="LINE_4_">
		<path class="st2" d="M236.5,97.1c-0.1-1-1.6-1.4-2.2-1.9c-0.4-0.2-0.6-0.6-1-0.9c-0.5-0.2-1.4-0.4-1.9-0.5
			c-0.2-0.1-0.5-0.1-0.9-0.2c-0.1-0.2-0.5-0.2-0.7-0.2c-0.1,0-0.1,0-0.2,0s-0.1,0-0.2-0.1c-0.4-0.1-0.6-0.1-1-0.2
			c-0.1,0-0.2,0-0.4,0l0,0c-0.1,0-0.1,0-0.2,0c0,0,0,0-0.1,0c-9.3-2.1-18.7-1.7-28.2-2.2c-4.1-0.2-8.2,0.2-12.3,0.5
			c-3.1,0.2-6.2,0.9-9.4,1.1c0.5-0.1,1-0.1,1.5-0.2l0,0c-1.1,0.1-2.1,0.2-3.2,0.4c-0.2,0-0.4,0-0.6,0l0,0l0,0
			c-3.1,0.4-6.2,0.7-8.9,2.5c-0.5,0.4-1.1,0.9-1.1,1.5c0,0.7,0.6,0.9,1.1,1.1c1.7,1,3.6,1.7,5.4,2.5c-0.5,0,5.1,1.4,8,1.7
			c2.6,0.2,5.2,1.1,7.8,0.7c4.8,0.4,9.7,0.2,14.5,0c3,0.2,20-1,22.4-1.4c2.2-0.2,4.3-0.7,6.6-1.1c1.1-0.2,3.8-1.2,4.1-1.4
			C236.3,98.6,236.5,97.5,236.5,97.1z M235.3,98.3l-0.1,0.1c-0.2,0.2-3.8,1.5-5.3,1.9l0,0c-1.9,0.4-3.7,0.7-5.6,0.9
			c-2.8,0.4-8.5,0.9-8.5,0.9c0.2,0-10.4,0.4-13.5,0.6c-1.9,0-3.6,0-5.4,0.1c-2.7,0.1-5.4-0.1-8.2-0.1l0,0c-1.1-0.2-2.2-0.2-3.3-0.2
			c-1.7,0-3.2-0.5-4.8-0.7c-1.5-0.2-3-0.4-4.5-0.7c-2.6-0.6-6.4-1.9-8.4-2.8c-0.9-0.5-2.4-1-1.7-2.2c0.4-0.9,2.2-1.4,3-1.7
			c2.2-1,4.8-1.2,7.4-1.6c1.6,0,3.1-0.2,4.7-0.5c1.9-0.2,3.7-0.1,5.7-0.2c4.3-0.2,8.7-0.7,13-0.6c4.6,0.1,9,0,13.6,0.2
			c4.8,0.2,9.7,1,14.4,1.7l0,0c0,0,0,0,0.1,0c0.2,0.1,0.6,0.1,0.9,0.1c0.4,0.1,0.6,0.1,1,0.2c0.9,0.2,1.7,0.5,2.5,0.9
			c0.9,0.2,1.2,0.7,2,1.2C235,96.6,236.6,97,235.3,98.3z"/>
		<path class="st2" d="M176.9,101.3c-3.8-0.2-7.8-1.5-11.1-3.3c-2.8-1.6,0.5-3.3,2.1-3.8c2.2-0.7,4.3-1.1,6.6-1.6l0,0
			c-2.6,0.5-5.1,0.7-7.5,1.7c-1,0.4-2.7,1.4-2.5,2.7c0.1,0.9,1,1.1,1.6,1.5c1,0.5,2,1.1,3.1,1.5c1.2,0.4,2.5,0.7,3.7,0.9
			C174.1,101.1,175.4,101.4,176.9,101.3L176.9,101.3z"/>
		<g>
			<path class="st2" d="M180.2,96.4c-3.3,0.2-7.3,0.9-10.4,2.5l0,0c3.5-1.1,6.9-2,10.5-2.4c2.1-0.1,4.2-0.6,6.2-1
				c-0.5,0-0.7,0.1-0.9,0.1C183.9,96,182.1,96.2,180.2,96.4z"/>
			<path class="st2" d="M197.4,94.6L197.4,94.6c-2.7,0.1-5.6,0.2-8.3,0.2c-2.4,0-4.7,0.4-7.1,0.6c-2.4,0.1-4.7,0.5-7.1,0.9
				c-2.4,0.4-4.7,1.2-7.1,1.9l0,0c2.4-0.4,4.7-1.2,7.1-1.6c2.5-0.4,4.9-0.6,7.4-0.7c2.1-0.1,4.3-0.5,6.4-0.6
				c-0.7,0.1-1.5,0.2-2.1,0.4c0.7-0.1,2-0.2,2.7-0.4C192.1,95.1,194.7,95,197.4,94.6z"/>
		</g>
		<path class="st2" d="M221.3,95.6"/>
		<path class="st2" d="M237.4,96.9c-0.5-1.4-2.4-2-3.6-2.4c-1.1-0.4-2.4-0.6-3.3-0.9c-1.1-0.2-2.6-0.4-3.7-0.7l0,0
			c2.1,0.9,4.5,1.2,6.6,1.9c0.9,0.2,2.1,0.6,2.7,1.2c0.7,0.7,0.9,2.2,0.9,3.2c-0.1,1.9-1.9,2.2-3.3,2.8c-1.2,0.5-2.6,1-4,1.4
			c-2.6,0.7-5.2,1-7.9,1.2c-3,0.4-5.8,0.6-8.8,0.6c-2.5,0-4.9,0.5-7.3,0.5c-2.4,0.1-16.1-0.6-18.9-0.7c-0.7,0-7.2-0.9-9.7-1.1
			c-1.4,0-6.8-1.5-8-1.9c-1.1-0.4-2.1-1.1-3.2-1.5c-0.1-0.1-1.2-1-1.2-1.4c-0.1-0.5,0-1.7-0.1-2.1c0-0.1-0.1,0-0.1,0
			c0,0.2,0,1.4,0,1.6c0,0.2,0,0.5,0,0.7c0,0.1,0.4,0.9,0.5,0.9c0.2,0.2,3.5,2,4,2.2c1,0.4,4.1,1.2,4.3,1.4
			c0.7,0.1,12.4,1.5,13.5,1.5c2.6,0.1,15.8,0.5,17.6,0.5c2.2,0,4.3-0.4,6.6-0.5c2.6-0.1,5.2,0,7.8-0.1c4.6-0.2,9.3-0.9,13.7-2.2
			c1.5-0.5,3.7-1.1,4.8-2.1C237.7,100.1,237.7,98,237.4,96.9z"/>
		<path class="st2" d="M243.8,236.9c-0.6,3.6-3.8,5.3-6.7,7.1c-1,0.6-1.7,1.4-2.1,2.4c-0.1,0.5-0.4,0.9-0.5,1.2
			c-0.1,0.1-0.1,0.2-0.2,0.2c-0.1,0.1-0.2,0.4-0.4,0.5l0,0c-4.8,4.2-11.3,5.6-17.4,6.4c-3,0.4-5.9,1-8.9,1.1c-0.2,0-0.4,0-0.6,0
			c-0.5,0-1.1-0.1-1.6-0.1c-1.1-0.1-2.4-0.1-3.5,0c-2.8,0-5.8,0-8.7-0.2c-5.2-0.6-10.3-1-15.2-2.5c-2.4-0.7-4.5-1.5-6.4-3
			c-1.7-1.4-3-3.1-4.8-4.3c-1.7-1.1-3.3-2.4-4.8-3.8c-1.6-1.5-3.5-2.8-4.7-4.7l0,0c0.7,1.2,1.5,2.8,2.6,3.7c1.5,1.1,2.7,2.5,4.2,3.6
			c1.4,1.1,3,1.9,4.2,3c1.4,1.2,2.5,2.5,4,3.5c3.1,2.1,7.1,2.6,10.6,3.3c2.1,0.5,4.5,0.7,6.7,0.7c2.1,0.1,4.2,0.5,6.3,0.7
			c1.6,0.1,3.1,0.1,4.7,0.1c2.6,0.1,5.3,0.4,7.8,0.2c3-0.2,6.1-0.6,9-1.1c2.8-0.4,5.7-1.1,8.4-2c1.6-0.5,3.2-1.2,4.7-2
			c1.4-0.6,2.7-1.5,3.7-2.6c0,0,0-0.1,0.1-0.1c0.4-0.2,0.6-0.6,0.9-1.1c0.4-0.9,0.5-1.7,1.2-2.5s1.9-1.4,2.8-1.9
			c2.4-1.5,4.7-3.3,4.8-6.3C243.9,236.8,243.8,236.9,243.8,236.9z"/>
		<path class="st2" d="M234.4,98.7c-1.6-1.4-4.3-2-6.3-2.1c-3.5-0.4-6.8-0.7-10.3-1.4c-2.8-0.5-5.6-0.7-8.5-0.7c-1.7,0-3.5,0-5.2,0
			c-1.4,0-2.6,0.2-4,0.2l0,0c5.6,0.4,11-0.2,16.5,0.6c3,0.5,6.1,1,9.2,1.4c2.6,0.4,6.1,0.5,8.2,2.2C234.3,99.3,234.6,99,234.4,98.7z
			"/>
		<path class="st2" d="M231.3,99.9c-1-1.4-3.6-1.6-5.1-2c-2.1-0.6-4.1-1.1-6.2-1.4c-2-0.2-4-0.7-5.9-1c-2-0.2-4,0.1-5.9,0.1l0,0
			c1.6,0.1,3.2,0,4.8,0c1.9,0,3.6,0.4,5.4,0.7c2.2,0.5,4.5,0.9,6.6,1.5c1,0.2,2.1,0.6,3.1,0.9c0.9,0.2,2.2,0.5,2.7,1.2
			C231.1,100.4,231.4,100.2,231.3,99.9z"/>
		<path class="st2" d="M211,99.3c-1.5,0.9-3.8,0.7-5.6,0.6c-1.5-0.1-2.8,0-4.2,0.1c-2.8,0.1-5.9,0.6-8.7-0.5l0,0
			c2.7,1.5,6.2,0.9,9,0.6c1.9-0.1,3.6,0,5.4,0C208.3,100.2,210,100.2,211,99.3C211.1,99.3,211.1,99.2,211,99.3z"/>
		<path class="st2" d="M201.5,97.6c-0.9-0.1-1.7,0-2.6,0c-0.6,0-1.2-0.1-1.9,0.1c-0.1,0-0.2,0.2-0.1,0.2c0,0,0,0,0.1,0h-0.1
			c-0.1,0-0.1,0.1-0.1,0.2l0.1,0.1c0.1,0.1,0.6-0.1,0.4,0.1c-0.4,0.2-1.7-0.1-2-0.2l0,0c0.5,0.2,2.1,1,2.5,0.2v-0.1
			c-0.1-0.1-0.1-0.1-0.2-0.1c0.2,0,0.4,0,0.5-0.1s0.1-0.2,0-0.2h-0.1c0.4,0,0.7,0,1.1,0C199.9,97.7,200.6,97.7,201.5,97.6
			C201.5,97.6,201.6,97.6,201.5,97.6z"/>
		<path class="st2" d="M205.8,98.2L205.8,98.2c-0.1-0.1-0.4-0.1-0.5-0.1c0-0.1,0-0.2-0.1-0.2c-0.2,0-0.5,0-0.7,0
			c0-0.1,0-0.1-0.1-0.1c-0.1,0-0.4,0.1-0.6,0.1c0-0.1,0-0.1-0.1-0.1c-0.4,0-0.6,0-1,0.1l0,0c0.2,0,0.4,0,0.6,0V98
			c0.1,0.1,0.2,0.1,0.4,0.1l0,0c0,0.1,0,0.2,0.1,0.2c0.1,0,2-0.1,2-0.1C205.7,98.6,205.8,98.5,205.8,98.2
			C205.8,98.3,205.8,98.2,205.8,98.2z"/>
		<path class="st2" d="M191.6,99.1c-0.2-0.1-0.4-0.2-0.5-0.4c-0.1-0.1-0.4-0.2-0.6-0.4c-0.1-0.1-0.4-0.1-0.6-0.2c-0.1,0-0.2,0-0.4,0
			s-0.6-0.1-0.2-0.4l0,0c-0.5,0.2,0,0.5,0.4,0.5c0.4,0.1,0.9,0.2,1.2,0.5C191.1,98.8,191.2,99.1,191.6,99.1L191.6,99.1z"/>
		<path class="st2" d="M211.8,98.8c-0.2-0.6-1.1-0.7-1.7-1c-1-0.5-2-0.9-3-1.1c-1.9-0.5-3.6-0.6-5.4-0.7c-2.2-0.1-4.5-0.1-6.7,0
			c-1.6,0.1-4.1-0.1-5.4,1v0.1c1.6-0.7,3.8-0.5,5.6-0.7c1.5-0.1,3-0.1,4.5-0.1c-1.5,0.2-3,0.5-4.5,0.6l0,0c2.4,0.1,4.9-0.2,7.3-0.5
			c0,0,0,0,0.1,0c1.6,0,3.2,0.1,4.8,0.7c0.9,0.4,1.6,0.7,2.5,1.1c0.2,0.1,1.1,0.4,1.2,0.6c1.1,1.4-0.9,1.5-1.5,1.6
			c-3.7,0.6-7.4,0.2-11.1,0.4c-1.7,0.1-4.3,0.4-5.9-0.5c-0.7-0.4-1.4-1-2.2-1.4c-0.6-0.2-2.1-0.5-1.5-1.4l0,0
			c-0.7,0.7-0.5,1,0.4,1.4c1.6,0.6,3,2,4.7,2.2c2,0.2,4,0,6.1,0c2,0,3.8,0.1,5.8,0C206.6,101.1,213,101.1,211.8,98.8z"/>
		<g>
			<path class="st2" d="M164.7,100.4c-0.2,2.8-1.4,5.7-3.2,7.8c-1.9,2.2-3.5,4.6-4.3,7.2c-0.5,1.4-0.7,2.7-0.9,4.1s-0.1,2.8-0.1,4.2
				l0.1,8.5l0.4,34.3l0.2,34.3l0.1,34.3l-0.1-0.5c0.5,0.9,1.2,1.7,2,2.6c0.7,0.7,1.7,1.5,2.6,2.1c1.9,1.2,4.1,2.2,6.2,2.8
				c2.2,0.6,4.6,1.1,6.9,1.6c2.4,0.5,4.7,1,7.1,1.4c4.7,0.7,9.5,1.1,14.2,1.4c4.8,0.1,9.7,0.2,14.4,0.1c4.8-0.1,9.7-0.5,14.2-1.2
				c1.1-0.2,2.4-0.5,3.5-0.7c0.6-0.1,1.1-0.4,1.6-0.5l1.7-0.6c2.2-0.7,4.5-1.6,6.6-2.7c1-0.5,2-1.1,2.7-1.9c0.7-0.7,1.4-1.6,1.7-2.6
				c0.1-0.5,0.2-1,0.4-1.5v-1.7v-3.6V215c0-19.3,0.2-38.7,0.4-58l0.2-29c0-2.5,0.1-4.8-0.1-7.2c-0.2-2.4-1-4.7-2-6.8l-3.1-6.6
				c-0.5-1.1-1-2.2-1.5-3.3c-0.5-1.1-0.7-2.4-0.9-3.5c0.2,1.2,0.5,2.4,1,3.5c0.5,1.1,1.1,2.1,1.6,3.2l3.2,6.4
				c1.1,2.2,1.9,4.6,2.2,6.9c0.4,2.5,0.2,4.8,0.2,7.3l0.2,29c0.1,19.3,0.4,38.6,0.4,57.9v14.5v3.6v0.9c0,0.4,0,0.5,0,1
				c0,0.7-0.2,1.4-0.5,2.1c-0.5,1.4-1.2,2.5-2.2,3.5s-2.1,1.6-3.2,2.2c-2.2,1.1-4.6,2-6.8,2.8l-1.7,0.6c-0.6,0.1-1.2,0.4-1.9,0.5
				c-1.2,0.4-2.5,0.6-3.6,0.7c-4.8,0.9-9.8,1.2-14.6,1.4s-9.8,0.1-14.6,0c-4.8-0.2-9.8-0.6-14.6-1.5c-2.4-0.4-4.8-0.9-7.2-1.4
				c-2.4-0.5-4.7-1-7.2-1.7c-2.4-0.7-4.7-1.9-6.8-3.2c-2.1-1.5-4-3.1-5.4-5.6l-0.1-0.2v-0.2l0.1-34.3l0.2-34.3L155,132l0.1-8.5
				c0-1.4,0-2.8,0.2-4.3c0.2-1.5,0.5-2.8,1-4.2c1-2.7,2.7-5.1,4.7-7.2C163.2,106,164.4,103.3,164.7,100.4z"/>
		</g>
	</g>
</g>
<g id="CAN-04">
	<g id="FILL_3_">
		<path class="st0" d="M326.7,241.9c0.1-0.4,0.1-0.7,0.1-1.1l0,0c0-0.2-0.2-0.2-0.4,0c-0.1,0.4-0.4,0.7-0.5,1.2
			c-0.1,0.5-0.4,1.2-0.6,1.6c-0.1,0.1-0.1,0.1-0.1,0.2l-0.1,0.1c-0.1,0.1-0.2,0.2-0.4,0.4l0,0l0,0c0,0-0.1,0-0.2,0.1
			c-0.6,0.4-1.2,0.9-1.7,1.4c-0.4,0.2-0.9,0.5-1.4,0.7c-0.1,0-0.2,0.1-0.4,0.1c-0.1,0-0.2,0-0.4,0c-0.4,0.1-0.7,0.2-1.1,0.5
			c-0.6,0.2-1.1,0.5-1.6,0.9l0,0c-0.1,0-0.2-0.1-0.4,0c-0.9,0.2-2,0.7-2.8,1.4c-1.2,0.2-2.4,0.5-3.5,0.9c-0.1,0-0.1,0-0.2,0
			c-0.7,0.1-1.5,0.4-2.2,0.5c-1.2,0.2-2.5,0.5-3.6,0.9c-0.5,0.1-0.9,0.1-1.4,0.2c-0.1,0-0.2-0.1-0.4-0.1c-0.5,0-1,0-1.5,0.1
			c-1.9,0.1-3.6,0.4-5.4,0.7c-0.1,0-0.2,0-0.4,0c-0.4,0-0.6,0.1-1,0.2c-0.1-0.1-0.2-0.2-0.6-0.2c-0.2,0-0.5,0-0.7,0
			c0-0.2,0-0.5-0.4-0.5c-1-0.1-2,0.1-2.8,0.2c-0.9,0.1-1.6,0.1-2.5,0.2c-0.6-0.6-1.4-0.5-2.2-0.2c-0.6,0.2-1.4,0.4-2,0.4
			c-0.1-0.1-0.2-0.1-0.5-0.1c-1.5,0.1-2.8,0.2-4.3,0.4c-0.1-0.2-0.4-0.4-0.7-0.4c-0.6,0-1.1,0.1-1.7,0.1c-0.2,0-0.5,0-0.7-0.1
			c-0.1-0.2-0.2-0.4-0.6-0.4c-0.9-0.1-1.7-0.1-2.5,0l-0.1-0.1c0-0.4-0.1-0.7-0.6-0.7c-0.7,0-1.6,0.1-2.4,0.2
			c0.1-0.4,0.1-0.9-0.2-1.1c-0.2-0.1-0.5-0.2-0.9-0.4c-0.1-0.2-0.4-0.4-0.7-0.2c-0.6,0.1-1.2,0.1-1.9,0.2c-0.1-0.1-0.2-0.1-0.5-0.1
			h-0.1c0-0.4-0.2-0.7-0.7-0.6c-0.7,0-1.5,0.1-2.2,0.2c0.2-0.5,0.1-1.2-0.6-1c-0.7,0.1-1.6,0.4-2.4,0.7l0,0c-0.1,0-0.1,0-0.2,0
			c0.1-0.4-0.1-0.9-0.6-0.7c-0.1,0-0.1,0-0.2,0c0-0.2-0.1-0.5-0.5-0.5c-1,0-2.1,0-3.1,0c-0.1,0-0.4,0-0.5-0.1
			c-0.1-0.1-0.2-0.1-0.4-0.1c-1.2-0.1-2.6-0.1-3.8-0.1l0,0c-1.4-0.5-2.8-1.5-4.3-1.7l0,0c0,0,0,0-0.1,0c-0.4-0.2-0.9-0.5-1.2-0.7
			c-0.4-0.5-0.7-1.1-1.2-1.6l0,0c0,0,0,0,0,0.1l-0.1-0.1l-0.1-0.1l0,0l0,0l0,0l0,0c-0.2-0.1-0.5-0.2-0.7-0.2c-0.2,0-0.6,0.4-0.4,0.5
			c0,0.1,0,0.1,0,0.2c0.5,0.9,1.2,1.6,2.1,2.4c0.7,0.6,1.4,1.6,2.1,2c0.7,0.7,1.6,1.2,2.5,1.7c0.6,0.4,1.1,0.7,1.7,1
			c0.4,0.7,1.2,1.4,2,2c0.4,0.5,0.9,0.9,1.5,1.2c0,0.1,0.1,0.2,0.2,0.4l0,0c0.2,0.9,1,1.2,1.9,1.5c0.6,0.5,1.4,0.9,2,1.1
			c0.9,0.5,2,0.9,3,1.2c0.7,0.2,1.6,0.4,2.5,0.5l0,0c0.1,0.1,0.4,0.1,0.6,0.1c1.1,0.2,2.2,0.7,3.3,0.9c1.5,0.2,3.1,0.4,4.6,0.2
			c0.4,0,0.7,0.1,1.1,0.1c0.7,0.2,1.6,0.2,2.5,0.4c0.6,0.1,1.2,0.1,2,0.1c0,0,0,0,0.1,0c0.9,0.4,2,0.2,2.8,0.2c0.4,0,0.9,0,1.2,0.1
			c0.7,0.1,1.7,0,2.5-0.1l0,0c0,0.1,0.1,0.2,0.4,0.1c1.2,0,2.5,0,3.7,0c0.5,0,1.2,0,1.9,0c0,0,0.1,0,0.2,0c1.6-0.1,3.3-0.2,5-0.5
			c1.7,0.1,3.7-0.4,5.3-0.7c0.5-0.1,1-0.2,1.6-0.4c0.6,0,1.4-0.2,1.9-0.2c0.6-0.1,1.2-0.2,1.9-0.5c1.5-0.2,3-0.7,4.3-1.2
			c0.9-0.2,1.7-0.7,2.5-1.2c0.2-0.2,0.7-0.4,1.1-0.6c0.6-0.2,1.2-0.6,1.9-1c0.7-0.5,1.4-0.9,1.7-1.6c0,0,0,0,0.1,0
			c1.1-1,1.5-2.5,2.6-3.5c0.1-0.1,0.1-0.2,0.1-0.4c0.2-0.1,0.5-0.4,0.7-0.5c0.1,0,0.2,0,0.4-0.1c0.9-0.5,2.1-1,2.7-1.9
			c1-0.5,1.7-1.5,2.1-2.4c0.2-0.5,0.6-1,0.7-1.5C326.7,242.9,326.7,242.4,326.7,241.9z"/>
		<path class="st1" d="M247.8,105.9c0,0-0.2,3.7-2.5,6.7c-2.2,3-6.4,6.6-6.4,15.3s0,112.6,0,112.6s3.2,6.6,14.2,8.9
			c11,2.4,16,3.3,28,3.7c12,0.4,25.4-0.2,32.1-2.6c6.7-2.4,10.4-4,12.1-6.2c1.7-2.4,1.6-4.2,1.6-4.2V129.5c0-3.5-0.7-6.9-2.4-10
			l-4.3-8.9c-0.6-1.4-1.1-2.8-1.4-4.3l0,0"/>
		<path class="st0" d="M319.4,103.3c0.1-0.5,0.1-1-0.2-1.6c-0.5-0.7-2-1.6-3.1-2c-2-0.6-4.2-0.6-6.2-1.1c-1-0.2-2.4-0.7-3.5-0.6
			c-0.9-0.2-1.6-0.4-2.5-0.4c-1.1-0.1-2.1-0.2-3.2-0.2c-0.7-0.1-1.7-0.4-2.5-0.1c-0.1,0-0.2,0.1-0.5,0.2c-2.5-0.4-5.1-0.9-7.5-0.4
			h-0.1c-1.6-0.2-3.2-0.2-4.8-0.4c-1.9,0-3.6-0.1-5.4-0.1c-1,0-2.2-0.1-3.3,0c-0.1,0-0.1-0.1-0.4-0.1c-2.2-0.4-4.9,0-7.2,0.1
			c-2.7,0.2-5.3,0.5-7.9,1c-2.6,0.4-5.1,0.7-7.7,1.2c-1.4,0.2-4,0.4-4.8,1.6c0,0,0,0.1-0.1,0.1l0,0c-0.5,0.2-0.9,0.5-1.1,1
			c-0.1,0.2-0.1,0.4-0.1,0.6c-0.4,1-0.5,2.1,0,3.1c0.4,0.9,1.5,1.5,2.6,2c0.5,0.2,1,0.5,1.5,0.6c0.2,0.1,0.5,0,0.7,0
			c0.2,0.1,0.6,0.4,0.9,0.4c0.5,0.2,1.5,0.5,2.1,0.5c1.6,1,4,1,5.8,1.1c0.4,0.1,1,0.1,1.4,0.1c0.4,0,0.7,0,1.2,0
			c0.1,0.1,0.1,0.1,0.4,0.1c1.2,0.2,2.5,0.1,3.7,0.1c0,0,0.1,0,0.2,0.1c1.6,0.4,3.5,0.4,5.2,0.4c0.6,0.1,1.4,0.1,2.1,0.1
			c0.7,0.1,1.5,0.1,2.2,0.1c0.1,0.2,0.4,0.5,0.7,0.4c1.4,0,2.8,0.1,4.2,0c0.4,0,0.9-0.1,1.2-0.1c0.1,0,0.2,0,0.4,0
			c0.6,0,1.2,0,1.9-0.1c0.1,0,0.1,0,0.2,0c1.7,0,3.5-0.2,5.2-0.4c0.1,0,0.2,0.1,0.5,0.1c1.9-0.1,3.6-0.2,5.4-0.2
			c0.1,0.1,0.4,0.2,0.6,0.2c3.1-0.1,5.9-0.2,8.9-0.9c0.9-0.2,1.7-0.4,2.6-0.6c1.6,0.1,3.5-0.6,4.9-0.9c1.5-0.2,2.8-0.6,4.2-1.4
			c0.4-0.2,0.5-0.6,0.4-0.9c0.2-0.2,0.5-0.4,0.6-0.6c0.1-0.1,0.2-0.4,0.2-0.6C319.7,104.5,319.7,103.9,319.4,103.3z"/>
	</g>
	<g id="LINE_3_">
		<path class="st2" d="M319.4,102.5c-0.1-1-1.6-1.4-2.2-1.9c-0.4-0.2-0.6-0.6-1-0.9c-0.5-0.2-1.4-0.4-1.9-0.5
			c-0.2-0.1-0.5-0.1-0.9-0.2c-0.1-0.2-0.5-0.2-0.7-0.2c-0.1,0-0.1,0-0.2,0s-0.1,0-0.2-0.1c-0.4-0.1-0.6-0.1-1-0.2
			c-0.1,0-0.2,0-0.4,0l0,0c-0.1,0-0.1,0-0.2,0c0,0,0,0-0.1,0c-9.3-2.1-18.7-1.7-28.2-2.2c-4.1-0.2-8.2,0.2-12.3,0.5
			c-3.1,0.2-6.2,0.9-9.4,1.1c0.5-0.1,1-0.1,1.5-0.2l0,0c-1.1,0.1-2.1,0.2-3.2,0.4c-0.2,0-0.4,0-0.6,0l0,0l0,0
			c-3.1,0.4-6.2,0.7-8.9,2.5c-0.5,0.4-1.1,0.9-1.1,1.5c0,0.7,0.6,0.9,1.1,1.1c1.7,1,3.6,1.7,5.4,2.5c-0.5,0,5.1,1.4,8,1.7
			c2.6,0.2,5.2,1.1,7.8,0.7c4.8,0.4,9.7,0.2,14.5,0c3,0.2,20-1,22.4-1.4c2.2-0.2,4.3-0.7,6.6-1.1c1.1-0.2,3.8-1.2,4.1-1.4
			C319.2,104,319.5,102.9,319.4,102.5z M318.3,103.8l-0.1,0.1c-0.2,0.2-3.8,1.5-5.3,1.9l0,0c-1.9,0.4-3.7,0.7-5.6,0.9
			c-2.8,0.4-8.5,0.9-8.5,0.9c0.2,0-10.4,0.4-13.5,0.6c-1.9,0-3.6,0-5.4,0.1c-2.7,0.1-5.4-0.1-8.2-0.1l0,0c-1.1-0.2-2.2-0.2-3.3-0.2
			c-1.7,0-3.2-0.5-4.8-0.7c-1.5-0.2-3-0.4-4.5-0.7c-2.6-0.6-6.4-1.9-8.4-2.8c-0.9-0.5-2.4-1-1.7-2.2c0.4-0.9,2.2-1.4,3-1.7
			c2.2-1,4.8-1.2,7.4-1.6c1.6,0,3.1-0.2,4.7-0.5c1.9-0.2,3.7-0.1,5.7-0.2c4.3-0.2,8.7-0.7,13-0.6c4.6,0.1,9,0,13.6,0.2
			c4.8,0.2,9.7,1,14.4,1.7l0,0c0,0,0,0,0.1,0c0.2,0.1,0.6,0.1,0.9,0.1c0.4,0.1,0.6,0.1,1,0.2c0.9,0.2,1.7,0.5,2.5,0.9
			c0.9,0.2,1.2,0.7,2,1.2C318.1,101.9,319.7,102.4,318.3,103.8z"/>
		<path class="st2" d="M259.8,106.8c-3.8-0.2-7.8-1.5-11.1-3.3c-2.8-1.6,0.5-3.3,2.1-3.8c2.2-0.7,4.3-1.1,6.6-1.6l0,0
			c-2.6,0.5-5.1,0.7-7.5,1.7c-1,0.4-2.7,1.4-2.5,2.7c0.1,0.9,1,1.1,1.6,1.5c1,0.5,2,1.1,3.1,1.5c1.2,0.4,2.5,0.7,3.7,0.9
			C257,106.4,258.4,106.9,259.8,106.8L259.8,106.8z"/>
		<g>
			<path class="st2" d="M263.2,101.8c-3.3,0.2-7.3,0.9-10.4,2.5l0,0c3.5-1.1,6.9-2,10.5-2.4c2.1-0.1,4.2-0.6,6.2-1
				c-0.5,0-0.7,0.1-0.9,0.1C266.9,101.4,265.1,101.7,263.2,101.8z"/>
			<path class="st2" d="M280.3,100.1C280.4,100.1,280.4,100.1,280.3,100.1c-2.7,0.1-5.6,0.2-8.3,0.2c-2.4,0-4.7,0.4-7.1,0.6
				c-2.4,0.1-4.7,0.5-7.1,0.9c-2.4,0.4-4.7,1.2-7.1,1.9l0,0c2.4-0.4,4.7-1.2,7.1-1.6c2.5-0.4,4.9-0.6,7.4-0.7
				c2.1-0.1,4.3-0.5,6.4-0.6c-0.7,0.1-1.5,0.2-2.1,0.4c0.7-0.1,2-0.2,2.7-0.4C275.1,100.6,277.7,100.3,280.3,100.1z"/>
		</g>
		<path class="st2" d="M304.3,101.1"/>
		<path class="st2" d="M320.4,102.3c-0.5-1.4-2.4-2-3.6-2.4c-1.1-0.4-2.4-0.6-3.3-0.9c-1.1-0.2-2.6-0.4-3.7-0.7l0,0
			c2.1,0.9,4.5,1.2,6.6,1.9c0.9,0.2,2.1,0.6,2.7,1.2c0.7,0.7,0.9,2.2,0.9,3.2c-0.1,1.9-1.9,2.2-3.3,2.8c-1.2,0.5-2.6,1-4,1.4
			c-2.6,0.7-5.2,1-7.9,1.2c-3,0.4-5.8,0.6-8.8,0.6c-2.5,0-5,0.5-7.3,0.5c-2.4,0.1-16.1-0.6-18.9-0.7c-0.7,0-7.2-0.9-9.7-1.1
			c-1.4,0-6.8-1.5-8-1.9c-1.1-0.4-2.1-1.1-3.2-1.5c-0.1-0.1-1.2-1-1.2-1.4c-0.1-0.5,0-1.7-0.1-2.1c0-0.1-0.1,0-0.1,0
			c0,0.2,0,1.4,0,1.6c0,0.2,0,0.5,0,0.7c0,0.1,0.4,0.9,0.5,0.9c0.2,0.2,3.5,2,4,2.2c1,0.4,4.1,1.2,4.3,1.4
			c0.7,0.1,12.4,1.5,13.5,1.5c2.6,0.1,15.8,0.5,17.6,0.5c2.2,0,4.3-0.4,6.6-0.5c2.6-0.1,5.2,0,7.8-0.1c4.6-0.2,9.3-0.9,13.7-2.2
			c1.5-0.5,3.7-1.1,4.8-2.1C320.8,105.5,320.8,103.3,320.4,102.3z"/>
		<path class="st2" d="M326.8,242.4c-0.6,3.6-3.8,5.3-6.7,7.1c-1,0.6-1.7,1.4-2.1,2.4c-0.1,0.5-0.4,0.9-0.5,1.2
			c-0.1,0.1-0.1,0.2-0.2,0.2c-0.1,0.1-0.2,0.4-0.4,0.5l0,0c-4.8,4.2-11.3,5.6-17.4,6.4c-3,0.4-5.9,1-8.9,1.1c-0.2,0-0.4,0-0.6,0
			c-0.5,0-1.1-0.1-1.6-0.1c-1.1-0.1-2.4-0.1-3.5,0c-2.8,0-5.8,0-8.7-0.2c-5.2-0.6-10.3-1-15.2-2.5c-2.4-0.7-4.5-1.5-6.4-3
			c-1.7-1.4-3-3.1-4.8-4.3c-1.7-1.1-3.3-2.4-4.8-3.8c-1.6-1.5-3.5-2.8-4.7-4.7l0,0c0.7,1.2,1.5,2.8,2.6,3.7c1.5,1.1,2.7,2.5,4.2,3.6
			c1.4,1.1,3,1.9,4.2,3c1.4,1.2,2.5,2.5,4,3.5c3.1,2.1,7.1,2.6,10.6,3.3c2.1,0.5,4.5,0.7,6.7,0.7c2.1,0.1,4.2,0.5,6.3,0.7
			c1.6,0.1,3.1,0.1,4.7,0.1c2.6,0.1,5.3,0.4,7.8,0.2c3-0.2,6.1-0.6,9-1.1c2.8-0.4,5.7-1.1,8.4-2c1.6-0.5,3.2-1.2,4.7-2
			c1.4-0.6,2.7-1.5,3.7-2.6c0,0,0-0.1,0.1-0.1c0.4-0.2,0.6-0.6,0.9-1.1c0.4-0.9,0.5-1.7,1.2-2.5c0.7-0.7,1.9-1.4,2.8-1.9
			c2.4-1.5,4.7-3.3,4.8-6.3C327,242.3,326.8,242.3,326.8,242.4z"/>
		<path class="st2" d="M317.4,104.2c-1.6-1.4-4.3-2-6.3-2.1c-3.5-0.4-6.8-0.7-10.3-1.4c-2.8-0.5-5.6-0.7-8.5-0.7c-1.7,0-3.5,0-5.2,0
			c-1.4,0-2.6,0.2-4,0.2l0,0c5.6,0.4,11-0.2,16.5,0.6c3,0.5,6.1,1,9.2,1.4c2.6,0.4,6.1,0.5,8.2,2.2
			C317.2,104.8,317.7,104.4,317.4,104.2z"/>
		<path class="st2" d="M314.2,105.4c-1-1.4-3.6-1.6-5.1-2c-2.1-0.6-4.1-1.1-6.2-1.4c-2-0.2-4-0.7-5.9-1c-2-0.2-4,0.1-5.9,0.1l0,0
			c1.6,0.1,3.2,0,4.8,0c1.9,0,3.6,0.4,5.4,0.7c2.2,0.5,4.5,0.9,6.6,1.5c1,0.2,2.1,0.6,3.1,0.9c0.9,0.2,2.2,0.5,2.7,1.2
			C314,105.9,314.3,105.6,314.2,105.4z"/>
		<path class="st2" d="M293.9,104.8c-1.5,0.9-3.8,0.7-5.6,0.6c-1.5-0.1-2.8,0-4.2,0.1c-2.8,0.1-5.9,0.6-8.7-0.5l0,0
			c2.7,1.5,6.2,0.9,9,0.6c1.9-0.1,3.6,0,5.4,0C291.3,105.6,292.9,105.6,293.9,104.8C294,104.8,294,104.6,293.9,104.8z"/>
		<path class="st2" d="M284.5,102.9c-0.9-0.1-1.7,0-2.6,0c-0.6,0-1.2-0.1-1.9,0.1c-0.1,0-0.2,0.2-0.1,0.2c0,0,0,0,0.1,0h-0.1
			c-0.1,0-0.1,0.1-0.1,0.2l0.1,0.1c0.1,0.1,0.6-0.1,0.4,0.1c-0.4,0.2-1.7-0.1-2-0.2l0,0c0.5,0.2,2.1,1,2.5,0.2v-0.1
			c-0.1-0.1-0.1-0.1-0.2-0.1c0.2,0,0.4,0,0.5-0.1c0.1-0.1,0.1-0.2,0-0.2h-0.1c0.4,0,0.7,0,1.1,0
			C282.8,103.2,283.7,103.2,284.5,102.9C284.5,103,284.5,102.9,284.5,102.9z"/>
		<path class="st2" d="M288.9,103.7C288.9,103.7,288.7,103.7,288.9,103.7c-0.1-0.1-0.4-0.1-0.5-0.1c0-0.1,0-0.2-0.1-0.2
			c-0.2,0-0.5,0-0.7,0c0-0.1,0-0.1-0.1-0.1s-0.4,0.1-0.6,0.1c0-0.1,0-0.1-0.1-0.1c-0.4,0-0.6,0-1,0.1l0,0c0.2,0,0.4,0,0.6,0v0.1
			c0.1,0.1,0.2,0.1,0.4,0.1l0,0c0,0.1,0,0.2,0.1,0.2s2-0.1,2-0.1C288.6,104,288.9,103.8,288.9,103.7L288.9,103.7z"/>
		<path class="st2" d="M274.5,104.5c-0.2-0.1-0.4-0.2-0.5-0.4c-0.1-0.1-0.4-0.2-0.6-0.4c-0.1-0.1-0.4-0.1-0.6-0.2
			c-0.1,0-0.2,0-0.4,0c-0.1,0-0.6-0.1-0.2-0.4l0,0c-0.5,0.2,0,0.5,0.4,0.5c0.4,0.1,0.9,0.2,1.2,0.5
			C274.1,104.2,274.2,104.5,274.5,104.5L274.5,104.5z"/>
		<path class="st2" d="M294.7,104.3c-0.2-0.6-1.1-0.7-1.7-1c-1-0.5-2-0.9-3-1.1c-1.9-0.5-3.6-0.6-5.4-0.7c-2.2-0.1-4.5-0.1-6.7,0
			c-1.6,0.1-4.1-0.1-5.4,1v0.1c1.6-0.7,3.8-0.5,5.6-0.7c1.5-0.1,3-0.1,4.5-0.1c-1.5,0.2-3,0.5-4.5,0.6l0,0c2.4,0.1,5-0.2,7.3-0.5
			c0,0,0,0,0.1,0c1.6,0,3.2,0.1,4.8,0.7c0.9,0.4,1.6,0.7,2.5,1.1c0.2,0.1,1.1,0.4,1.2,0.6c1.1,1.4-0.9,1.5-1.5,1.6
			c-3.7,0.6-7.4,0.2-11.1,0.4c-1.7,0.1-4.3,0.4-5.9-0.5c-0.7-0.4-1.4-1-2.2-1.4c-0.6-0.2-2.1-0.5-1.5-1.4l0,0
			c-0.7,0.7-0.5,1,0.4,1.4c1.6,0.6,3,2,4.7,2.2c2,0.2,4,0,6.1,0c2,0,3.8,0.1,5.8,0C289.5,106.5,295.9,106.5,294.7,104.3z"/>
		<g>
			<path class="st2" d="M247.8,105.9c-0.2,2.8-1.4,5.7-3.2,7.8c-1.9,2.2-3.5,4.6-4.3,7.2c-0.5,1.4-0.7,2.7-0.9,4.1
				c-0.1,1.4-0.1,2.8-0.1,4.2l0.1,8.5l0.4,34.3l0.2,34.3l0.1,34.3L240,240c0.5,0.9,1.2,1.7,2,2.6c0.7,0.7,1.7,1.5,2.6,2.1
				c1.9,1.2,4.1,2.2,6.2,2.8c2.2,0.6,4.6,1.1,6.9,1.6c2.4,0.5,4.7,1,7.1,1.4c4.7,0.7,9.5,1.1,14.2,1.4c4.8,0.1,9.7,0.2,14.4,0.1
				c4.8-0.1,9.7-0.5,14.2-1.2c1.1-0.2,2.4-0.5,3.5-0.7c0.6-0.1,1.1-0.4,1.6-0.5l1.7-0.6c2.2-0.7,4.5-1.6,6.6-2.7
				c1-0.5,2-1.1,2.7-1.9c0.7-0.7,1.4-1.6,1.7-2.6c0.1-0.5,0.2-1,0.4-1.5v-1.7V235v-14.5c0-19.3,0.2-38.7,0.4-58l0.2-29
				c0-2.5,0.1-4.8-0.1-7.2c-0.2-2.4-1-4.7-2-6.8l-3.1-6.6c-0.5-1.1-1-2.2-1.5-3.3c-0.5-1.1-0.7-2.4-0.9-3.5c0.2,1.2,0.5,2.4,1,3.5
				c0.5,1.1,1.1,2.1,1.6,3.2l3.2,6.4c1.1,2.2,1.9,4.6,2.2,6.9c0.4,2.5,0.2,4.8,0.2,7.3l0.2,29c0.1,19.3,0.4,38.6,0.4,57.9v14.5v3.6
				v0.9c0,0.4,0,0.5,0,1c0,0.7-0.2,1.4-0.5,2.1c-0.5,1.4-1.2,2.5-2.2,3.5c-1,1-2.1,1.6-3.2,2.2c-2.2,1.1-4.6,2-6.8,2.8l-1.7,0.6
				c-0.6,0.1-1.2,0.4-1.9,0.5c-1.2,0.4-2.5,0.6-3.6,0.7c-4.8,0.9-9.8,1.2-14.6,1.4s-9.8,0.1-14.6,0c-4.8-0.2-9.8-0.6-14.6-1.5
				c-2.4-0.4-4.8-0.9-7.2-1.4c-2.4-0.5-4.7-1-7.2-1.7c-2.4-0.7-4.7-1.9-6.8-3.2c-2.1-1.5-4-3.1-5.4-5.6l-0.1-0.2v-0.2l0.1-34.3
				l0.2-34.3l0.4-34.3l0.1-8.5c0-1.4,0-2.8,0.2-4.3c0.2-1.5,0.5-2.8,1-4.2c1-2.7,2.7-5.1,4.7-7.2
				C246.3,111.5,247.4,108.7,247.8,105.9z"/>
		</g>
	</g>
</g>
<g id="CAN-02">
	<g id="FILL_1_">
		<path class="st0" d="M130.1,252c0.1-0.4,0.1-0.9,0.1-1.2l0,0c0-0.2-0.4-0.2-0.4,0c-0.1,0.5-0.4,0.9-0.5,1.4
			c-0.1,0.5-0.4,1.4-0.7,1.7c-0.1,0.1-0.1,0.1-0.1,0.2l-0.1,0.1c-0.1,0.1-0.4,0.2-0.4,0.5l0,0l0,0c-0.1,0-0.1,0-0.2,0.1
			c-0.7,0.5-1.4,0.9-1.9,1.5c-0.5,0.4-0.9,0.6-1.5,0.9c-0.1,0-0.2,0.1-0.4,0.1s-0.2,0-0.4,0c-0.4,0.1-0.7,0.2-1.2,0.5
			c-0.6,0.2-1.2,0.6-1.7,1l0,0c-0.1-0.1-0.2-0.1-0.5,0c-1,0.4-2.1,0.9-3,1.4c-1.2,0.2-2.6,0.6-3.8,1c-0.1,0-0.2,0-0.2,0
			c-0.7,0.1-1.6,0.4-2.4,0.6c-1.4,0.2-2.6,0.5-4,0.9c-0.5,0.1-1,0.1-1.4,0.2c-0.1,0-0.2-0.1-0.4-0.1c-0.5,0-1,0-1.6,0.1
			c-2,0.1-4,0.5-5.8,0.7c-0.1,0-0.2,0-0.4,0c-0.4,0.1-0.7,0.1-1.1,0.2c-0.1-0.1-0.2-0.2-0.6-0.2c-0.2,0-0.5,0-0.7,0
			c0.1-0.2,0-0.5-0.4-0.6c-1-0.1-2.1,0.1-3.1,0.2c-0.9,0.1-1.7,0.2-2.6,0.4c-0.7-0.6-1.5-0.5-2.4-0.2c-0.7,0.2-1.5,0.4-2.2,0.5
			c-0.1-0.1-0.4-0.1-0.6-0.1c-1.5,0.1-3.1,0.2-4.6,0.4c-0.1-0.2-0.5-0.4-0.9-0.4c-0.6,0-1.2,0.1-1.9,0.1c-0.2,0-0.5,0-0.7-0.1
			c-0.1-0.2-0.2-0.4-0.6-0.5c-0.9-0.1-1.9-0.1-2.7,0c0,0-0.1-0.1-0.2-0.1c0.1-0.5-0.1-0.9-0.7-0.7c-0.9,0-1.7,0.1-2.5,0.2
			c0.2-0.4,0.1-0.9-0.4-1.2c-0.2-0.1-0.6-0.2-0.9-0.4c-0.1-0.2-0.4-0.4-0.7-0.4c-0.6,0.1-1.4,0.1-2,0.2c-0.1-0.1-0.4-0.1-0.6-0.1H64
			c0-0.4-0.4-0.7-0.9-0.7c-0.7,0-1.6,0.1-2.4,0.2c0.2-0.6,0.1-1.2-0.6-1.1c-0.9,0.1-1.7,0.5-2.5,0.7l0,0c-0.1,0-0.1,0-0.2,0
			c0.1-0.5-0.1-0.9-0.7-0.9c-0.1,0-0.1,0-0.2,0c0-0.2-0.1-0.5-0.5-0.5c-1.1,0-2.2,0-3.3,0c-0.1,0-0.4,0-0.5-0.1
			c-0.1-0.1-0.2-0.1-0.4-0.1c-1.4-0.1-2.8-0.1-4.2-0.1l0,0c-1.4-0.6-3.1-1.6-4.7-1.9l0,0c0,0,0,0-0.1,0c-0.5-0.2-1-0.6-1.4-0.9
			c-0.5-0.5-0.9-1.1-1.4-1.7c0,0-0.1,0,0,0c0,0,0,0,0,0.1c0,0-0.1-0.1-0.2-0.1c0,0-0.1-0.1-0.2-0.1l0,0l0,0l0,0l0,0
			c-0.2-0.1-0.5-0.4-0.9-0.4c-0.2,0-0.6,0.4-0.4,0.6c0,0.1,0,0.2,0,0.2c0.6,1,1.4,1.7,2.2,2.5c0.7,0.6,1.4,1.7,2.4,2.1
			c0.7,0.7,1.7,1.4,2.6,1.9c0.6,0.4,1.1,0.7,1.9,1.1c0.4,0.9,1.2,1.5,2.1,2.1c0.5,0.5,1,0.9,1.6,1.4c0.1,0.1,0.1,0.2,0.2,0.4l0,0
			c0.2,0.9,1.1,1.4,2.1,1.6c0.6,0.6,1.4,0.9,2.2,1.2c1,0.6,2.2,1,3.2,1.4c0.9,0.4,1.7,0.4,2.7,0.5l0,0c0.1,0.1,0.4,0.1,0.6,0.1
			c1.2,0.2,2.5,0.7,3.7,1c1.6,0.2,3.3,0.4,4.9,0.4c0.4,0,0.7,0.1,1.2,0.1c0.9,0.2,1.7,0.2,2.6,0.4c0.7,0.1,1.4,0.1,2.1,0.2
			c0,0,0,0,0.1,0.1c0.9,0.5,2.2,0.2,3.1,0.4c0.4,0,0.9,0,1.4,0.1c0.9,0.1,1.9,0,2.6-0.1l0,0c0,0.1,0.1,0.2,0.4,0.2c1.4,0,2.6,0,4,0
			c0.6,0,1.4,0,2,0c0,0,0.1,0,0.2,0c1.7-0.1,3.7-0.2,5.3-0.6c1.9,0.1,4.1-0.4,5.7-0.7c0.6-0.1,1.1-0.2,1.7-0.4c0.7,0,1.5-0.2,2-0.4
			c0.6-0.1,1.4-0.2,2.1-0.5c1.6-0.4,3.2-0.7,4.7-1.2c1-0.4,1.9-0.7,2.7-1.4c0.4-0.2,0.7-0.4,1.1-0.6c0.7-0.2,1.4-0.6,2.1-1.1
			s1.5-1,1.9-1.7c0,0,0,0,0.1-0.1c1.2-1,1.6-2.7,2.8-3.8c0.1-0.1,0.2-0.2,0.2-0.4c0.2-0.1,0.5-0.4,0.9-0.5c0.1,0,0.2,0,0.4-0.1
			c1-0.5,2.2-1.1,3-2c1-0.5,2-1.6,2.4-2.6c0.4-0.5,0.6-1,0.9-1.6C130.1,253,130.1,252.5,130.1,252z"/>
		<path class="st1" d="M44.7,105c0,0-0.2,4.1-2.7,7.3c-2.4,3.2-7.1,7.2-7.1,16.6s0,121.8,0,121.8s3.5,7.1,15.5,9.7
			c11.9,2.6,17.3,3.6,30.2,4.1c13,0.4,27.3-0.2,34.7-2.7c7.3-2.5,11.3-4.2,13.1-6.7c1.9-2.5,1.7-4.6,1.7-4.6v-120
			c0-3.7-0.9-7.4-2.5-10.9l-4.7-9.7c-0.7-1.5-1.2-3.1-1.5-4.7l0,0"/>
		<path class="st0" d="M122.2,102.1c0.1-0.5,0.1-1.1-0.2-1.7c-0.5-0.9-2.1-1.7-3.3-2.1c-2.1-0.7-4.6-0.6-6.7-1.2
			c-1-0.2-2.5-0.7-3.7-0.7c-0.9-0.2-1.7-0.4-2.7-0.5c-1.1-0.1-2.2-0.2-3.5-0.4c-0.9-0.1-1.9-0.4-2.7-0.2c-0.1,0-0.4,0.1-0.5,0.2
			c-2.6-0.4-5.6-0.9-8.2-0.4h-0.1c-1.7-0.2-3.5-0.4-5.3-0.4c-2,0-3.8-0.1-5.8-0.1c-1.1,0-2.4-0.1-3.6,0c-0.1-0.1-0.2-0.1-0.4-0.1
			c-2.5-0.5-5.3-0.1-7.8,0.1c-2.8,0.2-5.7,0.6-8.7,1c-2.7,0.4-5.6,0.7-8.3,1.4c-1.5,0.2-4.3,0.4-5.2,1.7c0,0,0,0.1-0.1,0.1l0,0
			c-0.5,0.2-0.9,0.6-1.1,1.1c-0.1,0.2-0.1,0.4-0.1,0.6c-0.4,1.1-0.5,2.2,0,3.3c0.4,1,1.6,1.6,2.8,2.1c0.5,0.2,1,0.5,1.6,0.7
			c0.2,0.1,0.5,0.1,0.7,0c0.2,0.1,0.6,0.4,1,0.5c0.6,0.2,1.5,0.6,2.4,0.5c1.7,1,4.3,1.1,6.3,1.2c0.4,0.2,1,0.1,1.5,0.1
			c0.4,0,0.9,0,1.2,0c0.1,0.1,0.2,0.1,0.4,0.2c1.2,0.4,2.7,0.1,4.1,0.2c0.1,0,0.1,0,0.2,0.1c1.7,0.4,3.7,0.4,5.6,0.4
			c0.7,0.1,1.5,0.1,2.2,0.1c0.7,0.1,1.6,0.1,2.4,0.1c0.1,0.2,0.4,0.5,0.9,0.5c1.5,0,3.1,0.1,4.6,0.1c0.5,0,0.9-0.1,1.4-0.1
			c0.1,0,0.2,0,0.4,0c0.6,0,1.4,0,2-0.1c0.1,0,0.1,0,0.2,0c1.9,0,3.7-0.2,5.7-0.4c0.1,0.1,0.2,0.1,0.5,0.1c2-0.2,4-0.2,5.8-0.2
			c0.1,0.1,0.4,0.2,0.7,0.2c3.3-0.1,6.4-0.2,9.7-1c0.9-0.2,1.9-0.4,2.8-0.6c1.7,0.1,3.8-0.6,5.3-1c1.6-0.4,3.1-0.6,4.6-1.5
			c0.4-0.2,0.5-0.6,0.4-1c0.2-0.2,0.5-0.4,0.7-0.6c0.1-0.1,0.2-0.4,0.2-0.6C122.4,103.4,122.4,102.8,122.2,102.1z"/>
	</g>
	<g id="LINE_1_">
		<path class="st2" d="M122.2,101.3c-0.1-1-1.7-1.5-2.4-2c-0.4-0.2-0.6-0.6-1.1-0.9s-1.5-0.4-2-0.5c-0.2-0.1-0.6-0.1-0.9-0.2
			c-0.2-0.2-0.6-0.2-0.9-0.2c-0.1,0-0.1,0-0.2,0s-0.1,0-0.2-0.1c-0.4-0.1-0.7-0.2-1.1-0.2c-0.1,0-0.2,0-0.4,0l0,0
			c-0.1,0-0.1,0-0.2,0c0,0,0,0-0.1,0c-10-2.4-20.3-2-30.4-2.5c-4.3-0.2-8.9,0.2-13.2,0.5c-3.3,0.2-6.8,0.9-10.1,1.2
			c0.5-0.1,1-0.1,1.6-0.2l0,0c-1.1,0-2.2,0.1-3.5,0.2c-0.2,0-0.5,0-0.6,0l0,0l0,0c-3.3,0.4-6.7,0.9-9.7,2.7
			c-0.6,0.4-1.2,0.9-1.2,1.6c0,0.9,0.6,0.9,1.2,1.2c2,1,3.8,1.9,5.8,2.6c-0.5,0,5.4,1.5,8.8,1.9c2.7,0.4,5.7,1.1,8.4,0.9
			c5.2,0.4,10.4,0.2,15.6,0c3.2,0.2,21.7-1.1,24.3-1.5c2.4-0.4,4.7-0.7,7.1-1.2c1.2-0.2,4.1-1.4,4.3-1.5
			C121.9,102.9,122.3,101.7,122.2,101.3z M120.9,102.7l-0.1,0.1c-0.4,0.2-4.1,1.6-5.7,2l0,0c-2,0.5-4,0.7-6.1,1
			c-3.1,0.4-9.3,0.9-9.2,0.9c0.2,0-11.3,0.4-14.6,0.6c-2,0-3.8,0-5.8,0.1c-3,0.1-5.8-0.1-8.8-0.1l0,0c-1.2-0.2-2.5-0.2-3.6-0.2
			c-1.9,0-3.5-0.5-5.3-0.7c-1.6-0.2-3.1-0.5-4.8-0.9c-2.8-0.6-7.1-2-9.2-3.1c-1-0.5-2.6-1-1.9-2.4c0.5-0.9,2.4-1.5,3.2-1.9
			c2.5-1.1,5.2-1.4,8-1.7c1.7,0,3.5-0.2,5.1-0.5c2.1-0.2,4.1-0.1,6.1-0.2c4.7-0.2,9.3-0.9,14-0.7c4.9,0.1,9.8,0,14.7,0.2
			c5.2,0.2,10.4,1,15.6,2l0,0c0,0,0,0,0.1,0c0.2,0.1,0.6,0.1,1,0.2s0.7,0.1,1.1,0.2c0.9,0.2,1.9,0.6,2.7,0.9
			c0.9,0.4,1.4,0.9,2.1,1.4C120.7,100.7,122.4,101.2,120.9,102.7z"/>
		<path class="st2" d="M57.7,105.8c-4.1-0.2-8.5-1.6-12.1-3.6c-3.1-1.7,0.5-3.6,2.2-4.1c2.4-0.7,4.7-1.2,7.1-1.7l0,0
			c-2.7,0.5-5.6,0.9-8.2,2c-1.1,0.5-3,1.5-2.6,3c0.1,0.9,1.1,1.2,1.9,1.6c1.1,0.5,2.2,1.2,3.3,1.5c1.4,0.4,2.7,0.7,4.1,1
			C54.8,105.5,56.2,106,57.7,105.8C57.7,105.9,57.8,105.8,57.7,105.8z"/>
		<g>
			<path class="st2" d="M61.4,100.6c-3.6,0.2-7.9,1-11.1,2.7l0,0c3.7-1.1,7.5-2.2,11.4-2.5c2.2-0.1,4.5-0.6,6.7-1.1
				c-0.5,0.1-0.9,0.1-1,0.1C65.5,100.1,63.4,100.3,61.4,100.6z"/>
			<path class="st2" d="M80,98.7C80,98.7,80,98.6,80,98.7c-3,0.1-5.9,0.2-8.9,0.4c-2.6,0.1-5.1,0.5-7.5,0.6c-2.6,0.1-5.1,0.5-7.7,1
				s-5.1,1.4-7.7,2c0,0,0,0.1,0,0c2.6-0.5,5.1-1.4,7.5-1.7c2.6-0.5,5.3-0.7,8-0.9c2.4-0.1,4.6-0.5,6.9-0.6c-0.7,0.1-1.5,0.2-2.4,0.4
				c0.9-0.1,2.1-0.2,3-0.4C74.3,99.2,77.1,99,80,98.7z"/>
		</g>
		<path class="st2" d="M105.8,99.7"/>
		<path class="st2" d="M123.3,101.1c-0.5-1.5-2.5-2.1-3.8-2.6c-1.2-0.4-2.5-0.6-3.7-1c-1.2-0.4-2.8-0.4-4-0.9l0,0
			c2.2,1,4.7,1.4,7.1,2.1c1,0.2,2.2,0.6,3,1.4c0.9,0.7,1,2.4,0.9,3.5c-0.2,2.1-2,2.4-3.6,3c-1.4,0.6-2.8,1-4.3,1.4
			c-2.7,0.7-5.7,1-8.5,1.4c-3.1,0.4-6.3,0.6-9.4,0.6c-2.7,0-5.3,0.5-7.9,0.6c-2.5,0.1-17.3-0.6-20.4-0.7c-0.7,0-7.8-0.9-10.5-1.2
			c-1.5,0-7.3-1.6-8.7-2.1c-1.2-0.5-2.2-1.2-3.5-1.6c-0.1-0.1-1.4-1.1-1.4-1.5c-0.1-0.5,0-1.9-0.1-2.4c0-0.1-0.1,0-0.1,0
			c0,0.4,0,1.5,0,1.7c0,0.2,0,0.6,0,0.9c0,0.1,0.4,0.9,0.5,1c0.2,0.4,3.8,2.2,4.3,2.5c1.1,0.5,4.5,1.4,4.7,1.4
			c0.7,0.2,13.4,1.6,14.6,1.6c2.8,0.1,17.1,0.5,18.9,0.5c2.4,0,4.7-0.4,7.1-0.5c2.8-0.1,5.6,0,8.4-0.1c5-0.2,10-0.9,14.7-2.4
			c1.6-0.5,4-1.1,5.2-2.4C123.5,104.5,123.6,102.2,123.3,101.1z"/>
		<path class="st2" d="M130.1,252.4c-0.6,3.8-4.2,5.7-7.3,7.5c-1,0.6-1.9,1.4-2.4,2.6c-0.1,0.5-0.4,0.9-0.5,1.4
			c-0.1,0.1-0.1,0.2-0.2,0.2c-0.1,0.1-0.2,0.4-0.4,0.5l0,0c-5.2,4.6-12.3,5.9-18.8,6.9c-3.2,0.5-6.4,1-9.7,1.2c-0.2,0-0.4,0-0.6,0
			c-0.6,0-1.2-0.1-1.7-0.1c-1.2-0.1-2.5-0.1-3.7-0.1c-3.1,0-6.2,0-9.3-0.2c-5.6-0.6-11-1-16.5-2.7c-2.6-0.7-4.8-1.6-6.9-3.2
			c-1.9-1.5-3.2-3.3-5.2-4.7c-1.9-1.2-3.6-2.6-5.2-4.1c-1.7-1.6-3.8-3.1-5.1-5.1l0,0c0.9,1.4,1.6,3.1,2.8,4.1c1.6,1.2,3,2.6,4.6,4
			c1.4,1.2,3.1,2,4.6,3.2c1.4,1.2,2.6,2.7,4.2,3.8c3.3,2.2,7.7,2.8,11.5,3.7c2.4,0.5,4.8,0.7,7.2,0.9c2.2,0.1,4.6,0.5,6.8,0.7
			c1.7,0.1,3.5,0.1,5.1,0.1c2.8,0.1,5.7,0.5,8.4,0.2c3.2-0.2,6.6-0.7,9.8-1.2c3.1-0.5,6.2-1.2,9-2.1c1.7-0.5,3.5-1.4,5.1-2.1
			c1.5-0.6,3-1.6,4.1-2.7c0,0,0-0.1,0.1-0.1c0.4-0.2,0.6-0.6,0.9-1.1c0.4-1,0.6-1.9,1.4-2.6c0.9-0.9,2-1.4,3-2.1
			c2.5-1.6,5.1-3.6,5.2-6.8C130.3,252.3,130.2,252.4,130.1,252.4z"/>
		<path class="st2" d="M120.1,103c-1.7-1.5-4.6-2.1-6.9-2.4c-3.7-0.4-7.4-0.9-11-1.5C99,98.7,96,98.3,93,98.5c-1.9,0-3.7,0-5.6,0
			c-1.4,0-2.8,0.2-4.2,0.2l0,0c5.9,0.4,11.9-0.4,17.8,0.6c3.2,0.5,6.6,1.1,9.8,1.5c2.8,0.4,6.4,0.6,8.8,2.5
			C119.8,103.8,120.3,103.3,120.1,103z"/>
		<path class="st2" d="M116.6,104.4c-1.1-1.5-3.8-1.7-5.4-2.1c-2.2-0.6-4.3-1.1-6.7-1.5c-2.2-0.4-4.3-0.9-6.4-1.1
			c-2.1-0.2-4.2,0.1-6.4,0.1l0,0c1.7,0.1,3.5,0,5.3,0c2.1,0,4,0.4,5.9,0.9c2.4,0.6,4.7,1,7.1,1.6c1.1,0.4,2.2,0.6,3.3,1
			c0.9,0.2,2.4,0.5,3,1.4C116.3,104.9,116.7,104.6,116.6,104.4z"/>
		<path class="st2" d="M94.7,103.7c-1.6,1-4.2,0.9-6.1,0.7c-1.6-0.1-3,0-4.6,0.1c-3.1,0.2-6.3,0.6-9.4-0.5l0,0c3,1.6,6.7,1,9.8,0.7
			c2-0.1,4,0,5.9-0.1C91.8,104.6,93.6,104.6,94.7,103.7C94.8,103.7,94.8,103.7,94.7,103.7z"/>
		<path class="st2" d="M84.4,101.8c-1-0.1-1.9,0-2.8,0c-0.6,0-1.4-0.1-2,0.1c-0.1,0-0.2,0.2-0.1,0.4c0,0,0,0,0.1,0h-0.1
			c-0.1,0-0.2,0.1-0.1,0.2l0.1,0.1c0.1,0.1,0.7-0.1,0.4,0.1c-0.5,0.2-1.9-0.1-2.2-0.2c0,0-0.1,0,0,0c0.5,0.2,2.2,1.1,2.7,0.2v-0.1
			c-0.1-0.1-0.1-0.1-0.2-0.1c0.2,0,0.4,0,0.5-0.1c0.1-0.1,0.1-0.2,0-0.2h-0.1c0.4,0,0.9,0,1.1,0C82.6,101.9,83.6,101.9,84.4,101.8
			C84.4,101.9,84.5,101.8,84.4,101.8z"/>
		<path class="st2" d="M89.1,102.5C89.1,102.5,89,102.4,89.1,102.5c-0.2-0.1-0.4-0.1-0.5-0.1c0-0.1,0-0.2-0.1-0.2
			c-0.2,0-0.6,0-0.9,0c0-0.1-0.1-0.1-0.2-0.1s-0.5,0.1-0.7,0.1c0-0.1,0-0.1-0.1-0.1c-0.4,0-0.7,0-1.1,0.1l0,0c0.2,0,0.4,0,0.6,0v0.1
			c0.1,0.1,0.2,0.1,0.4,0.1l0,0c0,0.1,0,0.2,0.1,0.2s2.1-0.1,2.1-0.1C88.9,102.9,89.1,102.7,89.1,102.5L89.1,102.5z"/>
		<path class="st2" d="M73.7,103.4c-0.2-0.1-0.4-0.2-0.5-0.5c-0.1-0.1-0.4-0.2-0.6-0.4c-0.2-0.1-0.4-0.1-0.6-0.2c-0.1,0-0.2,0-0.4,0
			c-0.1,0-0.7-0.1-0.2-0.4c0,0,0-0.1,0,0c-0.5,0.4,0,0.5,0.4,0.5c0.5,0.1,1,0.2,1.4,0.5C73.2,103.2,73.3,103.4,73.7,103.4
			C73.7,103.5,73.7,103.4,73.7,103.4z"/>
		<path class="st2" d="M95.4,103.2c-0.4-0.6-1.2-0.7-1.9-1.1c-1.1-0.5-2.1-0.9-3.2-1.2c-2-0.6-4-0.7-5.9-0.9c-2.5-0.1-4.8-0.1-7.3,0
			c-1.6,0.4-4.3,0-5.8,1.2v0.1c1.7-0.9,4.1-0.6,6.1-0.7c1.6-0.1,3.2-0.1,4.8-0.1c-1.6,0.2-3.2,0.6-4.8,0.6l0,0
			c2.6,0.1,5.3-0.2,7.9-0.6c0,0,0,0,0.1-0.1c1.9,0,3.5,0.1,5.2,0.9c0.9,0.4,1.7,0.7,2.6,1.2c0.4,0.1,1.2,0.4,1.4,0.6
			c1.1,1.5-1,1.6-1.6,1.7c-4,0.6-8,0.2-12,0.5c-2,0.1-4.6,0.4-6.4-0.6c-0.9-0.4-1.5-1.1-2.4-1.5c-0.6-0.2-2.2-0.5-1.6-1.5l0,0
			c-0.9,0.7-0.5,1.1,0.5,1.5c1.7,0.7,3.2,2.1,5.1,2.4c2.1,0.2,4.3,0,6.6,0c2.1,0,4.2,0.1,6.3,0C89.9,105.5,96.8,105.5,95.4,103.2z"
			/>
		<g>
			<path class="st2" d="M44.7,105c-0.2,3.1-1.5,6.1-3.5,8.4c-2,2.4-3.7,4.9-4.7,7.8c-0.5,1.5-0.9,3-1,4.5s-0.1,3-0.1,4.6l0.1,9.3
				l0.4,37l0.2,37l0.1,37l-0.1-0.5c0.5,0.9,1.4,2,2.2,2.7c0.9,0.9,1.9,1.6,2.8,2.4c2.1,1.4,4.3,2.5,6.8,3.1c2.4,0.7,5,1.2,7.5,1.7
				s5.1,1,7.7,1.5c5.1,0.9,10.3,1.2,15.5,1.5c5.2,0.1,10.4,0.2,15.6,0.1c5.2-0.1,10.4-0.5,15.5-1.4c1.2-0.2,2.5-0.5,3.7-0.7
				c0.6-0.1,1.2-0.4,1.9-0.5l1.9-0.6c2.5-0.9,4.8-1.7,7.1-2.8c1.1-0.6,2.1-1.2,3-2c0.7-0.7,1.5-1.9,1.9-2.8c0.2-0.5,0.4-1.1,0.4-1.6
				v-1.9v-4V229c0-20.9,0.2-41.8,0.4-62.7l0.2-31.3c0-2.6,0.2-5.2-0.1-7.8c-0.4-2.6-1-5.1-2.1-7.4l-3.3-7.1
				c-0.5-1.2-1.1-2.4-1.6-3.6c-0.5-1.2-0.7-2.5-1-3.8c0.2,1.2,0.6,2.6,1.1,3.7c0.5,1.2,1.1,2.4,1.7,3.5l3.5,7.1
				c1.1,2.4,2,4.9,2.4,7.5c0.2,1.4,0.2,2.6,0.2,4v4l0.2,31.3c0.1,20.9,0.4,41.8,0.4,62.6v15.7v4v1c0,0.4,0,0.6,0,1.1
				c0,0.7-0.2,1.5-0.5,2.2c-0.5,1.4-1.2,2.6-2.4,3.7c-1.1,1-2.2,1.7-3.5,2.4c-2.5,1.2-5,2.2-7.4,3.1l-1.9,0.6
				c-0.6,0.2-1.4,0.4-2,0.6c-1.4,0.4-2.6,0.6-4,0.9c-5.2,0.9-10.5,1.2-15.7,1.5c-5.2,0.1-10.5,0.1-15.7,0
				c-5.2-0.2-10.5-0.6-15.7-1.5c-2.6-0.5-5.2-1-7.8-1.5c-2.6-0.6-5.1-1-7.7-1.9c-2.6-0.7-5.1-2-7.3-3.5c-2.2-1.6-4.3-3.3-5.8-6.1
				l-0.1-0.2v-0.2l0.1-37l0.2-37l0.4-37l0.1-9.3c0-1.5,0-3.1,0.2-4.7c0.2-1.5,0.6-3.1,1.1-4.6c1.1-3,3-5.4,4.9-7.8
				C43.1,111,44.3,108,44.7,105z"/>
		</g>
	</g>
</g>
<g id="CAN-03">
	<g id="FILL_2_">
		<path class="st0" d="M206.6,259c0.1-0.4,0.1-0.9,0.1-1.2l0,0c0-0.2-0.4-0.2-0.4,0c-0.1,0.5-0.4,0.9-0.5,1.4
			c-0.1,0.5-0.4,1.4-0.7,1.7c-0.1,0.1-0.1,0.1-0.1,0.2l-0.1,0.1c-0.1,0.1-0.4,0.2-0.4,0.5l0,0l0,0c-0.1,0-0.1,0-0.2,0.1
			c-0.7,0.5-1.4,0.9-1.9,1.5c-0.5,0.4-0.9,0.6-1.5,0.9c-0.1,0-0.2,0.1-0.4,0.1c-0.1,0-0.2,0-0.4,0c-0.4,0.1-0.7,0.2-1.2,0.5
			c-0.6,0.2-1.2,0.6-1.7,1l0,0c-0.1-0.1-0.2-0.1-0.5,0c-1,0.4-2.1,0.9-3,1.4c-1.2,0.2-2.6,0.6-3.8,1c-0.1,0-0.2,0-0.2,0
			c-0.7,0.1-1.6,0.4-2.4,0.6c-1.4,0.2-2.6,0.5-4,0.9c-0.5,0.1-1,0.1-1.4,0.2c-0.1,0-0.2-0.1-0.4-0.1c-0.5,0-1,0-1.6,0.1
			c-2,0.1-4,0.5-5.8,0.7c-0.1,0-0.2,0-0.4,0c-0.4,0.1-0.7,0.1-1.1,0.2c-0.1-0.1-0.2-0.2-0.6-0.2c-0.2,0-0.5,0-0.7,0
			c0.1-0.2,0-0.5-0.4-0.6c-1-0.1-2.1,0.1-3.1,0.2c-0.9,0.1-1.7,0.2-2.6,0.4c-0.7-0.6-1.5-0.5-2.4-0.2c-0.7,0.2-1.5,0.4-2.2,0.5
			c-0.1-0.1-0.4-0.1-0.6-0.1c-1.5,0.1-3.1,0.2-4.6,0.4c-0.1-0.2-0.5-0.4-0.9-0.4c-0.6,0-1.2,0.1-1.9,0.1c-0.2,0-0.5,0-0.7-0.1
			c-0.1-0.2-0.2-0.4-0.6-0.5c-0.9-0.1-1.9-0.1-2.7,0c0,0-0.1-0.1-0.2-0.1c0.1-0.5-0.1-0.9-0.7-0.7c-0.9,0-1.7,0.1-2.5,0.2
			c0.2-0.4,0.1-0.9-0.4-1.2c-0.2-0.1-0.6-0.2-0.9-0.4c-0.1-0.2-0.4-0.4-0.7-0.4c-0.6,0.1-1.4,0.1-2,0.2c-0.1-0.1-0.4-0.1-0.6-0.1
			h-0.1c0-0.4-0.4-0.7-0.9-0.7c-0.7,0-1.6,0.1-2.4,0.2c0.2-0.6,0.1-1.2-0.6-1.1c-0.9,0.1-1.7,0.5-2.5,0.7l0,0c-0.1,0-0.1,0-0.2,0
			c0.1-0.5-0.1-0.9-0.7-0.9c-0.1,0-0.1,0-0.2,0c0-0.2-0.1-0.5-0.5-0.5c-1.1,0-2.2,0-3.3,0c-0.1,0-0.4,0-0.5-0.1
			c-0.1-0.1-0.2-0.1-0.4-0.1c-1.4-0.1-2.8-0.1-4.2-0.1l0,0c-1.4-0.6-3.1-1.6-4.7-1.9l0,0c0,0,0,0-0.1,0c-0.5-0.2-1-0.6-1.4-0.9
			c-0.5-0.5-0.9-1.1-1.4-1.7c0,0-0.1,0,0,0c0,0,0,0,0,0.1c0,0-0.1-0.1-0.2-0.1c0,0-0.1-0.1-0.2-0.1l0,0l0,0l0,0l0,0
			c-0.2-0.1-0.5-0.4-0.9-0.4c-0.2,0-0.6,0.4-0.4,0.6c0,0.1,0,0.2,0,0.2c0.6,1,1.4,1.7,2.2,2.5c0.7,0.6,1.4,1.7,2.4,2.1
			c0.7,0.7,1.7,1.4,2.6,1.9c0.6,0.4,1.1,0.7,1.9,1.1c0.4,0.9,1.2,1.5,2.1,2.1c0.5,0.5,1,0.9,1.6,1.4c0.1,0.1,0.1,0.2,0.2,0.4l0,0
			c0.2,0.9,1.1,1.4,2.1,1.6c0.6,0.6,1.4,0.9,2.2,1.2c1,0.6,2.2,1,3.2,1.4c0.9,0.4,1.7,0.4,2.7,0.5l0,0c0.1,0.1,0.4,0.1,0.6,0.1
			c1.2,0.2,2.5,0.7,3.7,1c1.6,0.2,3.3,0.4,4.9,0.4c0.4,0,0.7,0.1,1.2,0.1c0.9,0.2,1.7,0.2,2.6,0.4c0.7,0.1,1.4,0.1,2.1,0.2
			c0,0,0,0,0.1,0.1c0.9,0.5,2.2,0.2,3.1,0.4c0.4,0,0.9,0,1.4,0.1c0.9,0.1,1.9,0,2.6-0.1l0,0c0,0.1,0.1,0.2,0.4,0.2c1.4,0,2.6,0,4,0
			c0.6,0,1.4,0,2,0c0,0,0.1,0,0.2,0c1.7-0.1,3.7-0.2,5.3-0.6c1.9,0.1,4.1-0.4,5.7-0.7c0.6-0.1,1.1-0.2,1.7-0.4c0.7,0,1.5-0.2,2-0.4
			c0.6-0.1,1.4-0.2,2.1-0.5c1.6-0.4,3.2-0.7,4.7-1.2c1-0.4,1.9-0.7,2.7-1.4c0.4-0.2,0.7-0.4,1.1-0.6c0.7-0.2,1.4-0.6,2.1-1.1
			c0.7-0.5,1.5-1,1.9-1.7c0,0,0,0,0.1-0.1c1.2-1,1.6-2.7,2.8-3.8c0.1-0.1,0.2-0.2,0.2-0.4c0.2-0.1,0.5-0.4,0.9-0.5
			c0.1,0,0.2,0,0.4-0.1c1-0.5,2.2-1.1,3-2c1-0.5,2-1.6,2.4-2.6c0.4-0.5,0.6-1,0.9-1.6C206.4,260,206.4,259.5,206.6,259z"/>
		<path class="st1" d="M121.2,112c0,0-0.2,4.1-2.7,7.3c-2.4,3.2-7.1,7.2-7.1,16.6s0,121.8,0,121.8s3.5,7.1,15.5,9.7
			c11.9,2.6,17.3,3.6,30.2,4.1c13,0.4,27.3-0.2,34.6-2.7c7.3-2.5,11.3-4.2,13.1-6.7c1.9-2.5,1.7-4.6,1.7-4.6V137.7
			c0-3.7-0.9-7.4-2.5-10.9l-4.7-9.7c-0.7-1.5-1.2-3.1-1.5-4.7l0,0"/>
		<path class="st0" d="M198.6,109c0.1-0.5,0.1-1.1-0.2-1.7c-0.5-0.9-2.1-1.7-3.3-2.1c-2.1-0.7-4.6-0.6-6.7-1.2
			c-1-0.2-2.5-0.7-3.7-0.7c-0.9-0.2-1.7-0.4-2.7-0.5c-1.1-0.1-2.2-0.2-3.5-0.4c-0.9-0.1-1.9-0.4-2.7-0.2c-0.1,0-0.4,0.1-0.5,0.2
			c-2.6-0.4-5.6-0.9-8.2-0.4H167c-1.7-0.2-3.5-0.4-5.3-0.4c-2,0-3.8-0.1-5.8-0.1c-1.1,0-2.4-0.1-3.6,0c-0.1-0.1-0.2-0.1-0.4-0.1
			c-2.5-0.5-5.3-0.1-7.8,0.1c-2.8,0.2-5.7,0.6-8.7,1c-2.7,0.4-5.6,0.7-8.3,1.4c-1.5,0.2-4.3,0.4-5.2,1.7c0,0,0,0.1-0.1,0.1l0,0
			c-0.5,0.2-0.9,0.6-1.1,1.1c-0.1,0.2-0.1,0.4-0.1,0.6c-0.4,1.1-0.5,2.2,0,3.3c0.4,1,1.6,1.6,2.8,2.1c0.5,0.2,1,0.5,1.6,0.7
			c0.2,0.1,0.5,0.1,0.7,0c0.2,0.1,0.6,0.4,1,0.5c0.6,0.2,1.5,0.6,2.4,0.5c1.7,1,4.3,1.1,6.3,1.2c0.4,0.2,1,0.1,1.5,0.1
			c0.4,0,0.9,0,1.2,0c0.1,0.1,0.2,0.1,0.4,0.2c1.2,0.4,2.7,0.1,4.1,0.2c0.1,0,0.1,0,0.2,0.1c1.7,0.4,3.7,0.4,5.6,0.4
			c0.7,0.1,1.5,0.1,2.2,0.1c0.7,0.1,1.6,0.1,2.4,0.1c0.1,0.2,0.4,0.5,0.9,0.5c1.5,0,3.1,0.1,4.6,0.1c0.5,0,0.9-0.1,1.4-0.1
			c0.1,0,0.2,0,0.4,0c0.6,0,1.4,0,2-0.1c0.1,0,0.1,0,0.2,0c1.9,0,3.7-0.2,5.7-0.4c0.1,0.1,0.2,0.1,0.5,0.1c2-0.2,4-0.2,5.8-0.2
			c0.1,0.1,0.4,0.2,0.7,0.2c3.3-0.1,6.4-0.2,9.7-1c0.9-0.2,1.9-0.4,2.8-0.6c1.7,0.1,3.8-0.6,5.3-1c1.6-0.4,3.1-0.6,4.6-1.5
			c0.4-0.2,0.5-0.6,0.4-1c0.2-0.2,0.5-0.4,0.7-0.6c0.1-0.1,0.2-0.4,0.2-0.6C198.9,110.3,198.8,109.7,198.6,109z"/>
	</g>
	<g id="LINE_2_">
		<path class="st2" d="M198.6,108.2c-0.1-1-1.7-1.5-2.4-2c-0.4-0.2-0.6-0.6-1.1-0.9c-0.5-0.2-1.5-0.4-2-0.5
			c-0.2-0.1-0.6-0.1-0.9-0.2c-0.2-0.2-0.6-0.2-0.9-0.2c-0.1,0-0.1,0-0.2,0c-0.1,0-0.1,0-0.2-0.1c-0.4-0.1-0.7-0.2-1.1-0.2
			c-0.1,0-0.2,0-0.4,0l0,0c-0.1,0-0.1,0-0.2,0c0,0,0,0-0.1,0c-10-2.4-20.3-2-30.4-2.5c-4.3-0.2-8.9,0.2-13.2,0.5
			c-3.3,0.2-6.8,0.9-10.1,1.2c0.5-0.1,1-0.1,1.6-0.2l0,0c-1.1,0.1-2.4,0.2-3.5,0.4c-0.2,0-0.5,0-0.6,0l0,0l0,0
			c-3.3,0.4-6.7,0.9-9.7,2.7c-0.6,0.4-1.2,0.9-1.2,1.6c0,0.9,0.6,0.9,1.2,1.2c2,1,3.8,1.9,5.8,2.6c-0.5,0,5.4,1.5,8.8,1.9
			c2.7,0.4,5.7,1.1,8.4,0.9c5.2,0.4,10.4,0.2,15.6,0c3.2,0.2,21.7-1.1,24.3-1.5c2.4-0.4,4.7-0.7,7.1-1.2c1.2-0.2,4.1-1.4,4.3-1.5
			C198.4,109.8,198.6,108.7,198.6,108.2z M197.4,109.6l-0.1,0.1c-0.4,0.2-4.1,1.6-5.7,2l0,0c-2,0.5-4,0.7-6.1,1
			c-3.1,0.4-9.3,0.9-9.2,0.9c0.2,0-11.3,0.4-14.6,0.6c-2,0-3.8,0-5.8,0.1c-3,0.1-5.8-0.1-8.8-0.1l0,0c-1.2-0.2-2.5-0.2-3.6-0.2
			c-1.9,0-3.5-0.5-5.3-0.7c-1.6-0.2-3.1-0.5-4.8-0.9c-2.8-0.6-7.1-2-9.2-3.1c-1-0.5-2.6-1-1.9-2.4c0.5-0.9,2.4-1.5,3.2-1.9
			c2.5-1.1,5.2-1.4,8-1.7c1.7,0,3.5-0.2,5.1-0.5c2.1-0.2,4.1-0.1,6.1-0.2c4.7-0.2,9.3-0.9,14-0.7c4.9,0.1,9.8,0,14.7,0.2
			c5.2,0.2,10.4,1,15.6,2l0,0c0,0,0,0,0.1,0c0.2,0.1,0.6,0.1,1,0.2c0.4,0.1,0.7,0.1,1.1,0.2c0.9,0.2,1.9,0.6,2.7,0.9
			c0.9,0.4,1.4,0.9,2.1,1.4C197,107.6,198.9,108.1,197.4,109.6z"/>
		<path class="st2" d="M134.2,112.7c-4.1-0.2-8.5-1.6-12.1-3.6c-3.1-1.7,0.5-3.6,2.2-4.1c2.4-0.7,4.7-1.2,7.1-1.7l0,0
			c-2.7,0.5-5.6,0.9-8.2,2c-1.1,0.5-3,1.5-2.6,3c0.1,0.9,1.1,1.2,1.9,1.6c1.1,0.5,2.2,1.2,3.3,1.5c1.4,0.4,2.7,0.7,4.1,1
			C131.2,112.4,132.7,112.9,134.2,112.7C134.2,112.8,134.2,112.7,134.2,112.7z"/>
		<g>
			<path class="st2" d="M137.9,107.5c-3.6,0.2-7.9,1-11.1,2.7l0,0c3.7-1.1,7.5-2.2,11.4-2.5c2.2-0.1,4.5-0.6,6.7-1.1
				c-0.5,0.1-0.9,0.1-1,0.1C141.8,107.1,139.9,107.4,137.9,107.5z"/>
			<path class="st2" d="M156.4,105.6L156.4,105.6c-3,0.1-5.9,0.2-8.9,0.4c-2.6,0.1-5.1,0.5-7.5,0.6c-2.6,0.1-5.1,0.5-7.7,1
				c-2.6,0.5-5.1,1.4-7.7,2c0,0,0,0.1,0,0c2.6-0.5,5.1-1.4,7.5-1.7c2.6-0.5,5.3-0.7,8-0.9c2.4-0.1,4.6-0.5,6.9-0.6
				c-0.7,0.1-1.5,0.2-2.4,0.4c0.9-0.1,2.1-0.2,3-0.4C150.6,106.1,153.5,105.9,156.4,105.6z"/>
		</g>
		<path class="st2" d="M182.2,106.6"/>
		<path class="st2" d="M199.6,108c-0.5-1.5-2.5-2.1-3.8-2.6c-1.2-0.4-2.5-0.6-3.7-1s-2.8-0.4-4-0.9l0,0c2.2,1,4.7,1.4,7.1,2.1
			c1,0.2,2.2,0.6,3,1.4c0.9,0.7,1,2.4,0.9,3.5c-0.2,2.1-2,2.4-3.6,3c-1.4,0.6-2.8,1-4.3,1.4c-2.7,0.7-5.7,1-8.5,1.4
			c-3.1,0.4-6.3,0.6-9.4,0.6c-2.7,0-5.3,0.5-7.9,0.6c-2.5,0.1-17.3-0.6-20.4-0.7c-0.7,0-7.8-0.9-10.5-1.2c-1.5,0-7.3-1.6-8.7-2.1
			c-1.2-0.5-2.2-1.2-3.5-1.6c-0.1-0.1-1.4-1.1-1.4-1.5c-0.1-0.5,0-1.9-0.1-2.4c0-0.1-0.1,0-0.1,0c0,0.4,0,1.5,0,1.7
			c0,0.2,0,0.6,0,0.9c0,0.1,0.4,0.9,0.5,1c0.2,0.4,3.8,2.2,4.3,2.5c1.1,0.5,4.5,1.4,4.7,1.4c0.7,0.2,13.4,1.6,14.6,1.6
			c2.8,0.1,17.1,0.5,18.9,0.5c2.4,0,4.7-0.4,7.1-0.5c2.8-0.1,5.6,0,8.4-0.1c4.9-0.2,10-0.9,14.7-2.4c1.6-0.5,4-1.1,5.2-2.4
			C200,111.5,200,109.1,199.6,108z"/>
		<path class="st2" d="M206.6,259.5c-0.6,3.8-4.2,5.7-7.3,7.5c-1,0.6-1.9,1.4-2.4,2.6c-0.1,0.5-0.4,0.9-0.5,1.4
			c-0.1,0.1-0.1,0.2-0.2,0.2c-0.1,0.1-0.2,0.4-0.4,0.5l0,0c-5.2,4.6-12.3,5.9-18.8,6.9c-3.2,0.5-6.4,1-9.7,1.2c-0.2,0-0.4,0-0.6,0
			c-0.6,0-1.2-0.1-1.7-0.1c-1.2-0.1-2.5-0.1-3.7-0.1c-3.1,0-6.2,0-9.3-0.2c-5.6-0.6-11-1-16.5-2.7c-2.6-0.7-4.8-1.6-6.9-3.2
			c-1.9-1.5-3.2-3.3-5.2-4.7c-1.9-1.2-3.6-2.6-5.2-4.1c-1.7-1.6-3.8-3.1-5.1-5.1l0,0c0.9,1.4,1.6,3.1,2.8,4.1c1.6,1.2,3,2.6,4.6,4
			c1.4,1.2,3.1,2,4.6,3.2c1.4,1.2,2.6,2.7,4.2,3.8c3.3,2.2,7.7,2.8,11.5,3.7c2.4,0.5,4.8,0.7,7.2,0.9c2.2,0.1,4.6,0.5,6.8,0.7
			c1.7,0.1,3.5,0.1,5.1,0.1c2.8,0.1,5.7,0.5,8.4,0.2c3.2-0.2,6.6-0.7,9.8-1.2c3.1-0.5,6.2-1.2,9-2.1c1.7-0.5,3.5-1.4,5.1-2.1
			c1.5-0.6,3-1.6,4.1-2.7c0,0,0-0.1,0.1-0.1c0.4-0.2,0.6-0.6,0.9-1.1c0.4-1,0.6-1.9,1.4-2.6c0.9-0.9,2-1.4,3-2.1
			c2.5-1.6,5.1-3.6,5.2-6.8C206.7,259.3,206.6,259.3,206.6,259.5z"/>
		<path class="st2" d="M196.4,110.1c-1.7-1.5-4.6-2.1-6.9-2.4c-3.7-0.4-7.4-0.9-11-1.5c-3.1-0.5-6.1-0.9-9.2-0.7c-1.9,0-3.7,0-5.6,0
			c-1.4,0-2.8,0.2-4.2,0.2l0,0c5.9,0.4,11.9-0.4,17.8,0.6c3.2,0.5,6.6,1.1,9.8,1.5c2.8,0.4,6.4,0.6,8.8,2.5
			C196.3,110.7,196.7,110.2,196.4,110.1z"/>
		<path class="st2" d="M193.1,111.3c-1.1-1.5-3.8-1.7-5.4-2.1c-2.2-0.6-4.3-1.1-6.7-1.5c-2.2-0.4-4.3-0.9-6.4-1.1
			c-2.1-0.2-4.2,0.1-6.4,0.1l0,0c1.7,0.1,3.5,0,5.3,0c2.1,0,4,0.4,5.9,0.9c2.4,0.6,4.7,1,7.1,1.6c1.1,0.4,2.2,0.6,3.3,1
			c0.9,0.2,2.4,0.5,3,1.4C192.8,111.8,193.2,111.6,193.1,111.3z"/>
		<path class="st2" d="M171,110.6c-1.6,1-4.2,0.9-6.1,0.7c-1.6-0.1-3,0-4.6,0.1c-3.1,0.2-6.3,0.6-9.4-0.5l0,0c3,1.6,6.7,1,9.8,0.7
			c2-0.1,4,0,5.9-0.1C168.2,111.6,170.1,111.6,171,110.6C171.3,110.7,171.2,110.6,171,110.6z"/>
		<path class="st2" d="M160.9,108.7c-1-0.1-1.9,0-2.8,0c-0.6,0-1.4-0.1-2,0.1c-0.1,0-0.2,0.2-0.1,0.4c0,0,0,0,0.1,0h-0.1
			c-0.1,0-0.2,0.1-0.1,0.2l0.1,0.1c0.1,0.1,0.7-0.1,0.4,0.1c-0.5,0.2-1.9-0.1-2.2-0.2c0,0-0.1,0,0,0c0.5,0.2,2.2,1.1,2.7,0.2v-0.1
			c-0.1-0.1-0.1-0.1-0.2-0.1c0.2,0,0.4,0,0.5-0.1s0.1-0.2,0-0.2h-0.1c0.4,0,0.9,0,1.1,0C159,108.9,159.9,108.9,160.9,108.7
			C160.9,108.9,160.9,108.7,160.9,108.7z"/>
		<path class="st2" d="M165.5,109.5L165.5,109.5c-0.2-0.1-0.4-0.1-0.5-0.1c0-0.1,0-0.2-0.1-0.2c-0.2,0-0.6,0-0.9,0
			c0-0.1-0.1-0.1-0.2-0.1c-0.1,0-0.5,0.1-0.7,0.1c0-0.1,0-0.1-0.1-0.1c-0.4,0-0.7,0-1.1,0.1l0,0c0.2,0,0.4,0,0.6,0v0.1
			c0.1,0.1,0.2,0.1,0.4,0.1l0,0c0,0.1,0,0.2,0.1,0.2c0.1,0,2.1-0.1,2.1-0.1C165.3,109.8,165.5,109.6,165.5,109.5L165.5,109.5z"/>
		<path class="st2" d="M150.1,110.3c-0.2-0.1-0.4-0.2-0.5-0.5c-0.1-0.1-0.4-0.2-0.6-0.4c-0.2-0.1-0.4-0.1-0.6-0.2
			c-0.1,0-0.2,0-0.4,0c-0.1,0-0.7-0.1-0.2-0.4c0,0,0-0.1,0,0c-0.5,0.4,0,0.5,0.4,0.5c0.5,0.1,1,0.2,1.4,0.5
			C149.6,110.1,149.8,110.3,150.1,110.3C150.1,110.5,150.1,110.3,150.1,110.3z"/>
		<path class="st2" d="M171.9,110.1c-0.4-0.6-1.2-0.7-1.9-1.1c-1.1-0.5-2.1-0.9-3.2-1.2c-2-0.6-4-0.7-5.9-0.9
			c-2.5-0.1-4.8-0.1-7.3,0c-1.7,0.1-4.5-0.1-5.8,1v0.1c1.7-0.9,4.1-0.6,6.1-0.7c1.6-0.1,3.2-0.1,4.8-0.1c-1.6,0.2-3.2,0.6-4.8,0.6
			l0,0c2.6,0.1,5.3-0.2,7.9-0.6c0,0,0,0,0.1-0.1c1.9,0,3.5,0.1,5.2,0.9c0.9,0.4,1.7,0.7,2.6,1.2c0.4,0.1,1.2,0.4,1.4,0.6
			c1.1,1.5-1,1.6-1.6,1.7c-4,0.6-8,0.2-12,0.5c-2,0.1-4.6,0.4-6.4-0.6c-0.9-0.4-1.5-1.1-2.4-1.5c-0.6-0.2-2.2-0.5-1.6-1.5l0,0
			c-0.9,0.7-0.5,1.1,0.5,1.5c1.7,0.7,3.2,2.1,5.1,2.4c2.1,0.2,4.3,0,6.6,0c2.1,0,4.2,0.1,6.3,0C166.2,112.4,173.1,112.4,171.9,110.1
			z"/>
		<g>
			<path class="st2" d="M121.2,112c-0.2,3.1-1.5,6.1-3.5,8.4c-2,2.4-3.7,4.9-4.7,7.8c-0.5,1.5-0.9,3-1,4.5c-0.1,1.5-0.1,3-0.1,4.6
				l0.1,9.3l0.4,37l0.2,37l0.1,37l-0.1-0.5c0.5,0.9,1.4,2,2.2,2.7c0.9,0.9,1.9,1.6,2.8,2.4c2.1,1.4,4.3,2.5,6.8,3.1
				c2.4,0.7,4.9,1.2,7.5,1.7s5.1,1,7.7,1.5c5.1,0.9,10.3,1.2,15.5,1.5c5.2,0.1,10.4,0.2,15.6,0.1c5.2-0.1,10.4-0.5,15.5-1.4
				c1.2-0.2,2.5-0.5,3.7-0.7c0.6-0.1,1.2-0.4,1.9-0.5l1.9-0.6c2.5-0.9,4.8-1.7,7.1-2.8c1.1-0.6,2.1-1.2,3-2c0.7-0.7,1.5-1.9,1.9-2.8
				c0.2-0.5,0.4-1.1,0.4-1.6v-1.9v-4v-15.7c0-20.9,0.2-41.8,0.4-62.7l0.2-31.3c0-2.6,0.2-5.2-0.1-7.8c-0.4-2.6-1-5.1-2.1-7.4
				l-3.3-7.1c-0.5-1.2-1.1-2.4-1.6-3.6c-0.5-1.2-0.7-2.5-1-3.8c0.2,1.2,0.6,2.6,1.1,3.7c0.5,1.2,1.1,2.4,1.7,3.5l3.5,7.1
				c1.1,2.4,2,4.9,2.4,7.5c0.2,1.4,0.2,2.6,0.2,4v4l0.2,31.3c0.1,20.9,0.4,41.8,0.4,62.6v15.7v4v1c0,0.4,0,0.6,0,1.1
				c0,0.7-0.2,1.5-0.5,2.2c-0.5,1.4-1.2,2.6-2.4,3.7c-1.1,1-2.2,1.7-3.5,2.4c-2.5,1.2-4.9,2.2-7.4,3.1l-1.9,0.6
				c-0.6,0.2-1.4,0.4-2,0.6c-1.4,0.4-2.6,0.6-4,0.9c-5.2,0.9-10.5,1.2-15.7,1.5c-5.2,0.1-10.5,0.1-15.7,0
				c-5.2-0.2-10.5-0.6-15.7-1.5c-2.6-0.5-5.2-1-7.8-1.5c-2.6-0.6-5.1-1-7.7-1.9c-2.6-0.7-5.1-2-7.3-3.5c-2.2-1.6-4.3-3.3-5.8-6.1
				l-0.1-0.2v-0.2l0.1-37l0.2-37l0.4-37l0.1-9.3c0-1.5,0-3.1,0.2-4.7c0.2-1.5,0.6-3.1,1.1-4.6c1.1-3,3-5.4,5-7.8
				C119.6,117.9,120.8,114.9,121.2,112z"/>
		</g>
	</g>
</g>
<g id="CAN-01">
	<g id="FILL">
		<path class="st0" d="M290.5,266.5c0.1-0.4,0.1-0.9,0.1-1.2l0,0c0-0.2-0.4-0.2-0.4,0c-0.1,0.5-0.4,0.9-0.5,1.4s-0.4,1.4-0.7,1.7
			c-0.1,0.1-0.1,0.1-0.1,0.2l-0.1,0.1c-0.1,0.1-0.4,0.2-0.4,0.5l0,0l0,0c-0.1,0-0.1,0-0.2,0.1c-0.7,0.5-1.4,0.9-1.9,1.5
			c-0.5,0.4-0.9,0.6-1.5,0.9c-0.1,0-0.2,0.1-0.4,0.1c-0.1,0-0.2,0-0.4,0c-0.4,0.1-0.7,0.2-1.2,0.5c-0.6,0.2-1.2,0.6-1.7,1l0,0
			c-0.1-0.1-0.2-0.1-0.5,0c-1,0.4-2.1,0.9-3,1.4c-1.2,0.2-2.6,0.6-3.8,1c-0.1,0-0.2,0-0.2,0c-0.7,0.1-1.6,0.4-2.4,0.6
			c-1.4,0.2-2.6,0.5-4,0.9c-0.5,0.1-1,0.1-1.4,0.2c-0.1,0-0.2-0.1-0.4-0.1c-0.5,0-1,0-1.6,0.1c-2,0.1-4,0.5-5.8,0.7
			c-0.1,0-0.2,0-0.4,0c-0.4,0.1-0.7,0.1-1.1,0.2c-0.1-0.1-0.2-0.2-0.6-0.2c-0.2,0-0.5,0-0.7,0c0.1-0.2,0-0.5-0.4-0.6
			c-1-0.1-2.1,0.1-3.1,0.2c-0.9,0.1-1.7,0.2-2.6,0.4c-0.7-0.6-1.5-0.5-2.4-0.2c-0.7,0.2-1.5,0.4-2.2,0.5c-0.1-0.1-0.4-0.1-0.6-0.1
			c-1.5,0.1-3.1,0.2-4.6,0.4c-0.1-0.2-0.5-0.4-0.9-0.4c-0.6,0-1.2,0.1-1.9,0.1c-0.2,0-0.5,0-0.7-0.1c-0.1-0.2-0.2-0.4-0.6-0.5
			c-0.9-0.1-1.9-0.1-2.7,0c0,0-0.1-0.1-0.2-0.1c0.1-0.5-0.1-0.9-0.7-0.7c-0.9,0-1.7,0.1-2.5,0.2c0.2-0.4,0.1-0.9-0.4-1.2
			c-0.2-0.1-0.6-0.2-0.9-0.4c-0.1-0.2-0.4-0.4-0.7-0.4c-0.6,0.1-1.4,0.1-2,0.2c-0.1-0.1-0.4-0.1-0.6-0.1h-0.1c0-0.4-0.4-0.7-0.9-0.7
			c-0.7,0-1.6,0.1-2.4,0.2c0.2-0.6,0.1-1.2-0.6-1.1c-0.9,0.1-1.7,0.5-2.5,0.7l0,0c-0.1,0-0.1,0-0.2,0c0.1-0.5-0.1-0.9-0.7-0.9
			c-0.1,0-0.1,0-0.2,0c0-0.2-0.1-0.5-0.5-0.5c-1.1,0-2.2,0-3.3,0c-0.1,0-0.4,0-0.5-0.1c-0.1-0.1-0.2-0.1-0.4-0.1
			c-1.4-0.1-2.8-0.1-4.2-0.1l0,0c-1.4-0.6-3.1-1.6-4.7-1.9l0,0c0,0,0,0-0.1,0c-0.5-0.2-1-0.6-1.4-0.9c-0.5-0.5-0.9-1.1-1.4-1.7
			c0,0-0.1,0,0,0c0,0,0,0,0,0.1c0,0-0.1-0.1-0.2-0.1c0,0-0.1-0.1-0.2-0.1l0,0l0,0l0,0l0,0c-0.2-0.1-0.5-0.4-0.9-0.4
			c-0.2,0-0.6,0.4-0.4,0.6c0,0.1,0,0.2,0,0.2c0.6,1,1.4,1.7,2.2,2.5c0.7,0.6,1.4,1.7,2.4,2.1c0.7,0.7,1.7,1.4,2.6,1.9
			c0.6,0.4,1.1,0.7,1.9,1.1c0.4,0.9,1.2,1.5,2.1,2.1c0.5,0.5,1,0.9,1.6,1.4c0.1,0.1,0.1,0.2,0.2,0.4l0,0c0.2,0.9,1.1,1.4,2.1,1.6
			c0.6,0.6,1.4,0.9,2.2,1.2c1,0.6,2.2,1,3.2,1.4c0.9,0.4,1.7,0.4,2.7,0.5l0,0c0.1,0.1,0.4,0.1,0.6,0.1c1.2,0.2,2.5,0.7,3.7,1
			c1.6,0.2,3.3,0.4,4.9,0.4c0.4,0,0.7,0.1,1.2,0.1c0.9,0.2,1.7,0.2,2.6,0.4c0.7,0.1,1.4,0.1,2.1,0.2c0,0,0,0,0.1,0.1
			c0.9,0.5,2.2,0.2,3.1,0.4c0.4,0,0.9,0,1.4,0.1c0.9,0.1,1.9,0,2.6-0.1l0,0c0,0.1,0.1,0.2,0.4,0.2c1.4,0,2.6,0,4,0c0.6,0,1.4,0,2,0
			c0,0,0.1,0,0.2,0c1.7-0.1,3.7-0.2,5.3-0.6c1.9,0.1,4.1-0.4,5.7-0.7c0.6-0.1,1.1-0.2,1.7-0.4c0.7,0,1.5-0.2,2-0.4
			c0.6-0.1,1.4-0.2,2.1-0.5c1.6-0.4,3.2-0.7,4.7-1.2c1-0.4,1.9-0.7,2.7-1.4c0.4-0.2,0.7-0.4,1.1-0.6c0.7-0.2,1.4-0.6,2.1-1.1
			c0.7-0.5,1.5-1,1.9-1.7c0,0,0,0,0.1-0.1c1.2-1,1.6-2.7,2.8-3.8c0.1-0.1,0.2-0.2,0.2-0.4c0.2-0.1,0.5-0.4,0.9-0.5
			c0.1,0,0.2,0,0.4-0.1c1-0.5,2.2-1.1,3-2c1-0.5,2-1.6,2.4-2.6c0.4-0.5,0.6-1,0.9-1.6C290.5,267.6,290.5,267.1,290.5,266.5z"/>
		<path class="st1" d="M205.1,119.5c0,0-0.2,4.1-2.7,7.3c-2.4,3.2-7.1,7.2-7.1,16.6s0,121.8,0,121.8s3.5,7.1,15.5,9.7
			c11.9,2.6,17.3,3.6,30.2,4.1c12.9,0.5,27.3-0.2,34.7-2.7c7.3-2.5,11.3-4.2,13.1-6.7c1.9-2.5,1.7-4.6,1.7-4.6V145.2
			c0-3.7-0.9-7.4-2.5-10.9l-4.7-9.7c-0.7-1.5-1.2-3.1-1.5-4.7l0,0"/>
		<path class="st0" d="M282.5,116.7c0.1-0.5,0.1-1.1-0.2-1.7c-0.5-0.9-2.1-1.7-3.3-2.1c-2.1-0.7-4.6-0.6-6.7-1.2
			c-1-0.2-2.5-0.7-3.7-0.7c-0.9-0.2-1.7-0.4-2.7-0.5c-1.1-0.1-2.2-0.2-3.5-0.4c-0.9-0.1-1.9-0.4-2.7-0.2c-0.1,0-0.4,0.1-0.5,0.2
			c-2.6-0.4-5.6-0.9-8.2-0.4h-0.1c-1.7-0.2-3.5-0.4-5.3-0.4c-2,0-3.8-0.1-5.8-0.1c-1.1,0-2.4-0.1-3.6,0c-0.1-0.1-0.2-0.1-0.4-0.1
			c-2.5-0.5-5.3-0.1-7.8,0.1c-2.8,0.2-5.7,0.6-8.7,1c-2.7,0.4-5.6,0.7-8.3,1.4c-1.5,0.2-4.3,0.4-5.2,1.7c0,0,0,0.1-0.1,0.1l0,0
			c-0.5,0.2-0.9,0.6-1.1,1.1c-0.1,0.2-0.1,0.4-0.1,0.6c-0.4,1.1-0.5,2.2,0,3.3c0.4,1,1.6,1.6,2.8,2.1c0.5,0.2,1,0.5,1.6,0.7
			c0.2,0.1,0.5,0.1,0.7,0c0.2,0.1,0.6,0.4,1,0.5c0.6,0.2,1.5,0.6,2.4,0.5c1.7,1,4.3,1.1,6.3,1.2c0.4,0.2,1,0.1,1.5,0.1
			c0.4,0,0.9,0,1.2,0c0.1,0.1,0.2,0.1,0.4,0.2c1.2,0.4,2.7,0.1,4.1,0.2c0.1,0,0.1,0,0.2,0.1c1.7,0.4,3.7,0.4,5.6,0.4
			c0.7,0.1,1.5,0.1,2.2,0.1c0.7,0.1,1.6,0.1,2.4,0.1c0.1,0.2,0.4,0.5,0.9,0.5c1.5,0,3.1,0.1,4.6,0.1c0.5,0,0.9-0.1,1.4-0.1
			c0.1,0,0.2,0,0.4,0c0.6,0,1.4,0,2-0.1c0.1,0,0.1,0,0.2,0c1.9,0,3.7-0.2,5.7-0.4c0.1,0.1,0.2,0.1,0.5,0.1c2-0.2,4-0.2,5.8-0.2
			c0.1,0.1,0.4,0.2,0.7,0.2c3.3-0.1,6.4-0.2,9.7-1c0.9-0.2,1.9-0.4,2.8-0.6c1.7,0.1,3.8-0.6,5.3-1c1.6-0.4,3.1-0.6,4.6-1.5
			c0.4-0.2,0.5-0.6,0.4-1c0.2-0.2,0.5-0.4,0.7-0.6c0.1-0.1,0.2-0.4,0.2-0.6C282.8,118,282.8,117.4,282.5,116.7z"/>
	</g>
	<g id="LINE">
		<path class="st2" d="M282.5,115.9c-0.1-1-1.7-1.5-2.4-2c-0.4-0.2-0.6-0.6-1.1-0.9s-1.5-0.4-2-0.5c-0.2-0.1-0.6-0.1-0.9-0.2
			c-0.2-0.2-0.6-0.2-0.9-0.2c-0.1,0-0.1,0-0.2,0s-0.1,0-0.2-0.1c-0.4-0.1-0.7-0.2-1.1-0.2c-0.1,0-0.2,0-0.4,0l0,0
			c-0.1,0-0.1,0-0.2,0c0,0,0,0-0.1,0c-10-2.4-20.3-2-30.4-2.5c-4.3-0.2-8.9,0.2-13.2,0.5c-3.3,0.2-6.8,0.9-10.1,1.2
			c0.5-0.1,1-0.1,1.6-0.2l0,0c-1.1,0.1-2.4,0.2-3.5,0.4c-0.2,0-0.5,0-0.6,0l0,0l0,0c-3.3,0.4-6.7,0.9-9.7,2.7
			c-0.6,0.4-1.2,0.9-1.2,1.6c0,0.9,0.6,0.9,1.2,1.2c2,1,3.8,1.9,5.8,2.6c-0.5,0,5.4,1.5,8.8,1.9c2.7,0.4,5.7,1.1,8.4,0.9
			c5.2,0.4,10.4,0.2,15.6,0c3.2,0.2,21.7-1.1,24.3-1.5c2.4-0.4,4.7-0.7,7.1-1.2c1.2-0.2,4.1-1.4,4.3-1.5
			C282.3,117.5,282.7,116.3,282.5,115.9z M281.3,117.1l-0.1,0.1c-0.4,0.2-4.1,1.6-5.7,2l0,0c-2,0.5-4,0.7-6.1,1
			c-3.1,0.4-9.3,0.9-9.2,0.9c0.2,0-11.3,0.4-14.6,0.6c-2,0-3.8,0-5.8,0.1c-3,0.1-5.8-0.1-8.8-0.1l0,0c-1.2-0.2-2.5-0.2-3.6-0.2
			c-1.9,0-3.5-0.5-5.3-0.7c-1.6-0.2-3.1-0.5-4.8-0.9c-2.8-0.6-7.1-2-9.2-3.1c-1-0.5-2.6-1-1.9-2.4c0.5-0.9,2.4-1.5,3.2-1.9
			c2.5-1.1,5.2-1.4,8-1.7c1.7,0,3.5-0.2,5.1-0.5c2.1-0.2,4.1-0.1,6.1-0.2c4.7-0.2,9.3-0.9,14-0.7c5,0.1,9.8,0,14.7,0.2
			c5.2,0.2,10.4,1,15.6,2l0,0c0,0,0,0,0.1,0c0.2,0.1,0.6,0.1,1,0.2s0.7,0.1,1.1,0.2c0.9,0.2,1.9,0.6,2.7,0.9
			c0.9,0.4,1.4,0.9,2.1,1.4C281.1,115.3,282.8,115.8,281.3,117.1z"/>
		<path class="st2" d="M218.1,120.4c-4.1-0.2-8.5-1.6-12.1-3.6c-3.1-1.7,0.5-3.6,2.2-4.1c2.4-0.7,4.7-1.2,7.1-1.7l0,0
			c-2.7,0.5-5.6,0.9-8.2,2c-1.1,0.5-3,1.5-2.6,3c0.1,0.9,1.1,1.2,1.9,1.6c1.1,0.5,2.2,1.2,3.3,1.5c1.4,0.4,2.7,0.7,4.1,1
			C215.2,120.1,216.6,120.5,218.1,120.4C218.1,120.5,218.2,120.4,218.1,120.4z"/>
		<g>
			<path class="st2" d="M221.8,115c-3.6,0.2-7.9,1-11.1,2.7l0,0c3.7-1.1,7.5-2.2,11.4-2.5c2.2-0.1,4.5-0.6,6.7-1.1
				c-0.5,0.1-0.9,0.1-1,0.1C225.9,114.7,223.8,114.9,221.8,115z"/>
			<path class="st2" d="M240.3,113.3C240.3,113.2,240.3,113.2,240.3,113.3c-3,0.1-5.9,0.2-8.9,0.4c-2.6,0.1-5.1,0.5-7.5,0.6
				c-2.6,0.1-5.1,0.5-7.7,1c-2.6,0.5-5.1,1.4-7.7,2c0,0,0,0.1,0,0c2.6-0.5,5.1-1.4,7.5-1.7c2.6-0.5,5.3-0.7,8-0.9
				c2.4-0.1,4.6-0.5,6.9-0.6c-0.7,0.1-1.5,0.2-2.4,0.4c0.9-0.1,2.1-0.2,3-0.4C234.6,113.7,237.5,113.6,240.3,113.3z"/>
		</g>
		<path class="st2" d="M266.2,114.2"/>
		<path class="st2" d="M283.7,115.5c-0.5-1.5-2.5-2.1-3.8-2.6c-1.2-0.4-2.5-0.6-3.7-1c-1.2-0.4-2.8-0.4-4-0.9l0,0
			c2.2,1,4.7,1.4,7.1,2.1c1,0.2,2.2,0.6,3,1.4c0.9,0.7,1,2.4,0.9,3.5c-0.2,2.1-2,2.4-3.6,3c-1.4,0.6-2.8,1-4.3,1.4
			c-2.7,0.7-5.7,1-8.5,1.4c-3.1,0.4-6.3,0.6-9.4,0.6c-2.7,0-5.3,0.5-7.9,0.6c-2.5,0.1-17.3-0.6-20.4-0.7c-0.7,0-7.8-0.9-10.5-1.2
			c-1.5,0-7.3-1.6-8.7-2.1c-1.2-0.5-2.2-1.2-3.5-1.6c-0.1-0.1-1.4-1.1-1.4-1.5c-0.1-0.5,0-1.9-0.1-2.4c0-0.1-0.1,0-0.1,0
			c0,0.4,0,1.5,0,1.7c0,0.2,0,0.6,0,0.9c0,0.1,0.4,0.9,0.5,1c0.2,0.4,3.8,2.2,4.3,2.5c1.1,0.5,4.5,1.4,4.7,1.4
			c0.7,0.2,13.4,1.6,14.6,1.6c2.8,0.1,17.1,0.5,18.9,0.5c2.4,0,4.7-0.4,7.1-0.5c2.8-0.1,5.6,0,8.4-0.1c5-0.2,10-0.9,14.7-2.4
			c1.6-0.5,4-1.1,5.2-2.4C283.9,119.1,284,116.8,283.7,115.5z"/>
		<path class="st2" d="M290.6,267c-0.6,3.8-4.2,5.7-7.3,7.5c-1,0.6-1.9,1.4-2.4,2.6c-0.1,0.5-0.4,0.9-0.5,1.4
			c-0.1,0.1-0.1,0.2-0.2,0.2c-0.1,0.1-0.2,0.4-0.4,0.5l0,0c-5.2,4.6-12.3,5.9-18.8,6.9c-3.2,0.5-6.4,1-9.7,1.2c-0.2,0-0.4,0-0.6,0
			c-0.6,0-1.2-0.1-1.7-0.1c-1.2-0.1-2.5-0.1-3.7-0.1c-3.1,0-6.2,0-9.3-0.2c-5.6-0.6-11-1-16.5-2.7c-2.6-0.7-4.8-1.6-6.9-3.2
			c-1.9-1.5-3.2-3.3-5.2-4.7c-1.9-1.2-3.6-2.6-5.2-4.1c-1.7-1.6-3.8-3.1-5.1-5.1l0,0c0.9,1.4,1.6,3.1,2.8,4.1c1.6,1.2,3,2.6,4.6,4
			c1.4,1.2,3.1,2,4.6,3.2c1.4,1.2,2.6,2.7,4.2,3.8c3.3,2.2,7.7,2.8,11.5,3.7c2.4,0.5,4.8,0.7,7.2,0.9c2.2,0.1,4.6,0.5,6.8,0.7
			c1.7,0.1,3.5,0.1,5.1,0.1c2.8,0.1,5.7,0.5,8.4,0.2c3.2-0.2,6.6-0.7,9.8-1.2c3.1-0.5,6.2-1.2,9-2.1c1.7-0.5,3.5-1.4,5.1-2.1
			c1.5-0.6,3-1.6,4.1-2.7c0,0,0-0.1,0.1-0.1c0.4-0.2,0.6-0.6,0.9-1.1c0.4-1,0.6-1.9,1.4-2.6c0.9-0.9,2-1.4,3-2.1
			c2.5-1.6,5.1-3.6,5.2-6.8C290.7,266.9,290.6,267,290.6,267z"/>
		<path class="st2" d="M280.4,117.6c-1.7-1.5-4.6-2.1-6.9-2.4c-3.7-0.4-7.4-0.9-11-1.5c-3.1-0.5-6.1-0.9-9.2-0.7c-1.9,0-3.7,0-5.6,0
			c-1.4,0-2.8,0.2-4.2,0.2l0,0c5.9,0.4,11.9-0.4,17.8,0.6c3.2,0.5,6.6,1.1,9.8,1.5c2.8,0.4,6.4,0.6,8.8,2.5
			C280.2,118.3,280.7,117.9,280.4,117.6z"/>
		<path class="st2" d="M277,119c-1.1-1.5-3.8-1.7-5.4-2.1c-2.2-0.6-4.3-1.1-6.7-1.5c-2.2-0.4-4.3-0.9-6.4-1.1
			c-2.1-0.2-4.2,0.1-6.4,0.1l0,0c1.7,0.1,3.5,0,5.3,0c2.1,0,4,0.4,5.9,0.9c2.4,0.6,4.7,1,7.1,1.6c1.1,0.4,2.2,0.6,3.3,1
			c0.9,0.2,2.4,0.5,3,1.4C276.7,119.5,277.1,119.1,277,119z"/>
		<path class="st2" d="M255.1,118.3c-1.6,1-4.2,0.9-6.1,0.7c-1.6-0.1-3,0-4.6,0.1c-3.1,0.2-6.3,0.6-9.4-0.5l0,0c3,1.6,6.7,1,9.8,0.7
			c2-0.1,4,0,5.9-0.1C252.2,119.3,254,119.3,255.1,118.3C255.2,118.3,255.2,118.1,255.1,118.3z"/>
		<path class="st2" d="M244.8,116.3c-1-0.1-1.9,0-2.8,0c-0.6,0-1.4-0.1-2,0.1c-0.1,0-0.2,0.2-0.1,0.4c0,0,0,0,0.1,0h-0.1
			c-0.1,0-0.2,0.1-0.1,0.2l0.1,0.1c0.1,0.1,0.7-0.1,0.4,0.1c-0.5,0.2-1.9-0.1-2.2-0.2c0,0-0.1,0,0,0c0.5,0.2,2.2,1.1,2.7,0.2v-0.1
			c-0.1-0.1-0.1-0.1-0.2-0.1c0.2,0,0.4,0,0.5-0.1c0.1-0.1,0.1-0.2,0-0.2h-0.1c0.4,0,0.9,0,1.1,0
			C242.9,116.5,243.9,116.5,244.8,116.3C244.8,116.4,244.9,116.4,244.8,116.3z"/>
		<path class="st2" d="M249.5,117.1C249.5,117.1,249.4,117,249.5,117.1c-0.2-0.1-0.4-0.1-0.5-0.1c0-0.1,0-0.2-0.1-0.2
			c-0.2,0-0.6,0-0.9,0c0-0.1-0.1-0.1-0.2-0.1c-0.1,0-0.5,0.1-0.7,0.1c0-0.1,0-0.1-0.1-0.1c-0.4,0-0.7,0-1.1,0.1l0,0
			c0.2,0,0.4,0,0.6,0v0.1c0.1,0.1,0.2,0.1,0.4,0.1l0,0c0,0.1,0,0.2,0.1,0.2c0.1,0,2.1-0.1,2.1-0.1
			C249.3,117.4,249.5,117.3,249.5,117.1L249.5,117.1z"/>
		<path class="st2" d="M234,118c-0.2-0.1-0.4-0.2-0.5-0.5c-0.1-0.1-0.4-0.2-0.6-0.4c-0.2-0.1-0.4-0.1-0.6-0.2c-0.1,0-0.2,0-0.4,0
			c-0.1,0-0.7-0.1-0.2-0.4c0,0,0-0.1,0,0c-0.5,0.4,0,0.5,0.4,0.5c0.5,0.1,1,0.2,1.4,0.5C233.5,117.6,233.7,118,234,118L234,118z"/>
		<path class="st2" d="M255.8,117.8c-0.4-0.6-1.2-0.7-1.9-1.1c-1.1-0.5-2.1-0.9-3.2-1.2c-2-0.6-4-0.7-5.9-0.9
			c-2.5-0.1-4.8-0.1-7.3,0c-1.7,0.1-4.5-0.1-5.8,1v0.1c1.7-0.9,4.1-0.6,6.1-0.7c1.6-0.1,3.2-0.1,4.8-0.1c-1.6,0.2-3.2,0.6-4.8,0.6
			l0,0c2.6,0.1,5.3-0.2,7.9-0.6c0,0,0,0,0.1-0.1c1.9,0,3.5,0.1,5.2,0.9c0.9,0.4,1.7,0.7,2.6,1.2c0.4,0.1,1.2,0.4,1.4,0.6
			c1.1,1.5-1,1.6-1.6,1.7c-4,0.6-8,0.2-12,0.5c-2,0.1-4.6,0.4-6.4-0.6c-0.9-0.4-1.5-1.1-2.4-1.5c-0.6-0.2-2.2-0.5-1.6-1.5l0,0
			c-0.9,0.7-0.5,1.1,0.5,1.5c1.7,0.7,3.2,2.1,5.1,2.4c2.1,0.2,4.3,0,6.6,0c2.1,0,4.2,0.1,6.3,0C250.2,120.1,257.2,120.1,255.8,117.8
			z"/>
		<g>
			<path class="st2" d="M205.1,119.5c-0.2,3.1-1.5,6.1-3.5,8.4s-3.7,5-4.7,7.8c-0.5,1.5-0.9,3-1,4.5c-0.1,1.5-0.1,3-0.1,4.6l0.1,9.3
				l0.4,37l0.2,37l0.1,37l-0.1-0.5c0.5,0.9,1.4,2,2.2,2.7c0.9,0.9,1.9,1.6,2.8,2.4c2.1,1.4,4.3,2.5,6.8,3.1c2.4,0.7,4.9,1.2,7.5,1.7
				c2.6,0.5,5.1,1,7.7,1.5c5.1,0.9,10.3,1.2,15.5,1.5c5.2,0.1,10.4,0.2,15.6,0.1c5.2-0.1,10.4-0.5,15.5-1.4c1.2-0.2,2.5-0.5,3.7-0.7
				c0.6-0.1,1.2-0.4,1.9-0.5l1.9-0.6c2.5-0.9,4.8-1.7,7.1-2.8c1.1-0.6,2.1-1.2,3-2c0.7-0.7,1.5-1.9,1.9-2.8c0.2-0.5,0.4-1.1,0.4-1.6
				v-1.9v-4v-15.7c0-20.9,0.2-41.8,0.4-62.7l0.2-31.3c0-2.6,0.2-5.2-0.1-7.8c-0.4-2.6-1-5.1-2.1-7.4l-3.6-7.1
				c-0.5-1.2-1.1-2.4-1.6-3.6c-0.5-1.2-0.7-2.5-1-3.8c0.2,1.2,0.6,2.6,1.1,3.7c0.5,1.2,1.1,2.4,1.7,3.5l3.5,7.1
				c1.1,2.4,2,4.9,2.4,7.5c0.2,1.4,0.2,2.6,0.2,4v4l0.2,31.3c0.1,20.9,0.4,41.8,0.4,62.6v15.7v4v1c0,0.4,0,0.6,0,1.1
				c0,0.7-0.2,1.5-0.5,2.2c-0.5,1.4-1.2,2.6-2.4,3.7c-1.1,1-2.2,1.7-3.5,2.4c-2.5,1.2-4.9,2.2-7.4,3.1l-1.9,0.6
				c-0.6,0.2-1.4,0.4-2,0.6c-1.4,0.4-2.6,0.6-4,0.9c-5.2,0.9-10.5,1.2-15.7,1.5c-5.2,0.1-10.5,0.1-15.7,0
				c-5.2-0.2-10.5-0.6-15.7-1.5c-2.6-0.5-5.2-1-7.8-1.5c-2.6-0.6-5.1-1-7.7-1.9c-2.6-0.7-5.1-2-7.3-3.5c-2.2-1.6-4.3-3.3-5.8-6.1
				l-0.1-0.2v-0.2l0.1-37l0.2-37l0.4-37l0.1-9.3c0-1.5,0-3.1,0.2-4.7c0.2-1.5,0.6-3.1,1.1-4.6c1.1-3,3-5.4,5-7.8
				C203.5,125.6,204.7,122.6,205.1,119.5z"/>
		</g>
	</g>
</g>
</svg>
