<?xml version="1.0" encoding="UTF-8"?>
<svg width="51px" height="51px" viewBox="0 0 51 51" version="1.1" xmlns="http://www.w3.org/2000/svg" xmlns:xlink="http://www.w3.org/1999/xlink">
    <!-- Generator: Sketch 58 (84663) - https://sketch.com -->
    <title>chlorination-icon</title>
    <desc>Created with Sketch.</desc>
    <g id="chlorination-icon" stroke="none" stroke-width="1" fill="none" fill-rule="evenodd">
        <g id="icon" transform="translate(10.000000, 4.000000)">
            <path d="M15.6,43.2 C24.2156421,43.2 31.2,36.2399979 31.2,27.6544003 C31.2,21.9306685 26,12.7125351 15.6,0 C5.2,12.7125351 0,21.9306685 0,27.6544003 C0,36.2399979 6.9843579,43.2 15.6,43.2 Z" id="water-drop" fill="#96FEFF"></path>
            <g id="bleach" transform="translate(2.000000, 7.000000)" fill="#2E2F30" fill-rule="nonzero">
                <path d="M25.5778717,13.8073171 L11.5310078,5.80487805 L2.93516561,5.80487805 L0.545102185,8.74878049 C0.209654686,9.20487805 0,9.74390244 0,10.3243902 L0,23.2195122 L11.3213531,23.2195122 C11.7825934,23.2195122 12.1599718,23.5926829 12.1599718,24.0487805 L12.1599718,30.6829268 C12.1599718,31.1390244 11.7825934,31.5121951 11.3213531,31.5121951 L0,31.5121951 L0,32.3414634 C0,33.2536585 0.754756871,34 1.67723749,34 L25.9971811,34 C26.9196617,34 27.6744186,33.2536585 27.6744186,32.3414634 L27.6744186,17.3731707 C27.6744186,15.9219512 26.8777308,14.5121951 25.5778717,13.8073171 Z M25.9971811,18.6585366 C25.9971811,19.1146341 25.6198027,19.4878049 25.1585624,19.4878049 L15.9337562,19.4878049 C13.1663143,19.4878049 10.9020437,17.2487805 10.9020437,14.5121951 L10.9020437,8.70731707 C10.9020437,8.41707317 11.0697674,8.12682927 11.3213531,8.00243902 C11.5729387,7.83658537 11.9083862,7.83658537 12.1599718,8.00243902 L24.8231149,15.2170732 C25.5359408,15.6317073 25.9971811,16.3780488 25.9971811,17.2073171 L25.9971811,18.6585366 Z M24.3199436,17.2073171 L24.3199436,17.8292683 L15.9337562,17.8292683 C14.0887949,17.8292683 12.5792812,16.3365854 12.5792812,14.5121951 L12.5792812,10.1585366 L23.9844961,16.6682927 C24.1941508,16.7512195 24.3199436,16.9585366 24.3199436,17.2073171 Z M10.4827343,29.8536585 L0,29.8536585 L0,28.195122 L5.03171247,28.195122 C5.49295278,28.195122 5.87033122,27.8219512 5.87033122,27.3658537 C5.87033122,26.9097561 5.49295278,26.5365854 5.03171247,26.5365854 L0,26.5365854 L0,24.8780488 L10.4827343,24.8780488 L10.4827343,29.8536585 Z M1.67723749,3.31707317 L1.67723749,0.829268293 C1.67723749,0.373170732 2.05461593,0 2.51585624,0 L11.7406624,0 C12.2019027,0 12.5792812,0.373170732 12.5792812,0.829268293 L12.5792812,3.31707317 C12.5792812,3.77317073 12.2019027,4.14634146 11.7406624,4.14634146 L2.51585624,4.14634146 C2.05461593,4.14634146 1.67723749,3.77317073 1.67723749,3.31707317 Z" id="Shape"></path>
            </g>
        </g>
    </g>
</svg>