<?xml version="1.0" encoding="utf-8"?>
<!-- Generator: Adobe Illustrator 22.1.0, SVG Export Plug-In . SVG Version: 6.00 Build 0)  -->
<svg version="1.1" id="Credit_Required:_EBMUD" xmlns="http://www.w3.org/2000/svg" xmlns:xlink="http://www.w3.org/1999/xlink"
	 x="0px" y="0px" viewBox="0 0 360 360" style="enable-background:new 0 0 360 360;" xml:space="preserve">
<style type="text/css">
	.st0{fill:#A1B7DD;}
	.st1{opacity:0.61;fill:#E5E5DA;}
	.st2{fill:#00A3E6;}
	.st3{fill:#E5E5DA;}
	.st4{fill:#9B9B9C;}
	.st5{fill:#B1B1B2;}
	.st6{fill:#FFFFFF;}
	.st7{fill:#C9C9CA;}
</style>
<g id="FILL">
	<path class="st0" d="M63.9,166.1c-0.1,11.4-3.4,61.6-5,69c-1.7,7.4,0.4,14.5,1.3,21c0.9,6.5,9.5,12.6,12.7,15.3
		c3.2,2.7,14.4,5.6,14.4,5.6s2.5,2.3,3.1,3c0.7,0.7,5.9,2.2,9,3.8c3.1,1.5,10,4.7,16.5,8c6.6,3.3,13.4,8.3,20.1,10.9
		s31.9,14.8,39.3,18.3c7.4,3.5,13.4,3.2,22.8,1.9s36.8-18.3,40-22.4c3.2-4.1,15.6-10.8,19.7-14c4.1-3.2,35.3-20.6,39.2-23.8
		c3.9-3.2,4.5-13.8,4.1-17.4c-0.5-3.6-2-22.5-2-30s8.1-71.4,8.1-92.9S286.7,95,276.1,92.6s-91.5-30-95.2-30.4
		c-3.7-0.4-13.5,1.2-17.9,5.5c-4.3,4.3-45.3,15.9-62.1,19.8c-16.9,4-24.7,9.3-36.2,19.9c-9.1,8.4-4.2,33.1-1.8,43.1
		c0.7,3,1.1,6.1,1.1,9.2L63.9,166.1z"/>
	<path class="st1" d="M304.1,123.6c0.1-0.2,0.2-0.4,0.2-0.6c2.3-10.3-5.7-23.7-24.2-29.3c-2.8-0.9-41.7-13-42.3-13.8
		c-0.2-0.3-0.6-0.4-1-0.3c-0.1,0-0.1,0-0.2,0.1c-0.1-0.2-0.2-0.4-0.5-0.4c-0.7-0.1-1.7-0.5-2.5-0.2c-0.6,0.2-0.9,0.9-1.3,1.4
		c-0.5,0.8-1,1.6-1.7,2.2c-0.3,0.4-0.8,0.7-1,1.2c-0.3,0.2-0.6,0.4-0.8,0.7c-0.4,0.3-0.8,0.7-1.2,1c-0.4,0.3-0.7,0.5-1.1,0.8
		c0,0,0,0,0,0c-0.4,0.3-0.9,0.6-1.3,1c0,0,0,0,0,0c-1.1,0.4-2.3,1-3.4,1.5c0,0-0.1,0-0.1,0.1c0,0-0.1,0-0.1,0
		c-1.8,0.5-3.6,1.3-5.5,1.6c-0.7,0.1-1.4,0.2-2-0.2c-0.4,0-0.7,0-1.1-0.1c-0.3,0-0.3-0.4-0.1-0.6c0.6-0.5,1.3-0.8,2.1-1.2
		c0.5-0.3,0.6-0.6,0.9-1c-0.1-0.3-0.2-0.5-0.3-0.7c-0.3-0.1-0.7-0.2-1-0.4c0,0,0,0-0.1,0c-0.1,0-0.3,0-0.4,0
		c-0.3,0.2-0.5,0.3-0.9,0.3c-0.1,0-0.1,0-0.1-0.1c0,0,0,0-0.1,0c-0.4-0.1-0.3-0.5-0.2-0.7c0,0,0,0,0.1-0.1c0,0,0,0,0,0
		c0.2-0.4,0.6-0.6,1-0.8c0.2-0.1,0.3-0.2,0.4-0.4c0.2-0.1,0.4-0.2,0.6-0.3c0.1,0,0.1,0,0.2,0c0.7-0.1,1.4-0.3,2-0.6
		c0.1,0,0.1,0,0.2,0c0.3-0.1,0.6-0.2,0.9-0.3c0,0,0.1,0,0.1-0.1c1.5-0.6,2.9-1.1,4.3-1.8c1.5-0.8,3.9-2,4.9-3.4
		c0.3-0.4,0.2-1.1-0.4-1.1c-0.1,0-0.3,0-0.6,0c-0.1-0.1-0.1-0.1-0.2-0.2c-0.9-0.5-2-0.8-3-0.9c-0.2-0.2-0.4-0.4-0.6-0.5
		c-0.2-0.1-0.4-0.1-0.6,0.1c0,0,0,0-0.1,0c-1-0.5-1.9-0.8-2.9-0.7c-0.2-0.3-0.5-0.5-0.8-0.5c-0.7-0.5-1.9-0.7-2.7-0.9
		c-0.8-0.2-1.8-0.5-2.8-0.4c-0.5-1.1-2.3-1.6-3.3-1.9c-1.1-0.3-2.1-0.5-3.2-0.7c-0.9-0.2-1.9-0.6-2.8-0.6c-0.1,0-0.2,0-0.3,0.1
		c-0.3-0.4-0.9-0.8-1.9-1.1c-1.6-0.5-3.2-1-4.8-1.5c-1.1-0.3-2-0.7-3.1-0.8c-0.2-0.1-0.4-0.2-0.6-0.3c-1-0.4-2.5-1.1-3.8-1.2
		c-0.3-0.1-0.6-0.2-0.9-0.3c-0.1,0-0.1-0.1-0.2-0.1c-0.2-0.1-0.5-0.1-0.8-0.2c-0.3-0.1-0.6-0.1-0.9-0.2c-0.7-0.4-1.4-0.7-2-0.8
		c-0.5-1-1.4-1.4-2.4-1.4c0-0.2-0.2-0.4-0.4-0.4c-2.4-0.7-5.4-0.4-7.4,1.1c0,0,0,0,0,0c0,0,0,0,0,0c0,0,0,0-0.1,0
		c-0.1,0-0.2,0-0.3,0.1c0,0-0.1,0-0.1,0.1c0,0,0,0,0,0c0,0-0.1,0-0.1,0.1c-0.3,0.1-0.6,0.3-0.9,0.3c-0.4,0-0.9,0.7-0.5,1.1
		c0.2,0.2,0.4,0.4,0.7,0.6c-0.1,0.3-0.1,0.5,0.1,0.7c1.4,1.3,3.4,1.2,4.9,2.3c-0.2,0.3-0.3,0.6-0.1,0.9c0.1,0.2,0.3,0.5,0.4,0.7
		c0.1,0.5,0.1,1,0,1.4c0,0.5-0.2,0.9-0.4,1.3c-0.8,0.3-1.5,0.8-2.3,1.3c-1.5,0.3-2.9,0.2-4.5,0.3c-0.2-0.2-0.4-0.4-0.8-0.3
		c-1.3,0.3-2.5,0.8-3.9,0.8c-1,0.1-2-0.1-3.1-0.1c0-0.5-0.1-0.9-0.7-0.9c0,0-0.1,0-0.1,0c0.1-0.4,0.4-0.8,0.7-1.1
		c0-0.1,0.1-0.1,0.1-0.2c0.2,0.1,0.4,0.1,0.6,0c1.2-0.3,2.5-0.8,3.7-1.2c0.6-0.2,1.2-1.2,0.6-1.7c-0.1-0.1-0.2-0.2-0.2-0.2
		c0-0.2,0-0.3-0.1-0.5c-0.3-0.5-1-0.8-1.4-1.2c-0.2-0.2-0.4-0.2-0.6-0.2c0.1-0.5-0.2-0.9-0.8-0.8c-2.3,0.4-4.6,1.5-6.8,2.3
		c-1.8,0.7-3.6,1.4-5.4,2.1c-1.6,0.6-3.2,1.2-4.6,2.1c-2,0.7-4.1,1.4-6.1,2.2c-0.9,0.4-1.8,0.7-2.6,1.1c-1,0.3-2,0.7-2.8,1.1
		c-1.1,0.3-2.1,0.6-3.2,1c-1.1,0.3-2.2,0.7-3.2,1.2c-2,0.7-3.9,1.4-5.9,2c-0.1,0-0.3,0-0.4,0.1c-1.9,0.6-3.9,1.1-5.8,2
		c-0.5,0.1-1.1,0.3-1.5,0.4c-1.5,0.4-3,0.7-4.5,1.1c-1.6,0.4-3.5,0.7-5.1,1.4c-0.1-0.2-0.3-0.2-0.7-0.2c-1.7,0.3-3.4,1.1-4.9,1.7
		c-0.3,0.1-0.6,0.2-0.9,0.3c-0.1,0-0.1,0-0.2,0c-1.8,0.2-3.5,0.7-5.2,1.2c-0.9,0.2-1.8,0.5-2.7,0.9c-0.1,0-0.2,0.1-0.4,0.2
		c-0.2-0.1-0.4-0.1-0.8,0c-1.8,0.5-3.8,1.1-5.6,1.9c0,0-0.1,0-0.1,0c-1,0-2.1,0.6-3.1,1.1c-1.5,0.5-3,1-4.4,1.7
		c-0.8,0.4-1.5,0.9-2.3,1.4c-0.3-0.1-0.7-0.1-1,0.3c-1.3,1.3-2.6,2.4-3.8,3.9c-0.1,0.1-0.1,0.2-0.2,0.3c-0.1,0.2-0.3,0.4-0.4,0.6
		c-0.6,0.5-1.2,1.1-1.7,1.6c-1.2,1.1-2.5,2.3-3.5,3.6c-1,0.8-1.9,1.7-2.6,2.8c-1,1.5-1.7,3.4-2.3,5.1c-0.4,1.1-1.9,4.9-1,6.6
		c-0.2,0.9-0.1,1.8,0.2,2.6c0.1,0.5,0.5,1.1,0.7,1.5c0.9,1.6,1.8,3.3,3.3,4.3c1.2,0.8,2.5,1.2,3.9,1.5c-1.2-0.6-2.4-1.3-3.4-2.3
		c-2.6-2.7-2.9-7.4-0.3-9.8c0.1-0.1-2.4,6.7,2.9,10.5c1.3,0.9,2.7,1.5,4.1,2.3c0.4,0.1,0.7,0.1,1.1,0.2c9.6,2.8,27.1,8.1,35.8,11.6
		c11.1,4.5,33.2,11.8,37.2,13.1c4,1.3,15.8,8.4,22.9,10.1c7.1,1.7,29.9,6.6,43.2,3.4c13.3-3.3,21.8-9.4,26-12
		c4.2-2.6,30.6-16.6,42-19.9c0,0,0,0,0,0c3.8-2.6,8.1-4.3,12.2-6.6c2.7-1.5,5.1-3.4,7.1-5.7c2.5-2.9,2.1-6.7,0.8-10c0,0,0,0,0,0
		c1.2,2.7,2.6,5.4,1.4,8.4c-0.9,2.1-2.9,4.1-4.8,5.6c0.4-0.1,1.9-0.4,3.2-1.1C302,126.4,303.6,124.3,304.1,123.6z"/>
	<path class="st2" d="M235.5,68.2c-0.7-5.7-2.3-11.5-6.2-14.5c-3.9-2.9-10.9-3.8-15.1-6c-4.2-2.2-20.6-8.9-28.1-10.2
		c-7.5-1.3-12-2.9-12-2.9s-4.3-0.5-6.6,0.6c-2.3,1.1-11.3,6.1-9.5,15.3c1.9,9.1,8.6,16.7,8.6,16.7l1.6,1.8l0,0.2
		c0,0-0.6,0.7-0.4,1.1c0.2,0.4,0.8,0.5,1.2,0.4c0.6,0,1.1,0.3,1.6,0.1c0,0,0.1,0,0.1-0.1l0.2,0.1l0.3,1.6l-0.4,0
		c0,0.2,0,0.5-0.1,0.7l1.3,0.6c0,0,3.5-0.1,4.9-1.4c1.4-1.4,1.5-1.6,1.2-3c-0.3-1.4-0.5-1.9-1.5-2.3c-1-0.4-2.9-0.7-3.3-1
		c-0.3-0.3-2.2-2.4-2.8-3.5c-0.6-1.1-1.6-2.8-2.3-4c-0.8-1.2-1.1-1.2-1.4-2.7c-0.3-1.6-1.6-3.7-1.6-5s0.7-3.8,1.1-4.2
		c0.4-0.4,0.9-1.2,1.7-1c0.8,0.2,12.9,6.2,14,7.3c1.1,1.1,3.4,3.1,14.8,6.2c11.4,3.1,17.6,2.5,19.8,2.9c2.2,0.3,7.5,1,10.5,5.1
		c1.6,2.2,2.4,5.7,1.2,8.3c-1.2,2.6-2.8,4.7-6.3,6.5c-4.8,2.4-7.9,2.5-8.4,3.1c-0.6,0.6-0.4,2.1-0.4,2.1l1.8-0.8l0.5,1.1l-0.2,1.4
		l-2.8,1.4c0,0,3.9,1.2,5.7,0.2c1.8-1,7.4-2.6,12.5-8.4C234.4,78.1,236.2,73.8,235.5,68.2z"/>
	<path class="st2" d="M237.1,119.8l1,8.8l4.8,8.8l8.7,8.1l9.3,1.6l6.7-1.9l5.9-3.8c0,0,3.8-6.4,3.9-9.6c0.1-3.3-4.2-18.2-12.3-22.7
		s-9.5-4.2-10-4.2c-0.5,0-6.1,2.6-6.1,2.6l-2-0.3l-5.7,5.4l-4.3,6.3L237.1,119.8z"/>
	<path class="st0" d="M128,93.4c-3.2,0.8-5.9,2-8.8,3.5c-3.1,1.6-6.5,2.7-9.8,3.8c-5.5,1.9-11.2,3.4-16.8,5.1c-3,0.9-6,2-8.9,3
		c-3,1-6.2,1.5-9.1,2.5c-2.4,0.8-5.1,1.9-6.9,3.6c-1.3,1.2-1.6,3-2.2,4.5c0,0,0,0,0,0c1.5-1.6,2.7-3.2,4.8-4.2
		c2.4-1.1,4.9-1.8,7.5-2.4c5.8-1.4,11.4-3.5,17.2-5.2c5.5-1.7,10.9-3.9,16.1-6.2c2.6-1.1,5.4-2,7.8-3.6c3-1.9,5.9-3.2,9.2-4.3
		C128.1,93.5,128.1,93.3,128,93.4z"/>
	<path class="st0" d="M111.8,94.7c-0.9,0.5-2.3,0.8-3.3,1.1c-1.2,0.4-2.5,0.9-3.7,1.3c-3,1.1-6,2.2-9.1,3.1
		c-2.6,0.7-5.1,1.7-7.7,2.3c-2.8,0.7-6,1.4-8.5,2.8c0,0,0,0.1,0,0.1c3.1-1.2,6.6-0.8,9.9-1.5c2.3-0.5,4.6-1.3,6.9-2.1
		c2.9-0.9,5.8-2.3,8.6-3.6c2.2-1,4.9-1.8,6.9-3.3C112,94.8,111.9,94.6,111.8,94.7z"/>
	<path class="st0" d="M111.5,90.1c-2.6,0.3-5.3,1.1-7.9,1.7c-2.6,0.6-5.4,1.1-8,1.9c-2.6,0.9-5.2,1.9-7.7,2.8
		c-1.8,0.6-4.1,1.1-5.5,2.4c0,0,0,0,0,0c1.6-1.5,5.3-2.1,7.4-2.5c2.5-0.5,4.6-1.4,7.1-2C101.8,93.1,106.5,91,111.5,90.1
		C111.5,90.2,111.5,90.1,111.5,90.1z"/>
	<path class="st0" d="M206.6,85.5c0,0-2.5-0.9-3.8-1.3c-1.6-0.6-3.1-1.5-4.4-1.9c-2.3-0.7-3.7-0.9-6-1.7c-4.2-1.5-8.7-2.9-13.1-3.7
		c-4.6-0.9-9.4,0-13.8,1.1c-2,0.5-3.8,1.4-5.6,2.4c-1.5,0.8-3.6,1.4-4.9,2.6c0,0,0,0.1,0,0c1.4-0.9,3.8-1.2,5.5-1.7
		c2.1-0.7,4.1-1.5,6.3-1.8c2.4-0.4,4.8-0.9,7.3-0.9c2.4,0,4.4,0.5,6.7,0.9c4.1,0.8,8.1,2.1,12.1,3.2c2.3,0.6,4.6,1.3,6.9,1.8
		C203.1,85.2,206.6,85.5,206.6,85.5z"/>
	<path d="M178.6,68.7c-0.3-0.7-0.8-1.4-1.4-1.8c-1-0.6-2.3-0.6-3.3-1.2c-0.9-0.6-1.5-2-2.2-2.8c-0.7-0.9-1.9-1.4-2.1-2.6
		c0-0.1-0.2,0-0.2,0c-0.1,1.3,0.8,1.5,1.6,2.3c0.8,1,1.2,2.3,2.2,3c1.7,1.3,4.2,0.8,4.7,3.3c0.3,1.3-0.2,2.2-1.1,2.9
		c-0.8,0.4-1.7,0.7-2.4,0.8c-0.8,0.2-1.4,0.2-2.2,0.1c-0.6-0.1-1.3-0.2-1.8,0.2c0,0,0,0,0,0.1c1.1,1.2,3.3,0.8,4.7,0.4
		c1.2-0.3,2.5-0.9,3.2-2C178.9,70.9,179.1,69.9,178.6,68.7z"/>
	<path class="st0" d="M156.3,75.3c-2.1,0.5-4.5,1.6-6.5,2.6c-2.4,1.2-4.8,2.6-7.3,3.7c-2.5,1.1-5,2.3-7.6,3.3
		c-2.7,1-5.4,1.9-7.9,3.4c0,0,0,0.1,0,0.1c2.7-1.2,5.6-1.8,8.4-2.6c2.5-0.8,5-1.7,7.4-2.7c2.2-0.9,4.2-2.1,6.2-3.3
		c1.2-0.7,2.5-1.5,3.8-2.1c1.1-0.6,2.3-1.4,3.4-1.9C156.4,75.5,156.4,75.3,156.3,75.3z"/>
	<path class="st0" d="M143.9,77.3c-0.9,0.4-1.8,0.6-2.7,1.1c-1.2,0.6-2.3,1-3.5,1.5c-2.4,0.9-4.7,1.8-7.1,2.6
		c-2.8,1-5.7,1.5-8.6,2.3c-1.1,0.3-2.1,0.7-3.2,0.9c-1.1,0.2-2.1,0.9-3.2,1c0,0-0.1,0.1,0,0.1c1.1,0,2.1-0.6,3.2-0.7
		c1.2-0.2,2.2-0.5,3.4-0.7c2.8-0.5,5.5-1,8.2-1.8c2.6-0.7,5-1.7,7.5-2.8c2.1-0.9,4.4-1.8,6.2-3.1C144.2,77.6,144.2,77.2,143.9,77.3z
		"/>
	<path class="st0" d="M215.7,80.7c-0.4-0.3-0.6-0.4-1.1-0.5c-1-0.4-1.8-0.9-2.7-1.4c-2.1-1.1-4.1-1.7-6.4-2.2
		c-2.4-0.5-4.6-1.5-7-1.8c-2.5-0.4-5.1-0.8-7.6-1.5c0,0-0.1,0.1,0,0.1c2,0.9,4.2,1.6,6.4,2.1c2.4,0.5,4.6,1.4,7,2
		c2.2,0.6,4.3,1.2,6.5,2c0.9,0.3,1.9,0.7,2.8,0.9c0.7,0.2,1.4,0.1,2,0.5C215.7,80.9,215.8,80.8,215.7,80.7z"/>
	<path class="st0" d="M267.6,104.8c-2.9-1.6-5.6-2.7-8.7-3.7c-3.1-1-6.3-1.6-9.3-2.8c-2.5-1-4.9-2-7.5-2.8c-1.6-0.5-3.2-1-4.8-1.5
		c-1.3-0.4-3-0.5-4.2-1.1c-0.1,0-0.2,0.1-0.1,0.1c1.1,0.8,2.7,1,3.9,1.5c1.5,0.6,3.1,1.3,4.6,2c2.4,1,4.7,2,7.2,2.7
		c3.1,0.8,6.3,1.3,9.3,2.2c3.4,1,6.4,2,9.5,3.6C267.5,105.1,267.7,104.8,267.6,104.8z"/>
	<path class="st0" d="M259.6,90.7c-1.5-0.2-3.2-1.3-4.6-1.9c-1.8-0.7-3.5-1.3-5.4-1.7c-4.1-0.9-8.2-2.1-12.5-2.5c0,0,0,0,0,0
		c4.2,0.7,8,2.4,12.1,3.5c2,0.5,3.9,1.2,5.9,1.8c1.3,0.4,3,1,4.3,1C259.7,90.9,259.8,90.7,259.6,90.7z"/>
	<path class="st0" d="M297.3,123.9c-0.8,1-1.6,1.4-2.7,2c-1.5,0.7-2.9,1.5-4.4,2.3c-2.9,1.5-5.6,3.3-8.3,5.1c0,0,0,0.1,0,0.1
		c3.1-1.7,6.3-3.1,9.4-4.8c2.3-1.2,4.9-2.3,6-4.6C297.4,123.9,297.3,123.8,297.3,123.9z"/>
	<path class="st0" d="M274.8,100.1c-1.8-0.9-3.4-2.1-5.4-2.7c-2.2-0.6-4.3-1.4-6.5-2.2c-3.9-1.5-8-1.9-12.1-2.9
		c-0.1,0-0.1,0.1-0.1,0.1c4,1.4,8.2,2,12,3.9c1.8,0.9,3.5,1.6,5.4,2.2c1.3,0.4,2.5,0.8,3.8,1.3c0.2,0.1,2.6,0.7,2.7,0.8
		c0.1,0.1,0.3,0,0.3-0.1c0-0.1,0-0.1,0-0.2C274.9,100.1,274.9,100.1,274.8,100.1z"/>
	<path class="st0" d="M289.5,105.2c-1.5-0.8-3.1-1.3-4.5-2.2c-1.1-0.6-2.3-1.4-3.6-1.7c-0.1,0-0.2,0.1-0.1,0.2
		c1.1,0.5,2,1.6,3.1,2.3c0.9,0.7,1.9,1.1,2.9,1.6c2.1,0.9,7.4,2.3,7.9,4.8c0,0,0.1,0,0.1,0C295.1,107.6,291.4,106.2,289.5,105.2z"/>
	<path class="st0" d="M280.2,125.9c-0.1-0.1-0.3,0.1-0.3,0.2c0.1,1.2,0,2.4-0.2,3.5c-0.2,0.9-0.4,1.9,0,2.8c0,0.1,0.1,0,0.1,0
		C280.6,130.6,281.8,127.6,280.2,125.9z"/>
	<path class="st0" d="M231.5,154.5c-2.3,0.7-4,2.2-5.9,3.6c-2.3,1.6-4.9,2.3-7.6,3c-5.9,1.5-11.8,2.6-18,2.6c-1.4,0-2.7-0.2-4-0.3
		c-1.4-0.1-2.8,0-4.3-0.2c-2.7-0.5-5.4-0.4-8.2-0.7c-2.4-0.3-4.8-0.1-7.1-0.6c-1.7-0.3-3.2-0.4-4.8-1.1c-0.8-0.3-1.3-0.6-2.2-0.5
		c0,0-0.1,0.1,0,0.1c1.4,0,2.4,1,3.7,1.4c1.3,0.4,2.6,0.9,3.9,1.2c0.5,0.1,0.9,0.1,1.4,0.2c0.8,0.1,1.4,0.4,2.1,0.5
		c1.2,0.2,2.5,0.1,3.7,0.3c1.5,0.2,2.9,0.2,4.3,0.3c1.4,0,2.7,0.5,4.1,0.6c2.7,0.2,5.5,0.4,8.2,0.4c5.8,0,11.7-1,17.2-2.8
		c2.2-0.7,4.6-1.5,6.6-2.7c2.4-1.5,4.2-3.8,6.8-4.9C231.7,154.7,231.7,154.4,231.5,154.5z"/>
	<path class="st0" d="M211.3,157.2c-1.7,0.9-4.3,0.8-6.2,1.2c-2.3,0.4-4.8,0.6-7.1,0.5c-4.2-0.2-8.5-0.4-12.7-0.9
		c-3.9-0.5-7.8-0.6-11.7-1.2c-2.3-0.4-4.7-0.8-6.9-1.4c-2-0.5-4.2-0.7-6.2-1.5c0,0,0,0,0,0c1.9,0.7,3.8,1,5.8,1.6
		c2.2,0.7,4.5,1.4,6.7,1.9c4.3,1,8.6,1.2,12.9,1.7c2.2,0.3,4.5,0.1,6.7,0.3c2.2,0.2,4.5,0.4,6.7,0.3c2.5-0.1,4.8-0.5,7.3-1
		C208.1,158.4,209.9,158.1,211.3,157.2C211.4,157.2,211.3,157.2,211.3,157.2z"/>
	<path class="st0" d="M253.2,146.4c-0.9,0.3-1.9,0.4-2.8,0.8c-0.9,0.3-1.6,0.9-2.4,1.4c-2.1,1.3-4.1,2.7-6.2,4c-1.9,1.2-4,2.1-6,3.1
		c-1,0.5-1.9,1.3-2.8,2c-0.9,0.6-1.9,1-2.8,1.6c0,0,0,0,0,0c0.9-0.7,2.1-1,3.1-1.5c0.9-0.5,1.7-1,2.7-1.4c2.1-0.9,4.2-1.7,6.2-2.7
		c2-1.1,3.8-2.4,5.8-3.5c1.8-1,3.6-1.8,5.3-2.9C253.8,146.9,253.7,146.2,253.2,146.4z"/>
	<path class="st3" d="M209.1,187.5c-0.7,0.4-1.6,0.5-2.3,0.8c-1,0.3-1.9,0.8-2.9,1.1c-1.9,0.5-3.9,0.9-5.9,1.4
		c-1.7,0.4-3.2,0.4-4.9,0.6c-1.7,0.2-3.4,0.5-5.1,0.6c-1.5,0-2.9,0.4-4.4,0.5c-1.9,0.2-3.8,0.3-5.7,0.7c-2.1,0.4-4.1,0.3-6.2,0.1
		c-1.4-0.1-4.2-0.1-5.3-1.3c-0.1-0.1-0.2,0-0.2,0.1c0.3,1,1.6,1.6,2.5,2c1.6,0.7,3.8,1.2,5.5,1.4c2.1,0.2,4.2-0.3,6.3-0.5
		c2.3-0.2,4.6-0.5,6.9-0.7c3.6-0.2,7.4-0.7,10.9-1.7c3.5-1,8.1-2.1,10.8-4.7C209.4,187.6,209.2,187.4,209.1,187.5z"/>
	<path class="st3" d="M203.1,175.4c-8.7,0.2-17.5-0.4-26.1-1.1c-4.5-0.4-8.7-1.8-12.9-3.5c-2-0.8-4.2-1.1-6-2.2
		c-0.7-0.4-1.4-0.5-2.1-0.9c-0.6-0.3-0.8-0.7-1.5-0.7c0,0,0,0,0,0c0.7,0.2,1.3,0.8,2,1.2c0.8,0.5,1.4,1.1,2.2,1.6
		c0.8,0.5,1.7,0.6,2.6,0.9c1.1,0.4,2.2,1,3.2,1.6c4,2,7.9,3.4,12.3,3.8c4.1,0.4,8.2,0.7,12.4,0.6c2.4,0,4.8-0.1,7.2-0.3
		c1.1-0.1,2.3,0,3.4-0.1c1.2-0.1,2.3-0.6,3.5-0.7C203.2,175.6,203.2,175.3,203.1,175.4z"/>
	<path class="st0" d="M249.6,104.8c-4-0.2-7.7,1.4-10.5,4.2c-1.5,1.5-2.9,3.4-4.1,5.1c-1.1,1.6-0.5,3.6-1.3,5.3c0,0,0,0,0.1,0
		c0.7-1.1,1.1-2,1.6-3.3c0.5-1.6,1.4-2.5,2.5-3.7c0.6-0.7,1-1.4,1.5-2.1c1.4-1.6,3.2-2.9,4.9-4.1c1.6-1.1,3.5-1.1,5.3-1.3
		C249.7,105.1,249.8,104.8,249.6,104.8z"/>
	<path class="st0" d="M246.9,144.5c-1.3-0.3-2.7-1.3-3.7-2c-1.4-1-2.6-2-3.7-3.3c-0.7-0.8-1.2-1.5-1.4-2.6c-0.1-0.5,0-0.7-0.3-1.3
		c-0.4-0.9-1.2-1.8-2-2.4c0,0-0.1,0,0,0.1c1.1,1.4,0.8,3.2,1.1,4.7c0.3,1.4,1.6,2.7,2.6,3.7c1.8,1.8,4.8,3.7,7.4,3.4
		C247,144.9,247.1,144.6,246.9,144.5z"/>
	<path class="st3" d="M224.5,146.3c-1-0.6-2.2-0.8-3.2-1.4c-0.9-0.5-1.8-1.4-2.7-2c-1.9-1.2-3-3.6-3.9-5.6c-0.6-1.3-1.3-2.4-1.7-3.7
		c-0.3-0.8-0.5-1.6-0.9-2.3c-0.6-1.1-2-2.4-3.3-2.6c0,0-0.1,0,0,0.1c0.8,0.4,1.3,1.5,1.8,2.2c0.7,1.2,0.6,1.7,0.9,3
		c0.5,2.3,1.4,4.7,2.5,6.7c1,1.7,1.6,3.2,3.6,4c2.1,0.9,4.2,1.9,6.5,2.2C224.5,146.9,224.7,146.5,224.5,146.3z"/>
	<path class="st0" d="M85.5,100.6c-2,0.4-4.2,0.5-6.2,1.1c-1.7,0.5-3.7,1.5-5.3,2.4c-2.1,1.2-4,2.9-5.8,4.5
		c-1.4,1.3-3.2,2.9-4.1,4.7c0,0,0,0,0,0c1-1.9,3.3-3.4,5-4.7c1.8-1.4,3.6-2.8,5.6-3.9c1.8-1,4-2.3,6.1-2.8
		C82.3,101.4,83.9,101.1,85.5,100.6C85.5,100.6,85.5,100.5,85.5,100.6z"/>
	<path class="st0" d="M121.2,145.9c-0.6-0.2-1.3-0.9-1.8-1.2c-0.9-0.5-1.9-0.9-2.8-1.4c-1.9-0.9-3.8-1.6-5.7-2.6
		c-1.6-0.8-2.9-2-4.6-2.6c-1.9-0.7-3.9-1-5.8-1.6c-1.8-0.5-3.3-1.4-5.1-1.8c-2.1-0.4-4-1.2-6-1.7c-4.4-0.9-8.8-1.3-13-2.8
		c0,0,0,0,0,0c3.7,1.3,7.4,2.5,11.4,3.2c2.1,0.4,4,1.2,6.1,1.7c1.2,0.3,2.3,0.5,3.5,0.9c0.9,0.4,1.8,0.9,2.8,1.2
		c1.8,0.6,3.6,1.1,5.4,1.7c1.8,0.6,3.2,1.8,4.9,2.6c1.9,1,4.1,1.8,6.1,2.7c1.3,0.5,3.4,1.7,4.8,1.8
		C121.2,146.1,121.4,145.9,121.2,145.9z"/>
	<g>
		<path class="st3" d="M73.5,153.8c1.6,1,2.9,2.2,4,3.6c1.1,1.4,2.1,2.8,2.9,4.5c0.8,1.7,1.4,3.5,1.6,5.6c0,0.3,0,0.6,0,0.8
			c0,0.2,0,0.4,0,0.6c0,0.4-0.1,0.8-0.1,1.2c-0.1,0.8-0.2,1.6-0.4,2.4c-0.3,1.6-0.7,3.2-0.9,4.9c-0.2,1.6-0.1,3.3,0.3,4.8
			c0.3,1.6,1,3.1,1.8,4.3c0.4,0.6,0.9,1.2,1.4,1.6c0.2,0.2,0.5,0.3,0.7,0.4c0.1,0,0.3,0.2,0.5,0.3l0.5,0.3c1.4,0.8,2.7,1.6,4.1,2.6
			c1.4,1,2.9,2,4.4,3.7c0.7,0.8,1.4,1.8,1.9,3l0.9,2c0.7,1.4,1.4,2.9,2,4.4c1.3,3,2.6,6,3.8,9c0.6,1.5,1.2,3.1,1.7,4.6
			c0.5,1.6,1.1,3.1,1.7,4.7l0,0c0.1,0.2,0,0.5-0.2,0.5c-0.1,0-0.2,0-0.4,0c-1.6-0.9-2.9-2.1-4.2-3.2c-1.3-1.2-2.4-2.4-3.5-3.7
			c-2.2-2.6-4.2-5.3-6-8.1c-0.9-1.4-1.8-2.8-2.6-4.4c-0.4-0.8-0.8-1.5-1.2-2.5c-0.1-0.3-0.3-0.7-0.6-1.2c-0.6-0.9-1.5-2.1-2.6-3.2
			c-1.1-1.2-2.3-2.4-3.3-3.9l-0.8-1.2c-0.4-0.5-0.6-1-0.8-1.5c-0.4-1-0.6-1.9-0.8-2.8c-0.3-1.8-0.5-3.5-0.8-5.2
			c-0.3-1.7-0.7-3.3-1.2-4.9c-0.5-1.6-1.2-3.3-1.7-4.9c-0.3-0.8-0.4-1.7-0.6-2.5c-0.1-0.4-0.1-0.9-0.1-1.3l-0.1-1.1
			c0-1.1-0.3-2.5-0.5-4c-0.5-3-1.3-6.1-1.5-9.7l0,0c0-0.2,0.2-0.5,0.4-0.5C73.4,153.7,73.5,153.7,73.5,153.8z"/>
	</g>
	<path class="st3" d="M68.2,164.6c-0.1-2.2-0.6-4.5-0.4-6.8c0.1-0.9,0.4-1.6,0.4-2.5c0-1-0.2-2-0.4-2.9c-0.4-1.9-1.3-3.6-1.5-5.5
		c-0.2-1.5-0.2-3.7-1.1-5c0,0-0.1,0-0.1,0c0.9,1.6,0.6,4.2,0.8,5.9c0.1,0.9,0.4,1.5,0.6,2.4c0.2,0.9,0.3,1.9,0.3,2.8
		c0.2,2.4-0.6,4.6-0.6,7c0,1.9,0.2,3.8,0.4,5.6c0.4,4.4,0.5,8.8,0.5,13.1c0,2,0,3.9,0.2,5.8c0.2,2.1-0.2,4.3-0.1,6.4
		c0,0.2,0.3,0.1,0.3-0.1c0.3-2.2,1-4.4,1-6.6c-0.1-2.3,0-4.5,0.3-6.8C69.3,173.3,68.4,168.8,68.2,164.6z"/>
	<g>
		<path class="st3" d="M109,208.8c2.8-2.9,5.3-5.8,7.6-8.7c2.3-3,4.5-6,6.3-9.2c1.8-3.2,3.4-6.6,5-10c1.6-3.4,3.1-6.9,4.6-10.4
			c0.8-1.7,1.5-3.5,2.2-5.3c0.7-1.8,1.4-3.5,2.2-5.3c0.7-1.8,1.4-3.5,2-5.2c0.3-0.8,0.6-1.7,0.8-2.5l0.5-1.6
			c0.2-0.6,0.4-1.1,0.6-1.6c0.9-2.1,2.1-3.8,3.4-5.5c1.3-1.6,2.7-3.2,4.2-4.5c1.5-1.4,3.1-2.6,4.9-3.7c0.5-0.2,0.9-0.5,1.3-0.7
			l1.4-0.6l1.4-0.5c0.5-0.1,1-0.2,1.5-0.3c-3.2,2.3-5.5,5.4-7.5,8.4c-1,1.6-1.9,3.2-2.7,4.8c-0.8,1.6-1.5,3.3-1.9,4.9
			c-0.1,0.4-0.2,0.8-0.3,1.1l-0.2,1.3c-0.2,1.1-0.4,2.1-0.7,3.1c-0.5,2-1.1,3.9-1.7,5.8c-0.6,1.9-1.3,3.8-2,5.6
			c-0.7,1.8-1.4,3.7-2.2,5.5c-1.6,3.6-3.2,7.2-5.2,10.7c-1.9,3.5-4,6.9-6.6,10.2c-2.6,3.2-5.5,6-8.7,8.5c-1.6,1.2-3.3,2.3-5,3.3
			C112.6,207.2,110.9,208.1,109,208.8z"/>
	</g>
	<path class="st3" d="M235.7,251.4c-2.6,0.1-5.1,1-7.7,1.3c-2.9,0.3-6,0.6-8.9,0.3c-2.8-0.3-5.6-0.6-8.5-1c-3-0.4-5.9-1.3-8.9-1.8
		c-1.4-0.2-2.8-0.4-4.2-0.5c1.2-0.2,2.3-0.5,3.5-0.7c2.2-0.4,4.4-1.2,6.6-2c2.4-0.8,4.8-1.3,7.1-2.3c0.4-0.2,0.4-0.9-0.1-0.7
		c-4.5,1.3-9.4,2.3-14.1,2.9c-2.2,0.3-4.3,0.9-6.5,0.9c-2.1,0-4.3,0.1-6.4,0.4c-4.6,0.6-9.7,0.4-14.3,0c-2.3-0.1-4.5,0.1-6.8,0.1
		c-2.1,0-4.2-0.4-6.2-0.2c0,0-0.1,0.1,0,0.1c6.2,1,12.4,2.1,18.6,2.5c-0.2,0-0.3,0.1-0.5,0.1c-2.7,0.5-5.2,1.5-7.9,1.9
		c-0.1,0-0.2,0.2,0,0.2c2.4,0.3,4.9-0.4,7.3-0.6c2.1-0.2,4.3-0.4,6.5-0.5c1.5-0.1,3.1,0.2,4.6,0.1c1.4,0,2.7-0.3,4.1-0.3
		c3,0.1,6.1,0.4,9.1,1c5.6,1.1,11.1,2.3,16.9,2.7c2.6,0.2,5.4,0,8-0.4c1.3-0.2,2.6-0.4,3.9-0.9c1.5-0.6,3-1.2,4.6-1.6
		C236,252.1,236.3,251.3,235.7,251.4z"/>
	<path class="st3" d="M79.7,241.5c-0.3-0.8-0.4-1.5-1-2.2c-0.6-0.7-1.3-1-1.9-1.9c-0.5-0.8-1.4-1.4-1.8-2.2c-0.4-0.8-0.6-1.8-1-2.6
		c-0.8-1.6-1.6-3.3-2.5-4.9c-0.5-0.8-0.8-1.6-1.3-2.4c-0.5-0.7-1.5-1.4-1.7-2.3c0,0,0,0,0,0c-0.3,1.6,0.6,2.7,1,4.3
		c0.5,2,1.4,4.1,2.4,5.9c1,1.9,1.7,3.2,3.5,4.6c1.5,1.1,3.1,2.3,4.3,3.7C79.6,241.7,79.7,241.6,79.7,241.5z"/>
	<path class="st3" d="M132.8,273.4c-0.8-0.7-1.6-1.1-2.4-1.8c-0.9-0.7-1.3-1.5-1.9-2.4c-1.2-1.9-3.2-3.3-4.2-5.3
		c-0.9-2-1.7-4.5-3.2-6c-1.6-1.6-3.6-2.5-5.4-3.7c0,0-0.1,0,0,0.1c1.5,1.7,3.7,3.3,4.8,5.3c0.6,1,0.8,2.4,1.3,3.5
		c0.5,1.2,0.7,2.4,1.4,3.4c0.7,1,1.7,1.6,2.4,2.6c0.6,0.7,1,1.6,1.5,2.3c1.4,1.8,3.4,1.6,5.2,2.7
		C132.6,274.2,133.1,273.7,132.8,273.4z"/>
	<path class="st3" d="M79.1,263.5c-1.1-0.6-2.2-1.1-3.2-1.8c-0.6-0.4-1.2-0.5-1.6-1.2c-0.2-0.3-0.2-0.8-0.4-1.1
		c-0.7-1.6-1.5-3.5-2.8-4.7c-1.6-1.5-3.8-2.2-5.5-3.7c-1.2-1-2.3-2-3.6-2.8c0,0-0.1,0,0,0.1c1.3,1.3,1.9,3,3.1,4.3
		c1.7,1.9,4.3,2.6,5.8,4.8c0.5,0.8,1,1.8,1.3,2.7c0.3,0.7,0.5,1.5,1,2.1c1.3,1.3,4,1.6,5.6,2C79.1,264.2,79.4,263.7,79.1,263.5z"/>
	<path class="st3" d="M106.7,285.2c-1-0.5-2-0.9-3.1-1.3c-1.2-0.4-2.2-1-3.3-1.4c-2.1-0.8-4.3-1.6-6.4-2.6c-1.2-0.6-1.9-1-2.5-2.2
		c-0.4-0.8-0.7-1.7-1.1-2.6c-0.2-0.5-0.6-0.9-0.7-1.4c-0.2-0.6-0.1-1.1-0.1-1.6c-0.1-0.9-0.5-1.8-0.6-2.7c0-0.1-0.1,0-0.2,0
		c-0.2,2-1.2,3.8-0.5,5.8c0.6,1.7,1.2,4.3,2.7,5.4c2.1,1.5,4.8,2.3,7.2,2.9c1.4,0.4,2.7,1,4.1,1.3c1.4,0.4,2.9,0.6,4.3,0.9
		C106.7,285.9,107.1,285.3,106.7,285.2z"/>
	<path class="st3" d="M65.6,214.1c-1,2.8-1.4,5.5-2,8.4c-0.6,3-1.4,5.9-2.1,8.9c-0.6,2.4-0.6,5-0.9,7.5c-0.1,1.1-0.2,2.2-0.1,3.3
		c0.1,1,0.3,2.3,0.7,3.2c0.1,0.2,0.3,0,0.3-0.2c-0.2-1,0-3,0.1-4c0.1-1.2,0.5-2.3,0.7-3.4c0.6-2.6,1-5.2,1.6-7.8
		c0.5-2.3,0.5-4.9,0.8-7.3C65.1,219.9,64.9,217.1,65.6,214.1C65.6,214.1,65.6,214.1,65.6,214.1z"/>
	<path class="st3" d="M210.2,212.2c-1.7,0.9-3.9,1-5.7,1.5c-1.8,0.5-3.6,0.8-5.3,1.2c-4.3,0.9-8.8,0.8-13.2,0.8c-2,0-4.1,0-6.1,0
		c-2.2,0-4.4,0.3-6.6,0.2c-1.9-0.1-3.7-0.9-5.5-1.4c-0.9-0.2-1.8-0.5-2.7-0.6c-0.9-0.1-2.2,0.1-2.8-0.8c0,0-0.1,0-0.1,0
		c0.3,1,1.4,1.3,2.3,1.6c2,0.8,3.9,1.9,5.9,2.7c1.9,0.7,3.5,0.6,5.5,0.6c2.8-0.1,5.6,0,8.4,0c4.7,0,9.2,0,13.8-1.1
		c2.1-0.5,4.3-1.2,6.3-1.9c1.9-0.7,4.3-1,5.9-2.2C210.6,212.6,210.6,212,210.2,212.2z"/>
	<path class="st3" d="M186.7,302.3c-4-0.9-8.1-1.4-12.2-1.8c-1.9-0.2-3.6-0.2-5.4-0.9c-1.6-0.7-5.5-1.4-6.4-3c0,0,0,0,0,0
		c0.3,1.5,2.4,2.8,3.6,3.6c1.8,1.1,3.9,1.9,6.1,2.1c4.8,0.4,9.4,1.3,14.3,0.5C186.8,302.7,187,302.4,186.7,302.3z"/>
	<path class="st3" d="M226.9,288.9c-0.7,0-1.7-0.4-2.5-0.6c-1.3-0.2-2.6-0.4-4-0.4c-2.4,0-4.7,0.5-7.1,0.7
		c-4.6,0.4-9.1,2.5-13.3,4.3c0,0,0,0,0,0c2-0.6,4.2-0.7,6.3-1.2c2.3-0.5,4.5-1.2,6.8-1.3c2.3-0.1,4.6-0.7,6.9-0.9
		c2.3-0.2,4.5-0.2,6.8-0.5C226.9,289.1,227,288.9,226.9,288.9z"/>
	<path class="st3" d="M226.8,297.5c-2.3,0.4-4.3,1.9-6.5,2.7c-2.5,0.9-5,1.8-7.6,2.3c-2.8,0.6-5.6,1-8.4,1.3c-2.3,0.3-4.8,0.3-7,1.1
		c0,0-0.1,0.1,0,0.1c2.5-0.2,5.1,0.2,7.6,0c2.8-0.2,5.8-0.6,8.6-1.2c4.7-1.1,9.2-2.8,13.4-5.1C227.5,298.5,227.6,297.4,226.8,297.5z
		"/>
	<path class="st3" d="M211.2,314.9c-2.3,0.3-4.6,1.1-6.8,1.6c-2.7,0.6-5.4,1.4-8.2,1.8c-5.1,0.7-10.7,0.4-15.8-0.4
		c-2.5-0.4-5.1-0.9-7.3-2.3c-2-1.3-3.9-2.6-5.8-4.1c-1.3-1-2.8-1.5-4.2-2.3c-1.8-1-4.1-1.9-6.2-2c0,0,0,0,0,0
		c0.9,0.2,2.6,1.2,3.5,1.7c1,0.6,1.8,1.4,2.7,2.1c0.8,0.6,1.6,1,2.4,1.6c0.8,0.7,1.5,1.6,2.4,2.3c1.7,1.4,3.5,3,5.4,4
		c2.3,1.2,5,1.5,7.6,1.9c2.4,0.4,4.9,0.4,7.3,0.4c2.8,0,5.6,0.1,8.4-0.5c2.7-0.5,5.3-1.4,7.8-2.3c2.3-0.8,4.8-1.6,6.9-2.9
		C211.6,315.4,211.6,314.8,211.2,314.9z"/>
	<path d="M210.7,297.1c-2,0.1-4,0.6-5.9,0.9c-2.1,0.3-4.3,0.4-6.4,0.4c-3.8,0-7.5-0.1-11.3-0.6c-3.5-0.5-7.1-0.6-10.6-0.8
		c-3.5-0.2-7.2-0.8-10.7-0.5c-0.2,0-0.4,0.4-0.1,0.4c3.7,0.1,7.5,0.8,11.1,1.3c3.5,0.4,7,0.5,10.5,1c3.7,0.6,7.4,0.4,11.1,0.4
		c1.9,0,4-0.2,5.9-0.5c2.1-0.4,4.2-1.2,6.3-1.4C210.8,297.6,211,297.1,210.7,297.1z"/>
	<path class="st3" d="M206.8,299.4c-2,0.6-4.7-0.1-6.8,0c-3.2,0.1-6.5,0.1-9.8-0.1c-3.1-0.2-6.1-0.6-9.2-0.6c-2.8,0-5.5-0.4-8.3-0.4
		c0,0-0.1,0.1,0,0.1c3.2,0.3,6.4,1,9.5,1.5c2.9,0.5,5.9,0.9,8.8,1.1c3.1,0.2,6.4,0.4,9.4,0c1.9-0.3,4.8-0.2,6.4-1.3
		C207,299.6,207,299.4,206.8,299.4z"/>
	<path class="st4" d="M171,73.4c-0.7,0.1-1.4,0.1-2.1,0.3c-0.6,0.1-1.3,0.3-1.9,0.4c-1.4,0.2-3.7,0.4-4.8-0.8c0,0-0.1,0-0.1,0.1
		c0.2,1.9,2.2,2.1,3.8,2.1c1.9-0.1,3.6-0.6,5.1-1.8C171.1,73.5,171.1,73.3,171,73.4z"/>
	<path class="st4" d="M168.1,70.1c-0.6,0.1-1.2,0.2-1.8,0.3c-0.6,0.1-1.3,0.3-1.7,0.6c0,0,0,0.1,0,0.1c0.6-0.3,1.4-0.2,2-0.2
		c0.5,0,1,0,1.5,0C168.5,70.8,168.6,70,168.1,70.1z"/>
	<path class="st5" d="M164.6,72.2c-0.4,0-0.7,0-1.1,0.2c-0.1,0.1-0.2,0.2-0.2,0.3c-0.1,0.1,0,0.2,0.1,0.4c0,0,0,0,0,0
		c0.1-0.3,0.2-0.5,0.5-0.6C164.1,72.4,164.3,72.3,164.6,72.2C164.6,72.2,164.6,72.2,164.6,72.2z"/>
	<path class="st4" d="M213.9,90.5c-0.9,0.6-1.7,1.3-2.8,1.7c-0.6,0.2-1.1,0.3-1.8,0.3c-1,0-1.2-0.3-2-0.9c0,0-0.1,0-0.1,0
		c0.8,1.1,1.6,2,3.1,1.7c0.8-0.2,1.6-0.5,2.2-1c0.7-0.5,0.8-1.1,1.3-1.7C214.1,90.5,214,90.4,213.9,90.5z"/>
	<path class="st5" d="M212.3,88.7c-1.2,0.3-2.6,0.7-2.8,2.1c0,0,0.1,0,0.1,0c0.2-0.2,0.3-0.4,0.5-0.6c0.2-0.3,0.5-0.5,0.8-0.7
		C211.4,89.2,211.8,88.9,212.3,88.7C212.4,88.7,212.4,88.6,212.3,88.7z"/>
	<path class="st6" d="M251.8,118.5c0,0,0.7-4.4,4.7-5.6c5.1-1.6,7.7,0.2,7.7,0.2l1,0.5l10.8-7.9c0,0,4-2.5,5.8,0.8
		c1.8,3.3,1,5.4,1,5.4l-1,1.7l-6.8,4.9c0,0,6.5-0.6,6.8-0.5s2,0.2,1.9,2.5c-0.1,2.2-0.7,3.2-1.9,3.4c-1.2,0.2-5.4,0-5.4,0
		s-3.1-0.3-3.6,0s-0.6,1.1-0.6,1.1s1.5,4.2,0,5.7c-1.5,1.5-4.6,2.7-6.5,2.7s-8.8-2.8-10.2-4.5C251.8,124.4,251.8,118.5,251.8,118.5z
		"/>
	<path class="st7" d="M280.9,107.1c-0.8-0.8-1.9-1.1-2.9-0.8c-0.6,0.2-1.9,1-1.6,1.8c0,0,0.1,0,0.1,0c0.1-1,1.9-0.9,2.6-0.9
		c0.4,0,0.7,0,1.1,0.1c0.3,0.1,0.3,0.2,0.6,0.1C280.9,107.3,281,107.2,280.9,107.1z"/>
	<path class="st4" d="M277.7,105.8c-0.7,0.1-1.7,0.7-1.6,1.5c0,0.1,0.1,0.1,0.1,0.1c0.5-0.1,0.9-0.6,1.4-0.8
		c0.9-0.3,1.7-0.2,2.5,0.2c0,0,0.1,0,0-0.1C279.5,105.8,278.9,105.5,277.7,105.8z"/>
	<path class="st4" d="M281.4,110.7c-0.7,0.5-2-0.1-2.7-0.4c-0.7-0.3-1.4-0.6-1.7-1.4c0,0-0.1,0-0.1,0c0.1,0.9,0.6,1.8,1.4,2.2
		c1,0.5,2.4,1,3.4,0.3C282.3,111.1,282,110.3,281.4,110.7z"/>
	<path class="st4" d="M281,113.8c-0.2-0.1-0.3,0-0.5,0c-0.7-0.1-1.4-0.2-2.1-0.3c-1.7-0.4-3.1-0.5-4.6-1.4c0,0,0,0,0,0
		c0.6,1.8,2.2,1.9,3.9,2.2c0.6,0.1,1.2,0.2,1.9,0.1c-1.1,0.7-2.2,1.5-3.3,2.2c-1.2,0.7-2.2,1.6-3.3,2.5c0,0,0,0,0,0
		c1.2-0.6,2.2-1.2,3.3-1.9c0.8-0.5,1.5-1,2.3-1.5c0.6-0.4,1.2-0.9,1.8-1.2c0.1,0,0.2-0.1,0.2-0.2c0.1,0,0.2-0.1,0.3-0.1
		C281.1,114,281.1,113.8,281,113.8z"/>
	<path class="st7" d="M271.7,110.6c-1.4,0.8-2.7,1.7-4.1,2.6c-1.3,0.8-2.6,1.5-3.5,2.7c0,0,0,0,0,0c1.2-0.9,2.7-1.6,4-2.4
		c1.3-0.8,2.5-1.9,3.7-2.8C271.8,110.7,271.8,110.6,271.7,110.6z"/>
	<path class="st4" d="M262,116.5c-1-0.2-1.7-1.4-2.6-1.9c-1-0.5-1.8-0.6-2.8-0.2c-0.9,0.3-1.7,0.9-2.2,1.7c-0.8,1.2-0.5,1.9-0.4,3.1
		c0,0,0,0,0,0c0.2-2.5,1.9-3.5,4-3.9c0.7-0.2,1.5-0.3,2.1,0.2c0.2,0.2,0.3,0.4,0.5,0.6c0.4,0.4,0.9,0.5,1.4,0.6
		C262,116.6,262.1,116.5,262,116.5z"/>
	<path class="st7" d="M260,116.3c-0.9-0.7-1.8-1-3-0.6c-0.9,0.3-1.6,1.1-1.7,2.1c0,0,0.1,0,0.1,0c0.3-1,1.2-1.5,2.1-1.7
		c0.9-0.2,1.6-0.2,2.3,0.4C260,116.6,260.1,116.4,260,116.3z"/>
	<path class="st4" d="M263.1,120.3c-1.3,0.5-2.4,1.3-3.7,1.6c-1.5,0.3-4.2,0.4-5.5-0.6c0,0,0,0,0,0c0.5,2,3.4,2.1,5.1,1.9
		c1.6-0.2,3.6-1.3,4.4-2.8C263.3,120.4,263.2,120.3,263.1,120.3z"/>
	<path class="st4" d="M264.3,114.1c-0.2,0-0.3-0.1-0.5-0.1c-0.2,0-0.4,0-0.6,0c-0.4,0-0.8,0-1.3,0.1c0,0,0,0,0,0
		c0.4,0.1,0.9,0.1,1.3,0.2c0.3,0.1,0.6,0.3,0.9,0.3C264.4,114.6,264.6,114.1,264.3,114.1z"/>
	<path class="st7" d="M261.8,120c-0.5,0.1-0.9,0.5-1.5,0.7c-0.6,0.2-1.3,0.3-2,0.4c-1.3,0.2-2.5,0.3-3.7-0.1c0,0,0,0,0,0
		c1.1,0.7,2.1,0.8,3.4,0.6c1.6-0.2,2.4-0.8,3.8-1.5C261.9,120.1,262,120,261.8,120z"/>
	<path class="st7" d="M269.1,124c-0.3-0.3-0.7,0-1,0.3c-0.2,0.2-0.2,0.4-0.4,0.5c-0.3,0.2-0.6,0.4-0.9,0.6c-0.6,0.4-1.1,0.8-1.4,1.4
		c-0.2,0.3-0.3,0.5-0.4,0.8c-0.1,0.4,0,0.9-0.1,1.2c0,0,0,0,0,0c0.3-0.4,0.4-0.8,0.7-1.2c0.4-0.4,0.9-0.9,1.4-1.1
		c0.5-0.2,0.9-0.4,1.3-0.8c0.2-0.1,0.3-0.2,0.4-0.4c0.1-0.1,0.1-0.4,0.2-0.5C269.2,124.7,269.3,124.3,269.1,124z"/>
	<path class="st7" d="M272.6,128.3c-1.7,3.3-5.3,4.2-8.6,2.4c-1.4-0.7-2.7-1.5-4-2.3c-1.5-0.9-2.3-2.2-3.8-3.1c0,0-0.1,0,0,0
		c0.6,0.9,0.9,2.1,1.6,2.9c0.5,0.7,1.6,1.3,2.4,1.8c1.6,1,3.6,2.5,5.6,2.8c2.8,0.4,7-1.4,7.5-4.4C273.2,128,272.7,128.1,272.6,128.3
		z"/>
	<path class="st4" d="M282.1,122c-1.1-0.5-3-0.4-4.2-0.4c-1.7,0.1-3.5,0.3-5.2,0.6c0,0-0.1,0.1,0,0.1c1.4,0.2,2.6,0.5,4,0.5
		c0.7,0,1.4,0,2.1-0.1c1-0.1,2-0.7,3-0.3C282,122.4,282.3,122.1,282.1,122z"/>
	<path class="st7" d="M281.3,121.8c-0.5,0-1,0.2-1.5,0.4c-0.5,0.2-1,0.4-1.4,0.6c0,0,0,0,0,0c0.6-0.2,1.3-0.3,1.9-0.4
		c0.2,0,0.5,0,0.7,0c0.5,0,0.7,0.1,0.7,0.6c0,0.2,0.3,0.1,0.3,0C282.9,122.5,282.2,121.8,281.3,121.8z"/>
	<path class="st3" d="M268.7,148.3c-3.1,0.3-6,1.5-9,1.9c0,0,0,0,0,0c1.5,0,3-0.2,4.5-0.4c0.8-0.1,1.6-0.1,2.4-0.3
		c0.8-0.2,1.4-0.7,2.2-1C268.8,148.5,268.9,148.3,268.7,148.3z"/>
	<path class="st3" d="M302.5,132.4c0,0-9.3,70.8-7.5,94.5"/>
	<g>
		<path class="st3" d="M288,265.1c1-1.1,1.9-2.1,2.6-3.2c0.7-1,1.2-2.1,1.7-3.2c0.8-2.2,1.3-4.4,1.6-6.8c0.3-2.4,0.5-4.9,0.7-7.6
			c0.2-1.3,0.2-2.7,0.4-4c0.2-1.4,0.3-2.8,0.7-4.2c1.7,2.4,2.9,5.1,3.5,7.9c0.7,2.8,0.9,5.8,0.5,8.8c-0.4,3-1.5,6.1-3.6,8.6
			c-1.1,1.2-2.3,2.3-3.8,2.9C291,264.8,289.5,265.2,288,265.1z"/>
	</g>
</g>
<g id="LINE">
	<path class="st6" d="M215.3,86.8c-0.7,0-1.4,0.6-2.1,0.8c-0.8,0.3-1.6,0.5-2.4,0.9c-0.2,0.1-0.3,0.2-0.4,0.3
		c-0.3,0.1-0.7,0.3-0.9,0.8c-0.1,0.1-0.1,0.2-0.1,0.4c-0.1,0.1-0.1,0.2-0.1,0.3c-0.1,0-0.2,0-0.3,0.1c-0.3,0.2-0.5,0.5-0.4,0.8
		c0.1,0.4,0.4,0.6,0.6,0.6c0.8,0.4,1.9,0,2.5-0.5c0.7-0.6,1.1-1.2,1.8-1.7c0.4-0.3,0.9-0.6,1.4-0.9c0.2-0.1,0.3-0.3,0.3-0.4
		c0.2-0.1,0.3-0.2,0.5-0.3C216.1,87.5,215.9,86.8,215.3,86.8z"/>
	<path class="st6" d="M170.8,71.2c0,0,0-0.1,0-0.1c-0.6-0.9-2.4-0.2-3.3,0c-1.2,0.3-2.7,0.4-3.9,0.9c0,0-0.1,0-0.1,0.1
		c0,0-0.1,0-0.1-0.1c-0.5-0.3-1.2,0.4-1.1,0.9c0.3,1.5,3,1.6,4.1,1.3c0.7-0.2,1.4-0.4,2.1-0.7c1.1-0.3,2.1-0.7,2.7-1.5
		C171.5,71.6,171.2,71.1,170.8,71.2z"/>
	<g>
		<path d="M62.5,152.3c-1.4-6-2.6-12-3.9-18c-0.9-6.2-1.1-12.5,0-18.8c0.6-3.1,1.5-6.4,3.8-9.2l0.4-0.5l0.4-0.4l0.8-0.8l1.5-1.7
			c1-1.1,2.1-2.3,3.2-3.4c2.3-2.2,4.8-4.3,7.6-5.9c2.8-1.6,5.7-2.9,8.8-3.9c3-1,6.2-1.6,9.1-2.3c3-0.7,5.9-1.4,8.9-2.2
			c5.9-1.5,11.8-3.2,17.6-5c5.9-1.8,11.7-3.6,17.5-5.5c5.9-1.9,11.7-3.7,17.6-5.4c-5.6,2.5-11.3,4.9-16.9,7.3
			c-5.7,2.3-11.4,4.6-17.2,6.6c-5.8,2.1-11.7,3.9-17.6,5.6c-3,0.9-6,1.6-9,2.3c-3.1,0.7-5.9,1.3-8.7,2.3c-2.8,0.9-5.5,2-8,3.5
			c-2.5,1.4-4.8,3.2-7,5.2c-1.1,1-2.1,2.1-3.2,3.2l-1.6,1.7l-0.8,0.8l-0.4,0.4l-0.3,0.4c-1.7,1.9-2.7,4.7-3.4,7.5
			c-0.7,2.9-1,5.8-1.2,8.9c-0.2,3-0.2,6.1,0.1,9C61.3,140.1,62,146.2,62.5,152.3z"/>
	</g>
	<path d="M202.4,217.2c-2.5-0.1-5.2,0.8-7.7,1.2c-3.4,0.6-6.6,0.8-10,1c-3.2,0.2-6.5,0.3-9.7-0.1c-1.5-0.2-2.9-0.4-4.4-0.7
		c-1.9-0.4-4.4-0.6-5.9-1.7c-0.2-0.1-0.5,0.2-0.3,0.3c1.1,1,2.5,1.3,3.8,1.8c1.5,0.5,3,1,4.5,1.3c3.3,0.7,6.9,1,10.2,1
		c3.3-0.1,6.5-0.1,9.7-0.7c1.6-0.3,3.2-0.6,4.9-0.9c1.7-0.3,3-1.2,4.6-1.6C202.5,218.1,203.1,217.2,202.4,217.2z"/>
	<path d="M84.2,275.9c-2.1-1.7-4.9-2.5-7.4-3.8c-2.3-1.2-4.5-2.5-6.6-4c-2.4-1.7-4.2-3.9-6.5-5.8c-1.1-0.9-2.3-2.3-3-3.5
		c-0.6-1.1-1.5-3.4-1.2-4.7c0-0.3-0.4-0.2-0.4,0c-0.7,2,0.2,5.2,1.5,6.7c1,1.2,2.1,2.1,3.3,3.1c1.4,1.1,2.5,2.6,3.8,3.8
		c2.1,1.8,4.6,3.2,7,4.5C77.7,273.9,84.3,276.1,84.2,275.9z"/>
	<path d="M200.4,321.1c-4.2,1.2-8.3,2.4-12.7,1.9c-4.2-0.4-8.6-1.6-12.4-3.3c-1.7-0.7-3.4-1.4-5-2.2c-1.6-0.8-3.1-1.9-4.7-2.8
		c-3.5-2-7-3.7-10.8-5.2c-3.5-1.3-6.8-2.8-10.1-4.4c-1.6-0.8-3.1-1.7-4.7-2.3c-1.9-0.7-3.8-1.3-5.7-2.1c-3.4-1.4-6.5-3-9.6-4.9
		c-1.3-0.8-2.5-1.7-3.7-2.5c-1.5-0.9-3.1-1.6-4.6-2.4c-3.5-2-7.6-2.8-11.2-4.6c-3.9-2-7.8-3.8-11.6-5.8c-0.2-0.1-0.5,0.3-0.2,0.4
		c3.5,1.8,7.1,3.5,10.6,5.4c3.3,1.8,6.9,2.8,10.4,4.3c3.3,1.4,6,3.6,8.9,5.6c3,2.1,6.3,3.6,9.6,5c1.7,0.7,3.4,1.4,5.2,1.9
		c2,0.6,3.7,1.6,5.5,2.5c3.5,1.7,6.8,3.2,10.4,4.5c3.8,1.4,7.3,3,10.9,5c1.6,0.9,3.1,2,4.7,2.8c1.8,0.8,3.5,1.5,5.3,2.3
		c4.1,1.8,8.9,3,13.4,3.2c4.3,0.2,8.2-1,12.3-2.1C200.8,321.5,200.8,321,200.4,321.1z"/>
	<path d="M186.9,303.6c-2.1-0.3-4.1-0.8-6.2-1c-2.1-0.3-4.3-0.2-6.5-0.6c-4.2-0.8-9.3-1.8-12-5.3c-0.1-0.2-0.4,0.1-0.3,0.3
		c2.2,3.8,6.3,5.2,10.4,6.2c4.7,1.1,9.7,1.1,14.6,1C187,304.1,187.2,303.7,186.9,303.6z"/>
	<path d="M223.5,295.9c-2.1,0.5-3.8,2.4-5.8,3.2c-2.5,1-5.2,1.7-7.8,2.3c-5.6,1.3-11.2,1.6-16.9,1.8c-0.2,0-0.4,0.4-0.1,0.4
		c2.6,0.1,5.2,0.3,7.9,0.3c3.1-0.1,6.3-0.7,9.3-1.4c2.5-0.6,4.8-1.3,7.2-2.1c2.4-0.8,4-2.7,6.2-3.8
		C223.8,296.5,224.1,295.8,223.5,295.9z"/>
	<path d="M227.4,289.6c-4.3-0.3-9.1-0.3-13.3,0.8c-4.8,1.2-9.7,2.6-14.5,3.6c-0.2,0-0.3,0.4-0.1,0.4c4.7-0.7,9.4-1.7,14-2.8
		c2.3-0.6,4.6-1.1,7-1.1c2.3,0,4.5,0.2,6.8-0.3C227.5,290.2,227.8,289.7,227.4,289.6z"/>
	<path d="M212.2,246.5c-4.8,0.4-9.7,1.7-14.5,2.5c-4.3,0.7-8.6,1.5-13,1.5c-4.3,0-8.6-0.1-12.9-0.4c-2.6-0.2-5.2-0.6-7.7-0.9
		c-2.6-0.3-5.2-0.5-7.7-1.2c-0.2-0.1-0.4,0.3-0.2,0.4c2.4,0.7,4.9,0.9,7.3,1.2c2.7,0.4,5.4,0.8,8.1,1.1c4.5,0.5,8.9,0.6,13.4,0.6
		c4,0,7.9-0.7,11.8-1.3c2.6-0.4,5.2-0.8,7.8-1.3c2.5-0.5,5-1.2,7.5-1.5C212.4,247,212.5,246.5,212.2,246.5z"/>
	<path d="M228.3,256.2c-3.8,0-7.3,0.3-11.1-0.3c-3.2-0.5-6.1-2-9.4-2.5c-6.4-1-12.8-1.4-19.3-0.7c-0.2,0-0.3,0.4-0.1,0.4
		c6.7-0.4,13.6,0.4,20.1,1.9c1.8,0.4,3.3,1.3,5,1.9c1.3,0.4,2.6,0.6,3.9,0.8c3.6,0.6,7.1-0.1,10.6-0.7
		C228.6,257,228.9,256.2,228.3,256.2z"/>
	<path d="M260.3,284.2c-2.6,1.4-5,3.1-7.6,4.4c-2.2,1.1-4.4,2.1-6.4,3.5c-2.2,1.5-3.9,3.2-5.8,5.1c-1.8,1.8-3.7,3.5-5.6,5.1
		c-1.9,1.6-4.1,2.8-6,4.3c-2.1,1.7-4.5,2.7-6.8,4c-2.6,1.5-5,2.8-7.8,4c-2.6,1.1-5.2,2.1-7.9,3c-0.2,0.1-0.2,0.4,0,0.4
		c5-1.5,10.1-3.2,14.7-5.8c2.2-1.3,4.7-2.2,6.9-3.6c2.1-1.3,4.2-2.8,6.1-4.3c1.9-1.6,4.1-3.2,5.8-4.9c2.1-2.2,4-4.2,6.5-6
		c2.1-1.6,4.5-2.9,6.8-4.2c2.5-1.4,4.8-3.1,7.3-4.5C260.8,284.4,260.6,284,260.3,284.2z"/>
	<path d="M297.7,259.2c-1,1.7-2,3.1-3.6,4.2c-1.3,0.9-2.7,1.7-4,2.7c-2.3,1.7-4.8,2.7-7.3,4c-2.7,1.5-5.2,3.4-7.9,4.9
		c-2.6,1.4-5,2.9-7.4,4.7c-0.2,0.1-0.1,0.5,0.1,0.3c2.6-1.8,5.4-3.2,8.2-4.7c3.3-1.8,6.2-4,9.6-5.5c2.7-1.2,4.9-2.8,7.4-4.5
		c2.6-1.8,4.2-3,5.6-5.9C298.3,259,297.8,259,297.7,259.2z"/>
	<path d="M301,248.3c-0.1-1.2-0.2-2.4-0.5-3.6c-0.3-1.1-1-2.1-1.4-3.2c-0.1-0.3-0.6,0-0.5,0.3c0.2,1,0.6,1.7,0.9,2.6
		c0.4,1.1,0.6,2.4,0.7,3.5c0.2,1.8,0.1,4.2-0.5,5.9c-0.1,0.3,0.3,0.3,0.4,0.1C300.9,252.3,301.2,250.2,301,248.3z"/>
	<path d="M211.4,189.3c-2.5,0.3-5.1,1.9-7.5,2.8c-3.1,1.1-6.6,1.6-9.9,2.1c-3.6,0.5-7.2,1.4-10.8,1.8c-1.7,0.2-3.3,0.6-5,0.8
		c-1.8,0.2-3.6,0.1-5.5,0.1c-0.2,0-0.3,0.4-0.1,0.4c1.7,0.1,3.4,0.4,5.1,0.4c1.6,0,3.3-0.3,4.9-0.4c3.7-0.3,7.4-1.1,11.2-1.6
		c3.1-0.4,6.3-1,9.3-1.9c3-0.9,5.5-2.6,8.3-3.8C211.6,189.9,211.9,189.3,211.4,189.3z"/>
	<path d="M74,263.5c-1.1-1.2-2.1-2.3-3-3.6c-0.8-1.3-1.1-2.8-2-4c-1.9-2.7-4.8-4.7-7-7.2c-0.2-0.2-0.5,0.2-0.4,0.4
		c1.1,1.5,2.3,2.9,3.4,4.3c1.1,1.4,2.6,2.6,3.4,4.2c0.6,1.3,0.9,2.6,1.8,3.8c0.9,1.3,1.9,1.9,3.3,2.7
		C73.9,264.1,74.2,263.7,74,263.5z"/>
	<path d="M127.3,272.3c-1.3-1.9-2.6-3.7-3.6-5.8c-0.9-1.7-1.5-3.3-2.6-4.9c-1.2-1.6-2.4-3.5-4-4.7c-1.2-1-2.7-1.7-4.1-2.3
		c-0.3-0.1-0.6,0.3-0.3,0.5c1.6,0.8,3.3,1.7,4.4,3.1c1.4,1.6,2.6,3.5,3.7,5.3c1,1.6,1.7,3.3,2.6,5c1,1.8,2,2.9,3.5,4.3
		C127.1,272.9,127.5,272.6,127.3,272.3z"/>
	<path d="M90,279.2c-0.3-0.6-0.7-1-1.1-1.5c-1-1.3-1.6-2.5-2-4.1c-0.9-2.9-1.8-5.7-3.5-8.3c-0.1-0.2-0.5,0-0.4,0.2
		c1.6,2.9,2.1,6.3,3.1,9.4c0.3,1,0.8,2,1.5,2.8c0.6,0.7,1.4,1.1,2,1.7C89.8,279.8,90.1,279.4,90,279.2z"/>
	<path d="M76.5,239.1c-1.8-2.4-3.9-4.9-5.1-7.7c-0.6-1.3-1-2.8-1.6-4.1c-0.6-1.3-1-2.8-1.7-4c-0.1-0.2-0.5,0-0.4,0.2
		c0.6,1.3,0.7,2.9,1.2,4.3c0.6,1.6,1,3.2,1.6,4.8c0.6,1.5,1.6,2.5,2.5,3.8c0.9,1.2,1.6,2.2,2.9,3.1
		C76.3,239.8,76.7,239.4,76.5,239.1z"/>
	<path d="M101.8,221c-4.9-5-7.1-11.5-10.3-17.5c-1.2-2.3-2.5-5-4.4-6.9c-2.1-2-4.1-4.1-5.5-6.6c-3.4-5.9-4.3-12.9-5.5-19.6
		c-0.3-1.6-0.7-3.2-0.9-4.8c-0.2-1.6-0.3-3.2-0.7-4.8c-0.6-2.6-2.2-4.7-3.2-7.1c-0.1-0.2-0.4,0-0.4,0.2c1,2.9,2.7,5.3,3.1,8.4
		c0.4,3.4,0.9,6.8,1.3,10.3c0.7,6.5,1.7,13.4,4.9,19.1c1.4,2.4,3.4,4.5,5.4,6.3c2.1,2,3.6,5,4.9,7.6c1.5,3,3.1,5.9,4.8,8.8
		c1.6,2.7,3.4,5.4,6,7.2C101.6,221.9,102.1,221.3,101.8,221z"/>
	<path d="M224.1,75.9c-4.1-2.4-9.2-3.5-13.7-5.1c-2.2-0.8-4.5-1.5-6.8-2.1c-2.2-0.6-4.2-1.6-6.4-2.2c-4.5-1.3-9-2.4-13.2-4.3
		c-3.4-1.5-7.2-2-10.4,0.2c-0.3,0.2-0.1,0.5,0.2,0.4c1.9-1,4.6-1.5,6.6-1c2.1,0.6,4,1.8,6,2.4c3.8,1.2,7.9,2.1,11.5,3.7
		c4.2,1.8,8.5,3.1,12.8,4.6c2.2,0.8,4.6,1.4,6.8,2.1c2,0.6,4.5,0.8,6.4,1.8C224.1,76.3,224.4,76,224.1,75.9z"/>
	<path d="M302.9,113.6c-1.9-2.9-2.8-6.5-4.3-9.6c-1.4-2.9-4.2-5.4-7-6.8c-5.7-3-12-4.9-18.1-6.8c-2.9-0.9-5.6-2.1-8.5-2.8
		C262,86.8,259,86,256,85c-3.2-1.1-6.6-1.9-9.8-2.9c-1.4-0.4-2.8-1-4.2-1.3c-2-0.5-4.1-0.7-6.1-1.5c-0.2-0.1-0.5,0.3-0.3,0.4
		c1.4,0.7,2.9,1.1,4.5,1.5c1.8,0.5,3.4,1.2,5.1,1.8c2.9,1.1,5.9,1.8,8.8,2.6c2.9,0.8,5.8,1.7,8.7,2.4c1.8,0.5,3.7,0.9,5.5,1.5
		c1.3,0.4,2.5,1,3.7,1.5c2.7,0.9,5.4,1.9,8.2,2.8c3.3,1.1,6.6,1.5,9.6,3.3c3.6,2.1,6.7,4.3,8.4,8.2c1.3,3,2.2,6.3,4.2,8.9
		C302.5,114.3,303.1,113.8,302.9,113.6z"/>
	<g>
		<path d="M298.6,239.2c0.2-5.3-0.1-10.6-0.9-15.8l-0.1-1l-0.1-1l-0.1-1l0-1c-0.1-1.4-0.1-2.7-0.1-4.1c0-2.7,0.2-5.4,0.3-8
			c0.3-5.3,0.8-10.6,1.3-15.9c0.5-5.3,1.1-10.6,1.5-15.8c0.3-2.6,0.5-5.3,0.6-7.8l0.1-4c0-1.4,0.1-2.7,0.2-4
			c0.4-5.4,1-10.7,1.8-15.9c0.4-2.6,0.7-5.3,1.2-7.9c0.4-2.6,0.8-5.2,1.2-7.9c0.4-2.6,0.6-5.2,0.5-7.8c-0.1-2.6-0.6-5.2-1.7-7.6
			c1.4,2.2,2.4,4.8,2.8,7.5c0.4,2.7,0.4,5.4,0.3,8.1c-0.3,5.4-0.8,10.6-1.2,15.9c-0.4,5.3-0.9,10.6-1.1,15.8l-0.1,3.9l-0.1,4
			c-0.1,2.8-0.3,5.4-0.5,8.1c-0.5,5.3-1.1,10.6-1.8,15.9l-1.9,15.8c-0.3,2.6-0.6,5.3-0.8,7.9c-0.1,1.3-0.2,2.6-0.3,3.9l0,1l0,0.9
			l0,1l0.1,1C299.9,228.6,299.6,234,298.6,239.2z"/>
	</g>
	<path d="M268.1,133.3c-2.3-0.1-4.3-0.6-6.4-1.4c-1.7-0.7-3.2-2.1-4.8-3.1c-1.8-1.2-3.1-2.8-3.7-4.9c-0.6-2-1.1-4.9-0.6-6.9
		c0.1-0.3-0.3-0.2-0.4,0c-0.7,2.2-0.4,5.1,0.2,7.2c0.5,1.7,1.6,3.6,3.1,4.7c1.7,1.2,3.5,2.8,5.4,3.6c2.4,1,4.4,1.4,7.1,1.3
		C268.1,133.7,268.3,133.3,268.1,133.3z"/>
	<g>
		<path d="M253.6,114.7c0.5-0.9,1.2-1.6,2.1-2.3c0.9-0.6,1.9-1,3-1.2c1-0.2,2.2-0.5,3.2-0.1c1,0.4,1.9,1.1,2.5,2.2l-0.1,0.3
			c-0.6,0.2-1.1,0.3-1.6,0.4c-0.5,0.1-0.9,0.1-1.4,0.1c-0.4,0-0.8-0.1-1.2-0.2c-0.4-0.1-0.8-0.2-1.2-0.3c-0.8-0.1-1.7,0-2.5,0.2
			c-0.9,0.2-1.7,0.5-2.5,1.1L253.6,114.7z"/>
	</g>
	<path d="M261.9,120.8c-1.2,0.8-2.1,1.4-3.5,1.5c-1,0.1-2.9,0.9-3.8,0.1c0,0,0,0,0,0c1,0.8,2.6,0.2,3.8,0.1c1.7-0.1,2.5-0.5,3.7-1.6
		C262.2,120.8,262.1,120.7,261.9,120.8z"/>
	<path d="M279.6,104.5c-1.6-0.1-3,0.1-4.4,1c-0.7,0.5-1.2,1.2-1.9,1.7c-0.7,0.6-1.6,1-2.3,1.6c-1.5,1.2-2.9,2.4-4.3,3.7
		c-0.7,0.6-1.4,1.4-2.2,2c-0.7,0.5-1.4,0.9-2.1,1.5c-0.1,0.1,0,0.1,0.1,0.1c1.2-1,2.6-1.7,3.9-2.7c1.3-1,2.5-2.1,3.9-3
		c1.2-0.9,2.6-1.7,3.7-2.6c1.8-1.5,2.9-2.9,5.4-3C279.7,104.7,279.8,104.5,279.6,104.5z"/>
	<path d="M281.5,111.2c-1.5,0.5-2.6,0.4-3.9-0.5c-0.7-0.6-1.8-1.7-2-2.6c0,0-0.1,0-0.1,0c0.1,2.6,3.9,5.4,6.1,3.5
		C281.9,111.4,281.8,111.2,281.5,111.2z"/>
	<path d="M281.9,113.1c-1.8,0.8-4.9,0-6.4-1.2c0,0-0.1,0-0.1,0c0.9,1.1,2,1.6,3.5,1.8c0.9,0.1,2.2,0.1,3-0.4
		C282.1,113.3,282.1,113,281.9,113.1z"/>
	<path d="M283.2,108.8c-0.6-1.2-1.2-2.2-2.2-3.1c0,0,0,0,0,0c0.3,0.3,0.6,0.8,0.8,1.2c0.3,0.5,0.4,0.9,0.6,1.5
		c0.2,0.5,0.5,0.9,0.6,1.5c0.1,0.8,0,1.3-0.3,2c-0.1,0.4,0.4,0.4,0.5,0.1C283.6,110.9,283.8,109.9,283.2,108.8z"/>
	<path d="M269.7,122.7c0.1-0.4-0.2-0.7-0.6-0.4c-0.7,0.5-1,1.3-1.7,1.8c-0.6,0.4-1.1,0.7-1.6,1.2c-0.7,0.6-1.6,1.5-1.5,2.5
		c0,0.3,0.5,0.1,0.5-0.1c0.1-1.1,1.6-2.3,2.5-2.8c0.6-0.3,1-0.8,1.5-1.2c0.1,0.8,0.4,1.5,0,2.3c-0.1,0.3-0.3,0.5-0.4,0.8
		c-0.1,0.4-0.3,1.3-0.6,1.7c0,0,0,0,0,0c0.6-0.6,0.9-1.6,1.4-2.3c0.3-0.4,0.4-0.6,0.5-1.1C269.9,124.3,269.5,123.3,269.7,122.7z"/>
	<path d="M279.4,121.4c-2.2,0.1-4.6,0-6.9-0.1c0,0-0.1,0.1,0,0.1c1.6,0.3,3.3,0.6,4.9,0.7c0.9,0,4.2-0.7,4.6,0.3
		c0,0.1,0.2,0,0.2-0.1C282.1,121.1,280.1,121.4,279.4,121.4z"/>
	<path d="M281.8,113.3c-0.9,1-1.7,1.6-2.8,2.3c-0.6,0.4-1.2,0.8-1.8,1.2c-1.3,1-2.6,2.1-3.9,3.1c0,0,0,0.1,0,0c1.5-1,3-1.9,4.4-2.9
		c0.8-0.6,1.7-0.9,2.5-1.4c0.8-0.5,1.4-1.2,2-1.9C282.6,113.3,282.1,112.9,281.8,113.3z"/>
	<path d="M284.3,118.7c-0.4-0.7-1.5-0.6-2.1-0.6c-0.7,0-1.3-0.1-2,0c-0.8,0.1-1.6,0.4-2.5,0.3c0,0-0.1,0,0,0.1c1.6,0.5,3.4,0,5,0.2
		c1.3,0.2,1,0.9,1,1.9c0,0.7,0.4,1.5-0.1,2.2c-0.2,0.3,0.2,0.4,0.4,0.2c0.6-0.7,0.4-1.1,0.3-2C284.3,120.3,284.6,119.2,284.3,118.7z
		"/>
	<path d="M272.1,124.7C272,124.7,272,124.7,272.1,124.7c0.7,1.3-0.2,4-1,5c-0.4,0.5-0.7,1.3-1.2,1.7c-0.7,0.6-2.3,1.1-3.2,0.8
		c-0.2-0.1-0.4,0.2-0.2,0.3c0.8,0.4,2.1,0.2,2.8-0.2c1.1-0.4,1.4-0.6,1.9-1.6c0.3-0.7,0.8-1.1,1.1-1.8c0.3-0.6,0.3-1.4,0.3-2
		C272.7,126,272.9,125.4,272.1,124.7z"/>
	<path d="M280.5,123.9c-1.8,0.3-3.3-0.7-5.1-0.6c-1,0.1-2.4,0.2-3.2,0.9c0,0-0.1,0.1,0,0.1c0,0,0.1,0,0.1,0c0,0,0,0,0.1,0
		c0-0.1,2-0.3,2.2-0.4c0.9-0.1,1.6-0.2,2.6,0.1c1.3,0.4,2.2,0.5,3.5,0C280.6,124.1,280.7,123.9,280.5,123.9z"/>
	<path d="M276.5,125.3C276.5,125.3,276.4,125.4,276.5,125.3c0.9,2.9,0.5,5.7-0.1,8.6c-0.7,3.4-2.5,6-5.8,7.4c0,0,0,0.1,0,0.1
		c1.8-0.7,3.4-1.3,4.6-2.8c1-1.3,1.5-2.8,1.9-4.4C277.7,131.2,278.3,128,276.5,125.3z"/>
	<path d="M248.2,107c-1.2-0.3-2.3,1.4-3,2.1c-0.6,0.5-1.1,1.1-1.6,1.6c-0.5,0.5-1.3,0.8-1.7,1.4c-0.1,0.1,0.1,0.2,0.2,0.1
		c0.5-0.4,1.3-0.7,1.8-1.1c0.6-0.5,1.1-1,1.7-1.4c0.4-0.3,0.7-0.6,1.1-1c0.5-0.5,1.1-0.7,1.6-1.2C248.4,107.3,248.4,107.1,248.2,107
		z"/>
	<path d="M245.5,113.5c-1.5-0.6-3.6,1.1-4.7,1.9c-0.9,0.7-4.3,2.8-3.7,4.3c0,0,0,0,0.1,0c0.1,0,0.2,0,0.2,0c0,0,0.1-0.1,0-0.1
		c-0.6-0.4,3.8-3.5,4.4-3.8c1.2-0.6,2.3-1.5,3.6-1.9C245.5,114,245.7,113.6,245.5,113.5z"/>
	<path d="M245.4,123.3c-0.3,1-2.4,1.7-3.2,2.3c-1.2,0.9-3.8,3.7-5.2,2.2c0,0-0.1,0-0.1,0.1c1,1.8,3.7-0.1,4.8-0.9c1-0.7,2-1.3,3-2
		c0.7-0.5,1.3-0.9,1.3-1.7C246.1,122.6,245.5,122.9,245.4,123.3z"/>
	<path d="M249.6,132.5c0-0.2-0.3-0.1-0.3,0c-0.4,1.3-1.6,1.7-2.5,2.5c-1,0.8-2.8,3-4.1,2.2c0,0,0,0,0,0c1.3,1.3,2.8-0.6,3.8-1.3
		C247.5,135,250,134.3,249.6,132.5z"/>
	<path d="M257.8,138.7c-0.3-0.1-0.8,0.4-0.4,0.6c1.4,0.7-1.1,2.1-1.7,2.5c-0.5,0.3-1.1,0.8-1.5,1.2c-0.1,0.2-0.3,0.3-0.4,0.5
		c-0.3,0.3-0.5,0.7-0.8,1c-0.7-0.1-1.3-0.1-2-0.2c-0.2-0.1-0.8-0.8-1-1.1c0,0,0,0,0,0c0.2,0.5,0.6,1.1,0.9,1.5
		c0.2,0.3,0.4,0.6,0.8,0.7c1.2,0.3,2.1-1.1,2.8-1.8c1.1-1,3-1.5,3.7-2.9C258.5,140.1,258.6,139.1,257.8,138.7z"/>
	<path d="M266.8,142.1c0-0.2-0.3-0.1-0.3,0c-0.6,1.1-2.2,1.6-3.1,2.5c-0.5,0.5-1,1-1.5,1.5c-0.4,0.4-1.4,2.2-2.3,1.3
		c0,0-0.1,0-0.1,0c1,1.6,2.7-1,3.4-1.7c0.9-0.8,1.7-1.6,2.7-2.2C266,143.2,266.9,142.8,266.8,142.1z"/>
	<path d="M254.5,136c-0.8-0.7-1.7-1.2-2.6-1.8c-1-0.7-1.7-1.6-2.5-2.5c-1.4-1.6-2.7-3.2-3.3-5.3c0,0,0,0,0,0
		c0.3,1.1,0.7,2.2,1.1,3.2c0.4,1,1,1.4,1.7,2.2c0.8,0.9,1.3,1.7,2.4,2.4C252.3,134.9,253.4,135.4,254.5,136
		C254.5,136.1,254.5,136,254.5,136z"/>
	<path d="M248.3,109.3c-1.6,1-2.1,3.6-2.5,5.3c-0.3,1.2-0.1,2.5-0.4,3.7c-0.2,1-0.5,1.5-0.4,2.5c0,0,0.1,0,0.1,0
		c0.1-1.1,0.5-1.7,0.8-2.7c0.3-1,0.2-2.2,0.4-3.2C246.6,113.3,247.2,110.5,248.3,109.3C248.4,109.3,248.4,109.3,248.3,109.3z"/>
	<path d="M266.9,135.6c-2.9,0.3-6-0.7-8.5-2c-1.1-0.6-2.2-1.2-3.1-2c-0.9-0.8-1.4-1.9-2.2-2.7c0,0-0.1,0-0.1,0.1
		c0.9,1.1,1.2,2.4,2.3,3.4c0.9,0.8,2.1,1.4,3.2,2c2.6,1.3,5.5,1.9,8.4,1.4C266.9,135.8,267,135.6,266.9,135.6z"/>
	<path d="M253.2,111.9c-2.9,1.2-3.3,4.7-3.1,7.3c0,0,0,0,0,0c0.2-1.4,0.6-3.2,1.3-4.4c0.6-1,1.3-1.8,1.9-2.7
		C253.4,112,253.4,111.8,253.2,111.9z"/>
	<path d="M264.3,108.5c-1.1-0.6-2.3-0.9-3.4-1.4c-0.9-0.4-1.8-0.7-2.8-0.9c-1-0.2-1.1-0.4-1.9-0.9c-0.3-0.2-0.5-0.4-0.9-0.5
		c-1.6-0.2-3.3,1.6-4.8,2.1c0,0,0,0.1,0,0.1c1.3-0.2,2.3-1.1,3.5-1.4c1.6-0.4,1.4,0.8,2.6,1c0.9,0.2,1.8,0,2.6,0.2
		c1.2,0.3,2.2,1,3.2,1.6c1.2,0.6,3.8,1.7,4.2,3.2c0.1,0.3,0.5,0,0.5-0.2C267,110.2,265.4,109.1,264.3,108.5z"/>
	<path d="M273.3,141.4c-0.6,0.2-1,0.6-1.6,0.9c-0.6,0.3-1.1,0.7-1.7,1.1c-0.8,0.6-1.5,1.4-2.4,1.8c-0.8,0.3-1.6,0.4-2.4,0.6
		c-0.1,0-0.1,0.1,0,0.1c1.8-0.2,2.6,0,4.2-1.1c1.4-1,2.8-1.8,4.1-3C273.7,141.6,273.6,141.3,273.3,141.4z"/>
	<path d="M239.1,130.6C239.1,130.6,239,130.6,239.1,130.6c0.6,1,1.1,1.9,1.5,3c0.3,0.7,0.5,1.8,1.3,2.1c0.1,0.1,0.3-0.1,0.2-0.2
		C241.5,133.7,240.3,132,239.1,130.6z"/>
	<path d="M249.1,142.4c-0.3-0.3-0.7-0.5-1-0.8c-0.3-0.3-0.6-0.5-0.9-0.8c-0.7-0.5-1.3-1.1-2-1.7c0,0,0,0,0,0
		c0.5,0.8,0.9,1.7,1.5,2.4c0.5,0.6,1.3,1.4,2.1,1.4C249,143,249.3,142.6,249.1,142.4z"/>
	<path d="M258.6,146.8c-0.2-0.1-0.4-0.1-0.6-0.1c-0.5,0-0.9,0-1.4-0.1c-0.7-0.2-1.5-0.4-2.1-0.7c0,0-0.1,0,0,0.1
		c1.1,0.9,2.5,1.2,3.9,1.3C258.5,147.1,258.7,146.9,258.6,146.8z"/>
	<path d="M265.5,141.2c-0.4-0.1-0.8-0.1-1.3-0.2c-0.4-0.1-0.8-0.3-1.2-0.3c-0.8-0.2-1.8-0.2-2.5-0.5c0,0,0,0,0,0
		c0.5,0.4,1.3,0.7,2,0.9c1,0.3,1.9,0.7,2.9,0.5C265.6,141.6,265.8,141.3,265.5,141.2z"/>
	<path d="M238.2,123.9c0-1.1-0.3-2.2-0.7-3.3c-0.1-0.1-0.3,0-0.3,0.1c0,1.2,0.2,2.4,0.4,3.6c0.1,0.9,0,2,0.4,2.8c0,0,0,0,0,0
		c-0.1-0.6,0.2-1.2,0.2-1.8C238.2,124.8,238.2,124.4,238.2,123.9z"/>
	<path d="M241.1,113.3C241.1,113.2,241.1,113.2,241.1,113.3c-0.1-0.1-0.2-0.1-0.3,0c-0.2,0.2-0.3,0.4-0.4,0.7
		c-0.2,0.2-0.4,0.4-0.5,0.7c-0.1,0.2-0.2,0.5-0.3,0.7c-0.1,0.2-0.3,0.4-0.3,0.6c0,0,0,0,0.1,0c0.1-0.3,0.4-0.5,0.6-0.7
		c0.2-0.2,0.2-0.3,0.4-0.6c0.3-0.4,0.7-0.7,0.8-1.2C241.2,113.4,241.2,113.3,241.1,113.3z"/>
	<path d="M258.1,114.1C258.1,114.1,258.1,114,258.1,114.1c-0.1-0.1-0.2-0.2-0.2-0.2c-0.6,0.1-1.3,0.5-1.7,1
		c-0.3,0.3-0.5,0.7-0.6,1.1c-0.1,0.3-0.3,0.6-0.3,0.9c0,0,0,0,0.1,0c0.1-0.2,0.3-0.5,0.5-0.7c0.2-0.4,0.5-0.8,0.8-1.1
		c0.2-0.2,0.5-0.3,0.8-0.4c0.2-0.1,0.5-0.2,0.6-0.3C258.1,114.3,258.1,114.2,258.1,114.1z"/>
	<path d="M215.7,86.5c-1-0.9-2.5,0.6-3.4,1.2c-0.9,0.5-2.1,0.7-2.9,1.3c-0.6,0.4-1.2,1.7-1.3,2.3c0,0.1,0.1,0.3,0.1,0.5
		c0.2,0.5,0.6,0.6,1.1,0.7c0.7,0.2,1.4,0,2-0.4l0.2-0.1c0.3-0.2,0.5-0.4,0.7-0.6c0.4-0.4,0.7-0.8,1.1-1.1c0.5-0.4,1.2-0.6,1.7-0.9
		c0.6-0.3,1.1-0.9,1.1-1.6C216.2,87.2,216,86.6,215.7,86.5z M214.4,88.7c-0.5,0.2-1,0.4-1.4,0.8c-0.4,0.4-0.7,0.8-1.1,1.2
		c-0.4,0.4-0.9,0.6-1.4,0.9c-0.2,0.1-0.4,0.2-0.5,0.2c-0.2,0-0.3-0.1-0.5-0.2c-0.2-0.1-0.5-0.3-0.7-0.5c0,0,0-0.1,0-0.1
		c0.3-0.4,0.5-0.9,0.8-1.3c0.5-0.7,1.1-1,1.9-1.3c0.6-0.2,1.2-0.4,1.7-0.7c0.6-0.3,0.6-0.4,1.3-0.5c0.5,0,0.6,0,0.9,0.1
		C215.5,88.3,215,88.4,214.4,88.7z"/>
	<path d="M167.3,55.9c-0.1-1.1-0.2-2-0.6-3c-0.5-1.5-0.9-2.9-0.4-4.4c0.2-0.7,0.1-1.5,0.7-2.1c0.2-0.2,0.1-0.6-0.2-0.4
		c-1.8,0.7-1.9,3.4-1.6,5c0.3,1.8,1.1,3.3,1.5,5.1c0.1,0.6,0.1,0.9,0.5,1.4c0.4,0.7,0.9,0.7,1.5,1.4c0,0,0,0,0,0
		C168,57.8,167.4,57.3,167.3,55.9z"/>
	<path d="M182.4,52.7c-2.5-1.4-5.3-2.5-7.7-4.2c-1.1-0.7-2.2-1.4-3.3-2.1c-1.2-0.7-2-1.5-3.4-1.9c-1.6-0.4-4.3,0.1-5.3,1.6
		c-1.6,2.5,0.1,5.2,1.8,7c0,0,0.1,0,0.1,0c-1.2-2-2.7-6.2,0.2-7.3c2.6-1,4.2,0.6,6.3,1.7c1.7,0.9,3.3,2.3,5.1,2.9
		c2.1,0.7,4,1.7,6,2.5C182.3,52.9,182.5,52.8,182.4,52.7z"/>
	<path d="M225.7,65.5c-2.1-2.6-4.8-2.9-8-3.4c-2.2-0.3-4.4-0.8-6.6-1c-1.9-0.1-3.8-0.2-5.7-0.5c-4-0.6-7.7-2.2-11.7-3
		c-1.5-0.3-2.9-0.6-4.4-0.9c-1.9-0.4-3.1-1.5-4.7-2.4c0,0,0,0,0,0c1.2,0.8,2.2,2.1,3.6,2.7c1.2,0.4,2.6,0.5,3.8,0.8
		c1.9,0.5,3.7,0.8,5.6,1.4c1.9,0.6,3.7,1.4,5.6,1.7c3.9,0.7,7.9,0.7,11.8,1.4c3.7,0.7,7.7,0.4,10.4,3.4
		C225.6,65.8,225.8,65.6,225.7,65.5z"/>
	<path d="M229.3,73.7c0-0.3-0.4-0.1-0.5,0.1c-0.2,1.6-0.4,2.8-1.5,4.1c-0.9,1-2,1.8-3.2,2.5c-1.7,1.1-3.6,1.9-5.6,2.7
		c-0.5,0.2-8,1.9-5.1,3.9c0.1,0,0.2-0.1,0.2-0.1c-0.6-2.2,4.3-2.8,5.8-3.5c1.5-0.7,3.1-1.4,4.5-2.3
		C226.5,79.4,229.6,77.3,229.3,73.7z"/>
	<path d="M233.7,77.9c-1.4,2.9-4.1,6-6.7,7.8c-1.8,1.3-3.5,2.6-5.7,3.3c-2.1,0.7-5.3,1.8-7.5,1.2c0,0-0.1,0,0,0.1
		c1.2,1.4,4.8,0.1,6.2-0.3c2.6-0.7,4.6-1.9,6.7-3.4c1.7-1.2,3-2.4,4.3-4c1-1.3,2.5-2.9,2.8-4.5C234,77.7,233.8,77.8,233.7,77.9z"/>
	<path d="M168,69.3c0,0.2-0.2,0.3-0.3,0.5c-0.1,0.2-0.1,0.5,0,0.7c0.1,0.2,0.3,0.3,0.5,0.3c0.3-0.1,0.7-0.2,1.1-0.2
		c0.1,0,0.2,0,0.3,0c0,0,0,0,0,0c0,0,0,0,0,0c-0.3-0.2-0.5-0.2-0.8-0.2c-0.2,0-0.4-0.1-0.6-0.2c-0.2-0.1-0.2-0.2,0-0.4
		c0.1-0.1,0.1-0.2,0.2-0.3c0-0.2,0-0.3,0-0.5c0-0.1,0-0.1-0.1-0.2c-0.2-0.2-0.5-0.5-0.6-0.8c-1.4-1.2-2.4-2.9-3.6-4.3
		c-1.4-1.8-2.5-3.8-4-5.4c-0.1-0.1-0.3,0.1-0.3,0.2c1.6,2.7,3.6,5.3,5.6,7.7c0.8,0.9,1.5,1.8,2.3,2.7C168,69.1,168,69.2,168,69.3z"
		/>
	<path d="M203,42.7c-2.9-1.3-5.8-2.2-9-2.9c-3-0.6-5.8-2.2-8.8-2.6c-1.7-0.2-3-0.3-4.6-1c-1.6-0.7-2.9-1.1-4.6-1.4
		c-2.5-0.4-5.1-0.7-7.5,0c-2.2,0.7-4.4,2.1-6.2,3.6c-2.1,1.7-2.9,3.5-3.6,6.1c-0.6,2.1-0.7,4.2-0.5,6.4c0.1,1.1,0.6,1.8,1,2.8
		c0.3,0.7,0.3,1.4,0.7,2.1c0,0.1,0.1,0,0.1-0.1c-0.3-0.9-0.3-2-0.5-2.9c-0.2-0.7-0.4-1.5-0.5-2.3c-0.2-2,0-4.2,0.7-6.1
		c0.9-2.5,2-4.5,4.2-6.2c2.2-1.7,4.5-3,7.3-3.3c2.8-0.2,6.3,0.4,8.9,1.7c2.4,1.2,4.9,1,7.4,1.7c2.4,0.7,4.7,1.7,7.2,2.1
		C197.3,40.9,200.3,41.7,203,42.7C203,42.9,203.1,42.8,203,42.7z"/>
	<path d="M227.9,52.6c-1.9-1.1-3.9-2.2-6.1-2.7c-2.3-0.5-5.1-1.3-7.1-2.4c-2.3-1.3-4.5-2.8-7.1-3.4c0,0-0.1,0,0,0.1
		c2.4,0.9,4.1,2.7,6.2,3.9c1.9,1.1,4.2,1.7,6.3,2.4c1.1,0.3,2.2,0.3,3.2,0.9c1,0.5,1.9,1.1,2.9,1.5c2.4,1.1,4.3,3,5.8,5.2
		c0.1,0.1,0.2,0,0.2-0.1C231.3,55.9,229.9,53.8,227.9,52.6z"/>
	<path d="M235.9,69c0-1.1,0.2-2.3,0-3.4c-0.2-0.9-0.8-1.6-1.2-2.5c-0.1-0.1-0.2,0-0.2,0.1c0,0.9,0.4,1.9,0.5,2.8
		c0.1,1.2-0.1,2.5-0.1,3.7c0,1.2,0.3,2.4,0.2,3.6c-0.1,0.7-0.5,1.3-0.6,2c0,0,0,0,0.1,0c0.3-0.7,0.9-1.3,1.1-2
		C236,72,235.8,70.4,235.9,69z"/>
	<path d="M228.3,67.8c-0.3-0.6-1.1-1.7-1.7-1.8c-0.1,0-0.3,0.1-0.2,0.2c0.5,0.6,1,1.3,1.5,1.9c0.8,1,1.1,2.2,1.2,3.5c0,0,0,0,0,0
		C229.2,70.3,229.1,69,228.3,67.8z"/>
	<path d="M165.1,65.8c-0.8,0.4-2,0.6-2.9,1c-1.2,0.5-2.3,1.1-3.5,1.7c0,0,0,0.1,0,0.1c1.3-0.4,2.6-0.9,3.8-1.3c0.9-0.4,2-0.5,2.8-1
		C165.6,66.1,165.5,65.6,165.1,65.8z"/>
	<g>
		<path d="M64.6,152.3c0.8,4.1,1.2,8.2,1.6,12.4c0.3,4.1,0.5,8.3,0.6,12.5c0.2,8.3,0.1,16.6-0.2,24.9c0,1.2-0.1,2.2-0.2,3.3
			c-0.1,1.1-0.2,2.1-0.3,3.1c-0.2,2.1-0.4,4.1-0.7,6.2c-0.2,2.1-0.5,4.1-0.8,6.2c-0.3,2.1-0.6,4.1-0.9,6.1c-0.3,2-0.6,4.1-1,6.1
			l-0.5,3c-0.2,0.9-0.4,1.9-0.6,2.8l-1.1,5.8c-0.4,2-0.8,4.2-1.7,6.3c-1.2-2-2.1-3.9-2.7-6.1c-0.6-2.1-1-4.4-1-6.6
			c0-1.1,0.1-2.2,0.2-3.3c0.1-1.1,0.3-2.1,0.5-3.1c0.3-2,0.7-4.1,1-6.1c0.3-2,0.7-4.1,1.1-6.1c0.4-2,0.7-4.1,1.1-6.1l1.1-6.1
			c0.4-2,0.8-4.1,1.1-5.9c0.8-8.2,1.6-16.4,2.2-24.6C64.1,168.8,64.7,160.6,64.6,152.3z"/>
	</g>
	<path d="M168.2,70.6C168.1,70.6,168.1,70.6,168.2,70.6c-0.5,0.1-0.9,0.2-1.3,0.4c-1.1,0.4-2.1,0.5-3.2,0.7
		c-1.9,0.4-1.6,2.1,0.1,2.7c1.2,0.4,2.6,0.2,3.8-0.1c1-0.2,3.1-0.6,3.8-1.5C172.8,70.6,169.5,70.2,168.2,70.6z M168.9,73.3
		c-1.1,0.3-5.3,1.7-6-0.1c-0.5-1.3,2.1-1.3,2.9-1.5c1-0.3,1.9-0.7,2.9-0.9c0.5,0,1.1,0.1,1.5,0.2C172.2,72,170,73,168.9,73.3z"/>
	<path d="M160.2,130.2c-6,2.3-9.6,6.8-13.7,11.5c-1.9,2.2-3.6,4.7-4.5,7.5c-0.6,1.6-0.7,3.3-1.3,4.9c-0.6,1.7-1.7,3.2-2.5,4.8
		c-1.4,2.7-2.2,5.8-2.9,8.7c-0.4,1.5-1.1,3.2-1.7,4.6c-0.7,1.8-1.7,3.6-2.7,5.3c-3.5,5.8-6.3,12-11.4,16.7c-2.7,2.5-5.9,4.3-8.6,6.6
		c-1.2,1-2.1,2.4-3.2,3.4c-0.6,0.5-1.2,0.9-1.4,1.7c0,0,0.1,0,0.1,0c0.3-1,2.1-2,2.9-2.7c1.2-1,2.3-1.8,3.6-2.6
		c2.3-1.5,4.8-3.1,6.9-4.9c4.8-4.1,7.6-9.1,10.7-14.5c1.6-2.7,3.1-5.4,4.5-8.2c1.3-2.8,2.2-5.9,3-8.9c0.4-1.4,0.6-2.8,1.2-4.1
		c0.6-1.4,1.4-2.8,2-4.2c1.4-3.1,1.4-6.5,3.1-9.6c0.9-1.7,2-3.4,3.3-4.9c1.1-1.3,2-2.7,3.1-3.9c2.7-3,5.8-5.4,9.6-6.9
		C160.5,130.5,160.5,130.1,160.2,130.2z"/>
	<path d="M231.4,151.4c-2.1-2.8-4.8-4-7.8-5.6c-1.9-1.1-3.7-2.1-4.4-4.3c-0.6-1.9-1.9-3.5-2.4-5.4c-0.4-1.4-0.9-2.5-1.5-3.8
		c-0.5-1.2-1.1-2.6-2.2-3.5c-2.4-1.9-4.8-2.7-7.7-3.5c0,0,0,0,0,0c2.6,1.1,6.3,2.6,7.6,5.4c0.6,1.3,1,2.6,1.6,3.9
		c0.7,1.7,0.7,3.4,1.6,5.1c0.5,0.9,1,1.7,1.4,2.7c0.2,0.6,0.4,1.1,0.7,1.6c0.9,1.4,2.1,2,3.6,2.6c3.3,1.3,6.9,2.1,9.2,4.9
		C231.3,151.7,231.5,151.5,231.4,151.4z"/>
</g>
</svg>
