<?xml version="1.0" encoding="UTF-8"?>
<svg width="51px" height="51px" viewBox="0 0 51 51" version="1.1" xmlns="http://www.w3.org/2000/svg" xmlns:xlink="http://www.w3.org/1999/xlink">
    <!-- Generator: Sketch 58 (84663) - https://sketch.com -->
    <title>distillation-icon</title>
    <desc>Created with Sketch.</desc>
    <g id="distillation-icon" stroke="none" stroke-width="1" fill="none" fill-rule="evenodd">
        <g id="icon" transform="translate(7.000000, 4.000000)">
            <path d="M19.6,43.2 C28.2156421,43.2 35.2,36.2399979 35.2,27.6544003 C35.2,21.9306685 30,12.7125351 19.6,0 C9.2,12.7125351 4,21.9306685 4,27.6544003 C4,36.2399979 10.9843579,43.2 19.6,43.2 Z" id="water-drop" fill="#96FEFF"></path>
            <g id="Distillation" transform="translate(0.000000, 9.000000)" fill="#2E2F30" fill-rule="nonzero">
                <path d="M36.343036,10.5531915 L33.7178054,10.5531915 L33.7178054,4.61702128 C33.7178054,2.0717234 31.6563431,0 29.1236519,0 C28.1759437,0 27.263676,0.296148936 26.4984213,0.837659574 C25.7331666,0.296808511 24.820899,0 23.8731907,0 C22.9254825,0 22.0132148,0.296148936 21.2479601,0.837659574 C20.4827054,0.296808511 19.5704378,0 18.6227295,0 C17.6750213,0 16.7627537,0.296148936 15.9974989,0.837659574 C15.2322442,0.296808511 14.3199766,0 13.3722683,0 C10.8395771,0 8.7781148,2.0717234 8.7781148,4.61702128 L8.7781148,10.5531915 L6.76784447,10.5531915 L6.04328083,10.5531915 C5.6803427,10.5531915 5.38697318,10.8480213 5.38697318,11.212766 C5.38697318,11.5775106 5.6803427,11.8723404 6.04328083,11.8723404 L6.11153682,11.8723404 L6.11153682,21.3174468 C6.11153682,21.948 5.59764794,22.4611489 4.96562367,22.4611489 L4.25221726,22.4611489 C2.74533489,22.4611489 1.33427345,23.2790213 0.569675039,24.5961915 C0.569018731,24.5968511 0.569018731,24.5981702 0.568362424,24.5994894 C0.567706116,24.6008085 0.566393501,24.6021277 0.565737193,24.6034468 C0.195579679,25.2584043 0,25.9931702 0,26.7279362 C0,29.0839362 1.90723003,31 4.25221726,31 L15.0261636,31 C17.3711508,31 19.2783809,29.0839362 19.2783809,26.7279362 C19.2783809,26.0386809 19.1005215,25.353383 18.7749929,24.7314043 C18.7467717,24.6417021 18.7060806,24.5579362 18.645044,24.49 C17.8660068,23.2361489 16.4910423,22.4618085 15.0255073,22.4618085 L14.3121009,22.4618085 C13.6800766,22.4618085 13.1661877,21.9486596 13.1661877,21.3181064 L13.1661877,11.8723404 L13.2344437,11.8723404 C13.5973819,11.8723404 13.8907514,11.5775106 13.8907514,11.212766 C13.8907514,10.8480213 13.5973819,10.5531915 13.2344437,10.5531915 L12.5098801,10.5531915 L10.0894175,10.5531915 L10.0894175,4.61702128 C10.0894175,2.79857447 11.5615155,1.31914894 13.3709557,1.31914894 C13.9537569,1.31914894 14.5188378,1.47414894 15.0123812,1.7643617 C14.9999113,1.77953191 14.9926919,1.79734043 14.9802221,1.81251064 C14.8443664,1.98993617 14.7209806,2.17461702 14.6133461,2.36919149 C14.5936569,2.40414894 14.5772492,2.43976596 14.5588726,2.4747234 C14.463708,2.65544681 14.3810132,2.84276596 14.3114446,3.03470213 C14.299631,3.06702128 14.2858486,3.09802128 14.2746914,3.13034043 C14.2031538,3.34140426 14.1493366,3.55840426 14.1079892,3.7793617 C14.0988009,3.82817021 14.0922378,3.87631915 14.0850184,3.92644681 C14.0502341,4.154 14.0266071,4.38353191 14.0266071,4.61768085 C14.0266071,5.93353191 14.5857812,7.18606383 15.560398,8.05340426 C15.587963,8.07780851 15.622091,8.08968085 15.6522811,8.10880851 C15.681815,8.12661702 15.7087236,8.14838298 15.73957,8.16157447 C15.7494146,8.16553191 15.756634,8.17410638 15.7664786,8.17740426 C15.8052008,8.19125532 15.8452356,8.19125532 15.884614,8.19851064 C15.9154605,8.20378723 15.944338,8.21368085 15.9751845,8.21434043 C15.9824039,8.215 15.9889669,8.21829787 15.9961863,8.21829787 C16.0427842,8.21829787 16.0880694,8.20378723 16.1333546,8.19323404 C16.1609195,8.18729787 16.1884845,8.18795745 16.2147368,8.17938298 C16.2252377,8.17542553 16.2337697,8.17014894 16.2436143,8.16619149 C16.2692103,8.1556383 16.2895558,8.13717021 16.3138392,8.12397872 C16.353874,8.10155319 16.3958777,8.08440426 16.4313183,8.05340426 C17.4059351,7.18606383 17.9651093,5.93353191 17.9651093,4.61768085 C17.9651093,4.38419149 17.9414822,4.154 17.9066979,3.92644681 C17.8994785,3.87697872 17.8929154,3.82882979 17.8837271,3.7793617 C17.8423797,3.55840426 17.7885625,3.34140426 17.717025,3.13034043 C17.7058677,3.09802128 17.6920853,3.06702128 17.6802717,3.03470213 C17.6107031,2.84276596 17.5280084,2.65610638 17.4328438,2.4747234 C17.4144671,2.43976596 17.3980595,2.40414894 17.3783702,2.36919149 C17.2707358,2.17461702 17.1473499,1.98993617 17.0114943,1.81251064 C16.9990244,1.79734043 16.991805,1.77953191 16.9793352,1.7643617 C17.9664219,1.18459574 19.2750993,1.18459574 20.262186,1.7643617 C20.2497162,1.77953191 20.2424968,1.79734043 20.230027,1.81251064 C20.0941713,1.98993617 19.9707854,2.17461702 19.863151,2.36919149 C19.8434618,2.40414894 19.8270541,2.43976596 19.8086775,2.4747234 C19.7135128,2.65544681 19.6308181,2.84276596 19.5612495,3.03470213 C19.5494359,3.06702128 19.5356535,3.09802128 19.5244962,3.13034043 C19.4529587,3.34140426 19.3991415,3.55840426 19.3577941,3.7793617 C19.3486058,3.82817021 19.3420427,3.87631915 19.3348233,3.92644681 C19.300039,4.154 19.2764119,4.38353191 19.2764119,4.61768085 C19.2764119,5.93353191 19.8355861,7.18606383 20.8102029,8.05340426 C20.8377678,8.07780851 20.8718958,8.08968085 20.902086,8.10880851 C20.9316198,8.12661702 20.9585285,8.14838298 20.9893749,8.16157447 C20.9992195,8.16553191 21.0064389,8.17410638 21.0162835,8.17740426 C21.0550057,8.19125532 21.0950404,8.19125532 21.1344189,8.19851064 C21.1652654,8.20378723 21.1941429,8.21368085 21.2249894,8.21434043 C21.2322087,8.215 21.2387718,8.21829787 21.2459912,8.21829787 C21.292589,8.21829787 21.3378743,8.20378723 21.3831595,8.19323404 C21.4107244,8.18729787 21.4382893,8.18795745 21.4645416,8.17938298 C21.4750426,8.17542553 21.4835746,8.17014894 21.4934192,8.16619149 C21.5190152,8.1556383 21.5393607,8.13717021 21.5636441,8.12397872 C21.6036789,8.10155319 21.6456826,8.08440426 21.6811232,8.05340426 C22.65574,7.18606383 23.2149141,5.93353191 23.2149141,4.61768085 C23.2149141,4.38419149 23.1912871,4.154 23.1565028,3.92644681 C23.1492834,3.87697872 23.1427203,3.82882979 23.133532,3.7793617 C23.0921846,3.55840426 23.0383674,3.34140426 22.9668299,3.13034043 C22.9556726,3.09802128 22.9418902,3.06702128 22.9300766,3.03470213 C22.860508,2.84276596 22.7778133,2.65610638 22.6826486,2.4747234 C22.664272,2.43976596 22.6478643,2.40414894 22.6281751,2.36919149 C22.5205407,2.17461702 22.3971548,1.98993617 22.2612991,1.81251064 C22.2488293,1.79734043 22.2416099,1.77953191 22.2291401,1.7643617 C23.2162268,1.18459574 24.5249042,1.18459574 25.5119909,1.7643617 C25.4995211,1.77953191 25.4923017,1.79734043 25.4798318,1.81251064 C25.3439762,1.98993617 25.2205903,2.17461702 25.1129559,2.36919149 C25.0932666,2.40414894 25.0768589,2.43976596 25.0584823,2.4747234 C24.9633177,2.65544681 24.880623,2.84276596 24.8110543,3.03470213 C24.7992408,3.06702128 24.7854584,3.09802128 24.7743011,3.13034043 C24.7027636,3.34140426 24.6489464,3.55840426 24.607599,3.7793617 C24.5984107,3.82817021 24.5918476,3.87631915 24.5846282,3.92644681 C24.5498439,4.154 24.5262168,4.38353191 24.5262168,4.61768085 C24.5262168,5.93353191 25.0853909,7.18606383 26.0600078,8.05340426 C26.0954484,8.08506383 26.1374521,8.10155319 26.1774869,8.12397872 C26.2017703,8.13782979 26.2221158,8.15629787 26.2477118,8.16619149 C26.2542749,8.16882979 26.2595253,8.17476596 26.2654321,8.17740426 C26.3395949,8.20510638 26.4170392,8.21895745 26.4951398,8.21895745 C26.5732404,8.21895745 26.6500284,8.20510638 26.7248475,8.17740426 C26.7314105,8.17476596 26.736661,8.16882979 26.7425678,8.16619149 C26.7681638,8.1556383 26.7885093,8.13717021 26.8127927,8.12397872 C26.8528274,8.10155319 26.8948311,8.08440426 26.9302717,8.05340426 C27.9048886,7.18606383 28.4640627,5.93353191 28.4640627,4.61768085 C28.4640627,4.38419149 28.4404356,4.154 28.4056513,3.92644681 C28.398432,3.87697872 28.3918689,3.82882979 28.3826806,3.7793617 C28.3413332,3.55840426 28.287516,3.34140426 28.2159784,3.13034043 C28.2048212,3.09802128 28.1910387,3.06702128 28.1792252,3.03470213 C28.1096566,2.84276596 28.0269618,2.65610638 27.9317972,2.4747234 C27.9134206,2.43976596 27.8970129,2.40414894 27.8773237,2.36919149 C27.7696892,2.17461702 27.6463034,1.98993617 27.5104477,1.81251064 C27.4979779,1.79734043 27.4907585,1.77953191 27.4782886,1.7643617 C27.9757698,1.47414894 28.5408507,1.31914894 29.1236519,1.31914894 C30.9330921,1.31914894 32.4051902,2.79857447 32.4051902,4.61702128 L32.4051902,10.5531915 L30.4172343,10.5531915 C30.0542962,10.5531915 29.7609266,10.8480213 29.7609266,11.212766 L29.7609266,27.3723404 C29.7609266,29.3721702 31.3846318,31 33.379807,31 C35.3749823,31 36.9986874,29.3721702 36.9986874,27.3723404 L37,11.2134255 C37,11.0379787 36.9310877,10.8697872 36.8077019,10.7464468 C36.684316,10.6231064 36.5176139,10.5531915 36.343036,10.5531915 Z M14.3134135,23.7809574 L15.0268199,23.7809574 C15.6188094,23.7809574 16.1779835,23.9544255 16.650525,24.2697021 L2.62916844,24.2697021 C3.10170995,23.953766 3.66022776,23.7809574 4.25287356,23.7809574 L4.96627998,23.7809574 C6.32155527,23.7809574 7.42480843,22.6761702 7.42480843,21.3181064 L7.42480843,11.8723404 L11.8548851,11.8723404 L11.8548851,21.3174468 C11.8548851,22.6761702 12.9574819,23.7809574 14.3134135,23.7809574 Z M16.6150844,5.09125532 C16.609834,5.12885106 16.6039272,5.16578723 16.5973641,5.2027234 C16.5697992,5.35574468 16.5343586,5.50744681 16.4864481,5.65453191 C16.481854,5.66838298 16.4746346,5.68157447 16.4706968,5.69608511 C16.4240989,5.83129787 16.3670001,5.96189362 16.3033383,6.08985106 C16.2869306,6.12348936 16.2698666,6.15712766 16.2528026,6.18878723 C16.1799525,6.32334043 16.0992266,6.4532766 16.0079999,6.57595745 C16.0047183,6.58057447 16.0007805,6.58519149 15.9974989,6.58914894 C15.9942174,6.58519149 15.9902796,6.58057447 15.986998,6.57595745 C15.8957713,6.4532766 15.8150454,6.32334043 15.7421953,6.18878723 C15.7251313,6.15646809 15.7080673,6.12282979 15.6916596,6.08985106 C15.6279977,5.96255319 15.570899,5.83129787 15.5243011,5.69608511 C15.519707,5.68223404 15.5124876,5.66904255 15.5085497,5.65453191 C15.4606393,5.50744681 15.4251987,5.35640426 15.3976337,5.2027234 C15.3904144,5.16578723 15.3845076,5.12885106 15.3799134,5.09125532 C15.3569427,4.93559574 15.3411913,4.7766383 15.3411913,4.61702128 C15.3411913,4.45740426 15.3569427,4.29910638 15.3799134,4.14278723 C15.3851639,4.10519149 15.3910707,4.06825532 15.3976337,4.03065957 C15.4251987,3.87829787 15.4606393,3.72659574 15.5085497,3.57951064 C15.5131439,3.56565957 15.519707,3.55246809 15.5243011,3.53795745 C15.570899,3.40274468 15.6279977,3.27214894 15.6916596,3.14419149 C15.7080673,3.11055319 15.7251313,3.07691489 15.7428516,3.04459574 C15.8150454,2.91070213 15.8957713,2.78076596 15.986998,2.65808511 C15.9902796,2.65346809 15.9942174,2.64885106 15.9974989,2.64489362 C16.0007805,2.64885106 16.0047183,2.65346809 16.0079999,2.65808511 C16.0992266,2.78076596 16.1799525,2.91070213 16.2521463,3.04459574 C16.2698666,3.07757447 16.2869306,3.11121277 16.3033383,3.14419149 C16.3670001,3.27148936 16.4240989,3.40274468 16.4706968,3.53795745 C16.4759472,3.55180851 16.4825103,3.565 16.4864481,3.57951064 C16.5343586,3.72659574 16.5697992,3.8776383 16.5973641,4.03065957 C16.6045835,4.06825532 16.6104903,4.10519149 16.6150844,4.14278723 C16.6373989,4.29844681 16.6538066,4.45740426 16.6538066,4.61702128 C16.6538066,4.7766383 16.6387115,4.93493617 16.6150844,5.09125532 Z M21.8655456,5.09125532 C21.8602952,5.12885106 21.8543884,5.16578723 21.8478253,5.2027234 C21.8202604,5.35574468 21.7848198,5.50744681 21.7369093,5.65453191 C21.7323152,5.66838298 21.7250958,5.68157447 21.7211579,5.69608511 C21.6745601,5.83129787 21.6174613,5.96189362 21.5537995,6.08985106 C21.5373918,6.12348936 21.5203278,6.15712766 21.5032638,6.18878723 C21.4304137,6.32334043 21.3496878,6.4532766 21.258461,6.57595745 C21.2551795,6.58057447 21.2512417,6.58519149 21.2479601,6.58914894 C21.2446786,6.58519149 21.2407407,6.58057447 21.2374592,6.57595745 C21.1462324,6.4532766 21.0655066,6.32334043 20.9926564,6.18878723 C20.9755925,6.15646809 20.9585285,6.12282979 20.9421208,6.08985106 C20.8784589,5.96255319 20.8213602,5.83129787 20.7747623,5.69608511 C20.7701682,5.68223404 20.7629488,5.66904255 20.7590109,5.65453191 C20.7111005,5.50744681 20.6756599,5.35640426 20.6480949,5.2027234 C20.6408755,5.16578723 20.6349688,5.12885106 20.6303746,5.09125532 C20.6074039,4.93559574 20.5916525,4.7766383 20.5916525,4.61702128 C20.5916525,4.45740426 20.6074039,4.29910638 20.6303746,4.14278723 C20.6356251,4.10519149 20.6415319,4.06825532 20.6480949,4.03065957 C20.6756599,3.87829787 20.7111005,3.72659574 20.7590109,3.57951064 C20.7636051,3.56565957 20.7701682,3.55246809 20.7747623,3.53795745 C20.8213602,3.40274468 20.8784589,3.27214894 20.9421208,3.14419149 C20.9585285,3.11055319 20.9755925,3.07691489 20.9933128,3.04459574 C21.0655066,2.91070213 21.1462324,2.78076596 21.2374592,2.65808511 C21.2407407,2.65346809 21.2446786,2.64885106 21.2479601,2.64489362 C21.2512417,2.64885106 21.2551795,2.65346809 21.258461,2.65808511 C21.3496878,2.78076596 21.4304137,2.91070213 21.5026075,3.04459574 C21.5203278,3.07757447 21.5373918,3.11121277 21.5537995,3.14419149 C21.6174613,3.27148936 21.6745601,3.40274468 21.7211579,3.53795745 C21.7264084,3.55180851 21.7329715,3.565 21.7369093,3.57951064 C21.7848198,3.72659574 21.8202604,3.8776383 21.8478253,4.03065957 C21.8550447,4.06825532 21.8609515,4.10519149 21.8655456,4.14278723 C21.8878601,4.29844681 21.9042678,4.45740426 21.9042678,4.61702128 C21.9042678,4.7766383 21.8891727,4.93493617 21.8655456,5.09125532 Z M27.1160068,5.09125532 C27.1107564,5.12885106 27.1048496,5.16578723 27.0982865,5.2027234 C27.0707216,5.35574468 27.035281,5.50744681 26.9873705,5.65453191 C26.9827764,5.66838298 26.975557,5.68157447 26.9716191,5.69608511 C26.9250213,5.83129787 26.8679225,5.96189362 26.8042607,6.08985106 C26.787853,6.12348936 26.770789,6.15712766 26.753725,6.18878723 C26.6808748,6.32334043 26.600149,6.4532766 26.5089222,6.57595745 C26.5056407,6.58057447 26.5017029,6.58519149 26.4984213,6.58914894 C26.4951398,6.58519149 26.4912019,6.58057447 26.4879204,6.57595745 C26.3966936,6.4532766 26.3159678,6.32334043 26.2431176,6.18878723 C26.2260536,6.15646809 26.2089896,6.12282979 26.1925819,6.08985106 C26.1289201,5.96255319 26.0718213,5.83129787 26.0252235,5.69608511 C26.0206293,5.68223404 26.01341,5.66904255 26.0094721,5.65453191 C25.9615617,5.50744681 25.926121,5.35640426 25.8985561,5.2027234 C25.8913367,5.16578723 25.88543,5.12885106 25.8808358,5.09125532 C25.857865,4.93559574 25.8421137,4.7766383 25.8421137,4.61702128 C25.8421137,4.45740426 25.857865,4.29910638 25.8808358,4.14278723 C25.8860863,4.10519149 25.891993,4.06825532 25.8985561,4.03065957 C25.926121,3.87829787 25.9615617,3.72659574 26.0094721,3.57951064 C26.0140663,3.56565957 26.0206293,3.55246809 26.0252235,3.53795745 C26.0718213,3.40274468 26.1289201,3.27214894 26.1925819,3.14419149 C26.2089896,3.11055319 26.2260536,3.07691489 26.2437739,3.04459574 C26.3159678,2.91070213 26.3966936,2.78076596 26.4879204,2.65808511 C26.4912019,2.65346809 26.4951398,2.64885106 26.4984213,2.64489362 C26.5017029,2.64885106 26.5056407,2.65346809 26.5089222,2.65808511 C26.600149,2.78076596 26.6808748,2.91070213 26.7530687,3.04459574 C26.770789,3.07757447 26.787853,3.11121277 26.8042607,3.14419149 C26.8679225,3.27148936 26.9250213,3.40274468 26.9716191,3.53795745 C26.9768696,3.55180851 26.9834327,3.565 26.9873705,3.57951064 C27.035281,3.72659574 27.0707216,3.8776383 27.0982865,4.03065957 C27.1055059,4.06825532 27.1114127,4.10519149 27.1160068,4.14278723 C27.1383213,4.29844681 27.154729,4.45740426 27.154729,4.61702128 C27.154729,4.7766383 27.1396339,4.93493617 27.1160068,5.09125532 Z M35.6860721,11.8723404 L35.6860721,19.1276596 L31.0735419,19.1276596 L31.0735419,11.8723404 L35.6860721,11.8723404 Z" id="Shape"></path>
            </g>
        </g>
    </g>
</svg>