<?xml version="1.0" encoding="UTF-8"?>
<svg width="70px" height="70px" viewBox="0 0 70 70" version="1.1" xmlns="http://www.w3.org/2000/svg" xmlns:xlink="http://www.w3.org/1999/xlink">
    <!-- Generator: Sketch 58 (84663) - https://sketch.com -->
    <title>faucet</title>
    <desc>Created with Sketch.</desc>
    <g id="Hifi" stroke="none" stroke-width="1" fill="none" fill-rule="evenodd">
        <g id="Get-Informed" transform="translate(-39.000000, -1316.000000)" fill="#000000">
            <g id="Sankey" transform="translate(39.000000, 1004.000000)">
                <g id="Header" transform="translate(0.000000, 312.000000)">
                    <g id="faucet">
                        <g id="noun_Faucet_377626">
                            <g id="Group" transform="translate(35.000000, 35.000000) scale(-1, 1) translate(-35.000000, -35.000000) " fill-rule="nonzero">
                                <path d="M66.5,59.5 L66.5,3.5 C66.5,1.4 65.1,0 63,0 L28,0 L28,7 L52.5,7 L52.5,35 L26.25,15.05 C25.2,14.35 23.8,14 22.4,14 L0,14 L0,28 L0,35 L14,35 L14,28 L16.1,28 C19.25,28 22.05,29.4 24.15,31.5 L38.85,48.3 C40.6,50.4 42,53.2 42,56 L42,59.5 L38.5,59.5 L38.5,70 L70,70 L70,59.5 L66.5,59.5 Z" id="Path"></path>
                                <path d="M0,63 C0,66.85 3.15,70 7,70 C10.85,70 14,66.85 14,63 C14,59.15 7,49 7,49 C7,49 0,59.15 0,63 Z" id="Path"></path>
                            </g>
                        </g>
                    </g>
                </g>
            </g>
        </g>
    </g>
</svg>