<?xml version="1.0" encoding="UTF-8"?>
<svg width="39px" height="47px" viewBox="0 0 39 47" version="1.1" xmlns="http://www.w3.org/2000/svg" xmlns:xlink="http://www.w3.org/1999/xlink">
    <!-- Generator: Sketch 58 (84663) - https://sketch.com -->
    <title>food-icon</title>
    <desc>Created with Sketch.</desc>
    <g id="food-icon" stroke="none" stroke-width="1" fill="none" fill-rule="evenodd">
        <g id="icon" transform="translate(4.000000, 2.000000)">
            <path d="M15.6,43.2 C24.2156421,43.2 31.2,36.2399979 31.2,27.6544003 C31.2,21.9306685 26,12.7125351 15.6,0 C5.2,12.7125351 0,21.9306685 0,27.6544003 C0,36.2399979 6.9843579,43.2 15.6,43.2 Z" id="water-drop" fill="#96FEFF"></path>
            <g id="Kitchen" transform="translate(5.600000, 2.400000)">
                <g id="Group">
                    <path d="M6.49080849,20.5714286 C8.29353789,19.2250689 5.13086069,19.6518846 5.13086069,19.0141256 C5.13086069,18.3763665 7.18497006,19.0315534 7.18497006,18.2697834 C7.18497006,17.5080134 4.36363636,17.5080134 4.36363636,16.9412145 C4.36363636,16.3744156 8.18621288,17.2721235 7.99290813,16" id="Path-9" stroke="#2E2F30" stroke-width="0.5" stroke-linecap="round"></path>
                    <path d="M19.0964214,24.8498168 C19.3946233,24.8498168 19.6363636,25.0915572 19.6363636,25.3897591 L19.6363636,39.8410101 C19.6363636,40.139212 19.3946233,40.3809524 19.0964214,40.3809524 L0.556290373,40.3809524 C0.258088498,40.3809524 0.0163481156,40.139212 0.0163481156,39.8410101 L0.0163481156,25.3897591 C0.0163481156,25.0915572 0.258088498,24.8498168 0.556290373,24.8498168 L19.0964214,24.8498168 Z M16.6933481,33.1328168 L2.95935044,33.1330891 L2.95935044,37.2747253 L16.6933613,37.2747253 L16.6933481,33.1328168 Z M16.6933613,28.991453 L2.95935044,28.991453 L2.95935044,31.0622711 L16.6933481,31.0618168 L16.6933613,28.991453 Z M15.1560702,18.0883184 C15.454272,18.0883184 15.6960124,18.3300588 15.6960124,18.6282606 L15.6960124,19.1237274 L18.1213102,19.1237274 C18.4072305,19.1237274 18.6390147,19.3555116 18.6390147,19.6414319 C18.6390147,19.9273522 18.4072305,20.1591365 18.1213102,20.1591365 L17.658014,20.1591365 L16.6770132,24.3007726 L12.7530101,24.3007726 L11.7720093,20.1591365 L11.3087131,20.1591365 C11.0227927,20.1591365 10.7910085,19.9273522 10.7910085,19.6414319 C10.7910085,19.3555116 11.0227927,19.1237274 11.3087131,19.1237274 L13.7340109,19.1237274 L13.7340109,18.6282606 C13.7340109,18.3300588 13.9757512,18.0883184 14.2739531,18.0883184 L15.1560702,18.0883184 Z M10.4964643,22.2299545 C10.5561047,22.2299545 10.6044528,22.2783026 10.6044528,22.337943 C10.6044528,22.3650983 10.5942219,22.3912568 10.5757987,22.4112066 L8.83082447,24.3007726 L4.9757801,24.3007726 L3.705,23.0059545 L0.258852259,23.0065113 C0.115892104,23.0065113 1.75075696e-17,22.8906192 0,22.747659 C-1.75075696e-17,22.6046989 0.115892104,22.4888068 0.258852259,22.4888068 L3.197,22.4879545 L3.12326569,22.4135912 C3.08148631,22.37103 3.08212011,22.3026585 3.12468133,22.2608791 C3.14487253,22.2410588 3.172036,22.2299545 3.2003296,22.2299545 L10.4964643,22.2299545 Z M12.7693582,0 L12.7693481,6.212 L19.6363636,13.4603175 L0.0163481156,13.4603175 L6.88334812,6.212 L6.88335355,0 L12.7693582,0 Z" id="Combined-Shape" fill="#2E2F30"></path>
                </g>
            </g>
        </g>
    </g>
</svg>