<?xml version="1.0" encoding="UTF-8"?>
<svg width="39px" height="50px" viewBox="0 0 39 50" version="1.1" xmlns="http://www.w3.org/2000/svg" xmlns:xlink="http://www.w3.org/1999/xlink">
    <!-- Generator: Sketch 58 (84663) - https://sketch.com -->
    <title>gallon</title>
    <desc>Created with Sketch.</desc>
    <g id="gallon" stroke="none" stroke-width="1" fill="none" fill-rule="evenodd">
        <g id="Gallon" transform="translate(4.000000, 3.000000)" fill="#2E2F30">
            <g id="gallon">
                <path d="M15.4099794,21 C23.6942507,21 30.9946177,18.8332701 30.9946177,15.2434193 C30.9946177,11.6535684 23.6942507,8 15.4099794,8 C7.12570816,8 2.84217094e-14,11.6535684 2.84217094e-14,15.2434193 C2.84217094e-14,18.8332701 7.12570816,21 15.4099794,21 Z" id="Oval"></path>
                <rect id="Rectangle" x="10" y="0" width="11" height="7" rx="1"></rect>
                <path d="M11.7077416,6 L19.2202837,6 C19.6786601,6 20.0783472,6.31164252 20.1901057,6.756186 L20.6873042,8.7338985 C20.821959,9.2695164 20.4969141,9.81287976 19.9612962,9.94753451 C19.8815741,9.9675767 19.799685,9.9777125 19.7174822,9.9777125 L11.0103968,9.9777125 C10.458112,9.9777125 10.0103968,9.52999725 10.0103968,8.9777125 C10.0103968,8.86444429 10.0296403,8.75199928 10.067306,8.64517708 L10.7646508,6.66746458 C10.905677,6.26750585 11.283648,6 11.7077416,6 Z" id="Rectangle-Copy-6"></path>
                <rect id="Rectangle" x="1" y="16" width="29" height="21"></rect>
                <path d="M1,35 L30,35 C30.5522847,35 31,35.4477153 31,36 L31,39 C31,41.209139 29.209139,43 27,43 L4,43 C1.790861,43 2.705415e-16,41.209139 0,39 L0,36 C-6.76353751e-17,35.4477153 0.44771525,35 1,35 Z" id="Rectangle"></path>
            </g>
        </g>
    </g>
</svg>