<?xml version="1.0" encoding="UTF-8"?>
<svg width="367px" height="119px" viewBox="0 0 367 119" version="1.1" xmlns="http://www.w3.org/2000/svg" xmlns:xlink="http://www.w3.org/1999/xlink">
    <!-- Generator: Sketch 58 (84663) - https://sketch.com -->
    <title>gallons-cup</title>
    <desc>Created with Sketch.</desc>
    <g id="gallons-cup" stroke="none" stroke-width="1" fill="none" fill-rule="evenodd">
        <rect id="bg" fill-opacity="0.1" fill="#0D7DFF" x="0" y="0" width="367" height="119"></rect>
        <g id="Glass" transform="translate(22.000000, 17.000000)" stroke="#2E2F30">
            <g id="glass">
                <polygon id="Rectangle" fill="#2E2F30" points="0 3 27 3 22 36 5 36"></polygon>
                <ellipse id="Oval" fill="#FFFFFF" cx="13.5" cy="2.32758621" rx="13.5" ry="2.32758621"></ellipse>
            </g>
        </g>
        <g id="Glass" transform="translate(22.000000, 68.000000)" stroke="#2E2F30">
            <g id="glass">
                <polygon id="Rectangle" fill="#2E2F30" points="0 3 27 3 22 36 5 36"></polygon>
                <ellipse id="Oval" fill="#FFFFFF" cx="13.5" cy="2.32758621" rx="13.5" ry="2.32758621"></ellipse>
            </g>
        </g>
        <g id="Glass" transform="translate(190.000000, 17.000000)" stroke="#2E2F30">
            <g id="glass">
                <polygon id="Rectangle" fill="#2E2F30" points="0 3 27 3 22 36 5 36"></polygon>
                <ellipse id="Oval" fill="#FFFFFF" cx="13.5" cy="2.32758621" rx="13.5" ry="2.32758621"></ellipse>
            </g>
        </g>
        <g id="Glass" transform="translate(190.000000, 68.000000)" stroke="#2E2F30">
            <g id="glass">
                <polygon id="Rectangle" fill="#2E2F30" points="0 3 27 3 22 36 5 36"></polygon>
                <ellipse id="Oval" fill="#FFFFFF" cx="13.5" cy="2.32758621" rx="13.5" ry="2.32758621"></ellipse>
            </g>
        </g>
        <g id="Glass" transform="translate(64.000000, 17.000000)" stroke="#2E2F30">
            <g id="glass">
                <polygon id="Rectangle" fill="#2E2F30" points="0 3 27 3 22 36 5 36"></polygon>
                <ellipse id="Oval" fill="#FFFFFF" cx="13.5" cy="2.32758621" rx="13.5" ry="2.32758621"></ellipse>
            </g>
        </g>
        <g id="Glass" transform="translate(64.000000, 68.000000)" stroke="#2E2F30">
            <g id="glass">
                <polygon id="Rectangle" fill="#2E2F30" points="0 3 27 3 22 36 5 36"></polygon>
                <ellipse id="Oval" fill="#FFFFFF" cx="13.5" cy="2.32758621" rx="13.5" ry="2.32758621"></ellipse>
            </g>
        </g>
        <g id="Glass" transform="translate(232.000000, 17.000000)" stroke="#2E2F30">
            <g id="glass">
                <polygon id="Rectangle" fill="#2E2F30" points="0 3 27 3 22 36 5 36"></polygon>
                <ellipse id="Oval" fill="#FFFFFF" cx="13.5" cy="2.32758621" rx="13.5" ry="2.32758621"></ellipse>
            </g>
        </g>
        <g id="Glass" transform="translate(232.000000, 68.000000)" stroke="#2E2F30">
            <g id="glass">
                <polygon id="Rectangle" fill="#2E2F30" points="0 3 27 3 22 36 5 36"></polygon>
                <ellipse id="Oval" fill="#FFFFFF" cx="13.5" cy="2.32758621" rx="13.5" ry="2.32758621"></ellipse>
            </g>
        </g>
        <g id="Glass" transform="translate(106.000000, 17.000000)" stroke="#2E2F30">
            <g id="glass">
                <polygon id="Rectangle" fill="#2E2F30" points="0 3 27 3 22 36 5 36"></polygon>
                <ellipse id="Oval" fill="#FFFFFF" cx="13.5" cy="2.32758621" rx="13.5" ry="2.32758621"></ellipse>
            </g>
        </g>
        <g id="Glass" transform="translate(106.000000, 68.000000)" stroke="#2E2F30">
            <g id="glass">
                <polygon id="Rectangle" fill="#2E2F30" points="0 3 27 3 22 36 5 36"></polygon>
                <ellipse id="Oval" fill="#FFFFFF" cx="13.5" cy="2.32758621" rx="13.5" ry="2.32758621"></ellipse>
            </g>
        </g>
        <g id="Glass" transform="translate(274.000000, 17.000000)" stroke="#2E2F30">
            <g id="glass">
                <polygon id="Rectangle" fill="#2E2F30" points="0 3 27 3 22 36 5 36"></polygon>
                <ellipse id="Oval" fill="#FFFFFF" cx="13.5" cy="2.32758621" rx="13.5" ry="2.32758621"></ellipse>
            </g>
        </g>
        <g id="Glass" transform="translate(274.000000, 68.000000)" stroke="#2E2F30">
            <g id="glass">
                <polygon id="Rectangle" fill="#2E2F30" points="0 3 27 3 22 36 5 36"></polygon>
                <ellipse id="Oval" fill="#FFFFFF" cx="13.5" cy="2.32758621" rx="13.5" ry="2.32758621"></ellipse>
            </g>
        </g>
        <g id="Glass" transform="translate(148.000000, 17.000000)" stroke="#2E2F30">
            <g id="glass">
                <polygon id="Rectangle" fill="#2E2F30" points="0 3 27 3 22 36 5 36"></polygon>
                <ellipse id="Oval" fill="#FFFFFF" cx="13.5" cy="2.32758621" rx="13.5" ry="2.32758621"></ellipse>
            </g>
        </g>
        <g id="Glass" transform="translate(148.000000, 68.000000)" stroke="#2E2F30">
            <g id="glass">
                <polygon id="Rectangle" fill="#2E2F30" points="0 3 27 3 22 36 5 36"></polygon>
                <ellipse id="Oval" fill="#FFFFFF" cx="13.5" cy="2.32758621" rx="13.5" ry="2.32758621"></ellipse>
            </g>
        </g>
        <g id="Glass" transform="translate(316.000000, 17.000000)" stroke="#2E2F30">
            <g id="glass">
                <polygon id="Rectangle" fill="#2E2F30" points="0 3 27 3 22 36 5 36"></polygon>
                <ellipse id="Oval" fill="#FFFFFF" cx="13.5" cy="2.32758621" rx="13.5" ry="2.32758621"></ellipse>
            </g>
        </g>
        <g id="Glass" transform="translate(316.000000, 68.000000)" stroke="#2E2F30">
            <g id="glass">
                <polygon id="Rectangle" fill="#2E2F30" points="0 3 27 3 22 36 5 36"></polygon>
                <ellipse id="Oval" fill="#FFFFFF" cx="13.5" cy="2.32758621" rx="13.5" ry="2.32758621"></ellipse>
            </g>
        </g>
    </g>
</svg>