<?xml version="1.0" encoding="UTF-8"?>
<svg width="39px" height="47px" viewBox="0 0 39 47" version="1.1" xmlns="http://www.w3.org/2000/svg" xmlns:xlink="http://www.w3.org/1999/xlink">
    <!-- Generator: Sketch 58 (84663) - https://sketch.com -->
    <title>hygiene-icon</title>
    <desc>Created with Sketch.</desc>
    <g id="hygiene-icon" stroke="none" stroke-width="1" fill="none" fill-rule="evenodd">
        <g id="icon" transform="translate(4.000000, 2.000000)">
            <path d="M15.6,43.2 C24.2156421,43.2 31.2,36.2399979 31.2,27.6544003 C31.2,21.9306685 26,12.7125351 15.6,0 C5.2,12.7125351 0,21.9306685 0,27.6544003 C0,36.2399979 6.9843579,43.2 15.6,43.2 Z" id="water-drop" fill="#96FEFF"></path>
            <g id="Hygiene" transform="translate(3.000000, 6.000000)" fill="#2E2F30">
                <g id="noun_washing-hands_1174843" transform="translate(-0.941176, 7.062069)">
                    <g id="Group" transform="translate(9.910588, 0.000000)" fill-rule="nonzero">
                        <path d="M6.82077176,8.10505887 L3.32843294,8.10505887 L3.32843294,6.38706935 C3.32843294,4.51310698 5.35908706,2.98903481 7.85655529,2.98903481 L15.3400659,2.98903481 L15.3400659,5.60930251 L7.85680941,5.60930251 C7.28580706,5.60930251 6.82077176,5.95785799 6.82077176,6.38726003 L6.82077176,8.10505887 L6.82077176,8.10505887 Z" id="Path"></path>
                        <polygon id="Path" points="14.9161976 0.0495757241 7.50943059 0.0495757241 7.50943059 1.29087559 10.2589835 1.29087559 10.2589835 2.42863846 12.1638494 2.42863846 12.1638494 1.29087559 14.9161976 1.29087559"></polygon>
                        <rect id="Rectangle" x="4.80892235" y="8.49632574" width="1" height="3.99027377"></rect>
                        <rect id="Rectangle" x="3.54494118" y="8.49632574" width="1" height="3.40261076"></rect>
                        <rect id="Rectangle" x="6.07290353" y="8.49632574" width="1" height="3.40261076"></rect>
                        <ellipse id="Oval" cx="1.49472" cy="11.0494755" rx="1" ry="1"></ellipse>
                        <ellipse id="Oval" cx="2.36202353" cy="9.85622599" rx="1" ry="1"></ellipse>
                        <ellipse id="Oval" cx="7.99936941" cy="10.0190632" rx="1" ry="1"></ellipse>
                        <ellipse id="Oval" cx="7.58388706" cy="11.4968011" rx="1" ry="1"></ellipse>
                        <ellipse id="Oval" cx="0.554992941" cy="9.69377015" rx="1" ry="1"></ellipse>
                        <ellipse id="Oval" cx="9.22828235" cy="11.1581608" rx="1" ry="1"></ellipse>
                    </g>
                    <path d="M15.3349835,13.4230087 C15.4722071,13.5566724 15.5700424,13.7116919 15.6086682,13.8808214 C15.6508518,14.0377476 15.6394165,14.2053517 15.5748706,14.3636127 C15.3426071,14.8856832 14.5924518,15.1730317 13.8976941,15.0079064 L10.4302588,14.163403 L10.2658447,14.6158769 L13.7350588,15.4603802 C14.6791059,15.6878566 15.8701553,15.3065048 16.1837365,14.5960466 C16.2894494,14.3485493 16.2454871,13.9277277 16.1664565,13.6848066 L21.2976,11.7412476 C21.9613553,11.493941 22.9257318,11.7153156 23.2504941,12.2106915 C23.5826259,12.7123597 23.4860612,13.3377766 22.5732706,13.6767982 L14.0008659,16.8963602 C13.5653082,17.0475661 13.0024376,17.100002 12.4751435,17.0014226 L5.27370353,15.9780652 L0.201007059,18.2713238 L0.157044706,13.8907366 L0.182202353,13.8796774 L0.163905882,13.851076 L6.15828706,11.6270327 C6.15828706,11.6270327 6.79078588,11.4047047 7.34832,11.433306 C7.86189176,11.4605727 8.38435765,11.5816519 8.38435765,11.5816519 L14.7164612,13.1137324 C14.9563482,13.1709352 15.1690447,13.2767603 15.3349835,13.4230087 Z" id="Path" fill-rule="nonzero"></path>
                </g>
            </g>
        </g>
    </g>
</svg>