<?xml version="1.0" encoding="UTF-8"?>
<svg width="1507px" height="786px" viewBox="0 0 1507 786" version="1.1" xmlns="http://www.w3.org/2000/svg" xmlns:xlink="http://www.w3.org/1999/xlink">
    <!-- Generator: Sketch 58 (84663) - https://sketch.com -->
    <title>map</title>
    <desc>Created with Sketch.</desc>
    <g id="map" stroke="none" stroke-width="1" fill="none" fill-rule="evenodd">
        <g id="Map" transform="translate(19.000000, 20.000000)">
            <g id="Toilet" transform="translate(20.000000, 0.000000)">
                <circle id="Oval" fill="#96FEFF" cx="72" cy="22" r="17"></circle>
                <g transform="translate(59.500000, 0.000000)" fill="#2E2F30" id="noun_Toilet_1121753">
                    <g transform="translate(0.000000, 10.000000)">
                        <g id="Group" fill-rule="nonzero">
                            <g id="Path">
                                <g>
                                    <path d="M23.9945839,13.4516516 L1.22351936,13.4516516 C0.549325808,13.4516516 0.000745161292,13.9998774 3.54838711e-05,14.6737161 L25.2180677,14.6737161 C25.2173581,13.9998774 24.6687774,13.4516516 23.9945839,13.4516516"></path>
                                    <path d="M0,16.2650613 C0,20.6004806 2.77412903,24.3951258 6.90338708,25.7076742 C7.12445161,25.7782871 7.27454838,25.9833839 7.27454838,26.2150935 L7.27454838,32.9605774 L17.9434839,32.9605774 L17.9434839,26.2150935 C17.9434839,25.9833839 18.0935807,25.7782871 18.3146452,25.7076742 C22.4439032,24.3951258 25.2180323,20.6004806 25.2180323,16.2650613 L25.2180323,15.7384806 L0,15.7384806 L0,16.2650613 Z"></path>
                                    <path d="M2.90247419,1.51707742 L22.1347322,1.51707742 L22.1471516,1.39714194 C22.1854742,1.03627097 22.0719258,0.688529031 21.8292161,0.418496773 C21.5857968,0.148819355 21.2522484,0.000141935484 20.8888935,0.000141935484 L4.14831292,0.000141935484 C3.78531292,0.000141935484 3.45140968,0.148819355 3.20834516,0.418141934 C2.96528064,0.688174192 2.8520871,1.03627097 2.89005484,1.39714194 L2.90247419,1.51707742 Z"></path>
                                    <polygon points="20.9968355 12.3871355 22.0233839 2.58152258 3.01396452 2.58152258 4.04051291 12.3871355"></polygon>
                                </g>
                            </g>
                        </g>
                    </g>
                </g>
                <g id="Group" transform="translate(0.000000, 52.000000)">
                    <text id="8-AM:-TOILET" font-family="OpenSans-Semibold, Open Sans" font-size="16" font-weight="500" fill="#2E2F30">
                        <tspan x="21.4726562" y="17">8 AM: TOILET</tspan>
                    </text>
                    <path d="M24.5,26.5 L119.5,26.5" id="Line" stroke-opacity="0.25" stroke="#2E2F30" stroke-width="0.5" stroke-linecap="square"></path>
                    <text id="2-gallons" font-family="OpenSans-Semibold, Open Sans" font-size="24" font-weight="500" fill="#000000">
                        <tspan x="20.4179688" y="53">2 gallons</tspan>
                    </text>
                </g>
            </g>
            <g id="Toilet-Copy" transform="translate(252.000000, 550.000000)">
                <circle id="Oval" fill="#96FEFF" cx="72" cy="22" r="17"></circle>
                <g id="Toilet" transform="translate(59.500000, 0.000000)" fill="#2E2F30">
                    <g id="noun_Toilet_1121753" transform="translate(0.000000, 10.000000)">
                        <g id="Group" fill-rule="nonzero">
                            <g id="Path">
                                <g>
                                    <path d="M23.9945839,13.4516516 L1.22351936,13.4516516 C0.549325808,13.4516516 0.000745161292,13.9998774 3.54838711e-05,14.6737161 L25.2180677,14.6737161 C25.2173581,13.9998774 24.6687774,13.4516516 23.9945839,13.4516516"></path>
                                    <path d="M0,16.2650613 C0,20.6004806 2.77412903,24.3951258 6.90338708,25.7076742 C7.12445161,25.7782871 7.27454838,25.9833839 7.27454838,26.2150935 L7.27454838,32.9605774 L17.9434839,32.9605774 L17.9434839,26.2150935 C17.9434839,25.9833839 18.0935807,25.7782871 18.3146452,25.7076742 C22.4439032,24.3951258 25.2180323,20.6004806 25.2180323,16.2650613 L25.2180323,15.7384806 L0,15.7384806 L0,16.2650613 Z"></path>
                                    <path d="M2.90247419,1.51707742 L22.1347322,1.51707742 L22.1471516,1.39714194 C22.1854742,1.03627097 22.0719258,0.688529031 21.8292161,0.418496773 C21.5857968,0.148819355 21.2522484,0.000141935484 20.8888935,0.000141935484 L4.14831292,0.000141935484 C3.78531292,0.000141935484 3.45140968,0.148819355 3.20834516,0.418141934 C2.96528064,0.688174192 2.8520871,1.03627097 2.89005484,1.39714194 L2.90247419,1.51707742 Z"></path>
                                    <polygon points="20.9968355 12.3871355 22.0233839 2.58152258 3.01396452 2.58152258 4.04051291 12.3871355"></polygon>
                                </g>
                            </g>
                        </g>
                    </g>
                </g>
                <g id="Group" transform="translate(0.000000, 52.000000)">
                    <text id="9:30-AM:-TOILET" font-family="OpenSans-Semibold, Open Sans" font-size="16" font-weight="500" fill="#2E2F30">
                        <tspan x="10.140625" y="17">9:30 AM: TOILET</tspan>
                    </text>
                    <path d="M24.5,26.5 L119.5,26.5" id="Line" stroke-opacity="0.25" stroke="#2E2F30" stroke-width="0.5" stroke-linecap="square"></path>
                    <text id="2-gallons" font-family="OpenSans-Semibold, Open Sans" font-size="24" font-weight="500" fill="#000000">
                        <tspan x="20.4179688" y="53">2 gallons</tspan>
                    </text>
                </g>
            </g>
            <g id="Toilet-Copy-3" transform="translate(1320.000000, 12.000000)">
                <circle id="Oval" fill="#96FEFF" cx="72" cy="22" r="17"></circle>
                <g id="Toilet" transform="translate(59.500000, 0.000000)" fill="#2E2F30">
                    <g id="noun_Toilet_1121753" transform="translate(0.000000, 10.000000)">
                        <g id="Group" fill-rule="nonzero">
                            <g id="Path">
                                <g>
                                    <path d="M23.9945839,13.4516516 L1.22351936,13.4516516 C0.549325808,13.4516516 0.000745161292,13.9998774 3.54838711e-05,14.6737161 L25.2180677,14.6737161 C25.2173581,13.9998774 24.6687774,13.4516516 23.9945839,13.4516516"></path>
                                    <path d="M0,16.2650613 C0,20.6004806 2.77412903,24.3951258 6.90338708,25.7076742 C7.12445161,25.7782871 7.27454838,25.9833839 7.27454838,26.2150935 L7.27454838,32.9605774 L17.9434839,32.9605774 L17.9434839,26.2150935 C17.9434839,25.9833839 18.0935807,25.7782871 18.3146452,25.7076742 C22.4439032,24.3951258 25.2180323,20.6004806 25.2180323,16.2650613 L25.2180323,15.7384806 L0,15.7384806 L0,16.2650613 Z"></path>
                                    <path d="M2.90247419,1.51707742 L22.1347322,1.51707742 L22.1471516,1.39714194 C22.1854742,1.03627097 22.0719258,0.688529031 21.8292161,0.418496773 C21.5857968,0.148819355 21.2522484,0.000141935484 20.8888935,0.000141935484 L4.14831292,0.000141935484 C3.78531292,0.000141935484 3.45140968,0.148819355 3.20834516,0.418141934 C2.96528064,0.688174192 2.8520871,1.03627097 2.89005484,1.39714194 L2.90247419,1.51707742 Z"></path>
                                    <polygon points="20.9968355 12.3871355 22.0233839 2.58152258 3.01396452 2.58152258 4.04051291 12.3871355"></polygon>
                                </g>
                            </g>
                        </g>
                    </g>
                </g>
                <g id="Group" transform="translate(0.000000, 52.000000)">
                    <text id="10-PM:-TOILET" font-family="OpenSans-Semibold, Open Sans" font-size="16" font-weight="500" fill="#2E2F30">
                        <tspan x="17.7734375" y="17">10 PM: TOILET</tspan>
                    </text>
                    <path d="M24.5,26.5 L119.5,26.5" id="Line" stroke-opacity="0.25" stroke="#2E2F30" stroke-width="0.5" stroke-linecap="square"></path>
                    <text id="2-gallons" font-family="OpenSans-Semibold, Open Sans" font-size="24" font-weight="500" fill="#000000">
                        <tspan x="20.4179688" y="53">2 gallons</tspan>
                    </text>
                </g>
            </g>
            <g id="Teeth" transform="translate(143.000000, 189.429191)">
                <circle id="Oval" fill="#96FEFF" cx="91" cy="17" r="17"></circle>
                <g id="brush" transform="translate(78.000000, 2.000000)" fill="#2E2F30">
                    <g id="noun_Brush-Teeth_2014400">
                        <path d="M25.3046757,3.61645946 C24.9002703,3.21240541 24.3286216,3.09610811 24.0563243,3.36664865 L23.8462162,3.57675676 C23.8353243,3.49524324 23.8051081,3.41583784 23.7425676,3.35259459 L20.6777297,0.288459459 C20.5294595,0.140189189 20.2708649,0.140189189 20.1232973,0.288459459 C19.9701081,0.441297297 19.9701081,0.690054054 20.1232973,0.842891892 L23.1881351,3.90843243 C23.2489189,3.96886486 23.3272703,4.00048649 23.4112432,4.01243243 L23.1322703,4.29140541 C23.121027,4.21024324 23.0908108,4.13048649 23.0279189,4.06794595 L19.9637838,1.00381081 C19.8144595,0.855540541 19.5565676,0.855540541 19.4082973,1.00416216 C19.2565135,1.15664865 19.2565135,1.40540541 19.4086486,1.55894595 L22.4731351,4.62308108 C22.5342703,4.68351351 22.612973,4.71513514 22.6969459,4.72708108 L22.4176216,5.00605405 C22.406027,4.92243243 22.3744054,4.84337838 22.3132703,4.78294595 L19.2491351,1.71881081 C19.1008649,1.56983784 18.8419189,1.57054054 18.6943514,1.71881081 C18.6202162,1.79294595 18.5794595,1.89132432 18.5794595,1.99637838 C18.5794595,2.10108108 18.6202162,2.19945946 18.6943514,2.27394595 L21.7581351,5.33772973 C21.8192703,5.39851351 21.8976216,5.43048649 21.9819459,5.44208108 L21.7026216,5.72175676 C21.6913784,5.64059459 21.6608108,5.56048649 21.5982703,5.49759459 L18.5344865,2.43345946 C18.3855135,2.28483784 18.1262162,2.28554054 17.9793514,2.43345946 C17.9052162,2.50794595 17.8644595,2.60597297 17.8644595,2.71067568 C17.8644595,2.81608108 17.9052162,2.91410811 17.9793514,2.98859459 L21.0431351,6.05202703 C21.1035676,6.11316216 21.1826216,6.14513514 21.2672973,6.15708108 L20.9876216,6.43640541 C20.9767297,6.35489189 20.9465135,6.27548649 20.883973,6.21259459 L17.8198378,3.14775676 C17.6712162,3.00054054 17.4150811,2.99913514 17.264,3.14810811 C17.1115135,3.30164865 17.1115135,3.55040541 17.2647027,3.70289189 L20.3288378,6.76702703 C20.3896216,6.82816216 20.4683243,6.85978378 20.5526486,6.87172973 L20.2736757,7.1507027 C20.2624324,7.06954054 20.2322162,6.98978378 20.1696757,6.92689189 L17.1048378,3.86275676 C16.9565676,3.71413514 16.697973,3.71413514 16.5504054,3.86275676 C16.3972162,4.01594595 16.3972162,4.2647027 16.5504054,4.41754054 L19.6141892,7.48132432 C19.674973,7.54210811 19.7536757,7.57443243 19.838,7.58602703 L19.5586757,7.8657027 C19.5467297,7.78208108 19.5151081,7.70232432 19.453973,7.64189189 L16.3898378,4.57775676 C16.2422703,4.43018919 15.984027,4.42913514 15.8354054,4.57775676 C15.6822162,4.73059459 15.6822162,4.97935135 15.8354054,5.13218919 L18.8998919,8.19667568 C18.9606757,8.25710811 19.0393784,8.28872973 19.1233514,8.30067568 L18.8436757,8.58 C18.8317297,8.49637838 18.8001081,8.41697297 18.738973,8.35618919 L15.6751892,5.29205405 C15.5258649,5.14413514 15.2683243,5.14448649 15.1200541,5.29240541 C14.9675676,5.44594595 14.9675676,5.6947027 15.1204054,5.84789189 L18.1845405,8.91202703 C18.2456757,8.97316216 18.3236757,9.00478378 18.4083514,9.01637838 L18.129027,9.2957027 C18.1174324,9.21454054 18.0872162,9.13478378 18.0246757,9.07189189 L14.9601892,6.00740541 C14.8119189,5.85913514 14.5550811,5.85843243 14.4047027,6.00810811 C14.2536216,6.16059459 14.2529189,6.409 14.4054054,6.56289189 L17.4702432,9.62667568 C17.5306757,9.68745946 17.6097297,9.71943243 17.6940541,9.73102703 L17.4147297,10.0103514 C17.4031351,9.92883784 17.3729189,9.84943243 17.3103784,9.78689189 L14.2458919,6.72275676 C14.0976216,6.57413514 13.8386757,6.57448649 13.6911081,6.72240541 C13.616973,6.79654054 13.5765676,6.89491892 13.5765676,6.99997297 C13.5765676,7.10502703 13.616973,7.20340541 13.6911081,7.27718919 L16.7552432,10.3416757 C16.8163784,10.4024595 16.8947297,10.4340811 16.9790541,10.446027 L0.444459459,26.9813243 C0.301108108,27.123973 0.25472973,27.3481351 0.316567568,27.5958378 C0.371378378,27.8154324 0.505594595,28.0406486 0.694621622,28.2293243 C0.947945946,28.4826486 1.26240541,28.6337297 1.53645946,28.6337297 C1.70018919,28.6337297 1.84002703,28.5803243 1.94121622,28.4791351 L25.5548378,4.86551351 C25.6563784,4.76432432 25.7104865,4.62378378 25.7104865,4.46075676 C25.7101351,4.18564865 25.5587027,3.87083784 25.3046757,3.61645946 Z" id="Path" fill-rule="nonzero"></path>
                    </g>
                </g>
                <g id="Group" transform="translate(0.000000, 47.000000)">
                    <text id="8:30-AM:-BRUSH-TEETH" font-family="OpenSans-Semibold, Open Sans" font-size="16" font-weight="500" fill="#2E2F30">
                        <tspan x="2.765625" y="17">8:30 AM: BRUSH TEETH</tspan>
                    </text>
                    <path d="M43.5,26.5 L138.5,26.5" id="Line" stroke-opacity="0.25" stroke="#2E2F30" stroke-width="0.5" stroke-linecap="square"></path>
                    <text id="1.5-gallons" font-family="OpenSans-Semibold, Open Sans" font-size="24" font-weight="500" fill="#000000">
                        <tspan x="29.2695312" y="53">1.5 gallons</tspan>
                    </text>
                </g>
            </g>
            <g id="Breakfast" transform="translate(0.000000, 392.000000)">
                <circle id="bg" fill="#96FEFF" cx="90" cy="22" r="17"></circle>
                <g id="Kitchen" transform="translate(78.000000, 0.000000)">
                    <g id="Group">
                        <path d="M8.26376081,21.9056604 C10.5589024,20.4719778 6.53234578,20.9264762 6.53234578,20.247353 C6.53234578,19.5682299 9.14753133,20.2659112 9.14753133,19.454734 C9.14753133,18.6435568 5.55555556,18.6435568 5.55555556,18.0399961 C5.55555556,17.4364355 10.4222618,18.3923674 10.1761562,17.0377358" id="Path-9" stroke="#2E2F30" stroke-width="0.5" stroke-linecap="round"></path>
                        <path d="M24.3250722,26.4615385 C24.6978245,26.4615385 25,26.7637139 25,27.1364663 L25,42.3250722 C25,42.6978245 24.6978245,43 24.3250722,43 L0.695741395,43 C0.322989052,43 0.0208135731,42.6978245 0.0208135731,42.3250722 L0.0208135731,27.1364663 C0.0208135731,26.7637139 0.322989052,26.4615385 0.695741395,26.4615385 L24.3250722,26.4615385 Z M21.2528136,35.2815385 L3.76769154,35.2820513 L3.76769154,39.6923077 L21.253122,39.6923077 L21.2528136,35.2815385 Z M21.253122,30.8717949 L3.76769154,30.8717949 L3.76769154,33.0769231 L21.2528136,33.0765385 L21.253122,30.8717949 Z M19.3084213,19.2614994 C19.6811737,19.2614994 19.9833491,19.5636749 19.9833491,19.9364272 L19.9833491,20.3640635 L23.1789451,20.3640635 C23.4834097,20.3640635 23.7302271,20.6108809 23.7302271,20.9153456 C23.7302271,21.2198102 23.4834097,21.4666276 23.1789451,21.4666276 L22.4812678,21.4666276 L21.2323085,25.876884 L16.2364712,25.876884 L14.9875119,21.4666276 L14.2898346,21.4666276 C13.9853699,21.4666276 13.7385525,21.2198102 13.7385525,20.9153456 C13.7385525,20.6108809 13.9853699,20.3640635 14.2898346,20.3640635 L17.4854305,20.3640635 L17.4854305,19.9364272 C17.4854305,19.5636749 17.787606,19.2614994 18.1603583,19.2614994 L19.3084213,19.2614994 Z M13.32754,23.6717558 C13.4020904,23.6717558 13.4625255,23.7321909 13.4625255,23.8067414 C13.4625255,23.8448602 13.4464086,23.8812021 13.4181554,23.9067911 L11.2429478,25.876884 L6.33490522,25.876884 L4.716,24.4977558 L0.275641026,24.4986789 C0.123408691,24.4986789 8.62478215e-17,24.3752702 0,24.2230379 C-8.62478215e-17,24.0708055 0.123408691,23.9473968 0.275641026,23.9473968 L4.07,23.9467558 L4.02589025,23.9094882 C3.96914475,23.8611382 3.96233885,23.7759415 4.01068884,23.719196 C4.03633554,23.689096 4.07389119,23.6717558 4.11343564,23.6717558 L13.32754,23.6717558 Z M16.2572848,0 L16.2568136,6.615 L25,14.3333333 L0.0208135731,14.3333333 L8.76281357,6.615 L8.76352882,0 L16.2572848,0 Z" id="Combined-Shape" fill="#2E2F30"></path>
                    </g>
                </g>
                <g id="Group" transform="translate(0.000000, 52.000000)">
                    <text id="9-AM:-MAKE-BREAKFAST" font-family="OpenSans-Semibold, Open Sans" font-size="16" font-weight="500" fill="#2E2F30">
                        <tspan x="0.00390625" y="17">9 AM: MAKE BREAKFAST</tspan>
                    </text>
                    <path d="M43.5,26.5 L138.5,26.5" id="Line" stroke-opacity="0.25" stroke="#2E2F30" stroke-width="0.5" stroke-linecap="square"></path>
                    <text id="8-gallons" font-family="OpenSans-Semibold, Open Sans" font-size="24" font-weight="500" fill="#000000">
                        <tspan x="39.4179688" y="53">8 gallons</tspan>
                    </text>
                </g>
            </g>
            <g id="Shower" transform="translate(328.000000, 325.000000)">
                <circle id="bg" fill="#96FEFF" cx="91" cy="20" r="17"></circle>
                <g transform="translate(78.000000, 0.000000)" fill="#2E2F30" id="shower">
                    <g>
                        <path d="M13,10 C18.5228475,10 23,14.4771525 23,20 C23,20.3378756 22.9832433,20.6718374 22.9505155,21.0010997 L3.04948449,21.0010997 C3.01675673,20.6718374 3,20.3378756 3,20 C3,14.4771525 7.4771525,10 13,10 Z" id="Combined-Shape"></path>
                        <path d="M26,0 L26,4 L17,4 C15.9456382,4 15.0818349,4.81587779 15.0054857,5.85073766 L15,6 L15,16 L13,16 C11.8954305,16 11,15.1045695 11,14 L11,6 C11,2.6862915 13.6862915,6.08718376e-16 17,0 L26,0 Z" id="Combined-Shape"></path>
                        <path d="M1,30 C1.66666667,30.8193794 2,31.4390946 2,31.8591456 C2,32.4892221 1.55228475,33 1,33 C0.44771525,33 0,32.4892221 0,31.8591456 C0,31.4390946 0.333333333,30.8193794 1,30 Z M5,30 C5.66666667,30.8193794 6,31.4390946 6,31.8591456 C6,32.4892221 5.55228475,33 5,33 C4.44771525,33 4,32.4892221 4,31.8591456 C4,31.4390946 4.33333333,30.8193794 5,30 Z M9,30 C9.66666667,30.8193794 10,31.4390946 10,31.8591456 C10,32.4892221 9.55228475,33 9,33 C8.44771525,33 8,32.4892221 8,31.8591456 C8,31.4390946 8.33333333,30.8193794 9,30 Z M13,30 C13.6666667,30.8193794 14,31.4390946 14,31.8591456 C14,32.4892221 13.5522847,33 13,33 C12.4477153,33 12,32.4892221 12,31.8591456 C12,31.4390946 12.3333333,30.8193794 13,30 Z M17,30 C17.6666667,30.8193794 18,31.4390946 18,31.8591456 C18,32.4892221 17.5522847,33 17,33 C16.4477153,33 16,32.4892221 16,31.8591456 C16,31.4390946 16.3333333,30.8193794 17,30 Z M21,30 C21.6666667,30.8193794 22,31.4390946 22,31.8591456 C22,32.4892221 21.5522847,33 21,33 C20.4477153,33 20,32.4892221 20,31.8591456 C20,31.4390946 20.3333333,30.8193794 21,30 Z M25,30 C25.6666667,30.8193794 26,31.4390946 26,31.8591456 C26,32.4892221 25.5522847,33 25,33 C24.4477153,33 24,32.4892221 24,31.8591456 C24,31.4390946 24.3333333,30.8193794 25,30 Z M3,26 C3.66666667,26.8193794 4,27.4390946 4,27.8591456 C4,28.4892221 3.55228475,29 3,29 C2.44771525,29 2,28.4892221 2,27.8591456 C2,27.4390946 2.33333333,26.8193794 3,26 Z M7,26 C7.66666667,26.8193794 8,27.4390946 8,27.8591456 C8,28.4892221 7.55228475,29 7,29 C6.44771525,29 6,28.4892221 6,27.8591456 C6,27.4390946 6.33333333,26.8193794 7,26 Z M11,26 C11.6666667,26.8193794 12,27.4390946 12,27.8591456 C12,28.4892221 11.5522847,29 11,29 C10.4477153,29 10,28.4892221 10,27.8591456 C10,27.4390946 10.3333333,26.8193794 11,26 Z M15,26 C15.6666667,26.8193794 16,27.4390946 16,27.8591456 C16,28.4892221 15.5522847,29 15,29 C14.4477153,29 14,28.4892221 14,27.8591456 C14,27.4390946 14.3333333,26.8193794 15,26 Z M19,26 C19.6666667,26.8193794 20,27.4390946 20,27.8591456 C20,28.4892221 19.5522847,29 19,29 C18.4477153,29 18,28.4892221 18,27.8591456 C18,27.4390946 18.3333333,26.8193794 19,26 Z M23,26 C23.6666667,26.8193794 24,27.4390946 24,27.8591456 C24,28.4892221 23.5522847,29 23,29 C22.4477153,29 22,28.4892221 22,27.8591456 C22,27.4390946 22.3333333,26.8193794 23,26 Z M5,22 C5.66666667,22.8193794 6,23.4390946 6,23.8591456 C6,24.4892221 5.55228475,25 5,25 C4.44771525,25 4,24.4892221 4,23.8591456 C4,23.4390946 4.33333333,22.8193794 5,22 Z M9,22 C9.66666667,22.8193794 10,23.4390946 10,23.8591456 C10,24.4892221 9.55228475,25 9,25 C8.44771525,25 8,24.4892221 8,23.8591456 C8,23.4390946 8.33333333,22.8193794 9,22 Z M13,22 C13.6666667,22.8193794 14,23.4390946 14,23.8591456 C14,24.4892221 13.5522847,25 13,25 C12.4477153,25 12,24.4892221 12,23.8591456 C12,23.4390946 12.3333333,22.8193794 13,22 Z M17,22 C17.6666667,22.8193794 18,23.4390946 18,23.8591456 C18,24.4892221 17.5522847,25 17,25 C16.4477153,25 16,24.4892221 16,23.8591456 C16,23.4390946 16.3333333,22.8193794 17,22 Z M21,22 C21.6666667,22.8193794 22,23.4390946 22,23.8591456 C22,24.4892221 21.5522847,25 21,25 C20.4477153,25 20,24.4892221 20,23.8591456 C20,23.4390946 20.3333333,22.8193794 21,22 Z" id="Combined-Shape"></path>
                    </g>
                </g>
                <g id="Group" transform="translate(0.000000, 50.000000)">
                    <text id="10-AM:-SHOWER" font-family="OpenSans-Semibold, Open Sans" font-size="16" font-weight="500" fill="#2E2F30">
                        <tspan x="29.5703125" y="17">10 AM: SHOWER</tspan>
                    </text>
                    <path d="M43.5,26.5 L138.5,26.5" id="Line" stroke-opacity="0.25" stroke="#2E2F30" stroke-width="0.5" stroke-linecap="square"></path>
                    <text id="28-gallons" font-family="OpenSans-Semibold, Open Sans" font-size="24" font-weight="500" fill="#000000">
                        <tspan x="32.5683594" y="53">28 gallons</tspan>
                    </text>
                </g>
            </g>
            <g id="Toilet2" transform="translate(478.000000, 138.429191)">
                <circle id="Oval" fill="#96FEFF" cx="91" cy="22" r="17"></circle>
                <g id="Toilet" transform="translate(78.500000, 0.000000)" fill="#2E2F30">
                    <g id="noun_Toilet_1121753" transform="translate(0.000000, 10.000000)">
                        <g id="Group" fill-rule="nonzero">
                            <g id="Path">
                                <g>
                                    <path d="M23.9945839,13.4516516 L1.22351936,13.4516516 C0.549325808,13.4516516 0.000745161292,13.9998774 3.54838711e-05,14.6737161 L25.2180677,14.6737161 C25.2173581,13.9998774 24.6687774,13.4516516 23.9945839,13.4516516"></path>
                                    <path d="M0,16.2650613 C0,20.6004806 2.77412903,24.3951258 6.90338708,25.7076742 C7.12445161,25.7782871 7.27454838,25.9833839 7.27454838,26.2150935 L7.27454838,32.9605774 L17.9434839,32.9605774 L17.9434839,26.2150935 C17.9434839,25.9833839 18.0935807,25.7782871 18.3146452,25.7076742 C22.4439032,24.3951258 25.2180323,20.6004806 25.2180323,16.2650613 L25.2180323,15.7384806 L0,15.7384806 L0,16.2650613 Z"></path>
                                    <path d="M2.90247419,1.51707742 L22.1347322,1.51707742 L22.1471516,1.39714194 C22.1854742,1.03627097 22.0719258,0.688529031 21.8292161,0.418496773 C21.5857968,0.148819355 21.2522484,0.000141935484 20.8888935,0.000141935484 L4.14831292,0.000141935484 C3.78531292,0.000141935484 3.45140968,0.148819355 3.20834516,0.418141934 C2.96528064,0.688174192 2.8520871,1.03627097 2.89005484,1.39714194 L2.90247419,1.51707742 Z"></path>
                                    <polygon points="20.9968355 12.3871355 22.0233839 2.58152258 3.01396452 2.58152258 4.04051291 12.3871355"></polygon>
                                </g>
                            </g>
                        </g>
                    </g>
                </g>
                <g id="Group" transform="translate(0.000000, 52.000000)">
                    <text id="11-AM:-TOILET" font-family="OpenSans-Semibold, Open Sans" font-size="16" font-weight="500" fill="#2E2F30">
                        <tspan x="36.90625" y="17">11 AM: TOILET</tspan>
                    </text>
                    <path d="M43.5,26.5 L138.5,26.5" id="Line" stroke-opacity="0.25" stroke="#2E2F30" stroke-width="0.5" stroke-linecap="square"></path>
                    <text id="2-gallons" font-family="OpenSans-Semibold, Open Sans" font-size="24" font-weight="500" fill="#000000">
                        <tspan x="39.4179688" y="53">2 gallons</tspan>
                    </text>
                </g>
            </g>
            <g id="Lunch" transform="translate(662.000000, 12.429191)">
                <circle id="bg" fill="#96FEFF" cx="92" cy="22" r="17"></circle>
                <g id="Kitchen" transform="translate(79.500000, 0.000000)">
                    <g id="Group">
                        <path d="M8.26376081,21.9056604 C10.5589024,20.4719778 6.53234578,20.9264762 6.53234578,20.247353 C6.53234578,19.5682299 9.14753133,20.2659112 9.14753133,19.454734 C9.14753133,18.6435568 5.55555556,18.6435568 5.55555556,18.0399961 C5.55555556,17.4364355 10.4222618,18.3923674 10.1761562,17.0377358" id="Path-9" stroke="#2E2F30" stroke-width="0.5" stroke-linecap="round"></path>
                        <path d="M24.3250722,26.4615385 C24.6978245,26.4615385 25,26.7637139 25,27.1364663 L25,42.3250722 C25,42.6978245 24.6978245,43 24.3250722,43 L0.695741395,43 C0.322989052,43 0.0208135731,42.6978245 0.0208135731,42.3250722 L0.0208135731,27.1364663 C0.0208135731,26.7637139 0.322989052,26.4615385 0.695741395,26.4615385 L24.3250722,26.4615385 Z M21.2528136,35.2815385 L3.76769154,35.2820513 L3.76769154,39.6923077 L21.253122,39.6923077 L21.2528136,35.2815385 Z M21.253122,30.8717949 L3.76769154,30.8717949 L3.76769154,33.0769231 L21.2528136,33.0765385 L21.253122,30.8717949 Z M19.3084213,19.2614994 C19.6811737,19.2614994 19.9833491,19.5636749 19.9833491,19.9364272 L19.9833491,20.3640635 L23.1789451,20.3640635 C23.4834097,20.3640635 23.7302271,20.6108809 23.7302271,20.9153456 C23.7302271,21.2198102 23.4834097,21.4666276 23.1789451,21.4666276 L22.4812678,21.4666276 L21.2323085,25.876884 L16.2364712,25.876884 L14.9875119,21.4666276 L14.2898346,21.4666276 C13.9853699,21.4666276 13.7385525,21.2198102 13.7385525,20.9153456 C13.7385525,20.6108809 13.9853699,20.3640635 14.2898346,20.3640635 L17.4854305,20.3640635 L17.4854305,19.9364272 C17.4854305,19.5636749 17.787606,19.2614994 18.1603583,19.2614994 L19.3084213,19.2614994 Z M13.32754,23.6717558 C13.4020904,23.6717558 13.4625255,23.7321909 13.4625255,23.8067414 C13.4625255,23.8448602 13.4464086,23.8812021 13.4181554,23.9067911 L11.2429478,25.876884 L6.33490522,25.876884 L4.716,24.4977558 L0.275641026,24.4986789 C0.123408691,24.4986789 8.62478215e-17,24.3752702 0,24.2230379 C-8.62478215e-17,24.0708055 0.123408691,23.9473968 0.275641026,23.9473968 L4.07,23.9467558 L4.02589025,23.9094882 C3.96914475,23.8611382 3.96233885,23.7759415 4.01068884,23.719196 C4.03633554,23.689096 4.07389119,23.6717558 4.11343564,23.6717558 L13.32754,23.6717558 Z M16.2572848,0 L16.2568136,6.615 L25,14.3333333 L0.0208135731,14.3333333 L8.76281357,6.615 L8.76352882,0 L16.2572848,0 Z" id="Combined-Shape" fill="#2E2F30"></path>
                    </g>
                </g>
                <g id="Group" transform="translate(0.000000, 52.000000)">
                    <text id="12-PM:-MAKE-LUNCH" font-family="OpenSans-Semibold, Open Sans" font-size="16" font-weight="500" fill="#2E2F30">
                        <tspan x="11.8398438" y="17">12 PM: MAKE LUNCH</tspan>
                    </text>
                    <path d="M43.5,26.5 L138.5,26.5" id="Line" stroke-opacity="0.25" stroke="#2E2F30" stroke-width="0.5" stroke-linecap="square"></path>
                    <text id="8-gallons" font-family="OpenSans-Semibold, Open Sans" font-size="24" font-weight="500" fill="#000000">
                        <tspan x="39.4179688" y="53">8 gallons</tspan>
                    </text>
                </g>
            </g>
            <g id="Toilet3" transform="translate(828.000000, 172.429191)">
                <circle id="Oval" fill="#96FEFF" cx="90" cy="22" r="17"></circle>
                <g id="Toilet" transform="translate(77.500000, 0.000000)" fill="#2E2F30">
                    <g id="noun_Toilet_1121753" transform="translate(0.000000, 10.000000)">
                        <g id="Group" fill-rule="nonzero">
                            <g id="Path">
                                <g>
                                    <path d="M23.9945839,13.4516516 L1.22351936,13.4516516 C0.549325808,13.4516516 0.000745161292,13.9998774 3.54838711e-05,14.6737161 L25.2180677,14.6737161 C25.2173581,13.9998774 24.6687774,13.4516516 23.9945839,13.4516516"></path>
                                    <path d="M0,16.2650613 C0,20.6004806 2.77412903,24.3951258 6.90338708,25.7076742 C7.12445161,25.7782871 7.27454838,25.9833839 7.27454838,26.2150935 L7.27454838,32.9605774 L17.9434839,32.9605774 L17.9434839,26.2150935 C17.9434839,25.9833839 18.0935807,25.7782871 18.3146452,25.7076742 C22.4439032,24.3951258 25.2180323,20.6004806 25.2180323,16.2650613 L25.2180323,15.7384806 L0,15.7384806 L0,16.2650613 Z"></path>
                                    <path d="M2.90247419,1.51707742 L22.1347322,1.51707742 L22.1471516,1.39714194 C22.1854742,1.03627097 22.0719258,0.688529031 21.8292161,0.418496773 C21.5857968,0.148819355 21.2522484,0.000141935484 20.8888935,0.000141935484 L4.14831292,0.000141935484 C3.78531292,0.000141935484 3.45140968,0.148819355 3.20834516,0.418141934 C2.96528064,0.688174192 2.8520871,1.03627097 2.89005484,1.39714194 L2.90247419,1.51707742 Z"></path>
                                    <polygon points="20.9968355 12.3871355 22.0233839 2.58152258 3.01396452 2.58152258 4.04051291 12.3871355"></polygon>
                                </g>
                            </g>
                        </g>
                    </g>
                </g>
                <g id="Group" transform="translate(0.000000, 52.000000)">
                    <text id="1-PM:-TOILET" font-family="OpenSans-Semibold, Open Sans" font-size="16" font-weight="500" fill="#2E2F30">
                        <tspan x="41.8398438" y="17">1 PM: TOILET</tspan>
                    </text>
                    <path d="M43.5,26.5 L138.5,26.5" id="Line" stroke-opacity="0.25" stroke="#2E2F30" stroke-width="0.5" stroke-linecap="square"></path>
                    <text id="2-gallons" font-family="OpenSans-Semibold, Open Sans" font-size="24" font-weight="500" fill="#000000">
                        <tspan x="39.4179688" y="53">2 gallons</tspan>
                    </text>
                </g>
            </g>
            <g id="Dinner" transform="translate(662.000000, 443.000000)">
                <circle id="bg" fill="#96FEFF" cx="91" cy="22" r="17"></circle>
                <g id="Kitchen" transform="translate(78.500000, 0.000000)">
                    <g id="Group">
                        <path d="M8.26376081,21.9056604 C10.5589024,20.4719778 6.53234578,20.9264762 6.53234578,20.247353 C6.53234578,19.5682299 9.14753133,20.2659112 9.14753133,19.454734 C9.14753133,18.6435568 5.55555556,18.6435568 5.55555556,18.0399961 C5.55555556,17.4364355 10.4222618,18.3923674 10.1761562,17.0377358" id="Path-9" stroke="#2E2F30" stroke-width="0.5" stroke-linecap="round"></path>
                        <path d="M24.3250722,26.4615385 C24.6978245,26.4615385 25,26.7637139 25,27.1364663 L25,42.3250722 C25,42.6978245 24.6978245,43 24.3250722,43 L0.695741395,43 C0.322989052,43 0.0208135731,42.6978245 0.0208135731,42.3250722 L0.0208135731,27.1364663 C0.0208135731,26.7637139 0.322989052,26.4615385 0.695741395,26.4615385 L24.3250722,26.4615385 Z M21.2528136,35.2815385 L3.76769154,35.2820513 L3.76769154,39.6923077 L21.253122,39.6923077 L21.2528136,35.2815385 Z M21.253122,30.8717949 L3.76769154,30.8717949 L3.76769154,33.0769231 L21.2528136,33.0765385 L21.253122,30.8717949 Z M19.3084213,19.2614994 C19.6811737,19.2614994 19.9833491,19.5636749 19.9833491,19.9364272 L19.9833491,20.3640635 L23.1789451,20.3640635 C23.4834097,20.3640635 23.7302271,20.6108809 23.7302271,20.9153456 C23.7302271,21.2198102 23.4834097,21.4666276 23.1789451,21.4666276 L22.4812678,21.4666276 L21.2323085,25.876884 L16.2364712,25.876884 L14.9875119,21.4666276 L14.2898346,21.4666276 C13.9853699,21.4666276 13.7385525,21.2198102 13.7385525,20.9153456 C13.7385525,20.6108809 13.9853699,20.3640635 14.2898346,20.3640635 L17.4854305,20.3640635 L17.4854305,19.9364272 C17.4854305,19.5636749 17.787606,19.2614994 18.1603583,19.2614994 L19.3084213,19.2614994 Z M13.32754,23.6717558 C13.4020904,23.6717558 13.4625255,23.7321909 13.4625255,23.8067414 C13.4625255,23.8448602 13.4464086,23.8812021 13.4181554,23.9067911 L11.2429478,25.876884 L6.33490522,25.876884 L4.716,24.4977558 L0.275641026,24.4986789 C0.123408691,24.4986789 8.62478215e-17,24.3752702 0,24.2230379 C-8.62478215e-17,24.0708055 0.123408691,23.9473968 0.275641026,23.9473968 L4.07,23.9467558 L4.02589025,23.9094882 C3.96914475,23.8611382 3.96233885,23.7759415 4.01068884,23.719196 C4.03633554,23.689096 4.07389119,23.6717558 4.11343564,23.6717558 L13.32754,23.6717558 Z M16.2572848,0 L16.2568136,6.615 L25,14.3333333 L0.0208135731,14.3333333 L8.76281357,6.615 L8.76352882,0 L16.2572848,0 Z" id="Combined-Shape" fill="#2E2F30"></path>
                    </g>
                </g>
                <g id="Group" transform="translate(0.000000, 52.000000)">
                    <text id="6-PM:-MAKE-DINNER" font-family="OpenSans-Semibold, Open Sans" font-size="16" font-weight="500" fill="#2E2F30">
                        <tspan x="13.5234375" y="17">6 PM: MAKE DINNER</tspan>
                    </text>
                    <path d="M43.5,26.5 L138.5,26.5" id="Line" stroke-opacity="0.25" stroke="#2E2F30" stroke-width="0.5" stroke-linecap="square"></path>
                    <text id="10-gallons" font-family="OpenSans-Semibold, Open Sans" font-size="24" font-weight="500" fill="#000000">
                        <tspan x="32.5683594" y="53">10 gallons</tspan>
                    </text>
                </g>
            </g>
            <g id="Toilet4" transform="translate(954.000000, 375.000000)">
                <circle id="Oval" fill="#96FEFF" cx="91" cy="22" r="17"></circle>
                <g id="Toilet" transform="translate(78.500000, 0.000000)" fill="#2E2F30">
                    <g id="noun_Toilet_1121753" transform="translate(0.000000, 10.000000)">
                        <g id="Group" fill-rule="nonzero">
                            <g id="Path">
                                <g>
                                    <path d="M23.9945839,13.4516516 L1.22351936,13.4516516 C0.549325808,13.4516516 0.000745161292,13.9998774 3.54838711e-05,14.6737161 L25.2180677,14.6737161 C25.2173581,13.9998774 24.6687774,13.4516516 23.9945839,13.4516516"></path>
                                    <path d="M0,16.2650613 C0,20.6004806 2.77412903,24.3951258 6.90338708,25.7076742 C7.12445161,25.7782871 7.27454838,25.9833839 7.27454838,26.2150935 L7.27454838,32.9605774 L17.9434839,32.9605774 L17.9434839,26.2150935 C17.9434839,25.9833839 18.0935807,25.7782871 18.3146452,25.7076742 C22.4439032,24.3951258 25.2180323,20.6004806 25.2180323,16.2650613 L25.2180323,15.7384806 L0,15.7384806 L0,16.2650613 Z"></path>
                                    <path d="M2.90247419,1.51707742 L22.1347322,1.51707742 L22.1471516,1.39714194 C22.1854742,1.03627097 22.0719258,0.688529031 21.8292161,0.418496773 C21.5857968,0.148819355 21.2522484,0.000141935484 20.8888935,0.000141935484 L4.14831292,0.000141935484 C3.78531292,0.000141935484 3.45140968,0.148819355 3.20834516,0.418141934 C2.96528064,0.688174192 2.8520871,1.03627097 2.89005484,1.39714194 L2.90247419,1.51707742 Z"></path>
                                    <polygon points="20.9968355 12.3871355 22.0233839 2.58152258 3.01396452 2.58152258 4.04051291 12.3871355"></polygon>
                                </g>
                            </g>
                        </g>
                    </g>
                </g>
                <g id="Group" transform="translate(0.000000, 52.000000)">
                    <text id="8-PM:-TOILET" font-family="OpenSans-Semibold, Open Sans" font-size="16" font-weight="500" fill="#2E2F30">
                        <tspan x="41.8398438" y="17">8 PM: TOILET</tspan>
                    </text>
                    <path d="M43.5,26.5 L138.5,26.5" id="Line" stroke-opacity="0.25" stroke="#2E2F30" stroke-width="0.5" stroke-linecap="square"></path>
                    <text id="2-gallons" font-family="OpenSans-Semibold, Open Sans" font-size="24" font-weight="500" fill="#000000">
                        <tspan x="39.4179688" y="53">2 gallons</tspan>
                    </text>
                </g>
            </g>
            <g id="TeethPM" transform="translate(1137.000000, 161.000000)">
                <circle id="bg" fill="#96FEFF" cx="91" cy="17" r="17"></circle>
                <g id="brush" transform="translate(78.000000, 2.570809)" fill="#2E2F30">
                    <g id="noun_Brush-Teeth_2014400">
                        <path d="M25.3046757,3.61645946 C24.9002703,3.21240541 24.3286216,3.09610811 24.0563243,3.36664865 L23.8462162,3.57675676 C23.8353243,3.49524324 23.8051081,3.41583784 23.7425676,3.35259459 L20.6777297,0.288459459 C20.5294595,0.140189189 20.2708649,0.140189189 20.1232973,0.288459459 C19.9701081,0.441297297 19.9701081,0.690054054 20.1232973,0.842891892 L23.1881351,3.90843243 C23.2489189,3.96886486 23.3272703,4.00048649 23.4112432,4.01243243 L23.1322703,4.29140541 C23.121027,4.21024324 23.0908108,4.13048649 23.0279189,4.06794595 L19.9637838,1.00381081 C19.8144595,0.855540541 19.5565676,0.855540541 19.4082973,1.00416216 C19.2565135,1.15664865 19.2565135,1.40540541 19.4086486,1.55894595 L22.4731351,4.62308108 C22.5342703,4.68351351 22.612973,4.71513514 22.6969459,4.72708108 L22.4176216,5.00605405 C22.406027,4.92243243 22.3744054,4.84337838 22.3132703,4.78294595 L19.2491351,1.71881081 C19.1008649,1.56983784 18.8419189,1.57054054 18.6943514,1.71881081 C18.6202162,1.79294595 18.5794595,1.89132432 18.5794595,1.99637838 C18.5794595,2.10108108 18.6202162,2.19945946 18.6943514,2.27394595 L21.7581351,5.33772973 C21.8192703,5.39851351 21.8976216,5.43048649 21.9819459,5.44208108 L21.7026216,5.72175676 C21.6913784,5.64059459 21.6608108,5.56048649 21.5982703,5.49759459 L18.5344865,2.43345946 C18.3855135,2.28483784 18.1262162,2.28554054 17.9793514,2.43345946 C17.9052162,2.50794595 17.8644595,2.60597297 17.8644595,2.71067568 C17.8644595,2.81608108 17.9052162,2.91410811 17.9793514,2.98859459 L21.0431351,6.05202703 C21.1035676,6.11316216 21.1826216,6.14513514 21.2672973,6.15708108 L20.9876216,6.43640541 C20.9767297,6.35489189 20.9465135,6.27548649 20.883973,6.21259459 L17.8198378,3.14775676 C17.6712162,3.00054054 17.4150811,2.99913514 17.264,3.14810811 C17.1115135,3.30164865 17.1115135,3.55040541 17.2647027,3.70289189 L20.3288378,6.76702703 C20.3896216,6.82816216 20.4683243,6.85978378 20.5526486,6.87172973 L20.2736757,7.1507027 C20.2624324,7.06954054 20.2322162,6.98978378 20.1696757,6.92689189 L17.1048378,3.86275676 C16.9565676,3.71413514 16.697973,3.71413514 16.5504054,3.86275676 C16.3972162,4.01594595 16.3972162,4.2647027 16.5504054,4.41754054 L19.6141892,7.48132432 C19.674973,7.54210811 19.7536757,7.57443243 19.838,7.58602703 L19.5586757,7.8657027 C19.5467297,7.78208108 19.5151081,7.70232432 19.453973,7.64189189 L16.3898378,4.57775676 C16.2422703,4.43018919 15.984027,4.42913514 15.8354054,4.57775676 C15.6822162,4.73059459 15.6822162,4.97935135 15.8354054,5.13218919 L18.8998919,8.19667568 C18.9606757,8.25710811 19.0393784,8.28872973 19.1233514,8.30067568 L18.8436757,8.58 C18.8317297,8.49637838 18.8001081,8.41697297 18.738973,8.35618919 L15.6751892,5.29205405 C15.5258649,5.14413514 15.2683243,5.14448649 15.1200541,5.29240541 C14.9675676,5.44594595 14.9675676,5.6947027 15.1204054,5.84789189 L18.1845405,8.91202703 C18.2456757,8.97316216 18.3236757,9.00478378 18.4083514,9.01637838 L18.129027,9.2957027 C18.1174324,9.21454054 18.0872162,9.13478378 18.0246757,9.07189189 L14.9601892,6.00740541 C14.8119189,5.85913514 14.5550811,5.85843243 14.4047027,6.00810811 C14.2536216,6.16059459 14.2529189,6.409 14.4054054,6.56289189 L17.4702432,9.62667568 C17.5306757,9.68745946 17.6097297,9.71943243 17.6940541,9.73102703 L17.4147297,10.0103514 C17.4031351,9.92883784 17.3729189,9.84943243 17.3103784,9.78689189 L14.2458919,6.72275676 C14.0976216,6.57413514 13.8386757,6.57448649 13.6911081,6.72240541 C13.616973,6.79654054 13.5765676,6.89491892 13.5765676,6.99997297 C13.5765676,7.10502703 13.616973,7.20340541 13.6911081,7.27718919 L16.7552432,10.3416757 C16.8163784,10.4024595 16.8947297,10.4340811 16.9790541,10.446027 L0.444459459,26.9813243 C0.301108108,27.123973 0.25472973,27.3481351 0.316567568,27.5958378 C0.371378378,27.8154324 0.505594595,28.0406486 0.694621622,28.2293243 C0.947945946,28.4826486 1.26240541,28.6337297 1.53645946,28.6337297 C1.70018919,28.6337297 1.84002703,28.5803243 1.94121622,28.4791351 L25.5548378,4.86551351 C25.6563784,4.76432432 25.7104865,4.62378378 25.7104865,4.46075676 C25.7101351,4.18564865 25.5587027,3.87083784 25.3046757,3.61645946 Z" id="Path" fill-rule="nonzero"></path>
                    </g>
                </g>
                <g id="Group" transform="translate(0.000000, 47.000000)">
                    <text id="9-PM:-BRUSH-TEETH" font-family="OpenSans-Semibold, Open Sans" font-size="16" font-weight="500" fill="#2E2F30">
                        <tspan x="15.4648438" y="17">9 PM: BRUSH TEETH</tspan>
                    </text>
                    <path d="M43.5,26.5 L138.5,26.5" id="Line" stroke-opacity="0.25" stroke="#2E2F30" stroke-width="0.5" stroke-linecap="square"></path>
                    <text id="1.5-gallons" font-family="OpenSans-Semibold, Open Sans" font-size="24" font-weight="500" fill="#000000">
                        <tspan x="29.2695312" y="53">1.5 gallons</tspan>
                    </text>
                </g>
            </g>
            <g id="Paths" transform="translate(78.000000, 0.000000)" stroke="#0D7DFF">
                <path d="M-1.42108547e-14,120.726201 C10.3058235,132.079054 25.7199171,161.44 46.6477403,163.143878 C55.4758374,163.862633 91.9108262,177.874958 86.1527963,164.416815 C84.8625685,161.401189 73.6433066,159.683388 72.7686172,163.143878 C68.8310906,178.721714 99.1617381,181.851354 114.213618,185.64828 C118.610958,186.757535 122.750807,188.309243 126.721794,189.980068 C129.486799,191.143467 131.786337,192.731768 134.318608,194.107617" id="1:2"></path>
                <path d="M12.137309,387.92405 C15.4874049,365.149764 32.2412,353.976976 52.411495,346.429434 C53.0093158,346.205735 62.503388,343.797358 64.0298029,345.545834 C65.7175015,347.479057 66.3768336,350.484005 65.9192775,353.009143 C65.7238826,354.087479 62.7483447,352.739193 62.9224185,351.657211 L62.7678461,347.636022 C63.0048561,346.16285 63.324667,344.583165 64.2489727,343.411812 C65.182363,342.228946 66.6708351,341.577749 68.0417642,340.952495 C70.9737292,339.615283 73.9627441,338.322507 77.0923246,337.55421 C90.6766092,334.219333 104.542659,332.095908 118.10246,328.662836 C125.181186,326.870643 132.178464,324.659698 138.937436,321.896256 C142.325198,320.511151 145.591562,318.661364 148.37558,316.285508 C152.451813,312.80689 155.668937,308.432307 159.315615,304.505707" id="2:3"></path>
                <path d="M341.5,317.009617 C341,295.690036 344.855526,229.694778 357.269596,212.889749 C357.78131,212.197037 372.354448,187.226708 382.418321,189.754935 C383.38301,189.997282 384.615124,190.524372 384.872409,191.545021 C385.784715,195.164143 380.03951,198.048696 377.944722,197.143961 C375.287082,195.996131 378.671404,188.801474 379.954291,186.771459 C381.663987,184.066068 383.490672,181.282233 385.985838,179.394549 C391.474042,175.242523 397.172408,170.998536 403.601874,168.881203 C423.10829,162.457408 446.229592,167.971464 464.282332,157.696953" id="4:5"></path>
                <path d="M504.597263,141.399479 C522.147543,138.490036 517.801577,117.321668 529.787473,108.245281 C537.834509,102.151618 549.985982,105.180133 557.956292,98.8224198 C572.328773,87.3578583 579.354525,70.0417447 594.689381,59.664449 C611.982907,47.9616964 630.616644,45.5439158 648.597263,36.3994787" id="5:6"></path>
                <path d="M1150.5,154.288505 C1150.5,140.470267 1198.18476,128.275794 1214.51054,132.861984 C1217.98981,133.839371 1213.57226,140.59875 1212.22993,137.090816 C1210.9722,133.803967 1214.34847,129.514908 1217.36933,128.957158 C1223.0895,127.901027 1229.02019,128.242888 1234.81815,128.711361 C1252.43479,130.134779 1269.90262,133.085698 1287.50956,134.624463 C1298.4092,135.577041 1313.38908,137.831541 1314.44672,124.104056" id="Path-6"></path>
                <path d="M702.446086,36.6241616 C716.238935,43.0951397 729.760564,50.2956833 743.824632,56.0370958 C773.546556,68.1705565 779.842762,63.6825763 800.257295,80.8026558 C809.508008,88.5605086 805.257473,106.302285 797.258735,100.082419 C794.01211,97.5578232 799.84542,93.7275434 800.451133,93.5527307 C807.123821,91.6269503 813.951989,97.7724156 816.654434,103.841285 C818.995085,109.097674 820.887259,114.594977 822.522988,120.156913 C826.96991,135.27769 819.964707,152.574024 827.446086,165.624162" id="6:7"></path>
                <path d="M1336.69921,31.6083951 C1363.26545,31.6083951 1356.49986,19.0913367 1368.29433,6.35285576 C1372.44637,1.86850192 1395.10088,0.199828381 1396.35137,0" id="10:"></path>
                <path d="M4.99584005,518.083264 C4.99584005,573.046188 70.4464127,547.638045 93.0802226,586.630877 C113.10702,621.132428 100.888958,664.109036 121.433671,697.292547 C135.672037,720.290142 200.376098,745.373014 218.862084,716.59036 C227.536332,703.084569 229.730316,692.781581 234.188272,678.110092" id="Path"></path>
                <path d="M243.388957,550.208622 C243.388957,521.943547 264.450487,499.365084 286.339342,483.230862 C293.49478,477.956607 309.106584,473.687866 316.427527,480.833106 C317.386006,481.768582 318.343931,483.640149 317.523454,484.698741 C311.386642,492.616551 310.617722,476.424255 314.411685,472.391146 C325.995789,460.076854 345.323238,457.059601 348.528232,440.745416" id="Path-2"></path>
                <path d="M841.77007,285.26306 C842.766596,302.395124 891.136516,315.137545 868.422307,342.719685 C843.763497,372.663178 803.551159,380.452515 769.433236,393.063814 C755.870793,398.077016 675.403546,413.273926 675.499482,429" id="Path-3"></path>
                <path d="M673.081477,564.604685 C673.522795,585.123348 672.572389,582.356453 682.142255,611.068137 C685.640186,621.562691 704.17934,629.037936 713.324634,629.797939 C760.244869,633.697164 761.933822,624.1713 800.193043,645.573401 C824.306188,659.062227 846.237336,679.556685 874.947455,683.17383 C883.534125,684.255652 892.303949,684.880237 900.90131,683.886947 C912.177991,682.584104 927.724021,674.126018 936.503215,667.727961 C944.203974,662.11584 951.695423,656.11289 958.35515,649.297788 C967.617503,639.81934 970.392408,622.820211 971.224211,610.187228 C973.681315,572.870052 978.532476,533.641544 973.456447,496.043602" id="Path-4"></path>
                <path d="M966.286327,372.674401 C967.414783,355.606499 1007.87958,318.641374 1025.92446,324.359242 C1031.80983,326.224135 1010.70604,336.384773 1022.64652,321.312016 C1029.25747,312.966861 1043.95464,313.137269 1052.40566,314.354633 C1083.22162,318.793653 1128.83842,341.126663 1145.26066,298.06381 C1149.43252,287.124227 1148.72286,285.139443 1148.19402,276.059064" id="Path-5"></path>
            </g>
        </g>
    </g>
</svg>