<?xml version="1.0" encoding="UTF-8"?>
<svg width="39px" height="47px" viewBox="0 0 39 47" version="1.1" xmlns="http://www.w3.org/2000/svg" xmlns:xlink="http://www.w3.org/1999/xlink">
    <!-- Generator: Sketch 58 (84663) - https://sketch.com -->
    <title>shower-icon</title>
    <desc>Created with Sketch.</desc>
    <g id="shower-icon" stroke="none" stroke-width="1" fill="none" fill-rule="evenodd">
        <g id="icon" transform="translate(4.000000, 2.000000)">
            <path d="M15.6,43.2 C24.2156421,43.2 31.2,36.2399979 31.2,27.6544003 C31.2,21.9306685 26,12.7125351 15.6,0 C5.2,12.7125351 0,21.9306685 0,27.6544003 C0,36.2399979 6.9843579,43.2 15.6,43.2 Z" id="water-drop" fill="#96FEFF"></path>
            <g id="Shower" transform="translate(3.000000, 6.000000)" fill="#2E2F30">
                <g id="shower">
                    <path d="M12.2352941,9.75238095 C17.4332682,9.75238095 21.6470588,14.1186706 21.6470588,19.5047619 C21.6470588,19.8338816 21.631325,20.1591934 21.6005943,20.4799339 L2.8699939,20.4799339 C2.8392632,20.1591934 2.82352941,19.8338816 2.82352941,19.5047619 C2.82352941,14.1186706 7.03732,9.75238095 12.2352941,9.75238095 Z" id="Combined-Shape"></path>
                    <path d="M24.4705882,0 L24.4699412,3.9 L15.3976471,3.90095238 C14.7349054,3.90095238 14.1898043,4.40463204 14.1242556,5.05007982 L14.1176471,5.18095238 L14.1169412,15.603 L11.6329412,15.6038095 C10.9260167,15.6038095 10.3529412,15.030734 10.3529412,14.3238095 L10.3529412,3.84 C10.3529412,1.71922656 12.0721677,3.89579761e-16 14.1929412,0 L24.4705882,0 Z" id="Combined-Shape"></path>
                    <path d="M0.941176471,29.2571429 C1.56862745,30.0562328 1.88235294,30.6606027 1.88235294,31.0702524 C1.88235294,31.6847271 1.46097388,32.1828571 0.941176471,32.1828571 C0.421379059,32.1828571 0,31.6847271 0,31.0702524 C0,30.6606027 0.31372549,30.0562328 0.941176471,29.2571429 Z M4.70588235,29.2571429 C5.33333333,30.0562328 5.64705882,30.6606027 5.64705882,31.0702524 C5.64705882,31.6847271 5.22567976,32.1828571 4.70588235,32.1828571 C4.18608494,32.1828571 3.76470588,31.6847271 3.76470588,31.0702524 C3.76470588,30.6606027 4.07843137,30.0562328 4.70588235,29.2571429 Z M8.47058824,29.2571429 C9.09803922,30.0562328 9.41176471,30.6606027 9.41176471,31.0702524 C9.41176471,31.6847271 8.99038565,32.1828571 8.47058824,32.1828571 C7.95079082,32.1828571 7.52941176,31.6847271 7.52941176,31.0702524 C7.52941176,30.6606027 7.84313725,30.0562328 8.47058824,29.2571429 Z M12.2352941,29.2571429 C12.8627451,30.0562328 13.1764706,30.6606027 13.1764706,31.0702524 C13.1764706,31.6847271 12.7550915,32.1828571 12.2352941,32.1828571 C11.7154967,32.1828571 11.2941176,31.6847271 11.2941176,31.0702524 C11.2941176,30.6606027 11.6078431,30.0562328 12.2352941,29.2571429 Z M16,29.2571429 C16.627451,30.0562328 16.9411765,30.6606027 16.9411765,31.0702524 C16.9411765,31.6847271 16.5197974,32.1828571 16,32.1828571 C15.4802026,32.1828571 15.0588235,31.6847271 15.0588235,31.0702524 C15.0588235,30.6606027 15.372549,30.0562328 16,29.2571429 Z M19.7647059,29.2571429 C20.3921569,30.0562328 20.7058824,30.6606027 20.7058824,31.0702524 C20.7058824,31.6847271 20.2845033,32.1828571 19.7647059,32.1828571 C19.2449085,32.1828571 18.8235294,31.6847271 18.8235294,31.0702524 C18.8235294,30.6606027 19.1372549,30.0562328 19.7647059,29.2571429 Z M23.5294118,29.2571429 C24.1568627,30.0562328 24.4705882,30.6606027 24.4705882,31.0702524 C24.4705882,31.6847271 24.0492092,32.1828571 23.5294118,32.1828571 C23.0096144,32.1828571 22.5882353,31.6847271 22.5882353,31.0702524 C22.5882353,30.6606027 22.9019608,30.0562328 23.5294118,29.2571429 Z M2.82352941,25.3561905 C3.45098039,26.1552805 3.76470588,26.7596503 3.76470588,27.1693001 C3.76470588,27.7837747 3.34332682,28.2819048 2.82352941,28.2819048 C2.303732,28.2819048 1.88235294,27.7837747 1.88235294,27.1693001 C1.88235294,26.7596503 2.19607843,26.1552805 2.82352941,25.3561905 Z M6.58823529,25.3561905 C7.21568627,26.1552805 7.52941176,26.7596503 7.52941176,27.1693001 C7.52941176,27.7837747 7.10803271,28.2819048 6.58823529,28.2819048 C6.06843788,28.2819048 5.64705882,27.7837747 5.64705882,27.1693001 C5.64705882,26.7596503 5.96078431,26.1552805 6.58823529,25.3561905 Z M10.3529412,25.3561905 C10.9803922,26.1552805 11.2941176,26.7596503 11.2941176,27.1693001 C11.2941176,27.7837747 10.8727386,28.2819048 10.3529412,28.2819048 C9.83314376,28.2819048 9.41176471,27.7837747 9.41176471,27.1693001 C9.41176471,26.7596503 9.7254902,26.1552805 10.3529412,25.3561905 Z M14.1176471,25.3561905 C14.745098,26.1552805 15.0588235,26.7596503 15.0588235,27.1693001 C15.0588235,27.7837747 14.6374445,28.2819048 14.1176471,28.2819048 C13.5978496,28.2819048 13.1764706,27.7837747 13.1764706,27.1693001 C13.1764706,26.7596503 13.4901961,26.1552805 14.1176471,25.3561905 Z M17.8823529,25.3561905 C18.5098039,26.1552805 18.8235294,26.7596503 18.8235294,27.1693001 C18.8235294,27.7837747 18.4021504,28.2819048 17.8823529,28.2819048 C17.3625555,28.2819048 16.9411765,27.7837747 16.9411765,27.1693001 C16.9411765,26.7596503 17.254902,26.1552805 17.8823529,25.3561905 Z M21.6470588,25.3561905 C22.2745098,26.1552805 22.5882353,26.7596503 22.5882353,27.1693001 C22.5882353,27.7837747 22.1668562,28.2819048 21.6470588,28.2819048 C21.1272614,28.2819048 20.7058824,27.7837747 20.7058824,27.1693001 C20.7058824,26.7596503 21.0196078,26.1552805 21.6470588,25.3561905 Z M4.70588235,21.4552381 C5.33333333,22.2543281 5.64705882,22.858698 5.64705882,23.2683477 C5.64705882,23.8828223 5.22567976,24.3809524 4.70588235,24.3809524 C4.18608494,24.3809524 3.76470588,23.8828223 3.76470588,23.2683477 C3.76470588,22.858698 4.07843137,22.2543281 4.70588235,21.4552381 Z M8.47058824,21.4552381 C9.09803922,22.2543281 9.41176471,22.858698 9.41176471,23.2683477 C9.41176471,23.8828223 8.99038565,24.3809524 8.47058824,24.3809524 C7.95079082,24.3809524 7.52941176,23.8828223 7.52941176,23.2683477 C7.52941176,22.858698 7.84313725,22.2543281 8.47058824,21.4552381 Z M12.2352941,21.4552381 C12.8627451,22.2543281 13.1764706,22.858698 13.1764706,23.2683477 C13.1764706,23.8828223 12.7550915,24.3809524 12.2352941,24.3809524 C11.7154967,24.3809524 11.2941176,23.8828223 11.2941176,23.2683477 C11.2941176,22.858698 11.6078431,22.2543281 12.2352941,21.4552381 Z M16,21.4552381 C16.627451,22.2543281 16.9411765,22.858698 16.9411765,23.2683477 C16.9411765,23.8828223 16.5197974,24.3809524 16,24.3809524 C15.4802026,24.3809524 15.0588235,23.8828223 15.0588235,23.2683477 C15.0588235,22.858698 15.372549,22.2543281 16,21.4552381 Z M19.7647059,21.4552381 C20.3921569,22.2543281 20.7058824,22.858698 20.7058824,23.2683477 C20.7058824,23.8828223 20.2845033,24.3809524 19.7647059,24.3809524 C19.2449085,24.3809524 18.8235294,23.8828223 18.8235294,23.2683477 C18.8235294,22.858698 19.1372549,22.2543281 19.7647059,21.4552381 Z" id="Combined-Shape"></path>
                </g>
            </g>
        </g>
    </g>
</svg>