<?xml version="1.0" encoding="UTF-8"?>
<svg width="39px" height="47px" viewBox="0 0 39 47" version="1.1" xmlns="http://www.w3.org/2000/svg" xmlns:xlink="http://www.w3.org/1999/xlink">
    <!-- Generator: Sketch 58 (84663) - https://sketch.com -->
    <title>toilet-icon</title>
    <desc>Created with Sketch.</desc>
    <g id="toilet-icon" stroke="none" stroke-width="1" fill="none" fill-rule="evenodd">
        <g id="icon" transform="translate(4.000000, 1.000000)">
            <path d="M15.6,43.2 C24.2156421,43.2 31.2,36.2399979 31.2,27.6544003 C31.2,21.9306685 26,12.7125351 15.6,0 C5.2,12.7125351 0,21.9306685 0,27.6544003 C0,36.2399979 6.9843579,43.2 15.6,43.2 Z" id="water-drop" fill="#96FEFF"></path>
            <g id="Toilet" transform="translate(5.600000, 1.400000)" fill="#2E2F30">
                <g id="noun_Toilet_1121753" transform="translate(0.000000, 9.882353)">
                    <g id="Group" fill-rule="nonzero">
                        <g id="Path">
                            <g>
                                <path d="M19.1956671,13.2933969 L0.978815484,13.2933969 C0.439460646,13.2933969 0.000596129033,13.835173 2.83870968e-05,14.5010842 L20.1744542,14.5010842 C20.1738865,13.835173 19.7350219,13.2933969 19.1956671,13.2933969"></path>
                                <path d="M0,16.0737076 C0,20.358122 2.21930323,24.1081243 5.52270967,25.405231 C5.69956129,25.4750131 5.8196387,25.677697 5.8196387,25.9066807 L5.8196387,32.5728059 L14.3547871,32.5728059 L14.3547871,25.9066807 C14.3547871,25.677697 14.4748645,25.4750131 14.6517161,25.405231 C17.9551226,24.1081243 20.1744258,20.358122 20.1744258,16.0737076 L20.1744258,15.5533221 L0,15.5533221 L0,16.0737076 Z"></path>
                                <path d="M2.32197935,1.49922945 L17.7077858,1.49922945 L17.7177213,1.38070497 C17.7483794,1.02407954 17.6575407,0.68042869 17.4633729,0.413573282 C17.2686374,0.147068539 17.0017987,0.000140265655 16.7111148,0.000140265655 L3.31865033,0.000140265655 C3.02825033,0.000140265655 2.76112774,0.147068539 2.56667613,0.413222617 C2.37222451,0.680078025 2.28166968,1.02407954 2.31204387,1.38070497 L2.32197935,1.49922945 Z"></path>
                                <polygon points="16.7974684 12.2414045 17.6187071 2.55115173 2.41117161 2.55115173 3.23241032 12.2414045"></polygon>
                            </g>
                        </g>
                    </g>
                </g>
            </g>
        </g>
    </g>
</svg>